<svg xmlns="http://www.w3.org/2000/svg" xmlns:xlink="http://www.w3.org/1999/xlink" width="108" height="108" viewBox="0 0 108 108">
  <defs>
    <filter id="Trazado_904820" x="0" y="0" width="108" height="108" filterUnits="userSpaceOnUse">
      <feOffset dy="3" input="SourceAlpha"/>
      <feGaussianBlur stdDeviation="3" result="blur"/>
      <feFlood flood-opacity="0.161"/>
      <feComposite operator="in" in2="blur"/>
      <feComposite in="SourceGraphic"/>
    </filter>
  </defs>
  <g id="Grupo_1240733" data-name="Grupo 1240733" transform="translate(-196 -478)">
    <g id="Grupo_1226529" data-name="Grupo 1226529" transform="translate(0 -26)">
      <g id="Grupo_1211686" data-name="Grupo 1211686" transform="translate(205 510)">
        <g id="Grupo_1173585" data-name="Grupo 1173585" transform="translate(0 0)">
          <g id="Grupo_1173428" data-name="Grupo 1173428">
            <g id="Grupo_1171958" data-name="Grupo 1171958">
              <g id="Grupo_1167341" data-name="Grupo 1167341">
                <g id="Grupo_1166792" data-name="Grupo 1166792">
                  <g transform="matrix(1, 0, 0, 1, -9, -6)" filter="url(#Trazado_904820)">
                    <g id="Trazado_904820-2" data-name="Trazado 904820" transform="translate(9 6)" fill="#fceefb">
                      <path d="M 44.99999618530273 88.50003814697266 C 39.12687301635742 88.50003814697266 33.43022155761719 87.35011291503906 28.06829643249512 85.08219909667969 C 22.88852119445801 82.89134979248047 18.23629570007324 79.75462341308594 14.24084663391113 75.75917053222656 C 10.24540901184082 71.76372528076172 7.108683586120605 67.11149597167969 4.917821407318115 61.93172454833984 C 2.649921178817749 56.56979751586914 1.499996185302734 50.87314605712891 1.499996185302734 45.00002288818359 C 1.499996185302734 39.12689971923828 2.649921178817749 33.43024826049805 4.917821407318115 28.06832313537598 C 7.108683586120605 22.88854789733887 10.24540901184082 18.2363224029541 14.24084663391113 14.24087333679199 C 18.23629570007324 10.24543571472168 22.88852119445801 7.108710289001465 28.06829643249512 4.917848110198975 C 33.43022155761719 2.649947881698608 39.12687301635742 1.500022888183594 44.99999618530273 1.500022888183594 C 50.87311935424805 1.500022888183594 56.56977081298828 2.649947881698608 61.93169784545898 4.917848110198975 C 67.11147308349609 7.108710289001465 71.76369476318359 10.24543571472168 75.75914764404297 14.24087333679199 C 79.75458526611328 18.2363224029541 82.89131164550781 22.88854789733887 85.08216857910156 28.06832313537598 C 87.35007476806641 33.43024826049805 88.5 39.12689971923828 88.5 45.00002288818359 C 88.5 50.87314605712891 87.35007476806641 56.56979751586914 85.08216857910156 61.93172454833984 C 82.89131164550781 67.11149597167969 79.75458526611328 71.76372528076172 75.75914764404297 75.75917053222656 C 71.76369476318359 79.75462341308594 67.11147308349609 82.89134979248047 61.93169784545898 85.08219909667969 C 56.56977081298828 87.35011291503906 50.87311935424805 88.50003814697266 44.99999618530273 88.50003814697266 Z" stroke="none"/>
                      <path d="M 44.99999618530273 3.000007629394531 C 39.32870864868164 3.000007629394531 33.82865142822266 4.110069274902344 28.65262603759766 6.299354553222656 C 23.65165710449219 8.414581298828125 19.15968322753906 11.44335174560547 15.301513671875 15.30153656005859 C 11.44333648681641 19.15970611572266 8.414566040039062 23.65166473388672 6.299339294433594 28.65265274047852 C 4.110054016113281 33.82867813110352 2.999992370605469 39.3287353515625 2.999992370605469 45.00002288818359 C 2.999992370605469 50.67131042480469 4.110054016113281 56.17135238647461 6.299339294433594 61.34739685058594 C 8.414566040039062 66.34836578369141 11.44333648681641 70.84032440185547 15.301513671875 74.69850921630859 C 19.15968322753906 78.55667877197266 23.65165710449219 81.58544921875 28.65262603759766 83.70068359375 C 33.82865142822266 85.88996887207031 39.32870864868164 87.00002288818359 44.99999618530273 87.00002288818359 C 50.67128372192383 87.00002288818359 56.17134094238281 85.88996887207031 61.34736633300781 83.70068359375 C 66.34834289550781 81.58544921875 70.84030914306641 78.55667877197266 74.69847869873047 74.69850921630859 C 78.55665588378906 70.84032440185547 81.58542633056641 66.34836578369141 83.70065307617188 61.34739685058594 C 85.88993835449219 56.17135238647461 87 50.67131042480469 87 45.00002288818359 C 87 39.3287353515625 85.88993835449219 33.82867813110352 83.70065307617188 28.65265274047852 C 81.58542633056641 23.65166473388672 78.55665588378906 19.15970611572266 74.69847869873047 15.30153656005859 C 70.84030914306641 11.44335174560547 66.34834289550781 8.414581298828125 61.34736633300781 6.299354553222656 C 56.17134094238281 4.110069274902344 50.67128372192383 3.000007629394531 44.99999618530273 3.000007629394531 M 44.99999618530273 7.62939453125e-06 C 69.85281372070312 7.62939453125e-06 90 20.14720916748047 90 45.00002288818359 C 90 69.85282135009766 69.85281372070312 90.00002288818359 44.99999618530273 90.00002288818359 C 20.14717864990234 90.00002288818359 -7.62939453125e-06 69.85282135009766 -7.62939453125e-06 45.00002288818359 C -7.62939453125e-06 20.14720916748047 20.14717864990234 7.62939453125e-06 44.99999618530273 7.62939453125e-06 Z" stroke="none" fill="#e761e1"/>
                    </g>
                  </g>
                </g>
              </g>
            </g>
          </g>
        </g>
      </g>
    </g>
    <g id="desarrollo-web_2_" data-name="desarrollo-web (2)" transform="translate(222.032 501.01)">
      <path id="Trazado_1239388" data-name="Trazado 1239388" d="M282.926,44.789H262.355a3.1,3.1,0,0,0-3.1,3.1V59.523a3.1,3.1,0,0,0,3.1,3.1h7.317l-1.183,4.774a.677.677,0,0,0,1.07.7l7.125-5.473h6.241a3.1,3.1,0,0,0,3.1-3.1V47.887a3.1,3.1,0,0,0-3.1-3.1Zm0,0" transform="translate(-230.91 -39.892)" fill="#88dbfd"/>
      <path id="Trazado_1239389" data-name="Trazado 1239389" d="M344.444,208.964l-.914,3.692a.677.677,0,0,0,1.07.7l7.125-5.473h-5.873Zm0,0" transform="translate(-305.949 -185.153)" fill="#5abfe9"/>
      <path id="Trazado_1239390" data-name="Trazado 1239390" d="M427.892,44.789h-5.873a3.1,3.1,0,0,1,3.1,3.1V59.523a3.1,3.1,0,0,1-3.1,3.1h5.873a3.1,3.1,0,0,0,3.1-3.1V47.887A3.1,3.1,0,0,0,427.892,44.789Zm0,0" transform="translate(-375.876 -39.892)" fill="#5abfe9"/>
      <path id="Trazado_1239391" data-name="Trazado 1239391" d="M50.709,250.87a7.04,7.04,0,0,0-4.307-5.935c-3.04-1.424-11.321-3.577-11.321-3.577A1.689,1.689,0,0,1,33.7,239.7v-4.733h-9V239.7a1.689,1.689,0,0,1-1.38,1.661s-8.28,2.154-11.321,3.577a7.04,7.04,0,0,0-4.307,5.935L7.5,262.155a2.253,2.253,0,0,0,2.253,2.28H48.643a2.253,2.253,0,0,0,2.253-2.28Zm0,0" transform="translate(-6.681 -209.274)" fill="#fcc18b"/>
      <path id="Trazado_1239392" data-name="Trazado 1239392" d="M216.272,250.87a7.04,7.04,0,0,0-4.307-5.935c-3.04-1.424-11.321-3.577-11.321-3.577a1.689,1.689,0,0,1-1.381-1.661v-4.733h-5.873v7.572a1.688,1.688,0,0,0,1.38,1.66s8.281,2.154,11.321,3.578a7.039,7.039,0,0,1,4.307,5.934l.178,10.726h3.629a2.253,2.253,0,0,0,2.253-2.28Zm0,0" transform="translate(-172.245 -209.274)" fill="#eaab65"/>
      <path id="Trazado_1239393" data-name="Trazado 1239393" d="M96.046,125.367H94.865a1.826,1.826,0,0,0-1.8,2.2l.464,2.555c.36,1.894,2.519,1.028,2.519,1.028Zm0,0" transform="translate(-82.861 -111.66)" fill="#eaab65"/>
      <path id="Trazado_1239394" data-name="Trazado 1239394" d="M291.269,125.367h1.182a1.826,1.826,0,0,1,1.8,2.2l-.464,2.555c-.36,1.894-2.519,1.028-2.519,1.028Zm0,0" transform="translate(-259.418 -111.66)" fill="#fcc18b"/>
      <path id="Trazado_1239395" data-name="Trazado 1239395" d="M134.517,14.59a9.307,9.307,0,0,0-13.1,0,9.909,9.909,0,0,0-3.022,7.281l0,9.684c0,4.578,5.951,9.32,9.57,9.32s9.57-4.741,9.57-9.32l0-9.684a9.911,9.911,0,0,0-3.022-7.281Zm0,0" transform="translate(-105.449 -10.594)" fill="#fcc18b"/>
      <path id="Trazado_1239396" data-name="Trazado 1239396" d="M188.569,14.59a9.667,9.667,0,0,0-6.55-2.7,9.4,9.4,0,0,0-2.937.5,10.175,10.175,0,0,1,3.614,2.2,9.909,9.909,0,0,1,3.022,7.281l0,9.684c0,3.464-3.407,7.021-6.633,8.547a7.119,7.119,0,0,0,2.936.772c3.619,0,9.57-4.741,9.57-9.32l0-9.684a9.909,9.909,0,0,0-3.022-7.281Zm0,0" transform="translate(-159.501 -10.594)" fill="#eaab65"/>
      <path id="Trazado_1239397" data-name="Trazado 1239397" d="M118.681,7.5H106.838a5.517,5.517,0,0,0-5.517,5.517v7.613a3.809,3.809,0,0,1,2.5.931.323.323,0,0,0,.549-.232V15.364a2.439,2.439,0,0,1,2.439-2.439h2.216a2.517,2.517,0,0,1,1.594.569l.217.178a3.046,3.046,0,0,0,3.855,0l.217-.178a2.517,2.517,0,0,1,1.594-.569h2.216a2.439,2.439,0,0,1,2.439,2.439v5.967a.323.323,0,0,0,.549.232,3.807,3.807,0,0,1,2.5-.932V13.018A5.518,5.518,0,0,0,118.681,7.5Zm0,0" transform="translate(-90.242 -6.68)" fill="#426175"/>
      <path id="Trazado_1239398" data-name="Trazado 1239398" d="M243.412,7.5h-2.048a8.322,8.322,0,0,1,1.693,5.425h.389a2.439,2.439,0,0,1,2.439,2.439v5.967a.323.323,0,0,0,.549.232,3.808,3.808,0,0,1,2.5-.932V13.018A5.518,5.518,0,0,0,243.412,7.5Zm0,0" transform="translate(-214.973 -6.68)" fill="#2c4456"/>
      <path id="Trazado_1239399" data-name="Trazado 1239399" d="M46.4,304.5a66.952,66.952,0,0,0-7.967-2.659l-.574.218a24.456,24.456,0,0,1-17.323,0l-.574-.218A66.953,66.953,0,0,0,12,304.5a7.04,7.04,0,0,0-4.307,5.935L7.5,321.721A2.253,2.253,0,0,0,9.755,324H48.643a2.253,2.253,0,0,0,2.253-2.28l-.187-11.284A7.04,7.04,0,0,0,46.4,304.5Zm0,0" transform="translate(-6.681 -268.841)" fill="#33bca5"/>
      <path id="Trazado_1239400" data-name="Trazado 1239400" d="M81.361,321.174H53.337a1.625,1.625,0,0,1-1.62-1.509l-1.146-16.081a1.625,1.625,0,0,1,1.62-1.74H82.507a1.625,1.625,0,0,1,1.62,1.74l-1.146,16.081a1.624,1.624,0,0,1-1.62,1.509Zm0,0" transform="translate(-45.037 -268.842)" fill="#f2f2f2"/>
      <path id="Trazado_1239401" data-name="Trazado 1239401" d="M294.5,301.844h-5.916a1.625,1.625,0,0,1,1.62,1.74l-1.254,17.59h4.4a1.624,1.624,0,0,0,1.62-1.509l1.146-16.081a1.625,1.625,0,0,0-1.62-1.74Zm0,0" transform="translate(-257.032 -268.841)" fill="#cdd6df"/>
      <path id="Trazado_1239402" data-name="Trazado 1239402" d="M81.4,481.465H49.769a1.414,1.414,0,0,1,0-2.828H81.4a1.414,1.414,0,0,1,0,2.828Zm0,0" transform="translate(-43.067 -426.304)" fill="#cdd6df"/>
      <path id="Trazado_1239403" data-name="Trazado 1239403" d="M189.768,377.739a2.263,2.263,0,1,1-2.263-2.263A2.263,2.263,0,0,1,189.768,377.739Zm0,0" transform="translate(-164.988 -334.423)" fill="#fff"/>
      <path id="Trazado_1239404" data-name="Trazado 1239404" d="M340.146,111.021a.766.766,0,0,0-.689-.739.3.3,0,0,0-.192.051L336.693,112a.669.669,0,0,0,0,1.134l2.572,1.671a.3.3,0,0,0,.192.051.766.766,0,0,0,.689-.739.464.464,0,0,0-.182-.4l-1.783-1.154,1.783-1.154a.465.465,0,0,0,.182-.4Zm0,0" transform="translate(-299.599 -98.223)"/>
      <path id="Trazado_1239405" data-name="Trazado 1239405" d="M384.59,85.367a.446.446,0,0,0-.425.253l-3.555,7.3a.455.455,0,0,0-.051.193.56.56,0,0,0,.568.536.508.508,0,0,0,.456-.253l3.565-7.3a.44.44,0,0,0,.041-.193.581.581,0,0,0-.6-.536Zm0,0" transform="translate(-338.949 -76.033)"/>
      <path id="Trazado_1239406" data-name="Trazado 1239406" d="M436.07,112l-2.572-1.671a.306.306,0,0,0-.193-.051.766.766,0,0,0-.689.739.464.464,0,0,0,.182.4l1.782,1.154-1.782,1.154a.464.464,0,0,0-.182.4.766.766,0,0,0,.689.739.306.306,0,0,0,.193-.051l2.572-1.671a.669.669,0,0,0,0-1.134Zm0,0" transform="translate(-385.315 -98.223)"/>
      <path id="Trazado_1239407" data-name="Trazado 1239407" d="M52.016,4.077H34.36A6.349,6.349,0,0,0,28.439,0H16.6a6.345,6.345,0,0,0-6.337,6.337v7.2A2.674,2.674,0,0,0,9.4,16.052l.466,2.562a2.231,2.231,0,0,0,1,1.556,2.411,2.411,0,0,0,1.268.336v.455c0,2.31,1.347,4.855,3.7,6.984a15.1,15.1,0,0,0,1.371,1.1v1.374a.869.869,0,0,1-.71.854l-.057.012c-.014,0-1.422.371-3.262.893H7.154A2.444,2.444,0,0,0,4.716,34.8l.016.231A7.851,7.851,0,0,0,.189,41.548v.035L0,52.87a3.072,3.072,0,0,0,3.073,3.11H41.962a3.073,3.073,0,0,0,3.073-3.114l-.187-11.284c0-.012,0-.023,0-.035a7.891,7.891,0,0,0-4.778-6.629l-.162-.074,0-.043a2.444,2.444,0,0,0-2.438-2.619h-5.6c-1.84-.522-3.248-.889-3.262-.892l-.057-.013a.869.869,0,0,1-.71-.854V29.05a15.173,15.173,0,0,0,1.371-1.1,11.979,11.979,0,0,0,3.177-4.4h5.328l-.931,3.756a1.48,1.48,0,0,0,.633,1.613,1.479,1.479,0,0,0,1.732-.065l6.9-5.3h5.962a3.922,3.922,0,0,0,3.918-3.918V8a3.923,3.923,0,0,0-3.918-3.918ZM32.909,14.95a3.538,3.538,0,0,1,.8-.168,1.058,1.058,0,0,1,.311.977l-.463,2.549c-.067.356-.2.44-.249.468a.8.8,0,0,1-.4.091ZM11.9,6.337a4.7,4.7,0,0,1,4.7-4.7H28.439a4.7,4.7,0,0,1,4.7,4.7v6.871a4.773,4.773,0,0,0-1.4.472v-5a3.263,3.263,0,0,0-3.259-3.259H26.257a3.35,3.35,0,0,0-2.114.754l-.217.178a2.226,2.226,0,0,1-2.818,0l-.217-.178a3.349,3.349,0,0,0-2.114-.754H16.562A3.262,3.262,0,0,0,13.3,8.684v5a4.77,4.77,0,0,0-1.4-.472Zm-.176,12.439c-.045-.028-.182-.112-.248-.461l-.464-2.555a1.06,1.06,0,0,1,.31-.977,3.539,3.539,0,0,1,.8.167v3.917a.8.8,0,0,1-.4-.091ZM4.468,53.746a2.234,2.234,0,0,0,.08.594H3.074a1.433,1.433,0,0,1-1.433-1.447l.187-11.266a6.019,6.019,0,0,1,3.033-4.792l1,14.047a2.425,2.425,0,0,0,.17.734,2.237,2.237,0,0,0-1.564,2.131Zm34.294-2.865,1.017-14.273a6.106,6.106,0,0,1,3.428,5.019l.187,11.263a1.433,1.433,0,0,1-1.433,1.45H40.487a2.234,2.234,0,0,0-1.862-2.809,2.414,2.414,0,0,0,.137-.65Zm.165,2.865a.6.6,0,0,1-.594.594H6.7a.594.594,0,0,1,0-1.188H38.334A.6.6,0,0,1,38.927,53.746Zm-.868-19.667a.8.8,0,0,1,.214.606L37.126,50.766a.807.807,0,0,1-.8.747H8.3a.808.808,0,0,1-.8-.747L6.352,34.685a.8.8,0,0,1,.8-.862H37.47a.8.8,0,0,1,.589.256Zm-11.14-1.9h-8.8a2.506,2.506,0,0,0,.721-1.759v-.367A8.312,8.312,0,0,0,22.518,31.1,8.315,8.315,0,0,0,26.2,30.057v.367a2.506,2.506,0,0,0,.721,1.759Zm1.189-5.452c-1.831,1.659-4.025,2.731-5.591,2.731s-3.76-1.072-5.591-2.731c-2.007-1.818-3.158-3.921-3.158-5.769l0-5.166H13.8a1.146,1.146,0,0,0,1.145-1.145V8.684a1.62,1.62,0,0,1,1.619-1.619h2.216a1.7,1.7,0,0,1,1.075.384l.218.178a3.866,3.866,0,0,0,4.893,0l.217-.178a1.7,1.7,0,0,1,1.075-.384h2.216a1.621,1.621,0,0,1,1.619,1.619V14.65a1.146,1.146,0,0,0,1.176,1.145v5.167c0,1.848-1.151,3.951-3.158,5.769Zm26.186-7.1a2.281,2.281,0,0,1-2.278,2.278H45.775a.818.818,0,0,0-.5.17l-6.8,5.225,1.084-4.377a.82.82,0,0,0-.8-1.017H32.834a6.336,6.336,0,0,0,.073-.948v-.455a2.41,2.41,0,0,0,1.268-.336,2.234,2.234,0,0,0,1-1.563l.464-2.555a2.674,2.674,0,0,0-.861-2.519v-7.2c0-.209-.01-.416-.03-.62h17.27A2.281,2.281,0,0,1,54.294,8Zm0,0" transform="translate(0)"/>
      <path id="Trazado_1239408" data-name="Trazado 1239408" d="M180.825,374.142a3.083,3.083,0,1,0-3.083-3.083A3.086,3.086,0,0,0,180.825,374.142Zm0-4.526a1.443,1.443,0,1,1-1.443,1.443A1.444,1.444,0,0,1,180.825,369.616Zm0,0" transform="translate(-158.308 -327.743)"/>
    </g>
  </g>
</svg>
