<svg xmlns="http://www.w3.org/2000/svg" xmlns:xlink="http://www.w3.org/1999/xlink" width="295" height="317" viewBox="0 0 295 317">
  <defs>
    <clipPath id="clip-path">
      <rect id="Rectángulo_425024" data-name="Rectángulo 425024" width="295" height="317" transform="translate(1128.344 2909)" fill="#fff" stroke="#707070" stroke-width="1"/>
    </clipPath>
    <clipPath id="clip-path-2">
      <rect id="Rectángulo_425061" data-name="Rectángulo 425061" width="360.044" height="334.328" fill="none"/>
    </clipPath>
    <clipPath id="clip-path-3">
      <rect id="Rectángulo_425026" data-name="Rectángulo 425026" width="4.466" height="4.467" fill="none"/>
    </clipPath>
    <clipPath id="clip-path-4">
      <rect id="Rectángulo_425027" data-name="Rectángulo 425027" width="7.008" height="7.008" fill="none"/>
    </clipPath>
    <clipPath id="clip-path-5">
      <rect id="Rectángulo_425030" data-name="Rectángulo 425030" width="13.766" height="30.27" fill="none"/>
    </clipPath>
    <clipPath id="clip-path-6">
      <rect id="Rectángulo_425031" data-name="Rectángulo 425031" width="5.091" height="5.091" fill="none"/>
    </clipPath>
    <clipPath id="clip-path-7">
      <rect id="Rectángulo_425032" data-name="Rectángulo 425032" width="47.313" height="44.67" fill="none"/>
    </clipPath>
    <clipPath id="clip-path-8">
      <rect id="Rectángulo_425058" data-name="Rectángulo 425058" width="41.179" height="23.091" fill="none"/>
    </clipPath>
    <clipPath id="clip-path-9">
      <rect id="Rectángulo_425059" data-name="Rectángulo 425059" width="14.499" height="17.887" fill="none"/>
    </clipPath>
  </defs>
  <g id="Enmascarar_grupo_1159145" data-name="Enmascarar grupo 1159145" transform="translate(-1128.344 -2909)" clip-path="url(#clip-path)">
    <g id="Grupo_1240758" data-name="Grupo 1240758" transform="translate(1094.15 2900.336)">
      <g id="Grupo_1240757" data-name="Grupo 1240757" transform="translate(0)" clip-path="url(#clip-path-2)">
        <path id="Trazado_1239423" data-name="Trazado 1239423" d="M1661.458,296.453a93.378,93.378,0,0,0-32.517-9.882c-12.57-1.247-25.635-1.14-38.018,1.525-21.231,4.568-42.016,18.746-45.82,41.464-1.8,10.77.744,22.832,8.869,30.561,1.778,1.691,4.254,3.891,6.87,3.921,3.873.045,2.01-5.181,1.183-7.33A27.225,27.225,0,0,0,1552.8,344.9c-9.349-6.993-21.368-7.9-32.494-5.495a76.863,76.863,0,0,0-16.991,5.925,50.632,50.632,0,0,0-13.4,8.994,34.618,34.618,0,0,0-8.837,14.524,103.05,103.05,0,0,0-3.263,16.123c-1.377,9.093-2.706,18.246-2.774,27.461-.063,8.562.906,17.686,5.431,25.157a27.556,27.556,0,0,0,19.349,12.834c4.654.581,10.108-.695,12.835-4.833,2.134-3.238,1.222-7.081-2.537-8.469-2.758-1.019-5.924-.769-8.759-.265a33.754,33.754,0,0,0-11.477,4.119c-6.3,3.783-10.6,9.934-13.15,16.732-4.146,11.072-4.078,23.017-3.6,34.654.938,22.843,6.38,47.17,24.3,62.873a50.356,50.356,0,0,0,12.822,8.211c.3.132.04.569-.256.438-10.023-4.429-18.192-12.2-24.07-21.361-6.721-10.48-10.287-22.652-12-34.9a179.867,179.867,0,0,1-1.573-23.657,84.524,84.524,0,0,1,2.04-20.327c1.715-7.118,4.825-14.111,10.179-19.243a31.385,31.385,0,0,1,21.37-8.458c3.742.052,8.549,1.633,8.414,6.158-.124,4.132-4.007,7.17-7.643,8.3-6.682,2.077-14.013-.81-19.443-4.694-7.1-5.081-10.642-13.232-11.967-21.647-1.51-9.586-.666-19.436.557-29,.6-4.726,1.323-9.439,2.054-14.147.931-6,2.128-12.053,4.79-17.554,4.971-10.272,15.063-16.51,25.314-20.635,11.379-4.579,24.659-7.215,36.524-2.851,8.973,3.3,17.711,11.052,19.136,20.959.269,1.869-.454,3.6-2.521,3.722-2.085.128-3.981-1.158-5.555-2.361A29.325,29.325,0,0,1,1546.242,349c-3.882-10.454-2.425-22.4,2.54-32.227,5.037-9.974,13.822-17.645,23.657-22.71,11.055-5.692,23.451-8.075,35.8-8.583,12.691-.522,25.4.388,37.578,4.146a100.822,100.822,0,0,1,15.9,6.387c.291.148.035.586-.256.438" transform="translate(-1426.315 -261.215)" fill="#2d2e2f"/>
        <path id="Trazado_1239424" data-name="Trazado 1239424" d="M3291.548,3462.027a5.3,5.3,0,1,0,5.3-5.3,5.3,5.3,0,0,0-5.3,5.3" transform="translate(-3220.472 -3164.392)" fill="#e44133"/>
        <path id="Trazado_1239425" data-name="Trazado 1239425" d="M3265.629,2028.113a4.669,4.669,0,1,0,4.669-4.669,4.669,4.669,0,0,0-4.669,4.669" transform="translate(-3191.096 -1852.323)" fill="#66c16e"/>
        <path id="Trazado_1239426" data-name="Trazado 1239426" d="M3459.91,2189.348a2.233,2.233,0,1,0,2.233-2.233,2.233,2.233,0,0,0-2.233,2.233" transform="translate(-3396.935 -2002.152)" fill="#edb104"/>
        <g id="Grupo_1240738" data-name="Grupo 1240738" transform="translate(62.975 184.963)" opacity="0.4">
          <g id="Grupo_1240737" data-name="Grupo 1240737" transform="translate(0)">
            <g id="Grupo_1240736" data-name="Grupo 1240736" clip-path="url(#clip-path-3)">
              <path id="Trazado_1239427" data-name="Trazado 1239427" d="M3459.91,2189.348a2.233,2.233,0,1,0,2.233-2.233,2.233,2.233,0,0,0-2.233,2.233" transform="translate(-3459.91 -2187.114)" fill="#ec7418"/>
            </g>
          </g>
        </g>
        <path id="Trazado_1239428" data-name="Trazado 1239428" d="M2718.285,1098.822a4.569,4.569,0,1,0,4.569-4.569,4.569,4.569,0,0,0-4.569,4.569" transform="translate(-2597.263 -1001.713)" fill="#e44133"/>
        <path id="Trazado_1239429" data-name="Trazado 1239429" d="M1550.827,320.26a3.584,3.584,0,1,0,3.583-3.584,3.584,3.584,0,0,0-3.583,3.584" transform="translate(-1329.103 -289.895)" fill="#66c16e"/>
        <path id="Trazado_1239430" data-name="Trazado 1239430" d="M3288.041,940.743a3.5,3.5,0,1,0,3.5-3.5,3.5,3.5,0,0,0-3.5,3.5" transform="translate(-3213.073 -857.977)" fill="#edb104"/>
        <g id="Grupo_1240741" data-name="Grupo 1240741" transform="translate(74.968 79.262)" opacity="0.4">
          <g id="Grupo_1240740" data-name="Grupo 1240740" transform="translate(0)">
            <g id="Grupo_1240739" data-name="Grupo 1240739" clip-path="url(#clip-path-4)">
              <path id="Trazado_1239431" data-name="Trazado 1239431" d="M3288.041,940.743a3.5,3.5,0,1,0,3.5-3.5,3.5,3.5,0,0,0-3.5,3.5" transform="translate(-3288.041 -937.239)" fill="#ec7418"/>
            </g>
          </g>
        </g>
        <path id="Trazado_1239432" data-name="Trazado 1239432" d="M471.414,3813.857H707.786a.3.3,0,0,0,0-.592H471.414a.3.3,0,0,0,0,.592" transform="translate(-387.881 -3490.779)" fill="#2d2e2f"/>
        <path id="Trazado_1239433" data-name="Trazado 1239433" d="M658.72,632.982c1.986,6.14,3.347,12.671,7.141,17.892,4.774,6.57,12.859,10.119,20.922,11.087,4.99.6,10.425.444,14.491,3.4,3.333,2.421,4.488,5.863,5.063,9.7.666,4.453.278,15.674-8.815,22.334-2.285,1.673-5.43,1.59-8.246,1.894-5.345.578-10.824.7-16.026-.658s-10.137-4.352-12.971-8.922c-3.029-4.885-3.363-10.938-3.244-16.685s.585-11.634-1.116-17.124c-1.764-5.692-5.624-10.369-8.262-15.641-2.21-4.416-4.63-11.629,1.09-14.567,2-1.027,5.082-.953,6.609.745a17.587,17.587,0,0,1,3.365,6.544" transform="translate(-401.07 -572.163)" fill="#f7bb72"/>
        <path id="Trazado_1239434" data-name="Trazado 1239434" d="M726.973,772.981c.274-2.3.614-5.169-.417-7.634-1.137-2.718-3.888-4.814-7.548-5.75a35.194,35.194,0,0,0-7.036-.817c-.827-.04-1.681-.081-2.516-.143a48.2,48.2,0,0,1-11.3-2.217,19.859,19.859,0,0,1-5.048-2.3,21.215,21.215,0,0,1-5.752-6.707,77.69,77.69,0,0,1-5.892-11.743l-.55.22a78.252,78.252,0,0,0,5.938,11.833,21.732,21.732,0,0,0,5.923,6.886,20.4,20.4,0,0,0,5.2,2.376,48.79,48.79,0,0,0,11.436,2.245c.843.063,1.7.1,2.532.144a34.759,34.759,0,0,1,6.918.8c3.478.89,6.083,2.859,7.148,5.4.971,2.321.654,4.985.375,7.335Z" transform="translate(-424.795 -673.453)" fill="#f7bb72"/>
        <path id="Trazado_1239435" data-name="Trazado 1239435" d="M1205.517,716.443c-1.762-2.4-5.765-5.131-8.83-4.726a4.65,4.65,0,0,0-.521.1,21.707,21.707,0,0,0,2.423,7.768c2.638,5.271,6.5,9.948,8.262,15.64,1.6,5.172,1.282,10.7,1.14,16.124.7-2.66,1.441-5.316,1.977-8a40.97,40.97,0,0,0,.359-15.3,28.257,28.257,0,0,0-4.811-11.61" transform="translate(-952.004 -651.491)" fill="#e6ae6a"/>
        <path id="Trazado_1239436" data-name="Trazado 1239436" d="M1597.391,644.285s-6.057,1.138-7.753,6.482c-.564,1.778-.554,8.136,2.241,8.853s4-11.736,4-11.736Z" transform="translate(-1371.757 -589.798)" fill="#f7bb72"/>
        <path id="Trazado_1239437" data-name="Trazado 1239437" d="M1249.5,2090.921h62.956a8.4,8.4,0,0,0,8.405-8.4v-33.18c-22.985,5.644-46.788,5.531-71.361,0Z" transform="translate(-1066.487 -1876.025)" fill="#565ea4"/>
        <rect id="Rectángulo_425028" data-name="Rectángulo 425028" width="78.69" height="4.042" transform="translate(182.867 160.737)" fill="#a7c2ee"/>
        <rect id="Rectángulo_425029" data-name="Rectángulo 425029" width="4.042" height="63.1" transform="translate(182.85 160.725)" fill="#a7c2ee"/>
        <path id="Trazado_1239438" data-name="Trazado 1239438" d="M1277.143,2096.246s35.1,9,61.441,3.257c9.108-1.986,25.454-3.008,31.588-22.981,3.4-11.074,1.642-21.056-2.663-24.489-4.608-3.675-16.362-4.144-30.557-2.431-3.805.459-5.283.451-9.348,1.2-29.3,5.424-65.495,18.583-69.652,30.823s19.191,14.616,19.191,14.616" transform="translate(-1118.258 -1875.395)" fill="#ecb104"/>
        <path id="Trazado_1239439" data-name="Trazado 1239439" d="M2352.108,2979.433l-12.1-13.759-10.937,18.193s3.321,13.781,2.758,18.4c-.741,6.069-9.49,9.938-9.49,9.938,21.686,19.262,33.874-3.3,33.874-3.3s-1.577-4.854-1.9-6.521c-1.086-5.66-2.211-22.946-2.211-22.946" transform="translate(-2192.572 -2714.868)" fill="#f38367"/>
        <path id="Trazado_1239440" data-name="Trazado 1239440" d="M2360.194,2997.6c-.681-5.84-2.583-13.733-2.583-13.733l10.938-18.193,12.1,13.759h0s.486,7.458,1.126,14.179c-3.891.672-16.239,2.824-21.576,3.988" transform="translate(-2221.109 -2714.868)" fill="#d14a4a"/>
        <path id="Trazado_1239441" data-name="Trazado 1239441" d="M2323.564,3403.672l3.556,18.252-53.86,5.909-.131-1.2a11.007,11.007,0,0,1,7.568-11.692c5.49-1.756,12.294-4.97,16.3-10.683a1.621,1.621,0,0,1,2.2-.444c3.572,2.275,13.113,8.093,21.6-.952a1.622,1.622,0,0,1,2.77.808" transform="translate(-2159.307 -3114.62)" fill="#5bac62"/>
        <path id="Trazado_1239442" data-name="Trazado 1239442" d="M2549.469,3364.9a19.363,19.363,0,0,0,2.488-7.964,2.286,2.286,0,0,1,2.686-2.03c3.089.569,7.4,2.829,4.287,12.03-.483.25-9.46-2.036-9.46-2.036" transform="translate(-2415.569 -3071.148)" fill="#154d34"/>
        <path id="Trazado_1239443" data-name="Trazado 1239443" d="M2547.289,3458.181a.315.315,0,0,0,.076-.01,25.54,25.54,0,0,0,5.725-2.558,35.354,35.354,0,0,0,11.1-10.26.3.3,0,0,0-.485-.34,34.768,34.768,0,0,1-10.9,10.076,25.512,25.512,0,0,1-5.6,2.509.3.3,0,0,0,.075.583" transform="translate(-2419.602 -3153.555)" fill="#0f3a27"/>
        <path id="Trazado_1239444" data-name="Trazado 1239444" d="M2690.491,3512.36a.3.3,0,0,0,.188-.524c-1.192-.985-3.123-2.6-3.365-2.842a.3.3,0,0,0-.394-.1.3.3,0,0,0-.151.233c-.018.2-.018.2,1.816,1.735.848.71,1.708,1.421,1.717,1.428a.3.3,0,0,0,.188.068" transform="translate(-2557.961 -3212.116)" fill="#fff"/>
        <path id="Trazado_1239445" data-name="Trazado 1239445" d="M2628.7,3472.623a.3.3,0,0,0,.138-.558l-3.895-2.045a.3.3,0,0,0-.275.524l3.895,2.044a.293.293,0,0,0,.137.034" transform="translate(-2490.906 -3176.531)" fill="#fff"/>
        <path id="Trazado_1239446" data-name="Trazado 1239446" d="M2736.337,3546.584a.3.3,0,0,0,.293-.258c.431-3.369-4.255-10.444-4.455-10.743a.3.3,0,0,0-.493.328c.048.072,4.763,7.188,4.361,10.34a.3.3,0,0,0,.256.331.248.248,0,0,0,.038,0" transform="translate(-2607.627 -3236.459)" fill="#0f3a27"/>
        <path id="Trazado_1239447" data-name="Trazado 1239447" d="M2325.857,3554.994c-18.6,5.981-44.273,8.458-52.711,9.143a8.055,8.055,0,0,0,.148,3.425s15.937.432,26.355-1.007c19.707-2.723,27.5-4.9,27.5-4.9a13.809,13.809,0,0,0-.386-3.368,23.949,23.949,0,0,0-.911-3.292" transform="translate(-2159.342 -3254.35)" fill="#5bac62"/>
        <path id="Trazado_1239448" data-name="Trazado 1239448" d="M2285.2,3561.229h.019c.078,0,7.945-.514,18.331-1.891,9.59-1.271,23.351-3.564,34.455-7.266a.3.3,0,0,0-.187-.562c-11.058,3.687-24.778,5.973-34.341,7.24-10.367,1.375-18.217,1.883-18.3,1.888a.3.3,0,0,0,.019.592" transform="translate(-2171.395 -3251.146)" fill="#fff"/>
        <path id="Trazado_1239449" data-name="Trazado 1239449" d="M2336.6,3464.137a3.041,3.041,0,1,1-3.464-2.549,3.042,3.042,0,0,1,3.464,2.549" transform="translate(-2173.687 -3168.811)" fill="#fff"/>
        <path id="Trazado_1239450" data-name="Trazado 1239450" d="M2285,2419.376c-11.267,29.2-4.5,76.5-4.5,76.5l27.1-3.887,4.53-65.293c.145-1.49-26.224-9.661-27.129-7.315" transform="translate(-2144.771 -2214.385)" fill="#ecb104"/>
        <path id="Trazado_1239451" data-name="Trazado 1239451" d="M2433.693,2491.3l-10.614,70.4,16.448-2.328Z" transform="translate(-2284.4 -2280.611)" fill="#efa954"/>
        <path id="Trazado_1239452" data-name="Trazado 1239452" d="M2265.7,2569.135a.3.3,0,0,0,.183-.529l-7.554-5.927a.3.3,0,1,0-.365.466l7.554,5.927a.294.294,0,0,0,.182.063" transform="translate(-2096.902 -2345.897)" fill="#efa954"/>
        <path id="Trazado_1239453" data-name="Trazado 1239453" d="M1361.159,2420.031a.292.292,0,0,0,.075-.01.3.3,0,0,0,.212-.361c-1.511-5.815.694-10.883,6.553-15.065a35.023,35.023,0,0,1,9.172-4.525l4.562,8.131a.3.3,0,1,0,.516-.29l-4.679-8.339a.3.3,0,0,0-.339-.14,35.545,35.545,0,0,0-9.565,4.672,18.545,18.545,0,0,0-5.817,6.312,12.728,12.728,0,0,0-.976,9.392.3.3,0,0,0,.286.221" transform="translate(-1137.291 -2196.504)" fill="#efa954"/>
        <path id="Trazado_1239454" data-name="Trazado 1239454" d="M1421.009,2436.837a.3.3,0,0,0,.259-.439l-5.583-10.1a.3.3,0,0,0-.518.286l5.583,10.1a.3.3,0,0,0,.259.153" transform="translate(-1180.938 -2220.968)" fill="#efa954"/>
        <path id="Trazado_1239455" data-name="Trazado 1239455" d="M1192.154,2101.477s35.7,6.047,61.307,3.19c7.231-.806,25.521,2.378,32.419-17.344,3.824-10.935,2.186-22.2-1.983-25.8-4.463-3.85-16.19-4.771-30.44-3.606-3.82.312-10.076,2.139-14.168,2.735-29.484,4.292-61.381,14.156-66.007,26.228s18.871,14.6,18.871,14.6" transform="translate(-1027.165 -1883.451)" fill="#fdbd04"/>
        <path id="Trazado_1239456" data-name="Trazado 1239456" d="M2188.753,2605.42a.3.3,0,0,0,.179-.531l-4.076-3.1a.3.3,0,0,0-.358.471l4.076,3.1a.3.3,0,0,0,.179.06" transform="translate(-2013.737 -2381.701)" fill="#fc7c1a"/>
        <path id="Trazado_1239457" data-name="Trazado 1239457" d="M1527.211,1258.319a12.854,12.854,0,0,1-8.205-16.053c4.86-15.456,13.7-40.5,21.076-44.442,1.955-1.047,22.01,8.419,7.049,34.176-4.905,8.444-8.252,22.339-15,28.127a39.879,39.879,0,0,0-4.924-1.809" transform="translate(-1321.004 -1096.455)" fill="#ff8a6c"/>
        <path id="Trazado_1239458" data-name="Trazado 1239458" d="M1564.469,1238.076c3.869-18.532,13.68-36.733,19.418-43.533,1.2-1.422,11.579,9.171,9.74,28.49-.353,3.706-5.319,21.6-13.622,30.857-.561-11.349-7.819-15.893-15.536-15.814" transform="translate(-1366.107 -1093.405)" fill="#f44536"/>
        <path id="Trazado_1239459" data-name="Trazado 1239459" d="M2063.093,1344.658s-9.4-.844-13.635-2.972c1-4.789-.73-11.458,4.267-14.05.59-.1,12.2,3.572,12.2,3.572s2.118,8.1-2.833,13.45" transform="translate(-1879.655 -1215.357)" fill="#ff8a6c"/>
        <path id="Trazado_1239460" data-name="Trazado 1239460" d="M2205.438,1356.625a14.094,14.094,0,0,1-5.694-1.331c-2.869-1.495-.042-6.589,6.515-1.233.033-.133,1.393,1.163,1.157,1.911-.186.588-1.978.653-1.978.653" transform="translate(-2033.336 -1237.357)" fill="#ff8a6c"/>
        <path id="Trazado_1239461" data-name="Trazado 1239461" d="M2231.291,1395.127s-2.16-.824-4.775-2.069c-2.9-1.38-.032-5.547,5.544-2.328.027-.257-.769,4.4-.769,4.4" transform="translate(-2060.214 -1272.025)" fill="#ff8a6c"/>
        <path id="Trazado_1239462" data-name="Trazado 1239462" d="M2195.848,1308.092s-6.863-.651-6-3.095c.845-2.386.878-1.914,8.3,1.065.684,2.173-2.306,2.03-2.306,2.03" transform="translate(-2023.4 -1193.242)" fill="#ff8a6c"/>
        <path id="Trazado_1239463" data-name="Trazado 1239463" d="M2215.219,1446.5c-1.393-.373-6.531-.5-5.595-3.809.354-1.253,3.177-.568,4.2-.3a17.759,17.759,0,0,1,2.423,1.563c1.422.83,1.846.993.724,2.2a2.682,2.682,0,0,1-1.751.347" transform="translate(-2044.422 -1320.017)" fill="#ff8a6c"/>
        <path id="Trazado_1239464" data-name="Trazado 1239464" d="M2210.1,1396.456c.063,1.172,1.1,1.894,2.331,2.142,4.669.941,6.117,1.287,6.173.447.072-1.072-2.916-3.622-5.985-4.443a1.851,1.851,0,0,0-2.522,1.792l0,.061" transform="translate(-2045.465 -1276.581)" fill="#ff8a6c"/>
        <path id="Trazado_1239465" data-name="Trazado 1239465" d="M2200.679,1355.456a2.187,2.187,0,0,0,1.207-.268,1.175,1.175,0,0,0,.548-.906c.188-1.412-3.541-3.339-6.248-4.256a.3.3,0,1,0-.19.561c3.356,1.137,5.945,2.908,5.851,3.617a.59.59,0,0,1-.273.481c-.5.309-2,.369-6.311-1.1a.3.3,0,0,0-.191.56,19.24,19.24,0,0,0,5.607,1.314" transform="translate(-2028.016 -1235.841)" fill="#131313"/>
        <path id="Trazado_1239466" data-name="Trazado 1239466" d="M2189.241,1306.333a3.3,3.3,0,0,0,1.816-.426,1.836,1.836,0,0,0,.8-1.427c.12-1.089-1.671-2.153-5.806-3.452a.3.3,0,0,0-.177.565c4.977,1.564,5.431,2.495,5.395,2.823a1.227,1.227,0,0,1-.537,1c-.615.4-2.119.633-5.794-.531a.3.3,0,1,0-.179.564,15.738,15.738,0,0,0,4.48.889" transform="translate(-2016.57 -1190.989)" fill="#131313"/>
        <path id="Trazado_1239467" data-name="Trazado 1239467" d="M2213.091,1398.537a2.385,2.385,0,0,0,1.236-.271,1.185,1.185,0,0,0,.579-.9c.187-1.412-3.541-3.339-6.248-4.256a.3.3,0,1,0-.19.561c3.356,1.137,5.945,2.908,5.851,3.617a.6.6,0,0,1-.3.471c-.508.307-1.874.394-5.494-.934a.3.3,0,0,0-.2.556,15.331,15.331,0,0,0,4.768,1.155" transform="translate(-2041.61 -1275.282)" fill="#131313"/>
        <path id="Trazado_1239468" data-name="Trazado 1239468" d="M2213.51,1443.12a2.752,2.752,0,0,0,1.614-.379,1.148,1.148,0,0,0,.486-.919c.063-1.38-3.7-2.942-6.385-3.61a.3.3,0,1,0-.143.574c3.327.827,5.968,2.322,5.937,3.009a.567.567,0,0,1-.242.468c-.461.335-1.767.527-5.368-.463a.3.3,0,0,0-.157.571,17.214,17.214,0,0,0,4.259.75" transform="translate(-2042.368 -1316.574)" fill="#131313"/>
        <path id="Trazado_1239469" data-name="Trazado 1239469" d="M1784.4,1424.769l-22.175-24.475-11.662,6.153s16.419,30.489,28.844,36.968c3.6,1.877,4.586-4.913,6.577-10.016a8.337,8.337,0,0,0-1.584-8.63" transform="translate(-1574.559 -1281.872)" fill="#ff8a6c"/>
        <g id="Grupo_1240744" data-name="Grupo 1240744" transform="translate(208.883 125.172)" opacity="0.41">
          <g id="Grupo_1240743" data-name="Grupo 1240743" transform="translate(0)">
            <g id="Grupo_1240742" data-name="Grupo 1240742" clip-path="url(#clip-path-5)">
              <path id="Trazado_1239470" data-name="Trazado 1239470" d="M1638.406,1487.094a82.063,82.063,0,0,1-13.766,23.29l9.28-30.27Z" transform="translate(-1624.64 -1480.115)" fill="#c93127"/>
            </g>
          </g>
        </g>
        <path id="Trazado_1239471" data-name="Trazado 1239471" d="M1210.76,1221.4c.4-21.8,9.07-39.779,8.728-50.778-3.207-1.945-12.2-10.941-12.2-10.941s-23.727,3.411-25.028,3.7c0,0-10.636,5.3-15.1,14.091a21.648,21.648,0,0,0-1.69,4.382c-2.478,9.534,4.455,50.907,4.455,50.907s39.129,1.045,40.688-.957c-1.413-4.78-.458-5.393.139-10.4" transform="translate(-957.972 -1061.604)" fill="#ff8a6c"/>
        <path id="Trazado_1239472" data-name="Trazado 1239472" d="M1293.975,621.686c-7.172-6.777-14.027-11.131-10.673-18.576,3.94-8.745,11.7-11.054,21.071-7.956,8.884,2.937,17.58,19.732,2.376,26.923-8.917,4.217-4.865,7.084-12.774-.39" transform="translate(-1063.451 -543.624)" fill="#f7bb72"/>
        <path id="Trazado_1239473" data-name="Trazado 1239473" d="M1336.883,933.734c-1.306-.311-5.254-1.061-5.375-5.33l-.528-15.544-15.759.535.6,17.8a2.437,2.437,0,0,1-2.629,1.863c-.835,0-1.3,1.055-1.3,1.055-12.736,18.082,24.984-.384,24.984-.384" transform="translate(-1087.563 -835.661)" fill="#ff8a6c"/>
        <path id="Trazado_1239474" data-name="Trazado 1239474" d="M1425.213,923.513l.411,12.1c2.044-.068,7.768-2.811,11.434-11.62-.372-.264-8.889.013-11.844-.477" transform="translate(-1197.543 -845.412)" fill="#d14a4a"/>
        <path id="Trazado_1239475" data-name="Trazado 1239475" d="M1414.506,701.4a15.02,15.02,0,0,1-16.561,14.688c-4.552-.4-6.14-7.507-6.081-15.614s3.963-13.668,9.069-13.631,13.631,6.45,13.573,14.556" transform="translate(-1172.172 -628.758)" fill="#ff8a6c"/>
        <path id="Trazado_1239476" data-name="Trazado 1239476" d="M1516.77,832.725c-.085.558-.415.972-.736.922s-.513-.542-.427-1.1.415-.972.736-.922.513.542.427,1.1" transform="translate(-1284.918 -761.292)" fill="#131313"/>
        <path id="Trazado_1239477" data-name="Trazado 1239477" d="M1617.357,835.143c-.085.559-.415.972-.736.922s-.513-.542-.427-1.1.415-.972.736-.922.512.541.427,1.1" transform="translate(-1394.012 -763.505)" fill="#131313"/>
        <path id="Trazado_1239478" data-name="Trazado 1239478" d="M1498.182,802.856a.3.3,0,0,0,.182-.53,4.738,4.738,0,0,0-5.367-.39.3.3,0,0,0,.325.495,4.075,4.075,0,0,1,4.68.363.3.3,0,0,0,.181.062" transform="translate(-1264.685 -733.512)" fill="#131313"/>
        <path id="Trazado_1239479" data-name="Trazado 1239479" d="M1607.364,803.661a.3.3,0,0,0,.184-.528,2.731,2.731,0,0,0-3.7-.151.3.3,0,0,0,.415.422c.052-.05,1.226-1.145,2.917.193a.3.3,0,0,0,.183.064" transform="translate(-1383.246 -734.492)" fill="#131313"/>
        <g id="Grupo_1240747" data-name="Grupo 1240747" transform="translate(232.062 72.588)" opacity="0.4">
          <g id="Grupo_1240746" data-name="Grupo 1240746" transform="translate(0)">
            <g id="Grupo_1240745" data-name="Grupo 1240745" clip-path="url(#clip-path-6)">
              <path id="Trazado_1239480" data-name="Trazado 1239480" d="M1458.028,861.821a2.545,2.545,0,1,1-1.4-3.317,2.545,2.545,0,0,1,1.4,3.317" transform="translate(-1453.125 -858.316)" fill="#d14a4a"/>
            </g>
          </g>
        </g>
        <path id="Trazado_1239481" data-name="Trazado 1239481" d="M1350.269,690.921s9.528,2.674,10.406,12.929c.573-.521,4.44-2.86,4.44-2.86s-1.425-9.5-14.846-10.069" transform="translate(-1119.262 -632.49)" fill="#f7bb72"/>
        <path id="Trazado_1239482" data-name="Trazado 1239482" d="M1587.71,844.394a.3.3,0,0,0,.067-.584c-.518-.12-1.086-.284-1.276-.7a1.183,1.183,0,0,1,.066-.9,5,5,0,0,1,.31-.573c.084-.141.171-.287.25-.439a7.793,7.793,0,0,0,.649-2.657.3.3,0,1,0-.588-.07,7.234,7.234,0,0,1-.588,2.458c-.069.136-.148.267-.231.406a5.492,5.492,0,0,0-.345.642,1.712,1.712,0,0,0-.062,1.38,2.276,2.276,0,0,0,1.681,1.037.3.3,0,0,0,.067.008" transform="translate(-1362.076 -767.317)" fill="#131313"/>
        <path id="Trazado_1239483" data-name="Trazado 1239483" d="M1207.238,1788.345c.114-4.223-.592-15.536.864-24.96,11.05,6.751,43.249,5.329,43.249,5.329a53.413,53.413,0,0,0,3.128,22.121c-10.491,7.922-37.173,11.349-47.241-2.49" transform="translate(-996.524 -1614.256)" fill="#ff8a6c"/>
        <path id="Trazado_1239484" data-name="Trazado 1239484" d="M1319.606,813.627c-.995,2.443-4.168,4.951-8.552,3.166-2.23-.908-.519-4.011.476-6.454a4.378,4.378,0,1,1,8.077,3.288" transform="translate(-1070.729 -738.993)" fill="#ff8a6c"/>
        <path id="Trazado_1239485" data-name="Trazado 1239485" d="M1342.958,851.417a.294.294,0,0,0,.172-.056l4.086-2.927a.3.3,0,0,0-.345-.481l-4.086,2.927a.3.3,0,0,0,.173.537" transform="translate(-1100.844 -776.192)" fill="#131313"/>
        <path id="Trazado_1239486" data-name="Trazado 1239486" d="M1188.914,1158.156c-3.043-2.243-6.35-4.808-12.206-5.742,0,0-11.378,10.293-22.429,6.953-2.348-.71-4.192-3.49-1.258-7.624a24.38,24.38,0,0,0-10.4,5.9,21.231,21.231,0,0,0-5.894,12.286l-.036.282h-.114a17.46,17.46,0,0,0-3.384,6.011c-2.427,6.134.509,14.713.509,14.713l3.263,31.506s22.7,2.7,45.584-2.78c-2.658-20.612,5.822-44.344,8.832-52.62.894-2.457-.37-7.329-2.475-8.88" transform="translate(-927.388 -1054.342)" fill="#f44536"/>
        <g id="Grupo_1240750" data-name="Grupo 1240750" transform="translate(210.641 121.946)" opacity="0.41">
          <g id="Grupo_1240749" data-name="Grupo 1240749" transform="translate(0)">
            <g id="Grupo_1240748" data-name="Grupo 1240748" clip-path="url(#clip-path-7)">
              <path id="Trazado_1239487" data-name="Trazado 1239487" d="M1254.479,1450.448l-17.4-8.484-29.91,18.869c7.881,21,22.679,29.245,44.527,24.5-1.179-9.314.611-21.62,2.787-34.885" transform="translate(-1207.165 -1441.963)" fill="#c93127"/>
            </g>
          </g>
        </g>
        <path id="Trazado_1239488" data-name="Trazado 1239488" d="M1436.727,1554.547a22.625,22.625,0,0,0,5.487-.692.3.3,0,0,0-.143-.574,20.646,20.646,0,0,1-15.947-2.321,21.875,21.875,0,0,1-5.707-4.871.3.3,0,1,0-.472.357,22.091,22.091,0,0,0,5.875,5.021,21.494,21.494,0,0,0,7,2.709,20.626,20.626,0,0,0,3.911.371" transform="translate(-1202.473 -1415.229)" fill="#c93127"/>
        <path id="Trazado_1239489" data-name="Trazado 1239489" d="M1547.328,942.5l-6.509-.474s.469,6.772,6.509.474" transform="translate(-1317.59 -862.363)" fill="#fff"/>
        <path id="Trazado_1239490" data-name="Trazado 1239490" d="M1778.019,1379.424h.018a.3.3,0,0,0,.277-.313l-.652-10.653-.013-.037c-2.347-6.929-1.35-11.943-.1-14.929a13.428,13.428,0,0,1,3.273-4.837l.107-.089v-2.536a.3.3,0,1,0-.592,0v2.262a14.229,14.229,0,0,0-3.334,4.971,18.123,18.123,0,0,0-1.36,6.372,25.229,25.229,0,0,0,1.434,8.937l.647,10.574a.3.3,0,0,0,.3.278" transform="translate(-1571.049 -1231.925)" fill="#c93127"/>
        <path id="Trazado_1239491" data-name="Trazado 1239491" d="M1393.327,1157.033c2.948,0,6.8-.948,12.061-2.938a.3.3,0,0,0-.21-.554c-6.676,2.526-11.019,3.351-14.079,2.675-2.045-.452-3.307-1.3-3.749-2.514-.8-2.2,1.294-4.954,1.315-4.981a.3.3,0,0,0-.469-.361c-.095.123-2.312,3.04-1.4,5.543.516,1.42,1.921,2.393,4.179,2.891a10.9,10.9,0,0,0,2.356.239" transform="translate(-1162.797 -1051.138)" fill="#c93127"/>
        <path id="Trazado_1239492" data-name="Trazado 1239492" d="M1196.955,1964.6c-.068-1.478,1.24-4.475,1.217-8.493,11.532,3.919,33.114,2.176,44.544-1.324a65,65,0,0,0,3.65,13.746c-12.46,4.628-39.241,8.415-49.412-3.929" transform="translate(-987.548 -1789.471)" fill="#fdbd04"/>
        <path id="Trazado_1239493" data-name="Trazado 1239493" d="M1383.928,2076.276a63.416,63.416,0,0,0,10.97-1,.3.3,0,1,0-.1-.583c-12.781,2.249-21.682.228-26.9-1.864a24.514,24.514,0,0,1-8.295-5.09.3.3,0,0,0-.434.4c.11.119,2.758,2.931,8.509,5.238a40.915,40.915,0,0,0,11.1,2.646,51.061,51.061,0,0,0,5.147.254" transform="translate(-1150.036 -1892.782)" fill="#fc7c1a"/>
        <rect id="Rectángulo_425033" data-name="Rectángulo 425033" width="16.255" height="4.506" transform="translate(266.514 116.216)" fill="#b0cdfc"/>
        <rect id="Rectángulo_425034" data-name="Rectángulo 425034" width="26.557" height="8.347" transform="translate(272.914 116.216)" fill="#5d66b2"/>
        <rect id="Rectángulo_425035" data-name="Rectángulo 425035" width="48.348" height="4.042" transform="translate(167.781 310.003) rotate(-94.173)" fill="#a1bbe6"/>
        <rect id="Rectángulo_425036" data-name="Rectángulo 425036" width="4.042" height="54.795" transform="matrix(-0.113, -0.994, 0.994, -0.113, 117.626, 316.941)" fill="#a1bbe6"/>
        <rect id="Rectángulo_425037" data-name="Rectángulo 425037" width="4.042" height="100.413" transform="translate(196.35 202.233)" fill="#a1bce7"/>
        <path id="Trazado_1239494" data-name="Trazado 1239494" d="M1567.327,3487.265a14.357,14.357,0,1,0,14.357-14.356,14.357,14.357,0,0,0-14.357,14.356" transform="translate(-1368.544 -3179.207)" fill="#454b83"/>
        <path id="Trazado_1239495" data-name="Trazado 1239495" d="M1627.841,3542.661a9.239,9.239,0,1,0,9.239-9.239,9.239,9.239,0,0,0-9.239,9.239" transform="translate(-1423.941 -3234.602)" fill="#525a9d"/>
        <path id="Trazado_1239496" data-name="Trazado 1239496" d="M1879.016,3486.671h2.482v-15.208h-5.88v11.81a3.4,3.4,0,0,0,3.4,3.4" transform="translate(-1680.075 -3177.883)" fill="#454b83"/>
        <rect id="Rectángulo_425038" data-name="Rectángulo 425038" width="4.042" height="99.467" transform="translate(263.925 164.722)" fill="#a4c0ec"/>
        <path id="Trazado_1239497" data-name="Trazado 1239497" d="M1031.005,3037.149a6.907,6.907,0,1,0,6.907-6.907,6.907,6.907,0,0,0-6.907,6.907" transform="translate(-771.966 -2773.977)" fill="#363967"/>
        <rect id="Rectángulo_425039" data-name="Rectángulo 425039" width="43.481" height="2.795" transform="translate(289.999 303.188) rotate(-120)" fill="#363967"/>
        <rect id="Rectángulo_425040" data-name="Rectángulo 425040" width="2.795" height="43.481" transform="translate(240.991 303.188) rotate(-150)" fill="#363967"/>
        <rect id="Rectángulo_425041" data-name="Rectángulo 425041" width="43.481" height="2.795" transform="translate(218.637 261.775)" fill="#363967"/>
        <rect id="Rectángulo_425042" data-name="Rectángulo 425042" width="43.481" height="2.795" transform="translate(269.737 261.775)" fill="#363967"/>
        <rect id="Rectángulo_425043" data-name="Rectángulo 425043" width="43.481" height="2.795" transform="translate(260.762 259.91) rotate(-120)" fill="#363967"/>
        <rect id="Rectángulo_425044" data-name="Rectángulo 425044" width="2.795" height="43.481" transform="translate(271.13 259.91) rotate(-150)" fill="#363967"/>
        <path id="Trazado_1239498" data-name="Trazado 1239498" d="M480.825,2421.682a58.372,58.372,0,1,1-58.372,58.372,58.371,58.371,0,0,1,58.372-58.372m0,108.889a50.518,50.518,0,1,0-50.518-50.518,50.517,50.517,0,0,0,50.518,50.518" transform="translate(-214.879 -2216.881)" fill="#3e4376"/>
        <path id="Trazado_1239499" data-name="Trazado 1239499" d="M528.579,2473.85a53.96,53.96,0,1,1-53.96,53.96,53.96,53.96,0,0,1,53.96-53.96m0,100.659a46.7,46.7,0,1,0-46.7-46.7,46.7,46.7,0,0,0,46.7,46.7" transform="translate(-262.633 -2264.638)" fill="#49508b"/>
        <path id="Trazado_1239500" data-name="Trazado 1239500" d="M1030.271,1518.828v13.357l87.049.1c13.939.19,15.575-.675,16.885-3.163,0,0,.337-8.625.346-14.02l.147-92.51h-13.359v91.041a5.193,5.193,0,0,1-5.193,5.193Z" transform="translate(-861.783 -1302.286)" fill="#b0cdfc"/>
        <path id="Trazado_1239501" data-name="Trazado 1239501" d="M1186.829,2154.04h62.957a8.4,8.4,0,0,0,8.405-8.4v-33.18c-22.985,5.644-46.788,5.531-71.362,0Z" transform="translate(-998.516 -1933.806)" fill="#5d66b2"/>
        <rect id="Rectángulo_425045" data-name="Rectángulo 425045" width="78.69" height="4.042" transform="translate(188.167 166.074)" fill="#b0cdfc"/>
        <rect id="Rectángulo_425046" data-name="Rectángulo 425046" width="4.042" height="136.184" transform="translate(188.15 166.063)" fill="#b0cdfc"/>
        <rect id="Rectángulo_425047" data-name="Rectángulo 425047" width="43.481" height="2.795" transform="translate(294.745 303.378) rotate(-120)" fill="#131313"/>
        <rect id="Rectángulo_425048" data-name="Rectángulo 425048" width="2.795" height="43.481" transform="translate(245.738 303.378) rotate(-150)" fill="#131313"/>
        <rect id="Rectángulo_425049" data-name="Rectángulo 425049" width="4.042" height="99.467" transform="translate(268.672 164.912)" fill="#b0cdfc"/>
        <path id="Trazado_1239502" data-name="Trazado 1239502" d="M974.879,3039.395a6.907,6.907,0,1,0,6.907-6.907,6.907,6.907,0,0,0-6.907,6.907" transform="translate(-711.093 -2776.032)" fill="#3e4376"/>
        <rect id="Rectángulo_425050" data-name="Rectángulo 425050" width="43.481" height="2.795" transform="translate(294.745 303.378) rotate(-120)" fill="#3e4376"/>
        <rect id="Rectángulo_425051" data-name="Rectángulo 425051" width="2.795" height="43.481" transform="translate(245.738 303.378) rotate(-150)" fill="#3e4376"/>
        <rect id="Rectángulo_425052" data-name="Rectángulo 425052" width="43.481" height="2.795" transform="translate(223.383 261.965)" fill="#3e4376"/>
        <rect id="Rectángulo_425053" data-name="Rectángulo 425053" width="43.481" height="2.795" transform="translate(274.483 261.965)" fill="#3e4376"/>
        <rect id="Rectángulo_425054" data-name="Rectángulo 425054" width="43.481" height="2.795" transform="translate(265.508 260.1) rotate(-120)" fill="#3e4376"/>
        <rect id="Rectángulo_425055" data-name="Rectángulo 425055" width="2.795" height="43.481" transform="translate(275.877 260.1) rotate(-150)" fill="#3e4376"/>
        <path id="Trazado_1239503" data-name="Trazado 1239503" d="M424.7,2423.928a58.721,58.721,0,1,1-58.372,58.719,58.545,58.545,0,0,1,58.372-58.719m0,109.538a50.82,50.82,0,1,0-50.518-50.819,50.668,50.668,0,0,0,50.518,50.819" transform="translate(-154.006 -2218.938)" fill="#505798"/>
        <path id="Trazado_1239504" data-name="Trazado 1239504" d="M472.453,2476.095a53.96,53.96,0,1,1-53.96,53.96,53.959,53.959,0,0,1,53.96-53.96m0,100.659a46.7,46.7,0,1,0-46.7-46.7,46.7,46.7,0,0,0,46.7,46.7" transform="translate(-201.761 -2266.693)" fill="#5d66b2"/>
        <path id="Trazado_1239505" data-name="Trazado 1239505" d="M1664.285,3491.162a14.357,14.357,0,1,0,14.357-14.357,14.357,14.357,0,0,0-14.357,14.357" transform="translate(-1473.702 -3182.774)" fill="#4c518e"/>
        <path id="Trazado_1239506" data-name="Trazado 1239506" d="M1724.8,3546.559a9.239,9.239,0,1,0,9.239-9.239,9.239,9.239,0,0,0-9.239,9.239" transform="translate(-1529.099 -3238.171)" fill="#5d66b2"/>
        <path id="Trazado_1239507" data-name="Trazado 1239507" d="M1975.973,3481.942h2.482v-15.208h-5.88v11.81a3.4,3.4,0,0,0,3.4,3.4" transform="translate(-1785.231 -3173.554)" fill="#4c518e"/>
        <path id="Trazado_1239508" data-name="Trazado 1239508" d="M2171.773,2588.4l-22.028,95.324,3.938.91,22.555-97.6-1.662-.384a2.336,2.336,0,0,0-2.8,1.75" transform="translate(-1997.996 -2367.841)" fill="#b0cdfc"/>
        <rect id="Rectángulo_425056" data-name="Rectángulo 425056" width="59.48" height="4.042" transform="translate(155.333 318.582) rotate(-172.224)" fill="#b0cdfc"/>
        <path id="Trazado_1239509" data-name="Trazado 1239509" d="M2451.679,3004.3l-8.528-16.215-14.9,15.117s-.007,14.176-1.638,18.531c-2.145,5.726-11.558,7.432-11.558,7.432,16.558,23.814,33.7,4.742,33.7,4.742s-.394-5.089-.313-6.784c.273-5.757,3.237-22.823,3.237-22.823" transform="translate(-2295.875 -2735.382)" fill="#ff8a6c"/>
        <path id="Trazado_1239510" data-name="Trazado 1239510" d="M2415.053,3017.156c.709-5.836.713-13.955.713-13.956l14.9-15.117,8.528,16.215h0s-1.279,7.364-2.234,14.047c-3.94-.26-16.449-1.067-21.91-1.189" transform="translate(-2283.392 -2735.382)" fill="#d14a4a"/>
        <path id="Trazado_1239511" data-name="Trazado 1239511" d="M2497.895,3420.821l-1.041,18.566-53.659-7.515.167-1.193a11.008,11.008,0,0,1,10.21-9.473c5.754-.353,13.139-1.795,18.424-6.349a1.622,1.622,0,0,1,2.243.111c2.9,3.083,10.72,11.069,21.17,4.388a1.622,1.622,0,0,1,2.486,1.464" transform="translate(-2344.473 -3125.702)" fill="#6ed177"/>
        <path id="Trazado_1239512" data-name="Trazado 1239512" d="M2670.479,3361.932a19.365,19.365,0,0,0,4.369-7.108,2.285,2.285,0,0,1,3.1-1.307c2.855,1.311,6.473,4.561,1.2,12.714-.53.124-8.669-4.3-8.669-4.3" transform="translate(-2547.637 -3069.722)" fill="#6ed177"/>
        <path id="Trazado_1239513" data-name="Trazado 1239513" d="M2675.671,3466.634h0a25.506,25.506,0,0,0,6.179-1.071,35.357,35.357,0,0,0,13.285-7.215.3.3,0,1,0-.386-.448,34.767,34.767,0,0,1-13.061,7.094,25.433,25.433,0,0,1-6.022,1.049.3.3,0,0,0,0,.592" transform="translate(-2561.452 -3165.401)" fill="#3caf55"/>
        <path id="Trazado_1239514" data-name="Trazado 1239514" d="M2837.953,3479.759a.291.291,0,0,0,.174-.058.3.3,0,0,0,.064-.413c-.914-1.248-2.389-3.285-2.563-3.582a.3.3,0,0,0-.357-.192.3.3,0,0,0-.2.188c-.066.189-.066.189,1.333,2.128.648.9,1.307,1.8,1.313,1.807a.3.3,0,0,0,.239.122" transform="translate(-2717.963 -3181.582)" fill="#fff"/>
        <path id="Trazado_1239515" data-name="Trazado 1239515" d="M2766.2,3455.3a.3.3,0,0,0,.2-.517l-3.272-2.939a.3.3,0,1,0-.4.44l3.272,2.939a.3.3,0,0,0,.2.076" transform="translate(-2640.082 -3159.859)" fill="#fff"/>
        <path id="Trazado_1239516" data-name="Trazado 1239516" d="M2906.007,3499.215a.3.3,0,0,0,.275-.187c1.246-3.16-1.557-11.169-1.677-11.509a.3.3,0,1,0-.558.2c.029.081,2.849,8.139,1.684,11.094a.3.3,0,0,0,.275.4" transform="translate(-2792.15 -3192.4)" fill="#3caf55"/>
        <path id="Trazado_1239517" data-name="Trazado 1239517" d="M2503.978,3584.748c-19.5,1.224-44.994-2.687-53.341-4.1a10.719,10.719,0,0,0-.7,4.052l53.543,7.181a15.3,15.3,0,0,0,.57-3.721,23.941,23.941,0,0,0-.074-3.415" transform="translate(-2351.217 -3277.837)" fill="#6ed177"/>
        <path id="Trazado_1239518" data-name="Trazado 1239518" d="M2492.408,3582.135c3,0,5.962-.089,8.793-.3a.3.3,0,0,0-.044-.591c-11.626.855-25.489-.3-35.071-1.425-10.386-1.217-18.117-2.654-18.194-2.668a.3.3,0,0,0-.109.582c.077.014,7.827,1.455,18.233,2.674a235.538,235.538,0,0,0,26.39,1.726" transform="translate(-2348.419 -3274.631)" fill="#fff"/>
        <path id="Trazado_1239519" data-name="Trazado 1239519" d="M2482.734,3521.556a3.041,3.041,0,1,1-2.731-3.323,3.041,3.041,0,0,1,2.731,3.323" transform="translate(-2332.155 -3220.685)" fill="#fff"/>
        <path id="Trazado_1239520" data-name="Trazado 1239520" d="M2197.259,2381.086c-16.085,26.134-18.217,78.228-18.217,78.228l27.256,2.583,19.816-65.341c.49-1.414-27.537-17.612-28.855-15.47" transform="translate(-2050.357 -2179.54)" fill="#fdbd04"/>
        <path id="Trazado_1239521" data-name="Trazado 1239521" d="M1166.422,1197.011c-.982-1.92-20.674-21.909-24.252,6.6-1.243,9.9-19.891,27.6-7.483,41.173,11.335,11.011,35.433-32.912,31.735-47.776" transform="translate(-902.361 -1087.912)" fill="#f44536"/>
        <path id="Trazado_1239522" data-name="Trazado 1239522" d="M1421.973,1414.717a.3.3,0,0,0,.281-.205c1.523-4.711,4.79-11.573,10.281-21.594a.3.3,0,0,0-.519-.284c-5.509,10.054-8.79,16.949-10.326,21.7a.3.3,0,0,0,.282.387" transform="translate(-1192.758 -1274.719)" fill="#c93127"/>
        <path id="Trazado_1239523" data-name="Trazado 1239523" d="M1595.93,693.569a5.047,5.047,0,0,0-5.943,2.642c-1.573,3.165.239,7.046.239,7.046s.381-6.577,5.7-9.688" transform="translate(-1370.297 -634.747)" fill="#e6ae6a"/>
        <path id="Trazado_1239524" data-name="Trazado 1239524" d="M1419.736,683.857s-1.01.691-2.072-1.355-5.378-12-13.6-10.225l2.333-1.77,6.642-.38,5.335,1.967Z" transform="translate(-1178.434 -613.455)" fill="#f7bb72"/>
        <path id="Trazado_1239525" data-name="Trazado 1239525" d="M1414.442,701.505a3.377,3.377,0,0,0,2.283-.858.3.3,0,0,0-.4-.437,2.9,2.9,0,0,1-2.817.56c-1-.312-2.806-1.416-3.693-5.3-.948-4.149-3.249-5.809-5.011-6.47a7.667,7.667,0,0,0-3.645-.436.3.3,0,1,0,.1.584,7.2,7.2,0,0,1,3.364.416c2.352.893,3.906,2.925,4.618,6.039.953,4.172,2.974,5.382,4.093,5.733a3.719,3.719,0,0,0,1.11.171" transform="translate(-1175.252 -630.278)" fill="#f7bb72"/>
        <path id="Trazado_1239526" data-name="Trazado 1239526" d="M2123.526,1280.027l-19.106,18.863-1.829.622a1.493,1.493,0,0,1-2.012-.664l-23.326-35.061c-.537-.807-.364-1.562.325-1.739l2.93-1.15,26.059-6.363c.315-.081.857.289,1.214.826l15.511,23.315c.357.536.463,1.141.235,1.352" transform="translate(-1939.248 -1148.43)" fill="#3b4170"/>
        <path id="Trazado_1239527" data-name="Trazado 1239527" d="M2093.664,1270.177l-20.739,19.308c-.491.458-1.332.181-1.869-.626l-23.363-35.038c-.538-.806-.414-1.6.267-1.777,0,0,1.813-.536,4.135-1.177,6.072-1.675,24.583-6.166,24.583-6.166.311-.08.851.291,1.209.827l15.536,23.3c.358.536.467,1.139.242,1.348" transform="translate(-1906.881 -1139.428)" fill="#5d66b2"/>
        <path id="Trazado_1239528" data-name="Trazado 1239528" d="M2116.677,1296.754l-18.391,16.823c-.436.4-1.163.177-1.617-.5l-19.738-29.476c-.454-.678-.333-1.36.263-1.52,0,0,1.588-.488,3.621-1.075,5.315-1.533,21.51-5.683,21.51-5.683.273-.073.736.234,1.039.685l13.125,19.6c.3.451.387.963.187,1.146" transform="translate(-1932.364 -1167.459)" fill="#fff"/>
        <path id="Trazado_1239529" data-name="Trazado 1239529" d="M2149.566,1450.886l8.795-6.454-4.414-7.242-9.718,5.037Z" transform="translate(-1979.654 -1315.647)" fill="#f44536"/>
        <path id="Trazado_1239530" data-name="Trazado 1239530" d="M2341.5,1377.131l-7.688,3.975-4.676-7.472,8.38-2.842Z" transform="translate(-2178.426 -1254.864)" fill="#6ed177"/>
        <path id="Trazado_1239531" data-name="Trazado 1239531" d="M2210.99,1319.089l-7.688,3.975-4.676-7.472,8.38-2.842Z" transform="translate(-2036.883 -1201.731)" fill="#fdbd04"/>
        <path id="Trazado_1239532" data-name="Trazado 1239532" d="M2053.824,1272.04s-6.676-1-7.193-7.253c-.088-1.062-1.292-1.435-2.271-1.854-2.61-1.117-6.221-3.016-5.669-5.746a1.252,1.252,0,0,1,.625-.864c.534-.282,3.183,1.232,5.921,1.587a28.016,28.016,0,0,1,3.444.889c3.244,1.323,9.61,3.948,8.593,9.9l-2.078,4.809Z" transform="translate(-1869.745 -1150.044)" fill="#ff8a6c"/>
        <path id="Trazado_1239533" data-name="Trazado 1239533" d="M2035.06,1399.017a.3.3,0,0,0,.168-.053l2.355-1.63a.3.3,0,1,0-.337-.487l-2.355,1.63a.3.3,0,0,0,.169.539" transform="translate(-1849.746 -1278.668)" fill="#131313"/>
        <path id="Trazado_1239534" data-name="Trazado 1239534" d="M2100.963,1344.039a.3.3,0,0,0,.138-.558,10.253,10.253,0,0,1-5.081-5.361,7.473,7.473,0,0,1-.534-2.984.3.3,0,0,0-.59-.052,7.9,7.9,0,0,0,.559,3.217,10.823,10.823,0,0,0,5.37,5.7.3.3,0,0,0,.137.034" transform="translate(-1918.379 -1221.93)" fill="#131313"/>
        <path id="Trazado_1239535" data-name="Trazado 1239535" d="M1419.072,1564.987l-39.884-9.138-4.832,10.511s25.517,18.814,44.066,16.926c5.759-.586,14.342-10.373,5.1-16.391a14.669,14.669,0,0,0-4.452-1.908" transform="translate(-1183.781 -1424.271)" fill="#ff8a6c"/>
        <path id="Trazado_1239536" data-name="Trazado 1239536" d="M1944.489,1438.515a6.9,6.9,0,0,1-.565-7.605,2.278,2.278,0,0,0-.2-2.344c-1.317-1.834-2.993-4.612-1.495-6.243a1,1,0,0,1,.781-.331c.537.031.4.573,1.68,2.575.58,1.2,2.632,3.123,4.667,4.437,2.026,1.078,5.264,5.819,2.88,9.739l-3.252,3.156Z" transform="translate(-1757.242 -1301.733)" fill="#ff8a6c"/>
        <path id="Trazado_1239537" data-name="Trazado 1239537" d="M1951.637,1532.206s-7.057-1.194-10.306-3.158c1.1-3.76.136-9.191,4.287-10.947.477-.043,9.514,3.617,9.514,3.617s.792,6.529-3.5,10.487" transform="translate(-1759.324 -1389.716)" fill="#ff8a6c"/>
        <path id="Trazado_1239538" data-name="Trazado 1239538" d="M2080.771,1532.579s-.429.1-2.275-1.287c-2.045-1.531,0-5.2,3.843-1.833.062-.186-1.568,3.119-1.568,3.119" transform="translate(-1898.006 -1398.853)" fill="#ff8a6c"/>
        <path id="Trazado_1239539" data-name="Trazado 1239539" d="M2084.208,1568.945s-.99-.522-3-1.68c-2.226-1.283-.292-4.967,3.956-2.048.038-.2-.957,3.728-.957,3.728" transform="translate(-1901.049 -1431.843)" fill="#ff8a6c"/>
        <path id="Trazado_1239540" data-name="Trazado 1239540" d="M2053.218,1463.971s-11.306-4.764-10.809-7.059c.2-.9,3.67-.41,13.8,4.494a23.753,23.753,0,0,1-2.987,2.565" transform="translate(-1868.884 -1333.364)" fill="#ff8a6c"/>
        <path id="Trazado_1239541" data-name="Trazado 1239541" d="M2082.546,1605.047c-1.088-.385-4.684-2.039-3.665-3.809.52-.9,2.216-.58,3.015-.3a4.756,4.756,0,0,1,1.158.627,2.087,2.087,0,0,1,.283,3.229.782.782,0,0,1-.79.255" transform="translate(-1899.726 -1465.278)" fill="#ff8a6c"/>
        <path id="Trazado_1239542" data-name="Trazado 1239542" d="M2108.59,1598.87a.3.3,0,0,0,.093-.577l-1.411-.466a.3.3,0,1,0-.185.562l1.411.466a.293.293,0,0,0,.093.015" transform="translate(-1927.02 -1462.685)" fill="#131313"/>
        <path id="Trazado_1239543" data-name="Trazado 1239543" d="M2103.186,1563.589a.3.3,0,0,0,.083-.58l-1.548-.455a.3.3,0,1,0-.167.568l1.548.455a.3.3,0,0,0,.083.012" transform="translate(-1921.147 -1430.399)" fill="#131313"/>
        <path id="Trazado_1239544" data-name="Trazado 1239544" d="M2096.346,1524.13a.3.3,0,0,0,.124-.565l-1.639-.752a.3.3,0,0,0-.247.538l1.639.752a.3.3,0,0,0,.123.027" transform="translate(-1913.721 -1394.005)" fill="#131313"/>
        <path id="Trazado_1239545" data-name="Trazado 1239545" d="M1943.216,1557.515a.3.3,0,0,0,.277-.192l1.062-2.828a.3.3,0,0,0-.554-.208l-1.062,2.827a.3.3,0,0,0,.173.381.29.29,0,0,0,.1.019" transform="translate(-1748.842 -1422.666)" fill="#131313"/>
        <path id="Trazado_1239546" data-name="Trazado 1239546" d="M1842.906,1433.76a.3.3,0,0,0,.068-.584l-11.129-2.654c-.754-2.844-5.219-5.976-6.042-6.215-.4-.154-2.009-2.576-3.263-4.73a.3.3,0,0,0-.109-.108,1.277,1.277,0,0,0-1.075-.052,2.156,2.156,0,0,0-1.055,1.616c-.374,1.57,1.039,4.052,1.9,5.375l-3.877-1.774c-.017-.008-1.8-.831-3.743-1.5-2.728-.934-4.391-1.108-5.084-.529a.7.7,0,0,0-.259.642c.058.477.539,1.345,4.024,3.374,1.868,1.088,3.738,2,3.757,2.007a.3.3,0,0,0,.259-.532c-3.024-1.469-7.335-3.967-7.452-4.921a.112.112,0,0,1,.05-.116c.946-.79,5.532.874,8.2,2.108l4.856,2.221a.3.3,0,0,0,.36-.447c-.029-.038-2.871-3.87-2.417-5.777.155-.653.4-1.07.708-1.208a.655.655,0,0,1,.491-.006c.168.286.758,1.281,1.405,2.284,1.6,2.473,1.975,2.583,2.157,2.635a12.993,12.993,0,0,1,2.88,2.061,8.346,8.346,0,0,1,2.791,3.891.3.3,0,0,0,.221.228l11.306,2.7a.291.291,0,0,0,.069.008" transform="translate(-1636.164 -1299.289)" fill="#131313"/>
        <path id="Trazado_1239547" data-name="Trazado 1239547" d="M1789.474,1650.552a.3.3,0,0,0,.084-.58c-5.863-1.745-20.224-11.6-20.368-11.7a.3.3,0,0,0-.149-.052c-4.019-.25-9.978-3.481-10.038-3.514a.3.3,0,1,0-.284.52c.247.135,6.058,3.286,10.2,3.579,1.2.826,14.661,10.008,20.468,11.737a.3.3,0,0,0,.085.012" transform="translate(-1578.446 -1496.424)" fill="#131313"/>
        <path id="Trazado_1239548" data-name="Trazado 1239548" d="M2043.882,297.084a30.452,30.452,0,1,0,30.452-30.452,30.452,30.452,0,0,0-30.452,30.452" transform="translate(-1917.591 -244.083)" fill="#d3e5fc"/>
        <path id="Trazado_1239549" data-name="Trazado 1239549" d="M2191.51,338.041s-2.88-19.2,15.451-22.663a8.909,8.909,0,0,1,4.663.376c4.5,1.617,13.351,6.633,11.861,20.836,0,0-4.149,26.815-16.44,30.856s-12.469-3.759-12.094-6.094a25.469,25.469,0,0,0-1.594-11.333,27.1,27.1,0,0,1-1.55-5.713,28.641,28.641,0,0,1-.3-6.265" transform="translate(-2048.929 -288.566)" fill="#ff8a6c"/>
        <path id="Trazado_1239550" data-name="Trazado 1239550" d="M2418.093,420.341s-4.979-4.18-2.216-7.707l-3.538,2.352-.028,1.554s-1.653,3.538,5.783,3.8" transform="translate(-2262.044 -377.738)" fill="#eb7152"/>
        <path id="Trazado_1239551" data-name="Trazado 1239551" d="M2413.719,669.168s-5.254-1.111-6.319,2.367c0,0-1.154-.737-.395-2.538s2.969-2.74,6.714.171" transform="translate(-2257.213 -610.871)" fill="#eb7152"/>
        <path id="Trazado_1239552" data-name="Trazado 1239552" d="M2270.391,386.075a2.343,2.343,0,0,0,.52-.238,2.263,2.263,0,0,0-.358-4.052c-4.407-1.688-9.27-6.657-3.245-12.886,8.3-8.585,16.53,2.563,16.53,2.563-2.646-7.2-8.512-8.257-8.512-8.257-11.394,1.184-11.778,8.812-12.008,12s5.636,11.284,7.073,10.867" transform="translate(-2115.2 -332.49)" fill="#eb7152"/>
        <path id="Trazado_1239553" data-name="Trazado 1239553" d="M2264.93,382.807a.3.3,0,0,0,.123-.566,13.2,13.2,0,0,1-4.679-4.25,14.865,14.865,0,0,1-2.86-7.185c-.324-3.754,1.386-7.023,4.944-9.452,2.759-1.883,5.372-2.443,7.767-1.664,4.92,1.6,7.38,8.348,7.4,8.416a.3.3,0,1,0,.557-.2,19.859,19.859,0,0,0-1.905-3.735c-1.173-1.811-3.145-4.156-5.871-5.044-2.579-.84-5.367-.255-8.286,1.737-3.746,2.557-5.544,6.012-5.2,9.992.483,5.589,4.968,10.6,7.884,11.923a.294.294,0,0,0,.122.027" transform="translate(-2109.023 -328.417)" fill="#131313"/>
        <path id="Trazado_1239554" data-name="Trazado 1239554" d="M2285.2,395.5a1.92,1.92,0,0,0,1.043-.315,2.539,2.539,0,0,0,.763-.779.3.3,0,0,0-.512-.3,1.5,1.5,0,0,1-2.161.536c-1.537-.889-3.769-4.9-3.989-6.418a.3.3,0,0,0-.586.085c.241,1.668,2.533,5.837,4.278,6.846a2.311,2.311,0,0,0,1.164.343" transform="translate(-2119.797 -355.162)" fill="#131313"/>
        <path id="Trazado_1239555" data-name="Trazado 1239555" d="M2337.068,557.7a.3.3,0,0,0,.276-.4,10.875,10.875,0,0,0-8.047-6.874,14.956,14.956,0,0,0-5.409-.209.3.3,0,1,0,.1.583,14.635,14.635,0,0,1,5.194.208,10.157,10.157,0,0,1,7.607,6.508.3.3,0,0,0,.275.188" transform="translate(-2173.829 -503.547)" fill="#131313"/>
        <path id="Trazado_1239556" data-name="Trazado 1239556" d="M2386.292,460.671a3.987,3.987,0,0,0,3.385-2.138.3.3,0,0,0-.534-.257,3.267,3.267,0,0,1-3.354,1.766c-1.448-.21-3.345-.7-4.162-1.82a2.165,2.165,0,0,1-.361-1.723.3.3,0,0,0-.583-.1,2.764,2.764,0,0,0,.466,2.171c.938,1.291,3,1.831,4.556,2.057a4.094,4.094,0,0,0,.588.043" transform="translate(-2230.99 -417.576)" fill="#131313"/>
        <path id="Trazado_1239557" data-name="Trazado 1239557" d="M2412.862,667.054c-2.25.378-5.09-2.636-3.006-4.369s3.223-2.053,3.434-4.027-5.431-1.951-3.264-6.268c1.717-3.418,6.377.755,6.543.773l-2.36-3.31-2.291-.032-3.357.841L2407,652.948l.035,3.037-.284,3.867.452,4.2-.039,2.927.738,1.574,1.171.564Z" transform="translate(-2260.062 -594.866)" fill="#ff8a6c"/>
        <path id="Trazado_1239558" data-name="Trazado 1239558" d="M2408.745,678.59a2.706,2.706,0,0,0,.452-.037.3.3,0,1,0-.1-.584,3.328,3.328,0,0,1-3.2-1.856,1.556,1.556,0,0,1,.435-1.993c.472-.393.9-.714,1.273-1,1.3-.984,2.09-1.577,2.265-3.226.1-.943-.768-1.468-1.687-2.024-1.39-.841-2.827-1.71-1.606-4.141a2.027,2.027,0,0,1,1.339-1.174c1.539-.375,3.623,1.138,4.307,1.635.253.184.306.222.405.233a.3.3,0,0,0,.145-.568c-.036-.023-.12-.084-.2-.144-.818-.594-2.99-2.171-4.8-1.731a2.616,2.616,0,0,0-1.728,1.484c-1.467,2.92.438,4.072,1.829,4.914.786.476,1.465.886,1.4,1.455-.148,1.394-.778,1.869-2.033,2.817-.381.287-.812.613-1.295,1.015a2.142,2.142,0,0,0-.594,2.7,4.029,4.029,0,0,0,3.386,2.231m3.947-14.755h0" transform="translate(-2256.312 -605.927)" fill="#131313"/>
        <path id="Trazado_1239559" data-name="Trazado 1239559" d="M2257.683,570.29s-4.026,15.872-10.4,21.115a1.341,1.341,0,0,0-.5,1.148c.027.3.153.53.522.391,2.345-.885,8.066-6.2,10.373-22.655" transform="translate(-2087.649 -522.061)" fill="#eb7152"/>
        <path id="Trazado_1239560" data-name="Trazado 1239560" d="M2242.815,577.894a.294.294,0,0,0,.151-.042,18.75,18.75,0,0,0,6.419-6.642,32.617,32.617,0,0,0,3.377-8.195,46.185,46.185,0,0,0,1.556-9.911.3.3,0,0,0-.289-.3h-.007a.3.3,0,0,0-.3.29,45.586,45.586,0,0,1-1.539,9.781c-1.308,4.8-4.023,11.2-9.524,14.47a.3.3,0,0,0,.152.551" transform="translate(-2083.923 -506.053)" fill="#131313"/>
        <path id="Trazado_1239561" data-name="Trazado 1239561" d="M2021.109,279.227a35.26,35.26,0,1,0-13.767-2.78,35.149,35.149,0,0,0,13.767,2.78m0-69.215a33.846,33.846,0,1,1-33.847,33.846,33.885,33.885,0,0,1,33.847-33.846" transform="translate(-1864.366 -190.858)" fill="#d3e5fc"/>
        <rect id="Rectángulo_425057" data-name="Rectángulo 425057" width="60.903" height="6.046" transform="translate(176.137 76.671) rotate(-135)" fill="#f44536"/>
        <path id="Trazado_1239562" data-name="Trazado 1239562" d="M3080.571,2518.743a30.452,30.452,0,1,0,30.452-30.452,30.451,30.451,0,0,0-30.452,30.452" transform="translate(-3041.953 -2277.858)" fill="#d3e5fc"/>
        <path id="Trazado_1239563" data-name="Trazado 1239563" d="M3057.8,2500.888a35.262,35.262,0,1,0-13.767-2.78,35.14,35.14,0,0,0,13.767,2.78m0-69.215a33.846,33.846,0,1,1-33.846,33.846,33.884,33.884,0,0,1,33.846-33.846" transform="translate(-2988.728 -2224.634)" fill="#d3e5fc"/>
        <path id="Trazado_1239564" data-name="Trazado 1239564" d="M3122.218,2689.456a2.2,2.2,0,0,0-.126,3.2c3.786,3.885,14.15,13.252,26.077,13.252,11.81,0,22.434-6.828,26.459-9.766a2,2,0,0,0,.314-2.953c-3.761-4.2-14.641-15.025-26.773-15.025-11.8,0-22.066,7.889-25.951,11.3" transform="translate(-3079.389 -2451.669)" fill="#ff8a6c"/>
        <path id="Trazado_1239565" data-name="Trazado 1239565" d="M3147.055,2701.37a2.031,2.031,0,0,0-.116,2.946c3.49,3.582,13.046,12.219,24.043,12.219,10.889,0,20.684-6.3,24.4-9a1.846,1.846,0,0,0,.29-2.723c-3.468-3.87-13.5-13.853-24.685-13.853-10.877,0-20.345,7.273-23.927,10.415" transform="translate(-3102.18 -2463.382)" fill="#fff"/>
        <g id="Grupo_1240753" data-name="Grupo 1240753" transform="translate(44.183 230.062)" opacity="0.45">
          <g id="Grupo_1240752" data-name="Grupo 1240752">
            <g id="Grupo_1240751" data-name="Grupo 1240751" clip-path="url(#clip-path-8)">
              <path id="Trazado_1239566" data-name="Trazado 1239566" d="M3248.579,2731.26c3.49,3.583,13.047,12.219,24.043,12.219a38.223,38.223,0,0,0,16.559-4.271,36.471,36.471,0,0,1-14.211,3.189c-6.391,0-12.295-2.917-16.8-6.063a8.688,8.688,0,0,1,.6-14.651c.764-.443,1.564-.878,2.4-1.295a47.792,47.792,0,0,0-12.468,7.927,2.031,2.031,0,0,0-.115,2.945" transform="translate(-3248.002 -2720.388)" fill="#d3e5fc"/>
            </g>
          </g>
        </g>
        <path id="Trazado_1239567" data-name="Trazado 1239567" d="M3337.191,2746.9a9.212,9.212,0,1,0,9.212-9.212,9.212,9.212,0,0,0-9.212,9.212" transform="translate(-3277.795 -2506.168)" fill="#6ed177"/>
        <g id="Grupo_1240756" data-name="Grupo 1240756" transform="translate(59.395 232.063)" opacity="0.31">
          <g id="Grupo_1240755" data-name="Grupo 1240755" transform="translate(0)">
            <g id="Grupo_1240754" data-name="Grupo 1240754" clip-path="url(#clip-path-9)">
              <path id="Trazado_1239568" data-name="Trazado 1239568" d="M3383.6,2752.719a9.212,9.212,0,0,0,14.5,7.544,9.213,9.213,0,0,1-8.391-16.219,9.213,9.213,0,0,0-6.108,8.675" transform="translate(-3383.603 -2744.045)" fill="#3caf55"/>
            </g>
          </g>
        </g>
        <path id="Trazado_1239569" data-name="Trazado 1239569" d="M3397,2801.652a4.154,4.154,0,1,0,4.154-4.154,4.154,4.154,0,0,0-4.154,4.154" transform="translate(-3332.543 -2560.915)" fill="#2d2e2f"/>
        <rect id="Rectángulo_425060" data-name="Rectángulo 425060" width="60.903" height="6.046" transform="translate(88.465 264.555) rotate(-135)" fill="#f44536"/>
        <path id="Trazado_1239570" data-name="Trazado 1239570" d="M3078.982,1181.781a30.452,30.452,0,1,0,30.451-30.452,30.452,30.452,0,0,0-30.451,30.452" transform="translate(-3040.229 -1053.962)" fill="#d3e5fc"/>
        <path id="Trazado_1239571" data-name="Trazado 1239571" d="M3056.209,1163.925a35.258,35.258,0,1,0-13.768-2.78,35.149,35.149,0,0,0,13.768,2.78m0-69.215a33.846,33.846,0,1,1-33.846,33.846,33.885,33.885,0,0,1,33.846-33.846" transform="translate(-2987.005 -1000.738)" fill="#d3e5fc"/>
        <path id="Trazado_1239572" data-name="Trazado 1239572" d="M3218,1469.693a13.317,13.317,0,1,1,0-26.635,13.5,13.5,0,0,1,1.46.079.634.634,0,1,1-.138,1.261,12.236,12.236,0,0,0-1.323-.072,12.049,12.049,0,1,0,12.049,12.049c0-.213-.005-.428-.017-.64a.634.634,0,0,1,1.267-.066c.012.233.018.471.018.706A13.332,13.332,0,0,1,3218,1469.693" transform="translate(-3155.295 -1321.019)" fill="#32375f"/>
        <path id="Trazado_1239573" data-name="Trazado 1239573" d="M3231.347,1364.684a.634.634,0,0,1-.634-.634v-7.115h-7.536a.634.634,0,0,1,0-1.269h8.8v8.383a.634.634,0,0,1-.634.634" transform="translate(-3171.649 -1241.019)" fill="#32375f"/>
        <path id="Trazado_1239574" data-name="Trazado 1239574" d="M3421.36,1387.038h-4.619l-2.4-13.545h-15.572V1356.3a.634.634,0,0,1,1.269,0v15.925H3415.4l2.4,13.545h3.556a.634.634,0,1,1,0,1.269" transform="translate(-3332.968 -1241.018)" fill="#32375f"/>
        <path id="Trazado_1239575" data-name="Trazado 1239575" d="M3415.3,1444.326h-15.9a.634.634,0,0,1,0-1.269h15.9a.634.634,0,1,1,0,1.269" transform="translate(-3332.968 -1321.019)" fill="#32375f"/>
        <path id="Trazado_1239576" data-name="Trazado 1239576" d="M3359.526,1273.445a4.318,4.318,0,1,1,4.318-4.318,4.323,4.323,0,0,1-4.318,4.318m0-7.367a3.049,3.049,0,1,0,3.05,3.049,3.053,3.053,0,0,0-3.05-3.049" transform="translate(-3293.095 -1157.846)" fill="#32375f"/>
      </g>
    </g>
    <rect id="Rectángulo_425062" data-name="Rectángulo 425062" width="360.044" height="334.328" transform="translate(1094.15 2900.336)" fill="none"/>
  </g>
</svg>
