<svg xmlns="http://www.w3.org/2000/svg" xmlns:xlink="http://www.w3.org/1999/xlink" width="108" height="108" viewBox="0 0 108 108">
  <defs>
    <filter id="Trazado_904820" x="0" y="0" width="108" height="108" filterUnits="userSpaceOnUse">
      <feOffset dy="3" input="SourceAlpha"/>
      <feGaussianBlur stdDeviation="3" result="blur"/>
      <feFlood flood-opacity="0.161"/>
      <feComposite operator="in" in2="blur"/>
      <feComposite in="SourceGraphic"/>
    </filter>
  </defs>
  <g id="Grupo_1240621" data-name="Grupo 1240621" transform="translate(-196 -622.19)">
    <g id="Grupo_1226528" data-name="Grupo 1226528" transform="translate(0 118.19)">
      <g id="Grupo_1211686" data-name="Grupo 1211686" transform="translate(205 510)">
        <g id="Grupo_1173585" data-name="Grupo 1173585" transform="translate(0 0)">
          <g id="Grupo_1173428" data-name="Grupo 1173428">
            <g id="Grupo_1171958" data-name="Grupo 1171958">
              <g id="Grupo_1167341" data-name="Grupo 1167341">
                <g id="Grupo_1166792" data-name="Grupo 1166792">
                  <g transform="matrix(1, 0, 0, 1, -9, -6)" filter="url(#Trazado_904820)">
                    <g id="Trazado_904820-2" data-name="Trazado 904820" transform="translate(9 6)" fill="#ebfefd">
                      <path d="M 44.99999618530273 88.50003814697266 C 39.12687301635742 88.50003814697266 33.43022155761719 87.35011291503906 28.06829643249512 85.08219909667969 C 22.88852119445801 82.89134979248047 18.23629570007324 79.75462341308594 14.24084663391113 75.75917053222656 C 10.24540901184082 71.76372528076172 7.108683586120605 67.11149597167969 4.917821407318115 61.93172454833984 C 2.649921178817749 56.56979751586914 1.499996185302734 50.87314605712891 1.499996185302734 45.00002288818359 C 1.499996185302734 39.12689971923828 2.649921178817749 33.43024826049805 4.917821407318115 28.06832313537598 C 7.108683586120605 22.88854789733887 10.24540901184082 18.2363224029541 14.24084663391113 14.24087333679199 C 18.23629570007324 10.24543571472168 22.88852119445801 7.108710289001465 28.06829643249512 4.917848110198975 C 33.43022155761719 2.649947881698608 39.12687301635742 1.500022888183594 44.99999618530273 1.500022888183594 C 50.87311935424805 1.500022888183594 56.56977081298828 2.649947881698608 61.93169784545898 4.917848110198975 C 67.11147308349609 7.108710289001465 71.76369476318359 10.24543571472168 75.75914764404297 14.24087333679199 C 79.75458526611328 18.2363224029541 82.89131164550781 22.88854789733887 85.08216857910156 28.06832313537598 C 87.35007476806641 33.43024826049805 88.5 39.12689971923828 88.5 45.00002288818359 C 88.5 50.87314605712891 87.35007476806641 56.56979751586914 85.08216857910156 61.93172454833984 C 82.89131164550781 67.11149597167969 79.75458526611328 71.76372528076172 75.75914764404297 75.75917053222656 C 71.76369476318359 79.75462341308594 67.11147308349609 82.89134979248047 61.93169784545898 85.08219909667969 C 56.56977081298828 87.35011291503906 50.87311935424805 88.50003814697266 44.99999618530273 88.50003814697266 Z" stroke="none"/>
                      <path d="M 44.99999618530273 3.000007629394531 C 39.32870864868164 3.000007629394531 33.82865142822266 4.110069274902344 28.65262603759766 6.299354553222656 C 23.65165710449219 8.414581298828125 19.15968322753906 11.44335174560547 15.301513671875 15.30153656005859 C 11.44333648681641 19.15970611572266 8.414566040039062 23.65166473388672 6.299339294433594 28.65265274047852 C 4.110054016113281 33.82867813110352 2.999992370605469 39.3287353515625 2.999992370605469 45.00002288818359 C 2.999992370605469 50.67131042480469 4.110054016113281 56.17135238647461 6.299339294433594 61.34739685058594 C 8.414566040039062 66.34836578369141 11.44333648681641 70.84032440185547 15.301513671875 74.69850921630859 C 19.15968322753906 78.55667877197266 23.65165710449219 81.58544921875 28.65262603759766 83.70068359375 C 33.82865142822266 85.88996887207031 39.32870864868164 87.00002288818359 44.99999618530273 87.00002288818359 C 50.67128372192383 87.00002288818359 56.17134094238281 85.88996887207031 61.34736633300781 83.70068359375 C 66.34834289550781 81.58544921875 70.84030914306641 78.55667877197266 74.69847869873047 74.69850921630859 C 78.55665588378906 70.84032440185547 81.58542633056641 66.34836578369141 83.70065307617188 61.34739685058594 C 85.88993835449219 56.17135238647461 87 50.67131042480469 87 45.00002288818359 C 87 39.3287353515625 85.88993835449219 33.82867813110352 83.70065307617188 28.65265274047852 C 81.58542633056641 23.65166473388672 78.55665588378906 19.15970611572266 74.69847869873047 15.30153656005859 C 70.84030914306641 11.44335174560547 66.34834289550781 8.414581298828125 61.34736633300781 6.299354553222656 C 56.17134094238281 4.110069274902344 50.67128372192383 3.000007629394531 44.99999618530273 3.000007629394531 M 44.99999618530273 7.62939453125e-06 C 69.85281372070312 7.62939453125e-06 90 20.14720916748047 90 45.00002288818359 C 90 69.85282135009766 69.85281372070312 90.00002288818359 44.99999618530273 90.00002288818359 C 20.14717864990234 90.00002288818359 -7.62939453125e-06 69.85282135009766 -7.62939453125e-06 45.00002288818359 C -7.62939453125e-06 20.14720916748047 20.14717864990234 7.62939453125e-06 44.99999618530273 7.62939453125e-06 Z" stroke="none" fill="#268985"/>
                    </g>
                  </g>
                </g>
              </g>
            </g>
          </g>
        </g>
      </g>
    </g>
    <g id="sitio-web" transform="translate(219.469 642.66)">
      <g id="Grupo_1240620" data-name="Grupo 1240620" transform="translate(0.902 0.901)">
        <path id="Trazado_1238687" data-name="Trazado 1238687" d="M37.188,66.817A29.629,29.629,0,1,0,7.559,37.188,29.684,29.684,0,0,0,37.188,66.817Zm0,0" transform="translate(-7.559 -7.559)" fill="#ade3f7" fill-rule="evenodd"/>
        <path id="Trazado_1238688" data-name="Trazado 1238688" d="M16.183,25.025a29.745,29.745,0,0,1,12.4-13.613,29.448,29.448,0,0,1,8.6-3.243c.734-.15,1.478-.277,2.23-.372.259-.034.519-.061.782-.089q-1.485-.148-3.011-.15a29.629,29.629,0,1,0,0,59.258q1.526,0,3.011-.15c-.263-.027-.522-.055-.782-.089-.751-.1-1.5-.222-2.23-.372a29.37,29.37,0,0,1-8.6-3.243,29.663,29.663,0,0,1-12.4-37.936Zm0,0" transform="translate(-7.559 -7.558)" fill="#86bfdb" fill-rule="evenodd"/>
        <path id="Trazado_1238689" data-name="Trazado 1238689" d="M81.491,197.227h39.776a.993.993,0,0,1,.99.99v12.039a.993.993,0,0,1-.99.99H81.491a.992.992,0,0,1-.987-.99V198.217a.992.992,0,0,1,.987-.99Zm0,0" transform="translate(-71.805 -174.607)" fill="#ffd45e" fill-rule="evenodd"/>
        <path id="Trazado_1238690" data-name="Trazado 1238690" d="M86.79,201.006v-2.793a.992.992,0,0,1,.987-.99H81.491a.993.993,0,0,0-.987.99v12.039a.992.992,0,0,0,.987.99h6.286a.992.992,0,0,1-.987-.99Zm0,0" transform="translate(-71.805 -174.603)" fill="#ffac38" fill-rule="evenodd"/>
      </g>
      <path id="Trazado_1238691" data-name="Trazado 1238691" d="M52.119,8.942A30.531,30.531,0,0,0,8.942,52.119,30.531,30.531,0,0,0,52.119,8.942ZM50.364,22.62H48.242a44.771,44.771,0,0,0-1.216-5.45,31.094,31.094,0,0,1,4,1.946c4.932,2.872,7.8,6.576,8.185,10.513H52.255V24.511a1.893,1.893,0,0,0-1.891-1.891Zm-3.948,0H31.432V14.195A45.549,45.549,0,0,1,44.9,16.387a42.1,42.1,0,0,1,1.52,6.233ZM29.629,12.392a48.152,48.152,0,0,0-12.692,1.866,28.565,28.565,0,0,1,3.468-6.379c2.695-3.65,5.867-5.718,9.224-6.032Zm0,1.8V22.62H14.644a42.174,42.174,0,0,1,1.52-6.232,45.543,45.543,0,0,1,13.465-2.193ZM12.818,22.62h-2.23A1.892,1.892,0,0,0,8.7,24.511v5.118H1.848c.381-3.938,3.253-7.642,8.185-10.513a31.092,31.092,0,0,1,3.992-1.942,45.062,45.062,0,0,0-1.207,5.446ZM8.7,31.432V36.55a1.892,1.892,0,0,0,1.888,1.891h2.23a45.194,45.194,0,0,0,1.208,5.448,31.107,31.107,0,0,1-3.993-1.943c-4.932-2.871-7.8-6.576-8.185-10.514Zm5.944,7.009H29.629v8.425a45.565,45.565,0,0,1-13.465-2.192A42.129,42.129,0,0,1,14.644,38.441ZM29.629,48.668V59.214c-3.356-.314-6.529-2.383-9.224-6.032A28.556,28.556,0,0,1,16.938,46.8a48.168,48.168,0,0,0,12.691,1.865Zm1.8,0A48.149,48.149,0,0,0,44.123,46.8a28.569,28.569,0,0,1-3.467,6.379c-2.695,3.65-5.867,5.718-9.224,6.032Zm0-1.8V38.441h6.163a.9.9,0,0,0,0-1.8H10.588a.092.092,0,0,1-.086-.089V24.511a.092.092,0,0,1,.086-.089H50.364a.092.092,0,0,1,.089.089V36.55a.092.092,0,0,1-.089.089H41.913a.9.9,0,0,0,0,1.8h4.5A42.128,42.128,0,0,1,44.9,44.674a45.565,45.565,0,0,1-13.464,2.192Zm16.811-8.425h2.121a1.893,1.893,0,0,0,1.891-1.891V31.432h6.958c-.381,3.939-3.252,7.644-8.185,10.514a31.106,31.106,0,0,1-3.993,1.943,45.194,45.194,0,0,0,1.208-5.448ZM58.2,22.8a21.882,21.882,0,0,0-6.266-5.246,33.863,33.863,0,0,0-5.618-2.585A34.582,34.582,0,0,0,44.1,9.951a.9.9,0,0,0-1.582.864,31.755,31.755,0,0,1,1.609,3.444,48.14,48.14,0,0,0-12.693-1.866V1.846c3.153.3,6.163,2.156,8.755,5.42A.9.9,0,0,0,41.6,6.145,19.627,19.627,0,0,0,38.369,2.89,28.842,28.842,0,0,1,58.2,22.8ZM22.7,2.886c-3.315,2.587-6.1,6.788-7.975,12.092a33.83,33.83,0,0,0-5.6,2.579A21.882,21.882,0,0,0,2.86,22.8,28.843,28.843,0,0,1,22.7,2.887ZM2.86,38.259A21.886,21.886,0,0,0,9.126,43.5a33.866,33.866,0,0,0,5.6,2.579c1.871,5.3,4.659,9.5,7.975,12.091A28.844,28.844,0,0,1,2.86,38.259Zm35.5,19.915c3.315-2.587,6.1-6.787,7.975-12.091a33.852,33.852,0,0,0,5.6-2.579A21.886,21.886,0,0,0,58.2,38.259,28.844,28.844,0,0,1,38.358,58.174Zm0,0" transform="translate(0)"/>
      <path id="Trazado_1238692" data-name="Trazado 1238692" d="M131.341,228.44a.888.888,0,0,0-.908.7l-.987,3.2-.966-3.042c-.194-.577-.522-.867-.99-.867-.433,0-.744.29-.928.867l-.976,3.042-.99-3.2a.9.9,0,0,0-.919-.7.867.867,0,0,0-.655.273.911.911,0,0,0-.259.659,1.043,1.043,0,0,0,.072.386l1.652,4.428c.242.628.614.939,1.123.939.475,0,.809-.283,1-.853l.905-2.68.9,2.68c.2.57.536.853,1,.853.512,0,.887-.311,1.12-.939l1.652-4.428a1.187,1.187,0,0,0,.075-.386.91.91,0,0,0-.929-.932Zm0,0" transform="translate(-108.121 -201.188)"/>
      <path id="Trazado_1238693" data-name="Trazado 1238693" d="M304.056,234.124q.773,0,1.12-.942l1.656-4.428a1.234,1.234,0,0,0,.072-.386.909.909,0,0,0-.928-.928.878.878,0,0,0-.9.7l-.99,3.2-.966-3.042c-.191-.58-.522-.867-.99-.867-.434,0-.744.286-.929.867l-.976,3.042-.99-3.2a.9.9,0,0,0-.918-.7.868.868,0,0,0-.656.273.909.909,0,0,0-.259.655,1.04,1.04,0,0,0,.072.386l1.653,4.428c.242.628.615.942,1.123.942.475,0,.809-.286,1-.857l.9-2.677.905,2.677Q303.354,234.123,304.056,234.124Zm0,0" transform="translate(-261.927 -200.306)"/>
      <path id="Trazado_1238694" data-name="Trazado 1238694" d="M218.143,228.44a.884.884,0,0,0-.9.7l-.99,3.2-.966-3.042c-.191-.577-.522-.867-.987-.867-.437,0-.744.29-.932.867l-.977,3.042-.99-3.2a.9.9,0,0,0-.915-.7.875.875,0,0,0-.659.273.913.913,0,0,0-.259.659,1.052,1.052,0,0,0,.072.386l1.652,4.428c.243.628.618.939,1.124.939.475,0,.809-.283,1-.853l.9-2.68.905,2.68c.2.57.532.853,1,.853.516,0,.888-.311,1.123-.939L219,229.758a1.264,1.264,0,0,0,.071-.386.9.9,0,0,0-.266-.666A.9.9,0,0,0,218.143,228.44Zm0,0" transform="translate(-184.57 -201.188)"/>
    </g>
  </g>
</svg>
