<svg id="BACKGROUND" xmlns="http://www.w3.org/2000/svg" width="1328" height="551.734" viewBox="0 0 1328 551.734">
  <path id="Trazado_1056772" data-name="Trazado 1056772" d="M0,0H1328V551.735H0Z" fill="#eaf2fb"/>
  <g id="Grupo_1211043" data-name="Grupo 1211043">
    <path id="Trazado_1056656" data-name="Trazado 1056656" d="M0,551.735V0H1305.75c-6.45,15-17.246,29.628-32.989,43.565C1212,97.348,1087.209,134.083,965.5,166.944s-250,66.175-325.023,116.935c-66.907,45.264-83.934,100.647-65.65,152.853,14.048,40.056,49.2,79.77,114.737,110.38q5.043,2.35,10.331,4.624Z" fill="#cbe3ff"/>
    <path id="Trazado_1056657" data-name="Trazado 1056657" d="M0,117.59V0H252.31c-19.45,36.25-52.19,65.5-89.22,84.2C115.22,108.37,60.72,116.54,7.11,117.51c-2.37.05-4.74.07-7.11.08Z" fill="#a0c9f8"/>
    <path id="Trazado_1056658" data-name="Trazado 1056658" d="M27.92,408.98A57.02,57.02,0,1,1,84.94,466a57.022,57.022,0,0,1-57.02-57.02Z" transform="translate(0 51.735)" fill="#a0c9f8" opacity="0.48"/>
    <path id="Trazado_1056829" data-name="Trazado 1056829" d="M41.03,0A41.03,41.03,0,1,1,0,41.03,41.03,41.03,0,0,1,41.03,0Z" transform="translate(1219.47 398.035)" fill="#b6d7fc" opacity="0.54"/>
  </g>
</svg>
