<svg xmlns="http://www.w3.org/2000/svg" xmlns:xlink="http://www.w3.org/1999/xlink" width="1328" height="517" viewBox="0 0 1328 517">
  <defs>
    <clipPath id="clip-path">
      <rect id="Rectángulo_421791" data-name="Rectángulo 421791" width="1328" height="517" transform="translate(2497 3408)" fill="#fff" stroke="#707070" stroke-width="1"/>
    </clipPath>
    <clipPath id="clip-path-2">
      <rect id="Rectángulo_421774" data-name="Rectángulo 421774" width="1328" height="653.939"/>
    </clipPath>
    <clipPath id="clip-path-6">
      <rect id="Rectángulo_421778" data-name="Rectángulo 421778" width="1328" height="653.939" fill="#7f2046"/>
    </clipPath>
    <clipPath id="clip-path-9">
      <rect id="Rectángulo_421781" data-name="Rectángulo 421781" width="1328" height="653.939" fill="#79c9e0"/>
    </clipPath>
  </defs>
  <g id="Enmascarar_grupo_1159124" data-name="Enmascarar grupo 1159124" transform="translate(-2497 -3408)" clip-path="url(#clip-path)">
    <g id="Grupo_1211951" data-name="Grupo 1211951" transform="translate(1260 957.561)">
      <g id="OBJECT" transform="translate(1237 2325.5)">
        <g id="Grupo_1211917" data-name="Grupo 1211917" transform="translate(0 0)" clip-path="url(#clip-path-2)">
          <path id="Trazado_1057539" data-name="Trazado 1057539" d="M0,0H1328V653.939H0Z" fill="#154a48"/>
        </g>
        <g id="Grupo_1211919" data-name="Grupo 1211919" transform="translate(0 0)" opacity="0.19" clip-path="url(#clip-path-2)">
          <g id="Grupo_1211918" data-name="Grupo 1211918" opacity="0.35" clip-path="url(#clip-path-2)">
            <line id="Línea_3089" data-name="Línea 3089" x1="2223.036" y2="1282.989" transform="translate(-1918.191 -237.231)" fill="none" stroke="#fff" stroke-linecap="round" stroke-linejoin="round" stroke-miterlimit="10" stroke-width="2"/>
            <line id="Línea_3090" data-name="Línea 3090" x1="2223.036" y2="1282.989" transform="translate(-1882.126 -237.231)" fill="none" stroke="#fff" stroke-linecap="round" stroke-linejoin="round" stroke-miterlimit="10" stroke-width="2"/>
            <line id="Línea_3091" data-name="Línea 3091" x1="2223.036" y2="1282.989" transform="translate(-1846.061 -237.231)" fill="none" stroke="#fff" stroke-linecap="round" stroke-linejoin="round" stroke-miterlimit="10" stroke-width="2"/>
            <line id="Línea_3092" data-name="Línea 3092" x1="2223.036" y2="1282.989" transform="translate(-1809.998 -237.231)" fill="none" stroke="#fff" stroke-linecap="round" stroke-linejoin="round" stroke-miterlimit="10" stroke-width="2"/>
            <line id="Línea_3093" data-name="Línea 3093" x1="2223.036" y2="1282.989" transform="translate(-1773.932 -237.231)" fill="none" stroke="#fff" stroke-linecap="round" stroke-linejoin="round" stroke-miterlimit="10" stroke-width="2"/>
            <line id="Línea_3094" data-name="Línea 3094" x1="2223.034" y2="1282.989" transform="translate(-1737.867 -237.231)" fill="none" stroke="#fff" stroke-linecap="round" stroke-linejoin="round" stroke-miterlimit="10" stroke-width="2"/>
            <line id="Línea_3095" data-name="Línea 3095" x1="2223.036" y2="1282.989" transform="translate(-1701.804 -237.231)" fill="none" stroke="#fff" stroke-linecap="round" stroke-linejoin="round" stroke-miterlimit="10" stroke-width="2"/>
            <line id="Línea_3096" data-name="Línea 3096" x1="2223.036" y2="1282.989" transform="translate(-1665.739 -237.231)" fill="none" stroke="#fff" stroke-linecap="round" stroke-linejoin="round" stroke-miterlimit="10" stroke-width="2"/>
            <line id="Línea_3097" data-name="Línea 3097" x1="2223.036" y2="1282.989" transform="translate(-1629.676 -237.231)" fill="none" stroke="#fff" stroke-linecap="round" stroke-linejoin="round" stroke-miterlimit="10" stroke-width="2"/>
            <line id="Línea_3098" data-name="Línea 3098" x1="2223.036" y2="1282.989" transform="translate(-1593.61 -237.231)" fill="none" stroke="#fff" stroke-linecap="round" stroke-linejoin="round" stroke-miterlimit="10" stroke-width="2"/>
            <line id="Línea_3099" data-name="Línea 3099" x1="2223.036" y2="1282.989" transform="translate(-1557.545 -237.231)" fill="none" stroke="#fff" stroke-linecap="round" stroke-linejoin="round" stroke-miterlimit="10" stroke-width="2"/>
            <line id="Línea_3100" data-name="Línea 3100" x1="2223.036" y2="1282.989" transform="translate(-1521.482 -237.231)" fill="none" stroke="#fff" stroke-linecap="round" stroke-linejoin="round" stroke-miterlimit="10" stroke-width="2"/>
            <line id="Línea_3101" data-name="Línea 3101" x1="2223.036" y2="1282.989" transform="translate(-1485.416 -237.231)" fill="none" stroke="#fff" stroke-linecap="round" stroke-linejoin="round" stroke-miterlimit="10" stroke-width="2"/>
            <line id="Línea_3102" data-name="Línea 3102" x1="2223.036" y2="1282.989" transform="translate(-1449.351 -237.231)" fill="none" stroke="#fff" stroke-linecap="round" stroke-linejoin="round" stroke-miterlimit="10" stroke-width="2"/>
            <line id="Línea_3103" data-name="Línea 3103" x1="2223.036" y2="1282.989" transform="translate(-1413.288 -237.231)" fill="none" stroke="#fff" stroke-linecap="round" stroke-linejoin="round" stroke-miterlimit="10" stroke-width="2"/>
            <line id="Línea_3104" data-name="Línea 3104" x1="2223.034" y2="1282.989" transform="translate(-1377.223 -237.231)" fill="none" stroke="#fff" stroke-linecap="round" stroke-linejoin="round" stroke-miterlimit="10" stroke-width="2"/>
            <line id="Línea_3105" data-name="Línea 3105" x1="2223.036" y2="1282.989" transform="translate(-1341.159 -237.231)" fill="none" stroke="#fff" stroke-linecap="round" stroke-linejoin="round" stroke-miterlimit="10" stroke-width="2"/>
            <line id="Línea_3106" data-name="Línea 3106" x1="2223.036" y2="1282.989" transform="translate(-1305.094 -237.231)" fill="none" stroke="#fff" stroke-linecap="round" stroke-linejoin="round" stroke-miterlimit="10" stroke-width="2"/>
            <line id="Línea_3107" data-name="Línea 3107" x1="2223.036" y2="1282.989" transform="translate(-1269.029 -237.231)" fill="none" stroke="#fff" stroke-linecap="round" stroke-linejoin="round" stroke-miterlimit="10" stroke-width="2"/>
            <line id="Línea_3108" data-name="Línea 3108" x1="2223.038" y2="1282.989" transform="translate(-1232.965 -237.231)" fill="none" stroke="#fff" stroke-linecap="round" stroke-linejoin="round" stroke-miterlimit="10" stroke-width="2"/>
            <line id="Línea_3109" data-name="Línea 3109" x1="2223.036" y2="1282.989" transform="translate(-1196.9 -237.231)" fill="none" stroke="#fff" stroke-linecap="round" stroke-linejoin="round" stroke-miterlimit="10" stroke-width="2"/>
            <line id="Línea_3110" data-name="Línea 3110" x1="2223.034" y2="1282.989" transform="translate(-1160.835 -237.231)" fill="none" stroke="#fff" stroke-linecap="round" stroke-linejoin="round" stroke-miterlimit="10" stroke-width="2"/>
            <line id="Línea_3111" data-name="Línea 3111" x1="2223.036" y2="1282.989" transform="translate(-1124.772 -237.231)" fill="none" stroke="#fff" stroke-linecap="round" stroke-linejoin="round" stroke-miterlimit="10" stroke-width="2"/>
            <line id="Línea_3112" data-name="Línea 3112" x1="2223.036" y2="1282.989" transform="translate(-1088.707 -237.231)" fill="none" stroke="#fff" stroke-linecap="round" stroke-linejoin="round" stroke-miterlimit="10" stroke-width="2"/>
            <line id="Línea_3113" data-name="Línea 3113" x1="2223.036" y2="1282.989" transform="translate(-1052.641 -237.231)" fill="none" stroke="#fff" stroke-linecap="round" stroke-linejoin="round" stroke-miterlimit="10" stroke-width="2"/>
            <line id="Línea_3114" data-name="Línea 3114" x1="2223.036" y2="1282.989" transform="translate(-1016.578 -237.231)" fill="none" stroke="#fff" stroke-linecap="round" stroke-linejoin="round" stroke-miterlimit="10" stroke-width="2"/>
            <line id="Línea_3115" data-name="Línea 3115" x1="2223.036" y2="1282.989" transform="translate(-980.513 -237.231)" fill="none" stroke="#fff" stroke-linecap="round" stroke-linejoin="round" stroke-miterlimit="10" stroke-width="2"/>
            <line id="Línea_3116" data-name="Línea 3116" x1="2223.034" y2="1282.989" transform="translate(-944.448 -237.231)" fill="none" stroke="#fff" stroke-linecap="round" stroke-linejoin="round" stroke-miterlimit="10" stroke-width="2"/>
            <line id="Línea_3117" data-name="Línea 3117" x1="2223.036" y2="1282.989" transform="translate(-908.384 -237.231)" fill="none" stroke="#fff" stroke-linecap="round" stroke-linejoin="round" stroke-miterlimit="10" stroke-width="2"/>
            <line id="Línea_3118" data-name="Línea 3118" x1="2223.036" y2="1282.989" transform="translate(-872.319 -237.231)" fill="none" stroke="#fff" stroke-linecap="round" stroke-linejoin="round" stroke-miterlimit="10" stroke-width="2"/>
            <line id="Línea_3119" data-name="Línea 3119" x1="2223.034" y2="1282.989" transform="translate(-836.254 -237.231)" fill="none" stroke="#fff" stroke-linecap="round" stroke-linejoin="round" stroke-miterlimit="10" stroke-width="2"/>
            <line id="Línea_3120" data-name="Línea 3120" x1="2223.036" y2="1282.989" transform="translate(-800.19 -237.231)" fill="none" stroke="#fff" stroke-linecap="round" stroke-linejoin="round" stroke-miterlimit="10" stroke-width="2"/>
            <line id="Línea_3121" data-name="Línea 3121" x1="2223.034" y2="1282.989" transform="translate(-764.125 -237.231)" fill="none" stroke="#fff" stroke-linecap="round" stroke-linejoin="round" stroke-miterlimit="10" stroke-width="2"/>
            <line id="Línea_3122" data-name="Línea 3122" x1="2223.034" y2="1282.989" transform="translate(-728.06 -237.231)" fill="none" stroke="#fff" stroke-linecap="round" stroke-linejoin="round" stroke-miterlimit="10" stroke-width="2"/>
            <line id="Línea_3123" data-name="Línea 3123" x1="2223.036" y2="1282.989" transform="translate(-691.997 -237.231)" fill="none" stroke="#fff" stroke-linecap="round" stroke-linejoin="round" stroke-miterlimit="10" stroke-width="2"/>
            <line id="Línea_3124" data-name="Línea 3124" x1="2223.034" y2="1282.989" transform="translate(-655.931 -237.231)" fill="none" stroke="#fff" stroke-linecap="round" stroke-linejoin="round" stroke-miterlimit="10" stroke-width="2"/>
            <line id="Línea_3125" data-name="Línea 3125" x1="2223.034" y2="1282.989" transform="translate(-619.866 -237.231)" fill="none" stroke="#fff" stroke-linecap="round" stroke-linejoin="round" stroke-miterlimit="10" stroke-width="2"/>
            <line id="Línea_3126" data-name="Línea 3126" x1="2223.036" y2="1282.989" transform="translate(-583.803 -237.231)" fill="none" stroke="#fff" stroke-linecap="round" stroke-linejoin="round" stroke-miterlimit="10" stroke-width="2"/>
            <line id="Línea_3127" data-name="Línea 3127" x1="2223.034" y2="1282.989" transform="translate(-547.738 -237.231)" fill="none" stroke="#fff" stroke-linecap="round" stroke-linejoin="round" stroke-miterlimit="10" stroke-width="2"/>
            <line id="Línea_3128" data-name="Línea 3128" x1="2223.034" y2="1282.989" transform="translate(-511.672 -237.231)" fill="none" stroke="#fff" stroke-linecap="round" stroke-linejoin="round" stroke-miterlimit="10" stroke-width="2"/>
            <line id="Línea_3129" data-name="Línea 3129" x1="2223.034" y2="1282.989" transform="translate(-475.609 -237.231)" fill="none" stroke="#fff" stroke-linecap="round" stroke-linejoin="round" stroke-miterlimit="10" stroke-width="2"/>
            <line id="Línea_3130" data-name="Línea 3130" x1="2223.034" y2="1282.989" transform="translate(-439.544 -237.231)" fill="none" stroke="#fff" stroke-linecap="round" stroke-linejoin="round" stroke-miterlimit="10" stroke-width="2"/>
            <line id="Línea_3131" data-name="Línea 3131" x1="2223.034" y2="1282.989" transform="translate(-403.479 -237.231)" fill="none" stroke="#fff" stroke-linecap="round" stroke-linejoin="round" stroke-miterlimit="10" stroke-width="2"/>
            <line id="Línea_3132" data-name="Línea 3132" x1="2223.036" y2="1282.989" transform="translate(-367.415 -237.231)" fill="none" stroke="#fff" stroke-linecap="round" stroke-linejoin="round" stroke-miterlimit="10" stroke-width="2"/>
            <line id="Línea_3133" data-name="Línea 3133" x1="2223.034" y2="1282.989" transform="translate(-331.35 -237.231)" fill="none" stroke="#fff" stroke-linecap="round" stroke-linejoin="round" stroke-miterlimit="10" stroke-width="2"/>
            <line id="Línea_3134" data-name="Línea 3134" x1="2223.04" y2="1282.989" transform="translate(-295.287 -237.231)" fill="none" stroke="#fff" stroke-linecap="round" stroke-linejoin="round" stroke-miterlimit="10" stroke-width="2"/>
            <line id="Línea_3135" data-name="Línea 3135" x1="2223.032" y2="1282.989" transform="translate(-259.222 -237.231)" fill="none" stroke="#fff" stroke-linecap="round" stroke-linejoin="round" stroke-miterlimit="10" stroke-width="2"/>
            <line id="Línea_3136" data-name="Línea 3136" x1="2223.044" y2="1282.989" transform="translate(-223.156 -237.231)" fill="none" stroke="#fff" stroke-linecap="round" stroke-linejoin="round" stroke-miterlimit="10" stroke-width="2"/>
            <line id="Línea_3137" data-name="Línea 3137" x1="2223.038" y2="1282.989" transform="translate(-187.093 -237.231)" fill="none" stroke="#fff" stroke-linecap="round" stroke-linejoin="round" stroke-miterlimit="10" stroke-width="2"/>
            <line id="Línea_3138" data-name="Línea 3138" x1="2223.03" y2="1282.989" transform="translate(-151.028 -237.231)" fill="none" stroke="#fff" stroke-linecap="round" stroke-linejoin="round" stroke-miterlimit="10" stroke-width="2"/>
            <line id="Línea_3139" data-name="Línea 3139" x1="2223.042" y2="1282.989" transform="translate(-114.963 -237.231)" fill="none" stroke="#fff" stroke-linecap="round" stroke-linejoin="round" stroke-miterlimit="10" stroke-width="2"/>
            <line id="Línea_3140" data-name="Línea 3140" x1="2223.036" y2="1282.989" transform="translate(-78.899 -237.231)" fill="none" stroke="#fff" stroke-linecap="round" stroke-linejoin="round" stroke-miterlimit="10" stroke-width="2"/>
            <line id="Línea_3141" data-name="Línea 3141" x1="2223.028" y2="1282.989" transform="translate(-42.834 -237.231)" fill="none" stroke="#fff" stroke-linecap="round" stroke-linejoin="round" stroke-miterlimit="10" stroke-width="2"/>
            <line id="Línea_3142" data-name="Línea 3142" x1="2223.042" y2="1282.989" transform="translate(-6.771 -237.231)" fill="none" stroke="#fff" stroke-linecap="round" stroke-linejoin="round" stroke-miterlimit="10" stroke-width="2"/>
            <line id="Línea_3143" data-name="Línea 3143" x1="2223.034" y2="1282.989" transform="translate(29.294 -237.231)" fill="none" stroke="#fff" stroke-linecap="round" stroke-linejoin="round" stroke-miterlimit="10" stroke-width="2"/>
            <line id="Línea_3144" data-name="Línea 3144" x1="2223.046" y2="1282.989" transform="translate(65.36 -237.231)" fill="none" stroke="#fff" stroke-linecap="round" stroke-linejoin="round" stroke-miterlimit="10" stroke-width="2"/>
            <line id="Línea_3145" data-name="Línea 3145" x1="2223.04" y2="1282.989" transform="translate(101.423 -237.231)" fill="none" stroke="#fff" stroke-linecap="round" stroke-linejoin="round" stroke-miterlimit="10" stroke-width="2"/>
            <line id="Línea_3146" data-name="Línea 3146" x1="2223.032" y2="1282.989" transform="translate(137.488 -237.231)" fill="none" stroke="#fff" stroke-linecap="round" stroke-linejoin="round" stroke-miterlimit="10" stroke-width="2"/>
            <line id="Línea_3147" data-name="Línea 3147" x1="2223.024" y2="1282.989" transform="translate(173.554 -237.231)" fill="none" stroke="#fff" stroke-linecap="round" stroke-linejoin="round" stroke-miterlimit="10" stroke-width="2"/>
            <line id="Línea_3148" data-name="Línea 3148" x1="2223.038" y2="1282.989" transform="translate(209.617 -237.231)" fill="none" stroke="#fff" stroke-linecap="round" stroke-linejoin="round" stroke-miterlimit="10" stroke-width="2"/>
            <line id="Línea_3149" data-name="Línea 3149" x1="2223.03" y2="1282.989" transform="translate(245.682 -237.231)" fill="none" stroke="#fff" stroke-linecap="round" stroke-linejoin="round" stroke-miterlimit="10" stroke-width="2"/>
            <line id="Línea_3150" data-name="Línea 3150" x1="2223.044" y2="1282.989" transform="translate(281.745 -237.231)" fill="none" stroke="#fff" stroke-linecap="round" stroke-linejoin="round" stroke-miterlimit="10" stroke-width="2"/>
            <line id="Línea_3151" data-name="Línea 3151" x1="2223.036" y2="1282.989" transform="translate(317.811 -237.231)" fill="none" stroke="#fff" stroke-linecap="round" stroke-linejoin="round" stroke-miterlimit="10" stroke-width="2"/>
            <line id="Línea_3152" data-name="Línea 3152" x1="2223.028" y2="1282.989" transform="translate(353.876 -237.231)" fill="none" stroke="#fff" stroke-linecap="round" stroke-linejoin="round" stroke-miterlimit="10" stroke-width="2"/>
            <line id="Línea_3153" data-name="Línea 3153" x1="2223.042" y2="1282.989" transform="translate(389.939 -237.231)" fill="none" stroke="#fff" stroke-linecap="round" stroke-linejoin="round" stroke-miterlimit="10" stroke-width="2"/>
            <line id="Línea_3154" data-name="Línea 3154" x1="2223.034" y2="1282.989" transform="translate(426.004 -237.231)" fill="none" stroke="#fff" stroke-linecap="round" stroke-linejoin="round" stroke-miterlimit="10" stroke-width="2"/>
            <line id="Línea_3155" data-name="Línea 3155" x1="2223.026" y2="1282.989" transform="translate(462.07 -237.231)" fill="none" stroke="#fff" stroke-linecap="round" stroke-linejoin="round" stroke-miterlimit="10" stroke-width="2"/>
            <line id="Línea_3156" data-name="Línea 3156" x1="2223.04" y2="1282.989" transform="translate(498.133 -237.231)" fill="none" stroke="#fff" stroke-linecap="round" stroke-linejoin="round" stroke-miterlimit="10" stroke-width="2"/>
            <line id="Línea_3157" data-name="Línea 3157" x1="2223.032" y2="1282.989" transform="translate(534.198 -237.231)" fill="none" stroke="#fff" stroke-linecap="round" stroke-linejoin="round" stroke-miterlimit="10" stroke-width="2"/>
            <line id="Línea_3158" data-name="Línea 3158" x1="2223.024" y2="1282.989" transform="translate(570.263 -237.231)" fill="none" stroke="#fff" stroke-linecap="round" stroke-linejoin="round" stroke-miterlimit="10" stroke-width="2"/>
            <line id="Línea_3159" data-name="Línea 3159" x1="2223.038" y2="1282.989" transform="translate(606.327 -237.231)" fill="none" stroke="#fff" stroke-linecap="round" stroke-linejoin="round" stroke-miterlimit="10" stroke-width="2"/>
            <line id="Línea_3160" data-name="Línea 3160" x1="2223.03" y2="1282.989" transform="translate(642.392 -237.231)" fill="none" stroke="#fff" stroke-linecap="round" stroke-linejoin="round" stroke-miterlimit="10" stroke-width="2"/>
            <line id="Línea_3161" data-name="Línea 3161" x1="2223.042" y2="1282.989" transform="translate(678.457 -237.231)" fill="none" stroke="#fff" stroke-linecap="round" stroke-linejoin="round" stroke-miterlimit="10" stroke-width="2"/>
            <line id="Línea_3162" data-name="Línea 3162" x1="2223.036" y2="1282.989" transform="translate(714.52 -237.231)" fill="none" stroke="#fff" stroke-linecap="round" stroke-linejoin="round" stroke-miterlimit="10" stroke-width="2"/>
            <line id="Línea_3163" data-name="Línea 3163" x1="2223.028" y2="1282.989" transform="translate(750.586 -237.231)" fill="none" stroke="#fff" stroke-linecap="round" stroke-linejoin="round" stroke-miterlimit="10" stroke-width="2"/>
            <line id="Línea_3164" data-name="Línea 3164" x1="2223.04" y2="1282.989" transform="translate(786.651 -237.231)" fill="none" stroke="#fff" stroke-linecap="round" stroke-linejoin="round" stroke-miterlimit="10" stroke-width="2"/>
            <line id="Línea_3165" data-name="Línea 3165" x1="2223.034" y2="1282.989" transform="translate(822.714 -237.231)" fill="none" stroke="#fff" stroke-linecap="round" stroke-linejoin="round" stroke-miterlimit="10" stroke-width="2"/>
            <line id="Línea_3166" data-name="Línea 3166" x1="2223.026" y2="1282.989" transform="translate(858.779 -237.231)" fill="none" stroke="#fff" stroke-linecap="round" stroke-linejoin="round" stroke-miterlimit="10" stroke-width="2"/>
            <line id="Línea_3167" data-name="Línea 3167" x1="2223.038" y2="1282.989" transform="translate(894.845 -237.231)" fill="none" stroke="#fff" stroke-linecap="round" stroke-linejoin="round" stroke-miterlimit="10" stroke-width="2"/>
            <line id="Línea_3168" data-name="Línea 3168" x1="2223.032" y2="1282.989" transform="translate(930.908 -237.231)" fill="none" stroke="#fff" stroke-linecap="round" stroke-linejoin="round" stroke-miterlimit="10" stroke-width="2"/>
            <line id="Línea_3169" data-name="Línea 3169" x1="2223.044" y2="1282.989" transform="translate(966.973 -237.231)" fill="none" stroke="#fff" stroke-linecap="round" stroke-linejoin="round" stroke-miterlimit="10" stroke-width="2"/>
            <line id="Línea_3170" data-name="Línea 3170" x1="2223.038" y2="1282.989" transform="translate(1003.036 -237.231)" fill="none" stroke="#fff" stroke-linecap="round" stroke-linejoin="round" stroke-miterlimit="10" stroke-width="2"/>
            <line id="Línea_3171" data-name="Línea 3171" x1="2223.03" y2="1282.989" transform="translate(1039.102 -237.231)" fill="none" stroke="#fff" stroke-linecap="round" stroke-linejoin="round" stroke-miterlimit="10" stroke-width="2"/>
            <line id="Línea_3172" data-name="Línea 3172" x1="2223.042" y2="1282.989" transform="translate(1075.167 -237.231)" fill="none" stroke="#fff" stroke-linecap="round" stroke-linejoin="round" stroke-miterlimit="10" stroke-width="2"/>
            <line id="Línea_3173" data-name="Línea 3173" x1="2223.034" y2="1282.989" transform="translate(1111.232 -237.231)" fill="none" stroke="#fff" stroke-linecap="round" stroke-linejoin="round" stroke-miterlimit="10" stroke-width="2"/>
            <line id="Línea_3174" data-name="Línea 3174" x1="2223.028" y2="1282.989" transform="translate(1147.296 -237.231)" fill="none" stroke="#fff" stroke-linecap="round" stroke-linejoin="round" stroke-miterlimit="10" stroke-width="2"/>
            <line id="Línea_3175" data-name="Línea 3175" x1="2223.04" y2="1282.989" transform="translate(1183.361 -237.231)" fill="none" stroke="#fff" stroke-linecap="round" stroke-linejoin="round" stroke-miterlimit="10" stroke-width="2"/>
            <line id="Línea_3176" data-name="Línea 3176" x1="2223.034" y2="1282.989" transform="translate(1219.424 -237.231)" fill="none" stroke="#fff" stroke-linecap="round" stroke-linejoin="round" stroke-miterlimit="10" stroke-width="2"/>
            <line id="Línea_3177" data-name="Línea 3177" x1="2223.026" y2="1282.989" transform="translate(1255.489 -237.231)" fill="none" stroke="#fff" stroke-linecap="round" stroke-linejoin="round" stroke-miterlimit="10" stroke-width="2"/>
            <line id="Línea_3178" data-name="Línea 3178" x1="2223.038" y2="1282.989" transform="translate(1291.555 -237.231)" fill="none" stroke="#fff" stroke-linecap="round" stroke-linejoin="round" stroke-miterlimit="10" stroke-width="2"/>
            <line id="Línea_3179" data-name="Línea 3179" x1="2223.032" y2="1282.989" transform="translate(1327.618 -237.231)" fill="none" stroke="#fff" stroke-linecap="round" stroke-linejoin="round" stroke-miterlimit="10" stroke-width="2"/>
            <line id="Línea_3180" data-name="Línea 3180" x1="2223.044" y2="1282.989" transform="translate(1363.683 -237.231)" fill="none" stroke="#fff" stroke-linecap="round" stroke-linejoin="round" stroke-miterlimit="10" stroke-width="2"/>
            <line id="Línea_3181" data-name="Línea 3181" x1="2223.038" y2="1282.989" transform="translate(1399.746 -237.231)" fill="none" stroke="#fff" stroke-linecap="round" stroke-linejoin="round" stroke-miterlimit="10" stroke-width="2"/>
            <line id="Línea_3182" data-name="Línea 3182" x1="2223.03" y2="1282.989" transform="translate(1435.812 -237.231)" fill="none" stroke="#fff" stroke-linecap="round" stroke-linejoin="round" stroke-miterlimit="10" stroke-width="2"/>
            <line id="Línea_3183" data-name="Línea 3183" x1="2223.042" y2="1282.989" transform="translate(1471.877 -237.231)" fill="none" stroke="#fff" stroke-linecap="round" stroke-linejoin="round" stroke-miterlimit="10" stroke-width="2"/>
          </g>
        </g>
        <g id="Grupo_1211920" data-name="Grupo 1211920" transform="translate(0 0)" clip-path="url(#clip-path-2)">
          <path id="Trazado_1057540" data-name="Trazado 1057540" d="M478.4,741.439H315.42L186.644,87.5H349.626Z" transform="translate(98.361 -87.5)" fill="#e93b81"/>
        </g>
        <g id="Grupo_1211921" data-name="Grupo 1211921" transform="translate(0 0)" clip-path="url(#clip-path-6)">
          <path id="Trazado_1057541" data-name="Trazado 1057541" d="M559.042,741.439H396.06L267.284,87.5H430.266Z" transform="translate(179.978 -87.5)" fill="#7f2046"/>
        </g>
        <g id="Grupo_1211922" data-name="Grupo 1211922" transform="translate(0 0)" clip-path="url(#clip-path-2)">
          <path id="Trazado_1057542" data-name="Trazado 1057542" d="M398.223,741.439H235.241L106.465,87.5H269.447Z" transform="translate(17.21 -87.5)" fill="#f6b0cc"/>
        </g>
        <g id="Grupo_1211928" data-name="Grupo 1211928" transform="translate(0 0)" clip-path="url(#clip-path-2)">
          <g id="Grupo_1211923" data-name="Grupo 1211923" transform="translate(0.002 23.93)">
            <path id="Trazado_1057543" data-name="Trazado 1057543" d="M48.689,288.508c.358.085.7.167,1.06.237a92.892,92.892,0,0,0,12.956,2c2.618.225,5.3.334,7.976.334h.133A95.479,95.479,0,0,0,92.94,288.51,93.3,93.3,0,0,0,105.99,284.4a96.135,96.135,0,0,0,34.427-23.327c1.821-1.942,3.572-3.942,5.24-6.026a93.662,93.662,0,0,0,7.489-10.789q2.182-3.643,4.026-7.477a93.153,93.153,0,0,0,5.489-14.111v-.012c.131-.453.262-.893.392-1.356a92.185,92.185,0,0,0,2.906-14.552c.155-1.213.274-2.429.37-3.654.225-2.584.334-5.215.334-7.859,0-.274,0-.545-.012-.821,0-.3,0-.606-.012-.9-.048-2.646-.2-5.252-.463-7.847v-.01c-.095-1.012-.215-2.026-.346-3.026a93.966,93.966,0,0,0-2.358-11.92c-.143-.559-.3-1.119-.453-1.68-.547-1.942-1.167-3.847-1.833-5.729a93.145,93.145,0,0,0-3.881-9.324c-.249-.547-.511-1.085-.787-1.62-.833-1.668-1.714-3.3-2.644-4.918-1.121-1.918-2.286-3.811-3.535-5.644-.012-.024-.036-.048-.048-.072a93.907,93.907,0,0,0-7.5-9.706c-.954-1.1-1.93-2.155-2.966-3.2a87.886,87.886,0,0,0-6.395-6.085c-.656-.559-1.31-1.121-1.988-1.654a91.9,91.9,0,0,0-9-6.562q-3.392-2.179-6.99-4.073c-1.809-.964-3.668-1.869-5.561-2.716a95.068,95.068,0,0,0-16.707-5.692c-.024-.01-.06-.01-.082-.022a93.155,93.155,0,0,0-14.218-2.274q-3.984-.341-8.063-.346a95.328,95.328,0,0,0-14.849,1.155h-.012A95.164,95.164,0,0,0,45,102.93v8.254a87.272,87.272,0,0,1,14.6-3.157,89.787,89.787,0,0,1,11.218-.7,87.9,87.9,0,0,1,8.9.443c.036,0,.085.012.119.012h.012a86.852,86.852,0,0,1,19.731,4.382c2.121.724,4.2,1.547,6.24,2.429h.012c2.62,1.145,5.157,2.406,7.634,3.789a88.512,88.512,0,0,1,9.682,6.264q1.071.785,2.107,1.608a86.652,86.652,0,0,1,6.763,5.93c1.06,1.024,2.072,2.085,3.073,3.155a87.189,87.189,0,0,1,7.789,9.6c.012.024.024.036.036.06.573.8,1.119,1.632,1.668,2.453a88.613,88.613,0,0,1,4.654,8.05c.274.535.535,1.07.787,1.618a84.145,84.145,0,0,1,3.869,9.324c.654,1.881,1.25,3.809,1.775,5.763.155.559.3,1.119.441,1.68a83.489,83.489,0,0,1,2.131,12.026c.107,1.012.2,2.038.274,3.06.143,1.8.215,3.62.225,5.453v.821c0,.571,0,1.133-.01,1.68a91.107,91.107,0,0,1-.726,9.765c-.165,1.25-.358,2.5-.573,3.739a86.849,86.849,0,0,1-4.048,15.053c-.179.477-.356.954-.547,1.429a86.606,86.606,0,0,1-7.527,15,84.689,84.689,0,0,1-5.881,8.264,88.554,88.554,0,0,1-13.087,13.206,87.572,87.572,0,0,1-55.514,19.791q-3.715,0-7.358-.31A86.344,86.344,0,0,1,45,279.3v8.252C46.212,287.9,47.452,288.211,48.689,288.508Zm96.966-33.462a93.655,93.655,0,0,0,7.489-10.789q2.182-3.643,4.026-7.477a93.148,93.148,0,0,0,5.489-14.111v-.012c.131-.453.262-.893.392-1.356a92.188,92.188,0,0,0,2.906-14.552c.155-1.213.274-2.429.37-3.654.225-2.584.334-5.215.334-7.859,0-.274,0-.545-.012-.821h-2.119l-5.811,2.5a91.1,91.1,0,0,1-.726,9.765c-.165,1.25-.358,2.5-.573,3.738a86.853,86.853,0,0,1-4.048,15.053c-.179.477-.356.954-.547,1.429a86.6,86.6,0,0,1-7.527,15,84.675,84.675,0,0,1-5.881,8.264,88.55,88.55,0,0,1-13.087,13.206Z" transform="translate(-45.001 -99.393)" fill="#79c9e0"/>
          </g>
          <g id="Grupo_1211924" data-name="Grupo 1211924" transform="translate(-0.002 36.834)">
            <path id="Trazado_1057544" data-name="Trazado 1057544" d="M118.973,131.288c1.167.964,2.3,1.976,3.394,3.012a77.881,77.881,0,0,1,6.215,6.646c.726.893,1.441,1.8,2.133,2.7a.228.228,0,0,1,.048.072,72.96,72.96,0,0,1,6.562,10.395q.41.806.821,1.608a74.753,74.753,0,0,1,3.847,9.336c.63,1.905,1.191,3.835,1.666,5.8.133.559.262,1.133.392,1.7a72.554,72.554,0,0,1,1.654,12.23c.06,1.036.095,2.085.107,3.131v.821q0,3.752-.356,7.4a73.907,73.907,0,0,1-1.726,10.191c-.322,1.334-.678,2.656-1.07,3.954a73.866,73.866,0,0,1-7.169,16.4l11.385-4.906a81.678,81.678,0,0,0,4.988-15.457c.276-1.26.525-2.523.738-3.809a84.554,84.554,0,0,0,1.06-9.9c.06-1.286.083-2.571.083-3.869,0-.274,0-.545-.01-.821-.012-1.119-.036-2.238-.095-3.358-.048-1.024-.119-2.06-.213-3.085a80.873,80.873,0,0,0-1.966-12.1c-.129-.573-.274-1.131-.427-1.69q-.77-2.931-1.74-5.775a80.389,80.389,0,0,0-3.857-9.324c-.262-.547-.537-1.085-.811-1.62a82.173,82.173,0,0,0-6.073-10.026c-.107-.143-.2-.286-.32-.441a.245.245,0,0,0-.048-.07,84.6,84.6,0,0,0-7.966-9.5q-1.554-1.591-3.191-3.109A81.917,81.917,0,0,0,120,122.014l-8.574,3.69A73.874,73.874,0,0,1,118.973,131.288ZM62.064,271.218a81.99,81.99,0,0,0,8.753.465c1.25,0,2.477-.024,3.7-.085h.012A82.56,82.56,0,0,0,128.3,248.461a82.6,82.6,0,0,0,17.908-25.21c.239-.489.455-.976.668-1.477a81.679,81.679,0,0,0,4.988-15.457c.276-1.26.525-2.523.738-3.809a84.557,84.557,0,0,0,1.06-9.9c.06-1.286.082-2.571.082-3.869,0-.274,0-.545-.01-.821-.012-1.119-.036-2.238-.095-3.358-.048-1.024-.119-2.06-.213-3.085a80.873,80.873,0,0,0-1.966-12.1c-.129-.573-.274-1.131-.427-1.69q-.77-2.931-1.74-5.775a80.387,80.387,0,0,0-3.857-9.324c-.262-.547-.537-1.085-.811-1.62a82.179,82.179,0,0,0-6.073-10.026c-.107-.143-.2-.286-.32-.441a.245.245,0,0,0-.048-.07,84.6,84.6,0,0,0-7.966-9.5q-1.554-1.591-3.191-3.109A81.919,81.919,0,0,0,120,122.014c-.726-.537-1.453-1.06-2.2-1.561a78.556,78.556,0,0,0-10.23-6.036,81.365,81.365,0,0,0-8.218-3.537q-3.341-1.231-6.823-2.179a82.7,82.7,0,0,0-21.709-2.893c-.525,0-1.036.012-1.547.026h-.143A82.425,82.425,0,0,0,45,109.929v8.395a74.721,74.721,0,0,1,34.617-4.06,69.782,69.782,0,0,1,8.419,1.489h.012a71.565,71.565,0,0,1,9.574,2.94,74.134,74.134,0,0,1,11.395,5.537h.012c.811.477,1.608.964,2.392,1.477a73.872,73.872,0,0,1,7.551,5.584c1.167.964,2.3,1.976,3.394,3.012a77.883,77.883,0,0,1,6.215,6.646c.726.893,1.441,1.8,2.133,2.7a.228.228,0,0,1,.048.072,72.96,72.96,0,0,1,6.562,10.395q.41.806.821,1.608a74.753,74.753,0,0,1,3.847,9.336c.63,1.905,1.191,3.835,1.666,5.8.133.559.262,1.133.392,1.7a72.554,72.554,0,0,1,1.654,12.23c.06,1.036.095,2.085.107,3.131v.821q0,3.752-.356,7.4a73.908,73.908,0,0,1-1.726,10.191c-.322,1.334-.678,2.656-1.07,3.954a73.866,73.866,0,0,1-7.169,16.4c-.322.535-.642,1.07-.976,1.608a75.052,75.052,0,0,1-53.48,34.757,74.035,74.035,0,0,1-10.218.7,74.8,74.8,0,0,1-15.159-1.537c-.62-.119-1.225-.251-1.835-.392A73.046,73.046,0,0,1,45,259.178v8.383A80.43,80.43,0,0,0,62.064,271.218Z" transform="translate(-44.999 -105.806)" fill="#79c9e0"/>
          </g>
          <g id="Grupo_1211927" data-name="Grupo 1211927">
            <g id="Grupo_1211926" data-name="Grupo 1211926">
              <g id="Grupo_1211925" data-name="Grupo 1211925">
                <path id="Trazado_1057545" data-name="Trazado 1057545" d="M57.479,326.3c.024,0,.058.012.085.012a118.8,118.8,0,0,0,13.254.738,121.138,121.138,0,0,0,18.445-1.417c3.68-.571,7.31-1.322,10.871-2.2a.044.044,0,0,1,.036-.012c.012-.012.012-.012.024-.012a119.375,119.375,0,0,0,34.45-14.825c0-.01.012-.01.012-.01,3.181-2,6.252-4.157,9.218-6.443.678-.525,1.344-1.048,2.012-1.583q2.463-2,4.821-4.109a120.028,120.028,0,0,0,15.564-16.9.392.392,0,0,0,.058-.082,119.642,119.642,0,0,0,7.835-11.694,117.552,117.552,0,0,0,6.061-11.779c.69-1.523,1.334-3.06,1.954-4.62q1.748-4.376,3.131-8.908c.668-2.155,1.274-4.322,1.811-6.525a119.493,119.493,0,0,0,2.431-12.8v-.012c.046-.417.107-.835.155-1.252a120.931,120.931,0,0,0,.881-13.68v-1.738q0-.875-.036-1.751c-.048-3.1-.239-6.167-.537-9.205q-.377-3.857-1-7.632c-.155-.988-.334-1.976-.523-2.954a113.988,113.988,0,0,0-2.833-11.717c-.169-.561-.334-1.107-.513-1.656-.6-1.916-1.25-3.8-1.942-5.68q-1.18-3.232-2.559-6.382c-.427-.976-.881-1.966-1.332-2.93-.264-.547-.525-1.1-.787-1.632a115.21,115.21,0,0,0-5.908-10.68c-.012-.024-.024-.036-.036-.06a117.82,117.82,0,0,0-6.918-9.966c-.869-1.119-1.763-2.239-2.68-3.322q-2.731-3.287-5.692-6.382c-.571-.6-1.143-1.191-1.738-1.775-2.453-2.477-5.036-4.847-7.716-7.109-1.881-1.582-3.823-3.119-5.811-4.572-1.465-1.107-2.966-2.165-4.477-3.179a115.994,115.994,0,0,0-12.658-7.443c-.024-.01-.036-.022-.06-.034-3.1-1.571-6.252-3.012-9.5-4.3a111.3,111.3,0,0,0-11.719-4.014c-1.857-.535-3.739-1.022-5.632-1.463A120.124,120.124,0,0,0,74.184,87.54c-.6-.012-1.191-.026-1.8-.026h-.012c-.521-.014-1.032-.014-1.557-.014A119.794,119.794,0,0,0,45,90.3v12.658a107.227,107.227,0,0,1,25.816-3.133c1.811,0,3.608.048,5.407.133,2.535.131,5.06.344,7.549.654A103.094,103.094,0,0,1,98.323,103.4a104.576,104.576,0,0,1,11.123,3.61.191.191,0,0,0,.07.022h.012a108.794,108.794,0,0,1,14.218,6.763c1.666.954,3.31,1.942,4.93,2.988,2.155,1.37,4.264,2.835,6.312,4.37a103.9,103.9,0,0,1,8.288,6.859c.62.561,1.237,1.133,1.845,1.716,2.085,2,4.1,4.083,6,6.252.964,1.07,1.893,2.167,2.8,3.274a108.2,108.2,0,0,1,7.2,9.847c.012.022.024.036.036.06a104.208,104.208,0,0,1,5.869,10.312,2.141,2.141,0,0,1,.155.322c.262.535.537,1.085.775,1.632q2.179,4.539,3.906,9.312,1.017,2.807,1.883,5.7c.165.559.332,1.109.487,1.666a102.72,102.72,0,0,1,2.62,11.813c.169.986.31,1.988.441,2.988.344,2.549.6,5.133.761,7.729.121,1.918.191,3.857.191,5.811.012.276.012.549.012.821,0,.918-.012,1.835-.034,2.741-.024,1.191-.085,2.382-.155,3.561a102.812,102.812,0,0,1-1.751,14.063c-.082.441-.167.869-.262,1.3a103.5,103.5,0,0,1-3.644,13.336q-1.216,3.5-2.656,6.881-2.073,4.9-4.62,9.552c-.93,1.7-1.918,3.382-2.94,5.036a107.866,107.866,0,0,1-25.83,28.616l-.012.01-.155.121c-1.787,1.38-3.62,2.69-5.491,3.952q-3.214,2.179-6.6,4.109a106.639,106.639,0,0,1-36.556,12.874.914.914,0,0,1-.177.024h-.024a106.824,106.824,0,0,1-16.54,1.274c-1.823,0-3.644-.036-5.455-.131a104.717,104.717,0,0,1-16.421-2.109H48.93c-1.322-.274-2.62-.571-3.93-.893v12.67A115.433,115.433,0,0,0,57.479,326.3Zm108.791-46.762a.391.391,0,0,0,.058-.083,119.642,119.642,0,0,0,7.835-11.694,117.558,117.558,0,0,0,6.061-11.779c.69-1.523,1.334-3.06,1.954-4.62L165.138,258.7c-.93,1.7-1.918,3.382-2.94,5.036a107.865,107.865,0,0,1-25.83,28.616l-.012.01-.155.121Z" transform="translate(-45 -87.5)" fill="#f1a607"/>
              </g>
            </g>
          </g>
        </g>
        <g id="Grupo_1211934" data-name="Grupo 1211934" transform="translate(0 0)" clip-path="url(#clip-path-9)">
          <g id="Grupo_1211929" data-name="Grupo 1211929" transform="translate(1253.276 513.169)">
            <path id="Trazado_1057546" data-name="Trazado 1057546" d="M740.322,344.118c-.219-.05-.433-.1-.652-.145a56.983,56.983,0,0,0-7.958-1.229c-1.608-.139-3.254-.205-4.9-.205h-.081a58.512,58.512,0,0,0-13.588,1.58,56.954,56.954,0,0,0-8.014,2.523,59.03,59.03,0,0,0-21.143,14.326c-1.121,1.193-2.2,2.421-3.219,3.7a57.585,57.585,0,0,0-4.6,6.624q-1.337,2.236-2.473,4.594a57.167,57.167,0,0,0-3.372,8.666v.008c-.08.28-.161.547-.241.833a56.858,56.858,0,0,0-1.785,8.938c-.095.744-.167,1.491-.225,2.243-.139,1.588-.207,3.2-.207,4.827,0,.167,0,.334.01.5,0,.185,0,.372.006.555.03,1.624.125,3.225.286,4.821v.006c.058.624.131,1.244.211,1.859a57.29,57.29,0,0,0,1.449,7.322c.087.342.183.686.28,1.03.334,1.193.716,2.364,1.127,3.517a56.892,56.892,0,0,0,2.384,5.728c.153.336.314.666.481.994.513,1.024,1.052,2.026,1.626,3.02.688,1.177,1.4,2.34,2.171,3.467a.386.386,0,0,0,.03.042,57.546,57.546,0,0,0,4.608,5.962c.586.672,1.185,1.322,1.819,1.968,1.236,1.308,2.562,2.553,3.928,3.737.4.342.8.688,1.221,1.016a56.112,56.112,0,0,0,5.529,4.03q2.083,1.337,4.292,2.5,1.669.887,3.415,1.668A58.21,58.21,0,0,0,713,458.644c.016.008.038.008.05.016a57.332,57.332,0,0,0,8.733,1.4c1.63.139,3.284.211,4.952.211a58.459,58.459,0,0,0,9.119-.71h.006a58.637,58.637,0,0,0,6.731-1.465v-5.067a53.631,53.631,0,0,1-8.966,1.938,54.878,54.878,0,0,1-6.889.433,54.006,54.006,0,0,1-5.465-.272c-.022,0-.05-.008-.072-.008h-.006a53.408,53.408,0,0,1-12.119-2.69c-1.3-.447-2.58-.952-3.831-1.491h-.006c-1.61-.7-3.167-1.479-4.688-2.326a53.989,53.989,0,0,1-5.946-3.847c-.439-.32-.871-.65-1.3-.986a53.828,53.828,0,0,1-4.153-3.642c-.65-.63-1.272-1.28-1.887-1.938a53.573,53.573,0,0,1-4.783-5.9.324.324,0,0,1-.022-.036c-.352-.489-.688-1-1.026-1.507a53.958,53.958,0,0,1-2.857-4.944c-.169-.328-.33-.658-.483-.994a51.585,51.585,0,0,1-2.378-5.728c-.4-1.153-.767-2.338-1.089-3.539-.1-.344-.183-.686-.274-1.03a51.125,51.125,0,0,1-1.306-7.389c-.066-.622-.127-1.251-.169-1.879-.089-1.1-.131-2.223-.137-3.35v-.5c0-.352,0-.7.006-1.032a55.4,55.4,0,0,1,.447-6c.1-.769.219-1.537.352-2.3a53.3,53.3,0,0,1,2.485-9.246c.111-.3.219-.586.336-.877a53.2,53.2,0,0,1,4.624-9.216,51.562,51.562,0,0,1,3.612-5.075,54.38,54.38,0,0,1,8.036-8.109,53.821,53.821,0,0,1,34.1-12.155q2.282,0,4.519.191a53.113,53.113,0,0,1,11.334,2.187V344.71C741.841,344.493,741.08,344.3,740.322,344.118ZM680.767,364.67a57.588,57.588,0,0,0-4.6,6.624q-1.337,2.237-2.473,4.594a57.173,57.173,0,0,0-3.372,8.666v.008c-.08.28-.161.547-.241.833a56.88,56.88,0,0,0-1.785,8.938c-.095.744-.167,1.491-.225,2.243-.139,1.588-.207,3.2-.207,4.827,0,.167,0,.334.01.5h1.3l3.568-1.535a55.353,55.353,0,0,1,.447-6c.1-.769.219-1.537.352-2.3a53.3,53.3,0,0,1,2.485-9.246c.111-.3.219-.585.336-.877a53.185,53.185,0,0,1,4.624-9.215,51.6,51.6,0,0,1,3.612-5.075,54.4,54.4,0,0,1,8.036-8.109Z" transform="translate(-667.863 -342.539)" fill="#79c9e0"/>
          </g>
          <g id="Grupo_1211930" data-name="Grupo 1211930" transform="translate(1261.214 521.095)">
            <path id="Trazado_1057547" data-name="Trazado 1057547" d="M693.163,432.7c-.716-.592-1.411-1.213-2.083-1.849a47.755,47.755,0,0,1-3.817-4.081c-.447-.549-.885-1.1-1.308-1.66a.109.109,0,0,1-.03-.042,44.729,44.729,0,0,1-4.03-6.385c-.167-.33-.336-.658-.5-.988a46.051,46.051,0,0,1-2.364-5.733c-.386-1.171-.73-2.356-1.024-3.563-.08-.344-.161-.7-.24-1.046a44.54,44.54,0,0,1-1.018-7.511c-.036-.636-.058-1.28-.064-1.924v-.5q0-2.306.217-4.543a45.14,45.14,0,0,1,1.06-6.26c.2-.819.417-1.632.656-2.427a45.5,45.5,0,0,1,4.4-10.073l-6.992,3.014a50.041,50.041,0,0,0-3.062,9.5c-.169.773-.322,1.549-.455,2.338a52,52,0,0,0-.65,6.079c-.038.791-.05,1.579-.05,2.378,0,.167,0,.334.006.5.008.688.024,1.376.058,2.062.032.63.074,1.266.133,1.891a49.331,49.331,0,0,0,1.207,7.431c.081.352.169.7.264,1.04.314,1.2.674,2.384,1.068,3.547a49.047,49.047,0,0,0,2.368,5.727c.161.336.33.666.5.994a50.318,50.318,0,0,0,3.731,6.159c.064.089.125.175.2.272a.189.189,0,0,0,.03.042,51.741,51.741,0,0,0,4.894,5.835q.953.975,1.962,1.91a50.375,50.375,0,0,0,4.314,3.568l5.266-2.266A44.791,44.791,0,0,1,693.163,432.7Zm34.953-85.938a49.877,49.877,0,0,0-5.376-.288c-.767,0-1.521.016-2.276.05h-.008a51,51,0,0,0-44.017,29.7c-.145.3-.28.6-.411.905a50.032,50.032,0,0,0-3.062,9.5c-.169.773-.322,1.549-.455,2.338a51.972,51.972,0,0,0-.65,6.079c-.038.791-.05,1.58-.05,2.378,0,.167,0,.334.006.5.008.688.024,1.376.058,2.062.032.63.074,1.266.133,1.891a49.316,49.316,0,0,0,1.207,7.431c.081.352.169.7.264,1.04.314,1.2.674,2.384,1.068,3.547a49.09,49.09,0,0,0,2.368,5.727c.161.336.33.666.5.994a50.3,50.3,0,0,0,3.73,6.159c.064.089.125.175.2.272a.182.182,0,0,0,.03.042,51.741,51.741,0,0,0,4.894,5.835q.954.975,1.962,1.91a50.379,50.379,0,0,0,4.314,3.567c.447.332.891.652,1.354.96a48.683,48.683,0,0,0,6.282,3.71,50.058,50.058,0,0,0,5.048,2.171q2.049.758,4.189,1.338a50.755,50.755,0,0,0,13.332,1.777c.322,0,.636-.006.952-.016h.087a50.626,50.626,0,0,0,14.817-2.513v-5.157a45.9,45.9,0,0,1-21.26,2.495,43.5,43.5,0,0,1-5.169-.915h-.008a43.8,43.8,0,0,1-5.879-1.8,45.6,45.6,0,0,1-7-3.4h-.008c-.5-.3-.986-.594-1.471-.907a45.391,45.391,0,0,1-4.638-3.431c-.716-.592-1.411-1.213-2.083-1.849a47.732,47.732,0,0,1-3.817-4.081c-.447-.549-.885-1.1-1.308-1.66a.11.11,0,0,1-.03-.042,44.728,44.728,0,0,1-4.03-6.385c-.167-.33-.336-.658-.5-.988a46.05,46.05,0,0,1-2.364-5.732c-.386-1.171-.73-2.356-1.024-3.564-.08-.344-.161-.7-.239-1.046a44.516,44.516,0,0,1-1.018-7.511c-.036-.636-.058-1.28-.064-1.924v-.5q0-2.306.217-4.543a45.178,45.178,0,0,1,1.06-6.26c.2-.819.417-1.632.656-2.427a45.5,45.5,0,0,1,4.4-10.073c.2-.328.394-.656.6-.986a46.088,46.088,0,0,1,32.844-21.349,45.4,45.4,0,0,1,6.274-.433,45.937,45.937,0,0,1,9.31.944c.378.072.753.155,1.127.241a44.634,44.634,0,0,1,5.419,1.626v-5.149A49.054,49.054,0,0,0,728.115,346.766Z" transform="translate(-671.808 -346.478)" fill="#79c9e0"/>
          </g>
          <g id="Grupo_1211933" data-name="Grupo 1211933" transform="translate(1238.583 498.469)">
            <g id="Grupo_1211932" data-name="Grupo 1211932">
              <g id="Grupo_1211931" data-name="Grupo 1211931">
                <path id="Trazado_1057548" data-name="Trazado 1057548" d="M742.311,335.694c-.016,0-.034-.006-.05-.006a73.069,73.069,0,0,0-8.139-.455,74.2,74.2,0,0,0-11.33.871c-2.258.35-4.487.811-6.674,1.354a.031.031,0,0,1-.022.006c-.008.008-.008.008-.016.008a73.269,73.269,0,0,0-21.158,9.1c0,.006-.008.006-.008.006q-2.931,1.844-5.66,3.958c-.417.322-.825.644-1.236.972q-1.512,1.228-2.962,2.523a73.913,73.913,0,0,0-9.56,10.377.235.235,0,0,0-.036.05,73.563,73.563,0,0,0-4.813,7.181,72.547,72.547,0,0,0-3.724,7.234c-.423.936-.819,1.881-1.2,2.837q-1.071,2.689-1.92,5.471c-.41,1.324-.785,2.654-1.115,4.008a73.172,73.172,0,0,0-1.491,7.861v.008c-.03.256-.066.511-.095.767a73.413,73.413,0,0,0-.541,8.4V409.3c0,.36.008.718.022,1.075.03,1.9.147,3.789.33,5.654.153,1.578.358,3.145.614,4.686.1.606.205,1.213.322,1.813a70.46,70.46,0,0,0,1.74,7.2c.1.344.205.68.314,1.018.366,1.177.769,2.332,1.193,3.487.483,1.324,1.008,2.634,1.572,3.92.262.6.541,1.207.819,1.8.161.336.322.672.481,1a71.645,71.645,0,0,0,3.628,6.561.248.248,0,0,1,.024.038,72.041,72.041,0,0,0,4.248,6.119c.535.688,1.083,1.376,1.646,2.042q1.678,2.019,3.493,3.92c.352.366.7.73,1.068,1.091,1.507,1.521,3.093,2.978,4.738,4.366,1.157.97,2.35,1.914,3.57,2.807.9.68,1.821,1.33,2.749,1.954a71.469,71.469,0,0,0,7.775,4.572l.036.022c1.9.964,3.839,1.849,5.835,2.64a68.6,68.6,0,0,0,7.2,2.467c1.141.328,2.3.628,3.459.9a73.777,73.777,0,0,0,14.612,1.887c.368.008.73.016,1.107.016h.006c.322.008.636.008.958.008a73.525,73.525,0,0,0,15.855-1.718v-7.775a65.9,65.9,0,0,1-15.855,1.924c-1.113,0-2.215-.03-3.32-.081-1.555-.081-3.109-.211-4.638-.4a63.173,63.173,0,0,1-8.934-1.712,64.026,64.026,0,0,1-6.833-2.217.141.141,0,0,0-.044-.014h-.008a66.777,66.777,0,0,1-8.733-4.153c-1.024-.586-2.032-1.193-3.026-1.835-1.326-.841-2.62-1.74-3.877-2.684a63.042,63.042,0,0,1-5.089-4.213c-.382-.344-.76-.7-1.135-1.052-1.28-1.227-2.515-2.507-3.684-3.839-.594-.658-1.163-1.332-1.718-2.01a66.007,66.007,0,0,1-4.423-6.048c-.008-.014-.016-.022-.024-.036a64.574,64.574,0,0,1-3.606-6.334,1.253,1.253,0,0,1-.094-.2c-.161-.33-.33-.666-.477-1q-1.334-2.789-2.4-5.72c-.416-1.149-.8-2.316-1.155-3.5-.1-.344-.205-.682-.3-1.024a63.66,63.66,0,0,1-1.608-7.256c-.1-.606-.191-1.221-.272-1.835-.211-1.563-.368-3.151-.467-4.747-.074-1.177-.119-2.368-.119-3.568-.006-.169-.006-.336-.006-.5,0-.563.006-1.127.02-1.684.016-.73.052-1.463.1-2.185a63.384,63.384,0,0,1,1.075-8.638c.05-.272.1-.535.161-.8a63.24,63.24,0,0,1,2.237-8.189q.746-2.152,1.63-4.229c.849-2,1.8-3.962,2.837-5.863.57-1.048,1.177-2.077,1.8-3.093a66.227,66.227,0,0,1,15.864-17.576l.006-.008c.03-.022.066-.05.1-.074,1.1-.847,2.223-1.65,3.372-2.427q1.974-1.337,4.052-2.523a65.47,65.47,0,0,1,22.451-7.908.671.671,0,0,1,.111-.014h.014a65.609,65.609,0,0,1,10.159-.785c1.119,0,2.237.024,3.348.082a64.217,64.217,0,0,1,10.087,1.294h.008c.811.169,1.61.352,2.412.549V336.95A71.16,71.16,0,0,0,742.311,335.694ZM675.5,364.413a.235.235,0,0,0-.036.05,73.559,73.559,0,0,0-4.813,7.181,72.554,72.554,0,0,0-3.724,7.234c-.423.936-.819,1.881-1.2,2.837l10.467-4.5c.57-1.048,1.177-2.077,1.8-3.093a66.223,66.223,0,0,1,15.864-17.576l.006-.008c.03-.022.066-.05.1-.074Z" transform="translate(-660.561 -335.233)" fill="#f1a607"/>
              </g>
            </g>
          </g>
        </g>
        <g id="Grupo_1211935" data-name="Grupo 1211935" transform="translate(0 0)" clip-path="url(#clip-path-2)">
          <path id="Trazado_1057549" data-name="Trazado 1057549" d="M684.765,192.633h-.078a11.975,11.975,0,0,1-11.9-11.974V87.5h23.944v93.159a11.961,11.961,0,0,1-11.97,11.974Z" transform="translate(590.401 -10.5)" fill="#f1a607"/>
          <path id="Trazado_1057550" data-name="Trazado 1057550" d="M700.138,192.633a11.834,11.834,0,0,1-5.5-1.34,11.97,11.97,0,0,1-6.465-10.634V87.5h23.936v93.159a10.548,10.548,0,0,1-.123,1.666,11.958,11.958,0,0,1-8.63,9.859A11.72,11.72,0,0,1,700.138,192.633Z" transform="translate(605.972 -10.5)" fill="#f1a607"/>
        </g>
        <g id="Grupo_1211936" data-name="Grupo 1211936" transform="translate(0 0)" clip-path="url(#clip-path-2)">
          <path id="Trazado_1057551" data-name="Trazado 1057551" d="M541.813,367.175c0,9.485-9.362,17.173-20.908,17.173h-82.06c-11.548,0-20.912-7.688-20.912-17.173h0c0-9.487,9.362-17.175,20.912-17.175h82.06c11.546,0,20.908,7.688,20.908,17.175Z" transform="translate(332.453 178.182)" fill="#f1a607"/>
        </g>
        <g id="Grupo_1211938" data-name="Grupo 1211938" transform="translate(398.137 223.964)">
          <circle id="Elipse_12583" data-name="Elipse 12583" cx="100.606" cy="100.606" r="100.606" transform="translate(0 77.467) rotate(-22.644)" fill="#f1a607"/>
          <circle id="Elipse_12584" data-name="Elipse 12584" cx="93.564" cy="93.564" r="93.564" transform="translate(9.265 81.212) rotate(-22.637)" fill="none" stroke="#231f20" stroke-miterlimit="10" stroke-width="1.045"/>
        </g>
        <g id="Grupo_1211945" data-name="Grupo 1211945" transform="translate(0 0)" clip-path="url(#clip-path-2)">
          <g id="Grupo_1211941" data-name="Grupo 1211941" transform="translate(102.618 576.461)">
            <g id="Grupo_1211939" data-name="Grupo 1211939">
              <path id="Trazado_1057552" data-name="Trazado 1057552" d="M117.99,451.473,96,412.991v-.515l21.99-38.482h16.934l-22.359,38.737,22.359,38.741Z" transform="translate(-96 -373.994)" fill="#e93b81"/>
              <path id="Trazado_1057553" data-name="Trazado 1057553" d="M130.24,451.473l-21.99-38.482v-.515l21.99-38.482h16.934l-22.359,38.737,22.359,38.741Z" transform="translate(-83.602 -373.994)" fill="#e93b81"/>
            </g>
            <g id="Grupo_1211940" data-name="Grupo 1211940" transform="translate(51.309)">
              <path id="Trazado_1057554" data-name="Trazado 1057554" d="M143.49,451.473,121.5,412.991v-.515l21.99-38.482h16.934l-22.359,38.737,22.359,38.741Z" transform="translate(-121.5 -373.994)" fill="#e93b81"/>
              <path id="Trazado_1057555" data-name="Trazado 1057555" d="M155.74,451.473l-21.99-38.482v-.515l21.99-38.482h16.934l-22.359,38.737,22.359,38.741Z" transform="translate(-109.102 -373.994)" fill="#e93b81"/>
            </g>
          </g>
          <g id="Grupo_1211944" data-name="Grupo 1211944" transform="translate(0 576.461)">
            <g id="Grupo_1211942" data-name="Grupo 1211942">
              <path id="Trazado_1057556" data-name="Trazado 1057556" d="M66.99,451.473,45,412.991v-.515l21.99-38.482H83.924L61.566,412.731l22.359,38.741Z" transform="translate(-45 -373.994)" fill="#e93b81"/>
              <path id="Trazado_1057557" data-name="Trazado 1057557" d="M79.24,451.473,57.25,412.991v-.515l21.99-38.482H96.174L73.816,412.731l22.359,38.741Z" transform="translate(-32.602 -373.994)" fill="#e93b81"/>
            </g>
            <g id="Grupo_1211943" data-name="Grupo 1211943" transform="translate(51.309)">
              <path id="Trazado_1057558" data-name="Trazado 1057558" d="M92.49,451.473,70.5,412.991v-.515l21.99-38.482h16.934L87.066,412.731l22.359,38.741Z" transform="translate(-70.5 -373.994)" fill="#e93b81"/>
              <path id="Trazado_1057559" data-name="Trazado 1057559" d="M104.74,451.473,82.75,412.991v-.515l21.99-38.482h16.934L99.316,412.731l22.359,38.741Z" transform="translate(-58.101 -373.994)" fill="#e93b81"/>
            </g>
          </g>
        </g>
        <g id="Grupo_1211946" data-name="Grupo 1211946" transform="translate(0 0)" clip-path="url(#clip-path-2)">
          <path id="Trazado_1057560" data-name="Trazado 1057560" d="M119.584,256.759l-16.123-16.125,16.123-16.123-10.433-10.435L93.026,230.2,76.9,214.076,66.468,224.511l16.123,16.123L66.468,256.759,76.9,267.194l16.125-16.125,16.127,16.125Z" transform="translate(-23.272 40.61)" fill="#e93b81"/>
        </g>
        <g id="Grupo_1211947" data-name="Grupo 1211947" transform="translate(0 0)" clip-path="url(#clip-path-2)">
          <path id="Trazado_1057561" data-name="Trazado 1057561" d="M720.733,329.484l-16.125-16.125,16.125-16.125L710.3,286.8l-16.123,16.125L678.05,286.8l-10.435,10.433,16.125,16.125-16.125,16.125,10.435,10.433,16.125-16.125L710.3,339.917Z" transform="translate(585.162 114.217)" fill="#e93b81"/>
        </g>
        <g id="Grupo_1211948" data-name="Grupo 1211948" transform="translate(0 0)" clip-path="url(#clip-path-2)">
          <path id="Trazado_1057562" data-name="Trazado 1057562" d="M333.718,416.47l-16.125-16.125,16.125-16.123-10.435-10.435L307.16,389.912l-16.125-16.125L280.6,384.222l16.123,16.123L280.6,416.47,291.035,426.9,307.16,410.78,323.285,426.9Z" transform="translate(193.458 202.257)" fill="#f1a607"/>
        </g>
        <g id="Grupo_1211949" data-name="Grupo 1211949" transform="translate(0 0)" clip-path="url(#clip-path-2)">
          <path id="Trazado_1057563" data-name="Trazado 1057563" d="M325.79,184.366a25.866,25.866,0,1,1,33.872-13.815A25.9,25.9,0,0,1,325.79,184.366Zm18.431-43.822A21.672,21.672,0,1,0,355.8,168.925,21.694,21.694,0,0,0,344.221,140.544Z" transform="translate(223.163 -39.771)" fill="#f1a607"/>
        </g>
        <g id="Grupo_1211950" data-name="Grupo 1211950" transform="translate(0 0)" clip-path="url(#clip-path-2)">
          <path id="Trazado_1057564" data-name="Trazado 1057564" d="M642.542,421.664a25.866,25.866,0,1,1,33.872-13.813A25.9,25.9,0,0,1,642.542,421.664Zm18.431-43.82a21.673,21.673,0,1,0,11.574,28.381A21.7,21.7,0,0,0,660.973,377.844Z" transform="translate(543.755 200.403)" fill="#f1a607"/>
        </g>
      </g>
    </g>
  </g>
</svg>
