<svg xmlns="http://www.w3.org/2000/svg" xmlns:xlink="http://www.w3.org/1999/xlink" width="190" height="163" viewBox="0 0 190 163">
  <defs>
    <clipPath id="clip-path">
      <rect id="Rectángulo_425063" data-name="Rectángulo 425063" width="190" height="163" transform="translate(600 2730)" fill="#fff" stroke="#707070" stroke-width="1"/>
    </clipPath>
  </defs>
  <g id="Enmascarar_grupo_1159146" data-name="Enmascarar grupo 1159146" transform="translate(-600 -2730)" clip-path="url(#clip-path)">
    <g id="_419551993_5138be0e-9dab-4fde-a750-86fa287f4f41" data-name="419551993_5138be0e-9dab-4fde-a750-86fa287f4f41" transform="translate(200.694 1880.173)">
      <path id="Trazado_1239577" data-name="Trazado 1239577" d="M1153.229,2524.1a2.77,2.77,0,0,0,.77,1.7,60.611,60.611,0,0,0,5.02,6.024,138.835,138.835,0,0,0,9.969,12.441,86.874,86.874,0,0,0,6.431,6.651,19.4,19.4,0,0,0,2.472,1.925c.283.044.315-.146.429-.214,2.629-1.586,4.557-11.771,5.147-14.8.43.158.711.616,1.072.214a.58.58,0,0,0,.226-.515c.349-3.817.45-7.664.417-11.495,2.153,1.115,7.063,1.953,9.761,3,1.117.433,2.05,1,3.106,1.5l2.09,4.879c5.625,15.583,4.864,32.624,5.2,48.948a2.653,2.653,0,0,0-.23.948,44.183,44.183,0,0,1,.23,5.485,29.38,29.38,0,0,0-6.34-3.2c-2.4-.591-7.568.661-10.213,1.127-4.01.706-8.021,1.524-11.969,2.506.046-.779-.033-1.579,0-2.36-3.67-.038-7.347-.392-11.009-.678a4.823,4.823,0,0,0-3.308-2.268c-9.326-.673-18.616-1.89-27.931-2.629,1.521-7.321,3.958-14.425,5.79-21.66,1.7-6.711,2.542-12.149,1.187-19.094-.945-4.846-3.167-10.675-8.049-12.645a85.6,85.6,0,0,1,15.652-5.042A20.7,20.7,0,0,1,1153.229,2524.1Z" transform="translate(-702.855 -1594.476)" fill="#ec6a19"/>
      <path id="Trazado_1239578" data-name="Trazado 1239578" d="M2162.1,3203.349c1.041,1.145.982,1.282.581,2.834-5.269,13.257-8.859,27.6-14.087,40.811-.4,1.005-.574,2.312-1.934,2.25,1.214,1.905-.393,3.026-1.93,3.854h-92.215c-1.608-.84-2.728-2.362-1.365-4.042,8.031-.054,16.067-.029,24.1-.029h8.578a2.7,2.7,0,0,0-.229.956,3.174,3.174,0,0,0,1.943,2.474c-.972-2.008.389-4.5,1.069-6.544,4.5-13.529,9.616-26.866,14.049-40.422,1.069-1.959,2.66-2.239,4.71-2.367,18.308.608,37.1-.772,55.349,0A4.525,4.525,0,0,1,2162.1,3203.349Zm-35.87,18.28c-4.443.844-8.157,9.888-2.781,10.63,1.854.256,4.346-1.682,5.374-3.105C2130.975,3226.172,2131.3,3220.665,2126.227,3221.629Zm-35.866,26.755v.643h54.151v-.643Zm-17.445,3.187c.342.552,2.452.02,3.075.014.873-.009,2.255.554,2.9-.085a.8.8,0,0,0-.093-1.2,24.964,24.964,0,0,0-5.38-.195C2072.789,3250.216,2072.686,3251.2,2072.916,3251.571Zm-1.532-1.042h-3.538c-.317,0-.317.643,0,.643h3.538Z" transform="translate(-1576.189 -2240.918)" fill="#aeafb2"/>
      <path id="Trazado_1239579" data-name="Trazado 1239579" d="M596.139,2645.67c4.882,1.971,7.1,7.8,8.049,12.646,1.355,6.945.513,12.382-1.187,19.094l-.87.312-5.567,20.92-8.575-.858,0,.642c2.034.165,4.08.489,6.115.643.969.073,2.21-.069,3.108,0,9.315.739,18.605,1.956,27.931,2.628a4.825,4.825,0,0,1,3.308,2.268c3.662.287,7.339.641,11.009.678-.034.781.045,1.581,0,2.36-.07,1.172-.429,3.032-.429,4.182v3.86c0,.526-.167,1.763-.214,2.466a34.942,34.942,0,0,0-.216,3.645c-3.571-.3-7.219-.375-10.824-.423l-2.471,1.708H580.913c-5.025-.964-9.276-3.407-10.876-8.528-2.819-9.023,2.617-29.069,5.511-38.331,2.269-7.26,6.115-19.89,11.7-24.974C589.995,2648.1,592.823,2647.089,596.139,2645.67Zm32.381,73.13c.065-3.04.126-6.082.206-9.125.014-.534.642-4.383-.1-4.383-.311,0-.315.72-.331.951-.3,4.178-.27,8.383-.418,12.556h.642Zm5.51-1.733a1.257,1.257,0,1,0-1.257,1.257A1.257,1.257,0,0,0,634.03,2717.066Z" transform="translate(-165.494 -1710.26)" fill="#6b3891"/>
      <path id="Trazado_1239580" data-name="Trazado 1239580" d="M1570.421,1401.329c-.166.52.409.4.429.429a1.984,1.984,0,0,0-.156.684c.186,1.967.5,4.049.585,5.964.053,1.135-.023,2.293,0,3.431a14.6,14.6,0,0,0-2.132-.978c-.881-.23-3.947-.552-4.26.486-.685,2.27,1.79,1.316,2.841,1.344,1.279.034,2.407,1.053,3.551.65.056,7.159.345,22.942-4.2,28.5a11.943,11.943,0,0,1-8.024,3.878c-6.139.2-12.774-4.039-16.082-9.007,1.493,5.269,7.725,13.613,13.424,14.345.8.1,1.759-.206,2.443.238a29.516,29.516,0,0,1-3.646,8.792c-.049-.033-.166.033-.215,0-5.42-3.7-11.192-7.1-15.655-12.009.164-.976.357-2.134.428-3.111.258-3.554.776-7.423.868-10.927a17.879,17.879,0,0,0-.87-5.9c-5.816,1.264-10.572-6.095-7.074-10.831a21.383,21.383,0,0,1,1.93-1.823,7.924,7.924,0,0,1,3.935.461c2.007,1.18,1.447,4.051,2.12,4.848.279.33,2.172.434,2.429.066s-.22-6.869-.061-8.21c.315-2.652,2.137-3.616,2.895-5.9.863-2.6.282-5.013-.38-7.565,5.326.53,10.648,1.683,15.977,2.142C1563.976,1401.539,1568.149,1401.874,1570.421,1401.329Zm-13.134,9.7c-.906-.9-6.66-.048-7.3,1.514-.909,2.222,2.651.481,3.408.388.981-.12,2.851.19,3.587-.059C1557.589,1412.668,1557.71,1411.452,1557.287,1411.03Zm3.913,17.319c1.746.151,3.925-.276,4.241-2.3l-2.313-10.029c.037-.492-.918-.9-.845-.231.369,3.4,2.106,7.042,2.343,10.517-.154.8-1.194,1.181-1.87,1.349C1562.173,1427.8,1561.172,1427.438,1561.2,1428.349Zm-7.15-11.551c-.928.314-1.169,3.446-.144,3.939C1556.483,1421.974,1556.457,1415.984,1554.05,1416.8Zm13.094.01c-1.492.434-1.347,4.317.582,4.043C1569.532,1420.594,1569.151,1416.224,1567.144,1416.808Zm-28.249,6.823c-.074-1.667-2.125-3.778-3.577-4.464-.815-.385-1.2.1-.8.4.5.363,2.308,1.15,2.43,1.844.042.238-1.728,1.978-1.271,2.436.624.625,1.226-1.617,1.613-1.714Zm25.949,10.725a16.743,16.743,0,0,0-2.468.424c-2.833.226-3.922-.581-6.252-1.675-.932-.437-1.364-.294-.482.482,1.8,1.587,5.409,2.077,7.714,1.745C1563.73,1435.278,1565.427,1434.957,1564.844,1434.356Z" transform="translate(-1081.874 -523.178)" fill="#f7bb9d"/>
      <path id="Trazado_1239581" data-name="Trazado 1239581" d="M1565.324,1112.09c-.09-1.915-.4-4-.585-5.964a1.985,1.985,0,0,1,.156-.684c1.519.588,5.221-3.806,4.5-4.5-.606-.588-1.1,1.446-1.32,1.787a6,6,0,0,1-3.611,2.286c-2.271.545-6.444.21-8.9,0-5.329-.459-10.651-1.613-15.977-2.142.662,2.552,1.243,4.965.38,7.565-.757,2.282-2.58,3.246-2.895,5.9-.159,1.341.308,7.857.061,8.21s-2.151.264-2.429-.066c-.673-.8-.114-3.667-2.12-4.848a7.923,7.923,0,0,0-3.935-.461c-1.9-5.214-5.465-14.34-1.893-19.371a6.179,6.179,0,0,1,4.458-2.726,8.113,8.113,0,0,1,5.045-7.715c6.55-3.083,12.4.355,19.1.013,4.684-.239,8.356-2.535,13.109-.477a9.081,9.081,0,0,1,4.185,3.535C1577.326,1100.056,1572.389,1108.34,1565.324,1112.09Zm1.929-15.013c.27-1.664-.5-3.06-2.251-3.219-2.2.679-4.079,1.812-6.326,2.469a35.219,35.219,0,0,1-12.113,1.177c-1.286-.092-3.528-.84-4.555-.813a.441.441,0,0,0-.49.492c-.007.278,4.981.934,5.473.965a35.62,35.62,0,0,0,11.685-1.178c2.251-.645,4.125-1.8,6.33-2.474,1.526.155,1.421,1.013,1.759,2.116C1566.878,1096.98,1566.682,1097.174,1567.253,1097.077Zm-33.128,1.073c-.393.047-.3.389-.005.645.71.615,2.088,1.2,3,1.936.506.409,1.029,1.182,1.508,1.5.276.18.47.23.535-.111C1539.282,1101.474,1534.839,1098.065,1534.126,1098.15Zm32.484,1.074c-.247-.289-.582.364-.679.5-2.364,3.245-3.211,2.706-6.733,3.57-.363.089-.625-.212-.52.433a8.414,8.414,0,0,0,6.106-1.719C1565.219,1101.659,1567.1,1099.793,1566.61,1099.224Z" transform="translate(-1075.92 -226.862)" fill="#efdbac"/>
      <path id="Trazado_1239582" data-name="Trazado 1239582" d="M2514.377,2690.48c-3.746,10.517-7.325,21.169-10.937,31.739l-8.149-9.221c-.337-16.325.424-33.365-5.2-48.948l-2.09-4.88c7.618,3.606,10.284,7.565,14.972,14.3C2506.872,2679.073,2510.237,2685.051,2514.377,2690.48Z" transform="translate(-1992.805 -1723.117)" fill="#6b3791"/>
      <path id="Trazado_1239583" data-name="Trazado 1239583" d="M3119.079,2614.505c3.95.587,8.288,1.386,12.224,2.145.5.1,1.792.183,1.915.566.073,1.354-1.209,8.126-.8,8.827a2.987,2.987,0,0,1,.783.608,4.967,4.967,0,0,1,.683,1.91l-1.511,12.966c-6.917.014-14.77-.476-21.561-.009-.3.021-1.659.166-1.815.223l3.752-16.942c.578-1.364,2.417-1.774,2.636-2.3l1.553-8.2C3117.623,2614.427,3118.427,2614.409,3119.079,2614.505Zm-2.54,8.185-.128.714,14.855,2.664.128-.714Z" transform="translate(-2584.211 -1680.383)" fill="#6b3790"/>
      <path id="Trazado_1239584" data-name="Trazado 1239584" d="M3279.138,1921.282c4.108,1.344,5.13,2.066,7.929,5.259,2.048,2.336,5.167,5.4,4.185,8.679a121.6,121.6,0,0,1-4.356,11.513c-1.25,2.994-3.131,5.765-3.47,9.076-3.936-.758-8.274-1.558-12.224-2.145.467.1.524-.224.587-.583.486-2.741-1.705-6.463-2.413-9.279-1.44-5.728-.059-9.539.323-15.124.094-1.384-.583-5.813.975-6.109,2.67-.507,4.157,4.383,3.959,6.433-.629.4-2.269,1.671-2.478,2.347-.3.969.089,1.9.017,2.7-.049.545-.526,1.087-.556,1.92-.023.64.252,1.249.223,1.708-.042.654-.8,1.068-.865,1.942-.137,1.894,1.654,4.031,3.659,3.752-1.789,2.015-3.2,4.853-1.8,7.481.1.193.491.848.623.88a.348.348,0,0,0,.43-.425c-.29-.839-.927-1.178-.982-2.468-.086-2.023,1.738-4.963,3.336-6.116,1-.722,2.055-.142.326-1.824-.167-.162-1.8-1.539-1.931-1.391.627,1.379,0,.992-.429,2.142.538.191,1.052-.593,1.39-.568.11.008.867.369.752.673-.061.16-.4.39-.57.5-3.053,2.069-6.235-3.082-2.193-4.98,1.455-.684,2.027-.171,3.26.554.76.447,3.158,2.58,3.686,2.534.179-.016.151-.422.114-.538a24.08,24.08,0,0,0-5.355-3.445c-1.423-.291-1.8.362-3.013.763a3.684,3.684,0,0,1,2.845-4.12c2.6-.819,6.091,2.865,8.411,3.694.182,0,.146-.437.114-.538a37.643,37.643,0,0,0-3.936-2.5c-1.575-.845-2.772-1.774-4.66-1.369-.947.2-1.469.953-2.345,1.19-.6-2.34,1.751-3.826,3.577-4.677,1.514-.706,1.932-.518,3.351.216,1.95,1.009,4.022,3.1,5.825,4.039.9.466,1.392.271.521-.521a31.932,31.932,0,0,0-2.767-2.058,11.378,11.378,0,0,0-2.034-3.649c-1.536-1.408-7.285-2.335-6.973-5.143C3274.474,1919.295,3277.776,1920.836,3279.138,1921.282Z" transform="translate(-2736.335 -1019.541)" fill="#f7bb9e"/>
      <path id="Trazado_1239585" data-name="Trazado 1239585" d="M3171.271,1164.127c-1.137-.041-2.3.057-3.431,0-.189-2.256.426-4.83-.377-6.927.37-.747.949-5.194,1.272-5.474a6.224,6.224,0,0,0,1.665-.586c2.131-1.561-.152-3.693-1.489-1.7-.792,1.179.031,2.16-2.022,1.809-1.879-.322-.185-2.023-1.621-2.342.074,1.259.2,2.512-1.4,2.586-1.963.091-1.4-1-1.99-2.1-1.073-1.987-3.326-.207-1.907,1.372.433.482,1.933.828,2.035.968.16.219,1.261,4.871,1.287,5.269.035.548-.361.877-.394,1.436-.106,1.8.093,3.666.007,5.475a1.1,1.1,0,0,1-.521.221c-.9.032-1.8-.035-2.7-.007-.06-.256-.576-.641-.752-1.072-.538-1.319-.314-2.778-1.063-4.3-.729-1.478-2.314-2.561-3.292-4-7.136-10.493,3.838-23.833,15.611-19.257a13.08,13.08,0,0,1,6.312,18.956c-1.652,2.608-3.554,3.2-4.323,6.614-.119.529.011,1.083-.1,1.613C3171.964,1163.237,3171.329,1163.826,3171.271,1164.127Zm-9.277-26.971c-.593.1-1.837.841-1.019,1.352a4.834,4.834,0,0,0,2.265-.531C3163.816,1137.128,3162.61,1137.049,3161.995,1137.155Zm-2.788,1.28c-1.033.267-3.246,2.754-3.768,3.748-.326.62-1.74,4.058-.786,4.357.915.287,1.032-1.912,1.288-2.569a9.777,9.777,0,0,1,2.675-3.759c.412-.367,2.157-1.116,1.3-1.721A.762.762,0,0,0,3159.207,1138.435Z" transform="translate(-2625.466 -271.179)" fill="#f5b104"/>
      <path id="Trazado_1239586" data-name="Trazado 1239586" d="M1558.863,2424.941c4.463,4.908,10.235,8.309,15.655,12.009l-8.042,7.931A103.975,103.975,0,0,1,1552,2429.659a52.8,52.8,0,0,1,5.851-4.337C1558.182,2425.123,1558.417,2424.873,1558.863,2424.941Z" transform="translate(-1101.411 -1500.039)" fill="#6b3791"/>
      <path id="Trazado_1239587" data-name="Trazado 1239587" d="M2784.919,3181.458c11.688-.024,23.381.024,35.07-.008a3.247,3.247,0,0,1,2.673,1.294,4.507,4.507,0,0,0-1.384-.224c-18.251-.772-37.041.607-55.349,0-2.05.128-3.641.408-4.71,2.367-4.433,13.556-9.548,26.893-14.049,40.422-.68,2.046-2.041,4.535-1.069,6.544a3.175,3.175,0,0,1-1.943-2.474,2.7,2.7,0,0,1,.229-.956c.11-.556.264-1.178.429-1.716.355-1.157.9-2.279,1.287-3.431.43-1.283.849-2.58,1.287-3.86,3.612-10.57,7.191-21.222,10.937-31.739a34.278,34.278,0,0,1,1.747-4.579,11.68,11.68,0,0,1,1.47-1.426c.155-.058,1.517-.2,1.815-.223C2770.149,3180.982,2778,3181.472,2784.919,3181.458Z" transform="translate(-2236.755 -2220.314)" fill="#dcdfe1"/>
      <rect id="Rectángulo_425064" data-name="Rectángulo 425064" width="206.306" height="0.647" transform="translate(395.473 1012.18)" fill="#211a14"/>
      <path id="Trazado_1239588" data-name="Trazado 1239588" d="M2038.006,2491.815c.033,3.831-.069,7.678-.417,11.495a.58.58,0,0,1-.226.515c-.093-.639-.906-1.094-1.4-1.492-2.2-1.761-4.635-3.571-6.961-5.156a29.508,29.508,0,0,0,3.646-8.792c.012-.06.206-.152.214-.214a13.632,13.632,0,0,1,2.212,1.326C2035.928,2490.091,2037.254,2491.427,2038.006,2491.815Z" transform="translate(-1555.678 -1560.266)" fill="#6b3791"/>
      <path id="Trazado_1239589" data-name="Trazado 1239589" d="M1788.627,2195.677c-.161,1.681.219,3.733,0,5.361-.008.063-.2.155-.214.214-.684-.444-1.646-.135-2.443-.238-5.7-.732-11.931-9.076-13.424-14.345C1775.853,2191.638,1782.487,2195.88,1788.627,2195.677Z" transform="translate(-1311.446 -1273.134)" fill="#cc6347"/>
      <path id="Trazado_1239590" data-name="Trazado 1239590" d="M3327.8,2077.05a32.027,32.027,0,0,1,2.768,2.058c.871.792.374.988-.521.521-1.8-.939-3.875-3.031-5.825-4.039-1.419-.734-1.836-.921-3.351-.216-1.826.851-4.181,2.338-3.577,4.677.876-.237,1.4-.987,2.345-1.19,1.888-.405,3.085.524,4.661,1.369a37.623,37.623,0,0,1,3.936,2.5c.032.1.068.538-.114.538-2.32-.829-5.815-4.513-8.411-3.694a3.685,3.685,0,0,0-2.845,4.12c1.21-.4,1.59-1.054,3.013-.763a24.064,24.064,0,0,1,5.355,3.445c.037.116.066.522-.114.538-.527.046-2.926-2.087-3.685-2.533-1.234-.725-1.805-1.238-3.261-.554-4.042,1.9-.859,7.049,2.193,4.981.167-.114.51-.343.57-.5.115-.3-.641-.665-.752-.673-.338-.025-.851.759-1.39.568.434-1.151,1.056-.763.429-2.142.134-.148,1.764,1.228,1.931,1.391,1.729,1.682.675,1.1-.326,1.824-1.6,1.152-3.423,4.092-3.336,6.116.055,1.289.693,1.629.982,2.468a.348.348,0,0,1-.429.425c-.132-.032-.52-.687-.623-.88-1.4-2.628.012-5.466,1.8-7.481-2.006.279-3.8-1.859-3.66-3.752.063-.875.823-1.288.865-1.942.029-.459-.246-1.068-.223-1.708.031-.833.507-1.375.556-1.92.073-.8-.316-1.731-.017-2.7.209-.677,1.849-1.949,2.478-2.347a6.887,6.887,0,0,1,3.516-1.272C3323.671,2074.377,3326.86,2076.405,3327.8,2077.05Z" transform="translate(-2780.922 -1166.088)" fill="#c55c3f"/>
      <path id="Trazado_1239591" data-name="Trazado 1239591" d="M1570.2,2531.447c.049.033.166-.033.215,0,2.326,1.585,4.762,3.395,6.961,5.156.5.4,1.309.853,1.4,1.492-.361.4-.643-.056-1.072-.214l-6.86-5.361a169.653,169.653,0,0,1,1.714,17.689,6.015,6.015,0,0,1,0,2.469c-.114.069-.146.259-.429.215a201.007,201.007,0,0,0-1.932-20.159c-1.288.545-7.455,7.3-8.036,7.294-.417,0-3.017-2.408-3.545-2.894-1.717-1.582-3.765-3.566-5.358-5.257a60.65,60.65,0,0,1-5.02-6.024,2.769,2.769,0,0,1-.77-1.7c.071,0,.143,0,.214,0a103.992,103.992,0,0,0,14.476,15.223Z" transform="translate(-1097.092 -1594.536)" fill="#231831"/>
      <path id="Trazado_1239592" data-name="Trazado 1239592" d="M3310.86,1628.67v6.006c.529-.1,3.522.132,3.648,0,.1-.1-.213-1.107.213-1.288.011.428-.012.86,0,1.288.142.01.286-.009.429,0,1.136.057,2.294-.041,3.431,0-.069.361.213.7.214.858L3307,1636.6a13.462,13.462,0,0,0,0-1.93c.895-.028,1.8.039,2.7.007a1.1,1.1,0,0,0,.521-.221c.067-.006.376.3.427.215C3310.86,1633.451,3310.268,1629.453,3310.86,1628.67Z" transform="translate(-2772.775 -741.727)" fill="#5c5e62"/>
      <path id="Trazado_1239593" data-name="Trazado 1239593" d="M3318.366,1786.17a2.023,2.023,0,0,0,.215,1.287L3307,1788.743c.14-.444.442-1.086,0-1.5Z" transform="translate(-2772.775 -891.721)" fill="#5b5d62"/>
      <path id="Trazado_1239594" data-name="Trazado 1239594" d="M3318.366,1831.17a6.471,6.471,0,0,0,0,1.072L3307,1833.529c.1-.3.387-1.038.214-1.287Z" transform="translate(-2772.775 -934.576)" fill="#5d6065"/>
      <path id="Trazado_1239595" data-name="Trazado 1239595" d="M2236.4,1640.435c.01.484,0,1.035,0,1.5-1.145.4-2.272-.616-3.551-.65-1.052-.028-3.526.926-2.841-1.344.313-1.038,3.38-.716,4.26-.486A14.63,14.63,0,0,1,2236.4,1640.435Z" transform="translate(-1746.996 -751.776)" fill="#976d4f"/>
      <path id="Trazado_1239596" data-name="Trazado 1239596" d="M3322.651,1871.67c-.207.428-.141.782-.629,1.194a8.469,8.469,0,0,1-1.515.736,1.507,1.507,0,0,0-.726-.229c-2.131.052-4.516.261-6.566.229a7.483,7.483,0,0,1-1.716-.858Z" transform="translate(-2777.061 -973.146)" fill="#606367"/>
      <path id="Trazado_1239597" data-name="Trazado 1239597" d="M3408.333,850.165c.162-.527,1.5-.368,1.5,0v6.219c0,.623-1.5.623-1.5,0C3408.333,855.166,3408.089,850.957,3408.333,850.165Z" transform="translate(-2869.175 3)" fill="#f5b104"/>
      <path id="Trazado_1239598" data-name="Trazado 1239598" d="M3785.223,1290.866a28.619,28.619,0,0,1,6.5-.936.79.79,0,0,1-.321,1.43,39.8,39.8,0,0,1-5.862.7.948.948,0,0,1-.486-.389A.808.808,0,0,1,3785.223,1290.866Z" transform="translate(-3227.997 -416.097)" fill="#f5b104"/>
      <path id="Trazado_1239599" data-name="Trazado 1239599" d="M3114.676,944.415a.8.8,0,0,1,.826.169c.424,1.082,3.538,4.205,3.52,5.058a.748.748,0,0,1-1.065.647,42.031,42.031,0,0,1-3.832-5.192A.783.783,0,0,1,3114.676,944.415Z" transform="translate(-2589.09 -87.037)" fill="#f5b104"/>
      <path id="Trazado_1239600" data-name="Trazado 1239600" d="M3636.87,950.854c-.341-.342-.214-.712-.028-1.086a47.419,47.419,0,0,1,3.625-4.547.714.714,0,0,1,.962.96,37.4,37.4,0,0,1-3.9,4.9A.97.97,0,0,1,3636.87,950.854Z" transform="translate(-3086.721 -87.773)" fill="#f5b104"/>
      <path id="Trazado_1239601" data-name="Trazado 1239601" d="M2926.161,1292.2a.811.811,0,0,1,.173.8.948.948,0,0,1-.486.389,29.008,29.008,0,0,1-6.281-.921.684.684,0,0,1,.139-1.147A27.649,27.649,0,0,1,2926.161,1292.2Z" transform="translate(-2403.57 -417.433)" fill="#f5b104"/>
      <path id="Trazado_1239602" data-name="Trazado 1239602" d="M3725.183,1569.821a1.25,1.25,0,0,1,.876.15c.362.141,4.252,2.6,4.462,2.828.527.583.294,1.518-.337,1.419-1.142-.18-3.788-2.63-5.139-3.017C3724.694,1570.877,3724.7,1569.977,3725.183,1569.821Z" transform="translate(-3170.662 -682.647)" fill="#f5b104"/>
      <path id="Trazado_1239603" data-name="Trazado 1239603" d="M2999.083,1573.184a51.487,51.487,0,0,1,5.047-3c.988-.262,1.184.691.7,1.354-1.458.495-3.386,2.376-4.71,2.8C2999.157,1574.643,2998.681,1573.881,2999.083,1573.184Z" transform="translate(-2479.396 -682.984)" fill="#f5b104"/>
      <path id="Trazado_1239604" data-name="Trazado 1239604" d="M3354.792,1907.579l-.644,1.287c-1.361-.445-4.664-1.987-4.932.429a2.033,2.033,0,0,1-1.716-1.716c2.05.031,4.435-.178,6.566-.229A1.507,1.507,0,0,1,3354.792,1907.579Z" transform="translate(-2811.345 -1007.125)" fill="#1a1817"/>
      <path id="Trazado_1239605" data-name="Trazado 1239605" d="M3315.745,1814.028l-11.151,1.072c-.137-.2-.556.449-.214-.643l11.58-1.287c.043.073.432.193.425.321C3316.376,1813.65,3315.761,1813.984,3315.745,1814.028Z" transform="translate(-2770.154 -917.434)" fill="#201f1e"/>
      <path id="Trazado_1239606" data-name="Trazado 1239606" d="M3314.144,1854.528l-11.152,1.072c-.119-.1-.367-.131-.418-.351s.195-.264.2-.292l11.366-1.287c.019.052.5.161.421.517C3314.522,1854.385,3314.169,1854.475,3314.144,1854.528Z" transform="translate(-2768.552 -956.004)" fill="#201f1f"/>
      <path id="Trazado_1239607" data-name="Trazado 1239607" d="M3309.391,1773.313l-11.366,1.072c-.061-.057-.448.122-.431-.109-.12-.326.4-.456.431-.534l11.795-1.072A.683.683,0,0,1,3309.391,1773.313Z" transform="translate(-2763.8 -878.864)" fill="#1f1e1d"/>
      <path id="Trazado_1239608" data-name="Trazado 1239608" d="M2058.172,3856.535a30.8,30.8,0,0,1,6.086,6.031c.23.268.279.656.777.617-.386,1.153-.932,2.274-1.287,3.431.156-.659-.4-.338-.854-.532a6.2,6.2,0,0,1-1.076-.541c-.524-.471-1.7-2.7-2.365-3.532a22.782,22.782,0,0,0-6.5-5.726c-.316-.165-1.279-.852-1.54-.392-.164.289,3.363,2.188,3.644,2.578,1.9,1.477,5.4,5.329,6.331,7.5a1.834,1.834,0,0,1-.429,2.359h-1.287c-.322-.406-1.186-.428-1.5-.643-.241-.165-1.182-1.541-1.5-1.93a21.7,21.7,0,0,0-4.093-4.378c-.8-.594-4.468-2.77-5.24-2.673a.559.559,0,0,0-.316.615,15.448,15.448,0,0,1,9.006,6.65c.538,1.139.067,1.555-.643,2.359h-.643c-3.158-1.333-5.694-3.891-9.152-4.664-2.752,1.1-5.256,2.841-8.176,3.528s-5.453.272-8.407.278c.048-.7.214-1.941.214-2.466v-3.86c0-1.15.36-3.01.429-4.182,3.948-.982,7.959-1.8,11.969-2.506,2.645-.466,7.809-1.718,10.213-1.127A29.427,29.427,0,0,1,2058.172,3856.535Z" transform="translate(-1555.686 -2860.221)" fill="#f7bb9e"/>
      <path id="Trazado_1239609" data-name="Trazado 1239609" d="M1669,2686.17c1.594,1.691,3.641,3.676,5.358,5.257.528.487,3.128,2.892,3.545,2.894.581,0,6.748-6.749,8.036-7.294a201.043,201.043,0,0,1,1.932,20.159,19.413,19.413,0,0,1-2.472-1.925,86.985,86.985,0,0,1-6.431-6.65A138.871,138.871,0,0,1,1669,2686.17Z" transform="translate(-1212.836 -1748.83)" fill="#6b3791"/>
      <path id="Trazado_1239610" data-name="Trazado 1239610" d="M2044.905,2705.031c-.59,3.026-2.518,13.211-5.147,14.8a6.019,6.019,0,0,0,0-2.469,169.759,169.759,0,0,0-1.714-17.689Z" transform="translate(-1564.294 -1761.687)" fill="#6c3890"/>
      <path id="Trazado_1239611" data-name="Trazado 1239611" d="M977.482,3311.67c-1.832,7.234-4.269,14.338-5.79,21.66-.9-.071-2.139.071-3.108,0-2.036-.153-4.081-.478-6.115-.643l0-.642,8.575.858,5.566-20.92Z" transform="translate(-539.975 -2344.521)" fill="#241b2d"/>
      <path id="Trazado_1239612" data-name="Trazado 1239612" d="M1784.745,4077.973c-8.029,0-16.066-.024-24.1.029-1.363,1.68-.243,3.2,1.365,4.042H1745.5l2.471-1.708c3.6.048,7.253.121,10.824.423a34.955,34.955,0,0,1,.215-3.645c2.954-.007,5.479.41,8.407-.278s5.424-2.432,8.176-3.528C1779.051,4074.082,1781.587,4076.64,1784.745,4077.973Z" transform="translate(-1285.69 -3069.864)" fill="#ed6c1a"/>
      <path id="Trazado_1239613" data-name="Trazado 1239613" d="M3530.031,3594.015c5.074-.965,4.748,4.543,2.593,7.525-1.028,1.423-3.52,3.361-5.374,3.105C3521.874,3603.9,3525.588,3594.86,3530.031,3594.015Z" transform="translate(-2979.993 -2613.305)" fill="#dee3e7"/>
      <rect id="Rectángulo_425065" data-name="Rectángulo 425065" width="54.152" height="0.643" transform="translate(514.172 1007.466)" fill="#222"/>
      <path id="Trazado_1239614" data-name="Trazado 1239614" d="M2517.912,4193.952c-.23-.37-.127-1.354.5-1.471a25,25,0,0,1,5.38.195.8.8,0,0,1,.093,1.2c-.648.639-2.03.077-2.9.086C2520.365,4193.972,2518.254,4194.5,2517.912,4193.952Z" transform="translate(-2021.185 -3183.3)" fill="#202122"/>
      <path id="Trazado_1239615" data-name="Trazado 1239615" d="M2583.787,4117.17c.32.389,1.26,1.765,1.5,1.93l-.215.643H2582.5c.71-.8,1.181-1.22.643-2.359Z" transform="translate(-2082.802 -3111.634)" fill="#ed6c1a"/>
      <path id="Trazado_1239616" data-name="Trazado 1239616" d="M2412.531,4202.67v.644h-3.538c-.317,0-.317-.644,0-.644Z" transform="translate(-1917.337 -3193.06)" fill="#181919"/>
      <path id="Trazado_1239617" data-name="Trazado 1239617" d="M1800.162,3910.274h-.641c.148-4.174.116-8.378.418-12.556.017-.231.02-.951.331-.951.74,0,.113,3.849.1,4.383C1800.288,3904.193,1800.227,3907.234,1800.162,3910.274Z" transform="translate(-1337.137 -2901.735)" fill="#251a32"/>
      <ellipse id="Elipse_14572" data-name="Elipse 14572" cx="1.257" cy="1.257" rx="1.257" ry="1.257" transform="translate(465.932 1007.978) rotate(-86.061)" fill="#251934"/>
      <path id="Trazado_1239618" data-name="Trazado 1239618" d="M1924.083,1640.4c.423.422.3,1.638-.3,1.844-.735.25-2.606-.06-3.587.059-.757.092-4.318,1.833-3.408-.388C1917.423,1640.349,1923.177,1639.5,1924.083,1640.4Z" transform="translate(-1448.671 -752.545)" fill="#966e50"/>
      <path id="Trazado_1239619" data-name="Trazado 1239619" d="M2155.008,1753.152c-.029-.911.973-.549,1.556-.694.676-.168,1.716-.549,1.87-1.349-.237-3.476-1.974-7.116-2.343-10.517-.073-.668.882-.261.845.231l2.313,10.029C2158.933,1752.876,2156.754,1753.3,2155.008,1753.152Z" transform="translate(-1675.681 -847.981)" fill="#c15a3d"/>
      <path id="Trazado_1239620" data-name="Trazado 1239620" d="M2259.638,1767.906c2.007-.584,2.388,3.786.583,4.043C2258.291,1772.224,2258.147,1768.341,2259.638,1767.906Z" transform="translate(-1774.368 -874.276)" fill="#1e1d1d"/>
      <path id="Trazado_1239621" data-name="Trazado 1239621" d="M1988.774,1767.237c2.407-.813,2.433,5.176-.143,3.939C1987.605,1770.683,1987.846,1767.551,1988.774,1767.237Z" transform="translate(-1516.598 -873.617)" fill="#1b1b1c"/>
      <path id="Trazado_1239622" data-name="Trazado 1239622" d="M2037.962,2107.307c.583.6-1.114.922-1.489.976-2.3.332-5.909-.158-7.714-1.745-.882-.776-.45-.919.482-.482,2.33,1.094,3.419,1.9,6.252,1.675A16.7,16.7,0,0,1,2037.962,2107.307Z" transform="translate(-1554.993 -1196.129)" fill="#c05d41"/>
      <path id="Trazado_1239623" data-name="Trazado 1239623" d="M1596.359,1820.111l-1.6-1.5c-.387.1-.989,2.339-1.613,1.714-.457-.458,1.312-2.2,1.271-2.436-.122-.694-1.934-1.48-2.43-1.844-.4-.3-.018-.783.8-.4C1594.234,1816.333,1596.285,1818.444,1596.359,1820.111Z" transform="translate(-1139.338 -919.658)" fill="#bc583c"/>
      <path id="Trazado_1239624" data-name="Trazado 1239624" d="M2347.9,1360.651a6,6,0,0,0,3.611-2.286c.218-.342.714-2.375,1.32-1.787.719.7-2.983,5.09-4.5,4.5C2348.306,1361.048,2347.731,1361.172,2347.9,1360.651Z" transform="translate(-1859.351 -482.5)" fill="#986d49"/>
      <path id="Trazado_1239625" data-name="Trazado 1239625" d="M1892.688,1213.324c-.572.1-.375-.1-.488-.465-.338-1.1-.233-1.961-1.759-2.116-2.205.675-4.079,1.829-6.33,2.474a35.6,35.6,0,0,1-11.685,1.178c-.492-.031-5.479-.687-5.473-.965a.441.441,0,0,1,.49-.492c1.028-.027,3.269.721,4.555.813a35.219,35.219,0,0,0,12.113-1.177c2.247-.657,4.123-1.79,6.326-2.469C1892.19,1210.263,1892.958,1211.66,1892.688,1213.324Z" transform="translate(-1401.355 -343.109)" fill="#966d49"/>
      <path id="Trazado_1239626" data-name="Trazado 1239626" d="M2234.5,1321.237c.487.569-1.391,2.434-1.827,2.782a8.413,8.413,0,0,1-6.106,1.719c-.1-.645.157-.344.52-.433,3.522-.864,4.369-.325,6.733-3.57C2233.915,1321.6,2234.25,1320.948,2234.5,1321.237Z" transform="translate(-1743.807 -448.875)" fill="#986c49"/>
      <path id="Trazado_1239627" data-name="Trazado 1239627" d="M1706.61,1300.129c.713-.085,5.156,3.324,5.034,3.965-.065.341-.259.292-.535.111-.479-.313-1-1.086-1.508-1.5-.909-.734-2.287-1.32-3-1.936C1706.309,1300.518,1706.217,1300.176,1706.61,1300.129Z" transform="translate(-1248.404 -428.841)" fill="#966e49"/>
      <rect id="Rectángulo_425066" data-name="Rectángulo 425066" width="0.725" height="15.092" transform="matrix(0.176, -0.984, 0.984, 0.176, 532.201, 943.023)" fill="#271733"/>
      <path id="Trazado_1239628" data-name="Trazado 1239628" d="M3306.744,1442.413c.085-1.808-.114-3.67-.007-5.475.033-.559.428-.888.394-1.436-.025-.4-1.127-5.05-1.287-5.269-.1-.139-1.6-.486-2.035-.968-1.419-1.579.835-3.36,1.907-1.372.589,1.092.027,2.186,1.99,2.1,1.593-.074,1.472-1.327,1.4-2.586,1.436.319-.258,2.021,1.621,2.342,2.053.352,1.23-.63,2.022-1.809,1.337-1.99,3.62.142,1.49,1.7a6.222,6.222,0,0,1-1.665.586c-.323.28-.9,4.727-1.272,5.474.8,2.1.188,4.672.377,6.927-.143-.007-.287.012-.428,0-.012-.428.011-.86,0-1.288-.023-.872.166-4.262-.1-4.72-.4-.67-3.29-.612-3.755,0-.592.782,0,4.781-.217,6.005C3307.12,1442.711,3306.811,1442.407,3306.744,1442.413Zm-1.072-12.869c-.291-.551-.476-2.185-1.39-1.927C3303.214,1427.916,3304.843,1429.754,3305.672,1429.544Zm7.078,0c.8.233,2.371-1.252,1.5-1.83C3313.514,1427.223,3312.824,1429.037,3312.75,1429.545Zm-.858.86c-.683.284-2.089-.592-2.467-.569-.194.011-.526.44-.9.525a14.355,14.355,0,0,1-1.992.044c.157.739.952,5.032,1.275,5.273.242.18,2.383-.427,3.012.088Z" transform="translate(-2769.302 -549.679)" fill="#171911"/>
      <path id="Trazado_1239629" data-name="Trazado 1239629" d="M3199.338,1214.394a.761.761,0,0,1,.706.057c.861.6-.884,1.353-1.3,1.721a9.774,9.774,0,0,0-2.675,3.759c-.255.656-.373,2.856-1.288,2.569-.955-.3.46-3.737.786-4.357C3196.092,1217.149,3198.3,1214.661,3199.338,1214.394Z" transform="translate(-2665.596 -347.138)" fill="#fbfefb"/>
      <path id="Trazado_1239630" data-name="Trazado 1239630" d="M3329.581,1187.97c.615-.106,1.822-.027,1.247.821a4.829,4.829,0,0,1-2.265.531C3327.744,1188.811,3328.987,1188.073,3329.581,1187.97Z" transform="translate(-2793.052 -321.994)" fill="#fdfefc"/>
      <path id="Trazado_1239631" data-name="Trazado 1239631" d="M3391.838,1623.733c-.427.182-.115,1.185-.213,1.288-.126.132-3.119-.1-3.648,0v-6.006c.465-.615,3.36-.672,3.755,0C3392,1619.471,3391.815,1622.861,3391.838,1623.733Z" transform="translate(-2849.893 -732.072)" fill="#f5b104"/>
      <path id="Trazado_1239632" data-name="Trazado 1239632" d="M2509.5,3916.7l-.429.429c-.926-2.173-4.43-6.024-6.331-7.5-.281-.39-3.807-2.289-3.644-2.578.26-.459,1.224.227,1.54.393a22.768,22.768,0,0,1,6.5,5.726C2507.793,3914.008,2508.974,3916.234,2509.5,3916.7Z" transform="translate(-2003.366 -2911.384)" fill="#c85c3c"/>
      <path id="Trazado_1239633" data-name="Trazado 1239633" d="M2416.366,3976.2l-.643.214a15.446,15.446,0,0,0-9.006-6.65.559.559,0,0,1,.316-.615c.772-.1,4.441,2.079,5.24,2.673A21.693,21.693,0,0,1,2416.366,3976.2Z" transform="translate(-1915.381 -2970.667)" fill="#cc603f"/>
      <path id="Trazado_1239634" data-name="Trazado 1239634" d="M3375.381,1486.8l-1.075,5.361c-.629-.515-2.77.093-3.012-.088-.323-.241-1.118-4.534-1.275-5.273a14.356,14.356,0,0,0,1.992-.044c.376-.085.708-.514.9-.526C3373.292,1486.211,3374.7,1487.087,3375.381,1486.8Z" transform="translate(-2832.792 -606.078)" fill="#f5b104"/>
      <path id="Trazado_1239635" data-name="Trazado 1239635" d="M3500.52,1441.912c.075-.508.764-2.322,1.5-1.83C3502.891,1440.66,3501.32,1442.145,3500.52,1441.912Z" transform="translate(-2957.073 -562.047)" fill="#f5b104"/>
      <path id="Trazado_1239636" data-name="Trazado 1239636" d="M3317.206,1441.067c-.828.209-2.457-1.627-1.39-1.927C3316.73,1438.883,3316.916,1440.516,3317.206,1441.067Z" transform="translate(-2780.837 -561.203)" fill="#f5b104"/>
    </g>
  </g>
</svg>
