<svg xmlns="http://www.w3.org/2000/svg" xmlns:xlink="http://www.w3.org/1999/xlink" width="102" height="102" viewBox="0 0 102 102">
  <defs>
    <filter id="Trazado_904820" x="0" y="0" width="102" height="102" filterUnits="userSpaceOnUse">
      <feOffset dy="3" input="SourceAlpha"/>
      <feGaussianBlur stdDeviation="3" result="blur"/>
      <feFlood flood-opacity="0.161"/>
      <feComposite operator="in" in2="blur"/>
      <feComposite in="SourceGraphic"/>
    </filter>
  </defs>
  <g id="Grupo_1240762" data-name="Grupo 1240762" transform="translate(-170.999 -6011.333)">
    <g id="Grupo_1226690" data-name="Grupo 1226690" transform="translate(0 4857.333)">
      <g id="Grupo_1211916" data-name="Grupo 1211916" transform="translate(179.999 1160)">
        <g id="Grupo_1173585" data-name="Grupo 1173585" transform="translate(0 0)">
          <g id="Grupo_1173428" data-name="Grupo 1173428">
            <g id="Grupo_1171958" data-name="Grupo 1171958">
              <g id="Grupo_1167341" data-name="Grupo 1167341">
                <g id="Grupo_1166792" data-name="Grupo 1166792">
                  <g transform="matrix(1, 0, 0, 1, -9, -6)" filter="url(#Trazado_904820)">
                    <g id="Trazado_904820-2" data-name="Trazado 904820" transform="translate(9 6)" fill="#efecfa">
                      <path d="M 41.99999618530273 82.50003814697266 C 36.53186798095703 82.50003814697266 31.22811317443848 81.42943572998047 26.23603057861328 79.31795501708984 C 21.41350173950195 77.2781982421875 17.08211326599121 74.3577880859375 13.36217308044434 70.63784790039062 C 9.642243385314941 66.91791534423828 6.721831321716309 62.58651733398438 4.682066917419434 57.76398849487305 C 2.570596218109131 52.77191543579102 1.499996185302734 47.4681510925293 1.499996185302734 42.00002288818359 C 1.499996185302734 36.53189468383789 2.570596218109131 31.22812843322754 4.682066917419434 26.23605728149414 C 6.721831321716309 21.41352844238281 9.642243385314941 17.08212852478027 13.36217308044434 13.3621997833252 C 17.08211326599121 9.642258644104004 21.41350173950195 6.721846580505371 26.23603057861328 4.682093620300293 C 31.22811317443848 2.570611238479614 36.53186798095703 1.500011086463928 41.99999618530273 1.500011086463928 C 47.46812438964844 1.500011086463928 52.77187728881836 2.570611238479614 57.76396179199219 4.682093620300293 C 62.58649063110352 6.721846580505371 66.91787719726562 9.642258644104004 70.6378173828125 13.3621997833252 C 74.35774993896484 17.08212852478027 77.27816009521484 21.41352844238281 79.31792449951172 26.23605728149414 C 81.42939758300781 31.22812843322754 82.5 36.53189468383789 82.5 42.00002288818359 C 82.5 47.4681510925293 81.42939758300781 52.77191543579102 79.31792449951172 57.76398849487305 C 77.27816009521484 62.58651733398438 74.35774993896484 66.91791534423828 70.6378173828125 70.63784790039062 C 66.91787719726562 74.3577880859375 62.58649063110352 77.2781982421875 57.76396179199219 79.31795501708984 C 52.77187728881836 81.42943572998047 47.46812438964844 82.50003814697266 41.99999618530273 82.50003814697266 Z" stroke="none"/>
                      <path d="M 41.99999618530273 3.000007629394531 C 36.73370361328125 3.000007629394531 31.62654113769531 4.030746459960938 26.82035446166992 6.0635986328125 C 22.1766242980957 8.027732849121094 18.0054931640625 10.84017944335938 14.42283630371094 14.4228515625 C 10.84017181396484 18.00551605224609 8.027717590332031 22.17665100097656 6.063583374023438 26.82038116455078 C 4.030731201171875 31.62656784057617 2.999992370605469 36.73373031616211 2.999992370605469 42.00002288818359 C 2.999992370605469 47.26630401611328 4.030731201171875 52.37347412109375 6.063583374023438 57.17966461181641 C 8.027717590332031 61.82339477539062 10.84017181396484 65.99451446533203 14.42283630371094 69.57717895507812 C 18.0054931640625 73.15985107421875 22.1766242980957 75.97230529785156 26.82035446166992 77.93643951416016 C 31.62654113769531 79.96929168701172 36.73370361328125 81.00002288818359 41.99999618530273 81.00002288818359 C 47.26628875732422 81.00002288818359 52.37345123291016 79.96929168701172 57.17963409423828 77.93643951416016 C 61.82337188720703 75.97230529785156 65.9945068359375 73.15985107421875 69.57715606689453 69.57717895507812 C 73.15982055664062 65.99451446533203 75.97227478027344 61.82339477539062 77.93640899658203 57.17966461181641 C 79.96926116943359 52.37347412109375 81 47.26630401611328 81 42.00002288818359 C 81 36.73373031616211 79.96926116943359 31.62656784057617 77.93640899658203 26.82038116455078 C 75.97227478027344 22.17665100097656 73.15982055664062 18.00551605224609 69.57715606689453 14.4228515625 C 65.9945068359375 10.84017944335938 61.82337188720703 8.027732849121094 57.17963409423828 6.0635986328125 C 52.37345123291016 4.030746459960938 47.26628875732422 3.000007629394531 41.99999618530273 3.000007629394531 M 41.99999618530273 7.62939453125e-06 C 65.19595336914062 7.62939453125e-06 84 18.80406188964844 84 42.00002288818359 C 84 65.19596862792969 65.19595336914062 84.00002288818359 41.99999618530273 84.00002288818359 C 18.80403900146484 84.00002288818359 -7.62939453125e-06 65.19596862792969 -7.62939453125e-06 42.00002288818359 C -7.62939453125e-06 18.80406188964844 18.80403900146484 7.62939453125e-06 41.99999618530273 7.62939453125e-06 Z" stroke="none" fill="#c3b7ef"/>
                    </g>
                  </g>
                </g>
              </g>
            </g>
          </g>
        </g>
      </g>
    </g>
    <g id="diseno-ux_1_" data-name="diseno-ux (1)" transform="translate(197.181 6034.589)">
      <rect id="Rectángulo_425069" data-name="Rectángulo 425069" width="38.675" height="43.38" transform="translate(10.155 6.108)" fill="#90caf9"/>
      <path id="Trazado_1239637" data-name="Trazado 1239637" d="M124.31,176.337l-10.039,4v-23.4a3.388,3.388,0,0,0-3.384-3.384H104.28V188.2h9.128a3.372,3.372,0,0,0,.863-2.256v-3.419l10.039,4h18.645V176.337Z" transform="translate(-94.126 -138.709)" fill="#64b5f6"/>
      <rect id="Rectángulo_425070" data-name="Rectángulo 425070" width="32.874" height="11.603" transform="translate(13.055 9.04)" fill="#fdcc15"/>
      <rect id="Rectángulo_425071" data-name="Rectángulo 425071" width="14.503" height="8.702" transform="translate(13.055 23.544)" fill="#9ccc65"/>
      <path id="Trazado_1239638" data-name="Trazado 1239638" d="M141.381,156.935v2.417H134.29v-5.8H138A3.388,3.388,0,0,1,141.381,156.935Z" transform="translate(-121.235 -138.709)" fill="#f5b21b"/>
      <rect id="Rectángulo_425072" data-name="Rectángulo 425072" width="7.091" height="8.702" transform="translate(13.055 23.544)" fill="#7cb342"/>
      <rect id="Rectángulo_425073" data-name="Rectángulo 425073" width="14.503" height="8.702" transform="translate(31.426 23.544)" fill="#c45e9a"/>
      <g id="Grupo_1240759" data-name="Grupo 1240759" transform="translate(0.808 0.725)">
        <rect id="Rectángulo_425074" data-name="Rectángulo 425074" width="38.675" height="5.382" transform="translate(9.347)" fill="#b0bec5"/>
        <path id="Trazado_1239639" data-name="Trazado 1239639" d="M7.585,422.7a1.45,1.45,0,0,0,1.45,1.45h14.5a1.45,1.45,0,0,0,1.45-1.45v-7.058H7.585Z" transform="translate(-7.585 -376.189)" fill="#b0bec5"/>
        <path id="Trazado_1239640" data-name="Trazado 1239640" d="M24.989,175.008a1.45,1.45,0,0,0-1.45-1.45H9.035a1.45,1.45,0,0,0-1.45,1.45v4.254h17.4v-4.254Z" transform="translate(-7.585 -157.508)" fill="#b0bec5"/>
      </g>
      <rect id="Rectángulo_425075" data-name="Rectángulo 425075" width="17.404" height="17.694" transform="translate(0.808 22.48)" fill="#1bb9db"/>
      <circle id="Elipse_14573" data-name="Elipse 14573" cx="1.45" cy="1.45" r="1.45" transform="translate(8.221 42.978)" fill="#fff"/>
      <g id="Grupo_1240760" data-name="Grupo 1240760" transform="translate(5.497 25.083)">
        <circle id="Elipse_14574" data-name="Elipse 14574" cx="2.901" cy="2.901" r="2.901" transform="translate(1.249)" fill="#ffe0b2"/>
        <path id="Trazado_1239641" data-name="Trazado 1239641" d="M56.1,328.812V323.7a4.174,4.174,0,0,1,4.174-4.174h0a4.174,4.174,0,0,1,4.174,4.174v5.116Z" transform="translate(-56.101 -313.721)" fill="#ffe0b2"/>
      </g>
      <path id="Trazado_1239642" data-name="Trazado 1239642" d="M315.354,409.3l2.868,3.158-2.868,3.159h19V409.3Z" transform="translate(-284.798 -369.741)" fill="#f44336"/>
      <path id="Trazado_1239643" data-name="Trazado 1239643" d="M233.326,423.261l5.028,2v-4.006Z" transform="translate(-210.699 -380.541)" fill="#616161"/>
      <path id="Trazado_1239644" data-name="Trazado 1239644" d="M291.113,412.461l-2.868-3.158-2.9,1.156v4.006l2.9,1.156Z" transform="translate(-257.689 -369.741)" fill="#ffe0b2"/>
      <rect id="Rectángulo_425076" data-name="Rectángulo 425076" width="17.404" height="1.934" transform="translate(0.808 22.48)" fill="#077fa6"/>
      <rect id="Rectángulo_425077" data-name="Rectángulo 425077" width="24.591" height="1.45" transform="translate(22.014 2.691)"/>
      <path id="Trazado_1239645" data-name="Trazado 1239645" d="M78.95,441.5a2.175,2.175,0,1,0-2.175-2.175A2.178,2.178,0,0,0,78.95,441.5Zm0-2.9a.725.725,0,1,1-.725.725A.726.726,0,0,1,78.95,438.6Z" transform="translate(-69.279 -394.893)"/>
      <path id="Trazado_1239646" data-name="Trazado 1239646" d="M316.853,236.078V246.23h15.954V236.078Zm14.5,8.7H318.3v-7.252h13.053Z" transform="translate(-286.152 -213.26)"/>
      <path id="Trazado_1239647" data-name="Trazado 1239647" d="M49.555,40.287h0V0H9.429V16.05H2.258A2.178,2.178,0,0,0,.083,18.226V47.232a2.178,2.178,0,0,0,2.175,2.175h14.5a2.178,2.178,0,0,0,2.175-2.175V32.971h9.347V22.818H18.937v-1.45H46.654V8.315H12.33V16.05H10.88V6.833H48.1v32H30.417L20.668,42.72,30.417,46.6H48.1v2.884h1.45V45.153H32.194L34.4,42.72l-2.21-2.433H49.555ZM17.487,47.232a.726.726,0,0,1-.725.725H2.258a.726.726,0,0,1-.725-.725V40.9H17.487v6.333ZM9.671,31.609a3.452,3.452,0,0,1,3.449,3.448v4.391h-6.9V35.057A3.452,3.452,0,0,1,9.671,31.609Zm-2.2-3.626a2.175,2.175,0,1,1,2.175,2.175A2.178,2.178,0,0,1,7.471,27.983ZM17.487,39.449H14.57V35.057a4.9,4.9,0,0,0-2.577-4.313,3.625,3.625,0,1,0-4.673.016,4.9,4.9,0,0,0-2.548,4.3v4.391H1.533V23.205H17.487V39.449Zm9.346-15.18V31.52h-7.9V24.269h7.9ZM13.78,9.766H45.2V19.918H18.937V18.226a2.178,2.178,0,0,0-2.175-2.175H13.78V9.766ZM16.762,17.5a.726.726,0,0,1,.725.725v3.529H1.533V18.226a.726.726,0,0,1,.725-.725h14.5ZM26.93,43.653l-2.343-.933,2.343-.933Zm5.515-.933-2.088,2.3-1.977-.788V41.209l1.977-.787ZM48.1,5.382H10.88V1.45H48.1Z"/>
      <rect id="Rectángulo_425078" data-name="Rectángulo 425078" width="7.735" height="1.45" transform="translate(7.254 18.903)"/>
      <rect id="Rectángulo_425079" data-name="Rectángulo 425079" width="1.45" height="1.45" transform="translate(4.353 18.903)"/>
      <g id="Grupo_1240761" data-name="Grupo 1240761" transform="translate(12.523 2.691)">
        <path id="Trazado_1239648" data-name="Trazado 1239648" d="M136.044,29.292h-1.45v-1.45h1.45Zm-2.9,0h-1.45v-1.45h1.45Zm-2.9,0h-1.45v-1.45h1.45Z" transform="translate(-128.792 -27.842)" fill="#fff"/>
        <rect id="Rectángulo_425080" data-name="Rectángulo 425080" width="9.507" height="1.45" transform="translate(21.578 8.653)" fill="#fff"/>
        <path id="Trazado_1239649" data-name="Trazado 1239649" d="M318.465,148.5h-1.45v-1.45h1.45Zm-2.9,0H304.349v-1.45h11.216Z" transform="translate(-287.38 -135.527)" fill="#fff"/>
        <path id="Trazado_1239650" data-name="Trazado 1239650" d="M282.32,178.509H270.137v-1.45H282.32Zm-13.633,0h-1.45v-1.45h1.45Zm-2.9,0h-1.45v-1.45h1.45Z" transform="translate(-251.235 -162.636)" fill="#fff"/>
        <path id="Trazado_1239651" data-name="Trazado 1239651" d="M356.848,358.569H355.4v-1.45h1.45Zm-2.9,0H352.5v-1.45h1.45Zm-2.9,0H349.6v-1.45h1.45Zm-2.9,0H346.7v-1.45h1.45Z" transform="translate(-325.634 -325.292)" fill="#fff"/>
      </g>
    </g>
  </g>
</svg>
