<svg xmlns="http://www.w3.org/2000/svg" xmlns:xlink="http://www.w3.org/1999/xlink" width="108" height="108" viewBox="0 0 108 108">
  <defs>
    <filter id="Trazado_904820" x="0" y="0" width="108" height="108" filterUnits="userSpaceOnUse">
      <feOffset dy="3" input="SourceAlpha"/>
      <feGaussianBlur stdDeviation="3" result="blur"/>
      <feFlood flood-opacity="0.161"/>
      <feComposite operator="in" in2="blur"/>
      <feComposite in="SourceGraphic"/>
    </filter>
  </defs>
  <g id="Grupo_1240223" data-name="Grupo 1240223" transform="translate(-199 -1001)">
    <g id="Grupo_1226413" data-name="Grupo 1226413" transform="translate(208 1007)">
      <g id="Grupo_1211762" data-name="Grupo 1211762">
        <g id="Grupo_1173585" data-name="Grupo 1173585" transform="translate(0 0)">
          <g id="Grupo_1173428" data-name="Grupo 1173428">
            <g id="Grupo_1171958" data-name="Grupo 1171958">
              <g id="Grupo_1167341" data-name="Grupo 1167341">
                <g id="Grupo_1166792" data-name="Grupo 1166792">
                  <g transform="matrix(1, 0, 0, 1, -9, -6)" filter="url(#Trazado_904820)">
                    <g id="Trazado_904820-2" data-name="Trazado 904820" transform="translate(9 6)" fill="#fdf6e4">
                      <path d="M 44.99999618530273 88.50004577636719 C 39.12687301635742 88.50004577636719 33.43022155761719 87.35012054443359 28.06829643249512 85.08220672607422 C 22.88852119445801 82.891357421875 18.23629570007324 79.75463104248047 14.24084663391113 75.75917816162109 C 10.24540901184082 71.76373291015625 7.108683586120605 67.11150360107422 4.917821407318115 61.93173217773438 C 2.649921178817749 56.56980514526367 1.499996185302734 50.87315368652344 1.499996185302734 45.00003051757812 C 1.499996185302734 39.12690734863281 2.649921178817749 33.43025588989258 4.917821407318115 28.06833076477051 C 7.108683586120605 22.8885555267334 10.24540901184082 18.23633003234863 14.24084663391113 14.24088096618652 C 18.23629570007324 10.2454309463501 22.88852119445801 7.108705520629883 28.06829643249512 4.917855739593506 C 33.43022155761719 2.649943113327026 39.12687301635742 1.500018000602722 44.99999618530273 1.500018000602722 C 50.87311935424805 1.500018000602722 56.56977081298828 2.649943113327026 61.93169784545898 4.917855739593506 C 67.11147308349609 7.108705520629883 71.76369476318359 10.2454309463501 75.75914764404297 14.24088096618652 C 79.75458526611328 18.23633003234863 82.89131164550781 22.8885555267334 85.08216857910156 28.06833076477051 C 87.35007476806641 33.43025588989258 88.5 39.12690734863281 88.5 45.00003051757812 C 88.5 50.87315368652344 87.35007476806641 56.56980514526367 85.08216857910156 61.93173217773438 C 82.89131164550781 67.11150360107422 79.75458526611328 71.76373291015625 75.75914764404297 75.75917816162109 C 71.76369476318359 79.75463104248047 67.11147308349609 82.891357421875 61.93169784545898 85.08220672607422 C 56.56977081298828 87.35012054443359 50.87311935424805 88.50004577636719 44.99999618530273 88.50004577636719 Z" stroke="none"/>
                      <path d="M 44.99999618530273 3.000015258789062 C 39.32870864868164 3.000015258789062 33.82865142822266 4.110076904296875 28.65262603759766 6.299362182617188 C 23.65165710449219 8.414588928222656 19.15968322753906 11.443359375 15.301513671875 15.30154418945312 C 11.44333648681641 19.15971374511719 8.414566040039062 23.65167236328125 6.299339294433594 28.65266036987305 C 4.110054016113281 33.82868576049805 2.999992370605469 39.32874298095703 2.999992370605469 45.00003051757812 C 2.999992370605469 50.67131805419922 4.110054016113281 56.1713752746582 6.299339294433594 61.34740447998047 C 8.414566040039062 66.348388671875 11.44333648681641 70.84034729003906 15.301513671875 74.69851684570312 C 19.15968322753906 78.55670166015625 23.65165710449219 81.58547210693359 28.65262603759766 83.70069885253906 C 33.82865142822266 85.88998413085938 39.32870864868164 87.00004577636719 44.99999618530273 87.00004577636719 C 50.67128372192383 87.00004577636719 56.17134094238281 85.88998413085938 61.34736633300781 83.70069885253906 C 66.34834289550781 81.58547210693359 70.84030914306641 78.55670166015625 74.69847869873047 74.69851684570312 C 78.55665588378906 70.84034729003906 81.58542633056641 66.348388671875 83.70065307617188 61.34740447998047 C 85.88993835449219 56.1713752746582 87 50.67131805419922 87 45.00003051757812 C 87 39.32874298095703 85.88993835449219 33.82868576049805 83.70065307617188 28.65266036987305 C 81.58542633056641 23.65167236328125 78.55665588378906 19.15971374511719 74.69847869873047 15.30154418945312 C 70.84030914306641 11.443359375 66.34834289550781 8.414588928222656 61.34736633300781 6.299362182617188 C 56.17134094238281 4.110076904296875 50.67128372192383 3.000015258789062 44.99999618530273 3.000015258789062 M 44.99999618530273 1.52587890625e-05 C 69.85281372070312 1.52587890625e-05 90 20.147216796875 90 45.00003051757812 C 90 69.85284423828125 69.85281372070312 90.00004577636719 44.99999618530273 90.00004577636719 C 20.14717864990234 90.00004577636719 -7.62939453125e-06 69.85284423828125 -7.62939453125e-06 45.00003051757812 C -7.62939453125e-06 20.147216796875 20.14717864990234 1.52587890625e-05 44.99999618530273 1.52587890625e-05 Z" stroke="none" fill="#856002"/>
                    </g>
                  </g>
                </g>
              </g>
            </g>
          </g>
        </g>
      </g>
    </g>
    <g id="accesibilidad" transform="translate(223.196 993.48)">
      <path id="Trazado_1235501" data-name="Trazado 1235501" d="M63.731,427.821H9.13a1.63,1.63,0,0,1-1.63-1.63V423.63A1.63,1.63,0,0,1,9.13,422h54.6a1.63,1.63,0,0,1,1.63,1.63v2.561A1.63,1.63,0,0,1,63.731,427.821Z" transform="translate(-6.627 -344.154)" fill="#a9dbf5"/>
      <path id="Trazado_1235502" data-name="Trazado 1235502" d="M463.993,422H460.5a1.63,1.63,0,0,1,1.63,1.63v2.561a1.63,1.63,0,0,1-1.63,1.63h3.493a1.63,1.63,0,0,0,1.63-1.63V423.63A1.63,1.63,0,0,0,463.993,422Z" transform="translate(-406.888 -344.154)" fill="#88c3e0"/>
      <path id="Trazado_1235503" data-name="Trazado 1235503" d="M88.733,156.925h-45.4A2.328,2.328,0,0,1,41,154.6V124.33A2.328,2.328,0,0,1,43.328,122h45.4a2.328,2.328,0,0,1,2.328,2.328V154.6A2.328,2.328,0,0,1,88.733,156.925Z" transform="translate(-36.227 -79.08)" fill="#4380a0"/>
      <path id="Trazado_1235504" data-name="Trazado 1235504" d="M426.821,154.6a2.329,2.329,0,0,1-2.328,2.328H421a2.329,2.329,0,0,0,2.328-2.328V124.328A2.328,2.328,0,0,0,421,122h3.487a2.328,2.328,0,0,1,2.328,2.328Z" transform="translate(-371.987 -79.08)" fill="#3b7191"/>
      <path id="Trazado_1235505" data-name="Trazado 1235505" d="M114.076,179.94H71V152h43.075Z" transform="translate(-62.734 -105.588)" fill="#ffc808"/>
      <path id="Trazado_1235506" data-name="Trazado 1235506" d="M410.995,152h3.493v27.94h-3.493Z" transform="translate(-363.147 -105.588)" fill="#ffae08"/>
      <path id="Trazado_1235507" data-name="Trazado 1235507" d="M38.929,74.693H23.1A2.1,2.1,0,0,1,21,72.6V42.1A2.1,2.1,0,0,1,23.1,40H38.929a2.1,2.1,0,0,1,2.1,2.1V72.6A2.1,2.1,0,0,1,38.929,74.693Z" transform="translate(-18.555 -6.627)" fill="#bdf9ff"/>
      <path id="Trazado_1235508" data-name="Trazado 1235508" d="M148.493,40H145a2.1,2.1,0,0,1,2.1,2.1V72.6a2.1,2.1,0,0,1-2.1,2.1h3.493a2.1,2.1,0,0,0,2.1-2.1V42.1A2.1,2.1,0,0,0,148.493,40Z" transform="translate(-128.119 -6.627)" fill="#8cf2ff"/>
      <path id="Trazado_1235509" data-name="Trazado 1235509" d="M41.024,298.308v2.525a2.1,2.1,0,0,1-2.1,2.1H23.1a2.1,2.1,0,0,1-2.1-2.1v-2.525Z" transform="translate(-18.555 -234.862)" fill="#4380a0"/>
      <path id="Trazado_1235510" data-name="Trazado 1235510" d="M147.1,298.308v2.525a2.1,2.1,0,0,1-2.1,2.1h3.493a2.1,2.1,0,0,0,2.1-2.1v-2.525Z" transform="translate(-128.119 -234.862)" fill="#3b7191"/>
      <circle id="Elipse_14565" data-name="Elipse 14565" cx="7.218" cy="7.218" r="7.218" transform="translate(28.872 53.165)" fill="#7be492"/>
      <path id="Trazado_1235511" data-name="Trazado 1235511" d="M297.958,210a7.241,7.241,0,0,0-1.587.177,7.217,7.217,0,0,1,0,14.082A7.218,7.218,0,1,0,297.958,210Z" transform="translate(-261.867 -156.835)" fill="#45d987"/>
      <g id="Grupo_1240222" data-name="Grupo 1240222" transform="translate(0 32.5)">
        <path id="Trazado_1235512" data-name="Trazado 1235512" d="M57.1,76.973H55.355a3.181,3.181,0,0,0,.352-1.456V45.248a3.205,3.205,0,0,0-3.2-3.2H48.437a.873.873,0,0,0,0,1.746H52.5a1.457,1.457,0,0,1,1.455,1.455V75.516a1.457,1.457,0,0,1-1.455,1.455H7.1a1.457,1.457,0,0,1-1.455-1.455V68.94H7.394v5.414a.873.873,0,0,0,.873.873H51.342a.873.873,0,0,0,.873-.873V46.412a.873.873,0,0,0-.873-.873h-28V43.794H44.733a.873.873,0,0,0,0-1.746H23.342V35.469A2.972,2.972,0,0,0,20.374,32.5H4.54a2.972,2.972,0,0,0-2.969,2.969V54.735a.873.873,0,0,0,1.746,0V35.469A1.224,1.224,0,0,1,4.54,34.246H20.374A1.224,1.224,0,0,1,21.6,35.469V62.537H3.318V58.52a.873.873,0,1,0-1.746,0v7.451a2.973,2.973,0,0,0,2.33,2.9v6.648a3.179,3.179,0,0,0,.351,1.455H2.5a2.506,2.506,0,0,0-2.5,2.5v2.561a2.506,2.506,0,0,0,2.5,2.5H44.69a.873.873,0,1,0,0-1.746H2.5a.758.758,0,0,1-.757-.757V79.476a.758.758,0,0,1,.757-.757H57.1a.758.758,0,0,1,.757.757v2.561a.758.758,0,0,1-.757.757H48.459a.873.873,0,1,0,0,1.746H57.1a2.506,2.506,0,0,0,2.5-2.5V79.476A2.506,2.506,0,0,0,57.1,76.973ZM50.467,47.285V73.479H9.14V68.94H20.374a2.972,2.972,0,0,0,2.969-2.969V47.286ZM3.318,65.971V64.283H21.6v1.688a1.224,1.224,0,0,1-1.222,1.222H4.54A1.224,1.224,0,0,1,3.318,65.971Z" transform="translate(0 -32.5)"/>
        <path id="Trazado_1235513" data-name="Trazado 1235513" d="M248.591,218.682a8.091,8.091,0,1,0-8.091-8.091A8.1,8.1,0,0,0,248.591,218.682Zm0-14.436a6.345,6.345,0,1,1-6.345,6.345A6.352,6.352,0,0,1,248.591,204.246Z" transform="translate(-212.501 -182.708)"/>
        <path id="Trazado_1235514" data-name="Trazado 1235514" d="M273.111,248.775l2.908,2.5a.873.873,0,0,0,1.18-.038l4.079-3.992A.873.873,0,1,0,280.057,246l-3.507,3.432-2.3-1.977a.873.873,0,0,0-1.139,1.324Z" transform="translate(-241.047 -220.921)"/>
        <path id="Trazado_1235515" data-name="Trazado 1235515" d="M73.113,156.559a.873.873,0,0,0,1.18-.038l4.079-3.993a.873.873,0,1,0-1.221-1.248l-3.507,3.432-2.3-1.977a.873.873,0,1,0-1.138,1.324Z" transform="translate(-61.763 -137.232)"/>
      </g>
    </g>
  </g>
</svg>
