<svg xmlns="http://www.w3.org/2000/svg" xmlns:xlink="http://www.w3.org/1999/xlink" width="108" height="108" viewBox="0 0 108 108">
  <defs>
    <filter id="Trazado_904820" x="0" y="0" width="108" height="108" filterUnits="userSpaceOnUse">
      <feOffset dy="3" input="SourceAlpha"/>
      <feGaussianBlur stdDeviation="3" result="blur"/>
      <feFlood flood-opacity="0.161"/>
      <feComposite operator="in" in2="blur"/>
      <feComposite in="SourceGraphic"/>
    </filter>
  </defs>
  <g id="Grupo_1241517" data-name="Grupo 1241517" transform="translate(-196.001 -9059.605)">
    <g id="Grupo_1226767" data-name="Grupo 1226767" transform="translate(205.001 9065.605)">
      <g id="Grupo_1211686" data-name="Grupo 1211686" transform="translate(0 0)">
        <g id="Grupo_1173585" data-name="Grupo 1173585" transform="translate(0 0)">
          <g id="Grupo_1173428" data-name="Grupo 1173428">
            <g id="Grupo_1171958" data-name="Grupo 1171958">
              <g id="Grupo_1167341" data-name="Grupo 1167341">
                <g id="Grupo_1166792" data-name="Grupo 1166792">
                  <g transform="matrix(1, 0, 0, 1, -9, -6)" filter="url(#Trazado_904820)">
                    <g id="Trazado_904820-2" data-name="Trazado 904820" transform="translate(9 6)" fill="#fceefb">
                      <path d="M 44.99996948242188 88.49991607666016 C 39.12684631347656 88.49991607666016 33.43020629882812 87.34999084472656 28.06828117370605 85.08209228515625 C 22.88850784301758 82.8912353515625 18.23629379272461 79.7545166015625 14.2408447265625 75.75907135009766 C 10.24540710449219 71.76363372802734 7.108694553375244 67.11140441894531 4.917831897735596 61.93164443969727 C 2.649931907653809 56.56972122192383 1.500007033348083 50.87308120727539 1.500007033348083 44.99996948242188 C 1.500007033348083 39.12685775756836 2.649931907653809 33.43020629882812 4.917831897735596 28.06828117370605 C 7.108694553375244 22.88851928710938 10.24540710449219 18.23630714416504 14.2408447265625 14.24085712432861 C 18.23629379272461 10.2454195022583 22.88850784301758 7.108694553375244 28.06828117370605 4.917844295501709 C 33.43020629882812 2.649944543838501 39.12684631347656 1.500019431114197 44.99996948242188 1.500019431114197 C 50.87309265136719 1.500019431114197 56.56973266601562 2.649944543838501 61.93165588378906 4.917844295501709 C 67.11143493652344 7.108706951141357 71.76365661621094 10.2454195022583 75.75909423828125 14.24085712432861 C 79.75454711914062 18.23630714416504 82.89125823974609 22.88851928710938 85.08212280273438 28.06828117370605 C 87.35002136230469 33.43020629882812 88.49994659423828 39.12685775756836 88.49994659423828 44.99996948242188 C 88.49994659423828 50.87308120727539 87.35002136230469 56.56972122192383 85.08212280273438 61.93164443969727 C 82.89125823974609 67.11140441894531 79.75454711914062 71.76363372802734 75.75909423828125 75.75907135009766 C 71.76364135742188 79.7545166015625 67.11143493652344 82.8912353515625 61.93165588378906 85.08209228515625 C 56.56973266601562 87.34999084472656 50.87309265136719 88.49991607666016 44.99996948242188 88.49991607666016 Z" stroke="none"/>
                      <path d="M 44.99996948242188 3.000015258789062 C 39.32868194580078 3.000015258789062 33.82863998413086 4.110069274902344 28.6525993347168 6.299339294433594 C 23.65164184570312 8.414581298828125 19.15966796875 11.44334411621094 15.30149841308594 15.301513671875 C 11.44332885742188 19.15968322753906 8.414566040039062 23.65164184570312 6.299324035644531 28.65261077880859 C 4.110054016113281 33.82863998413086 3 39.32868194580078 3 44.99996948242188 C 3 50.67124176025391 4.110054016113281 56.17128372192383 6.299324035644531 61.34731292724609 C 8.414566040039062 66.34828186035156 11.44332885742188 70.84024047851562 15.30149841308594 74.69841003417969 C 19.15968322753906 78.55657958984375 23.65164184570312 81.58535766601562 28.65261077880859 83.70059967041016 C 33.82863998413086 85.88986968994141 39.32868194580078 86.99992370605469 44.99996948242188 86.99992370605469 C 50.67125701904297 86.99992370605469 56.17129898071289 85.88986968994141 61.34732818603516 83.70059967041016 C 66.34829711914062 81.58535766601562 70.84025573730469 78.55657958984375 74.69844055175781 74.69841003417969 C 78.55661010742188 70.84024047851562 81.58537292480469 66.34828186035156 83.70061492919922 61.34731292724609 C 85.88988494873047 56.17128372192383 86.99993896484375 50.67124176025391 86.99993896484375 44.99996948242188 C 86.99993896484375 39.32868194580078 85.88988494873047 33.82863998413086 83.70061492919922 28.65261077880859 C 81.58537292480469 23.65164184570312 78.55661010742188 19.15968322753906 74.69844055175781 15.301513671875 C 70.84027099609375 11.44334411621094 66.34829711914062 8.414581298828125 61.34734344482422 6.299339294433594 C 56.17129898071289 4.110069274902344 50.67125701904297 3.000015258789062 44.99996948242188 3.000015258789062 M 44.99996948242188 1.52587890625e-05 C 69.85276794433594 1.52587890625e-05 89.99993896484375 20.14718627929688 89.99993896484375 44.99996948242188 C 89.99993896484375 69.85273742675781 69.85276794433594 89.99992370605469 44.99996948242188 89.99992370605469 C 20.14717102050781 89.99992370605469 0 69.85273742675781 0 44.99996948242188 C 0 20.14718627929688 20.14717102050781 1.52587890625e-05 44.99996948242188 1.52587890625e-05 Z" stroke="none" fill="#e761e1"/>
                    </g>
                  </g>
                </g>
              </g>
            </g>
          </g>
        </g>
      </g>
    </g>
    <g id="desarrollador-de-software_4_" data-name="desarrollador-de-software (4)" transform="translate(217.262 9078.605)">
      <path id="Trazado_1239982" data-name="Trazado 1239982" d="M51,38V11H11V38L7,47H55Z" fill="#596c80"/>
      <path id="Trazado_1239983" data-name="Trazado 1239983" d="M11,11H51V38H11Z" fill="#bce1fb"/>
      <path id="Trazado_1239984" data-name="Trazado 1239984" d="M49.4,15.181a3.584,3.584,0,0,1-2-3.207A3.381,3.381,0,0,1,47.556,11h-6.1a9.362,9.362,0,0,0-.056,1,9.534,9.534,0,0,0,3.667,7.5v2.029A5.941,5.941,0,0,0,51,27.467V17.235a3,3,0,0,0-1.6-2.054Z" fill="#b2d5ed"/>
      <path id="Trazado_1239985" data-name="Trazado 1239985" d="M57.6,11.961a6.6,6.6,0,0,0-6.8-6.6,6.672,6.672,0,0,0-6.4,6.621,6.594,6.594,0,0,0,3.667,5.882V21.53a2.933,2.933,0,1,0,5.866,0V17.867A6.593,6.593,0,0,0,57.6,11.961Z" fill="#ffeb8c"/>
      <path id="Trazado_1239986" data-name="Trazado 1239986" d="M53.93,19.33v2.2a2.93,2.93,0,0,1-5.86,0v-2.2Z" fill="#748ca6"/>
      <path id="Trazado_1239987" data-name="Trazado 1239987" d="M48.52,45.5a1.5,1.5,0,0,0-1.5,1.5V45a1.5,1.5,0,1,0-3,0V43a1.5,1.5,0,1,0-3,0v1.976a1.5,1.5,0,1,0-3,.024v8L36.5,51.717a1.785,1.785,0,0,0-3.14.48,1.829,1.829,0,0,0,.09,1.34L36.14,58.2A3.175,3.175,0,0,0,39,60v3h8V60a5.7,5.7,0,0,0,3.02-5V47a1.5,1.5,0,0,0-1.5-1.5Z" fill="#e6cdad"/>
      <path id="Trazado_1239988" data-name="Trazado 1239988" d="M26.937,50.977a1.769,1.769,0,0,0-1.44.74L23.98,53V45a1.5,1.5,0,1,0-3-.024V43a1.5,1.5,0,0,0-3,0v2a1.5,1.5,0,0,0-3,0v2a1.5,1.5,0,0,0-3,0v8A5.7,5.7,0,0,0,15,60v3h8V60a3.175,3.175,0,0,0,2.86-1.8l2.687-4.663a1.829,1.829,0,0,0,.09-1.34,1.76,1.76,0,0,0-1.7-1.22Z" fill="#e6cdad"/>
      <path id="Trazado_1239989" data-name="Trazado 1239989" d="M10,11V37.788L6.086,46.594A1,1,0,0,0,7,48h3.98v7A6.614,6.614,0,0,0,14,60.554V63h2V60a1,1,0,0,0-.5-.867A4.72,4.72,0,0,1,12.98,55V47a.5.5,0,0,1,1,0v3h2V45a.5.5,0,0,1,1,0v5h2V43a.5.5,0,0,1,1,0v7h2V44.988a.5.5,0,0,1,1,.012v8a1,1,0,0,0,1.646.764l1.517-1.284a1.008,1.008,0,0,0,.166-.179.768.768,0,0,1,.628-.324.76.76,0,0,1,.747.523.827.827,0,0,1,0,.538L24.962,57.76A2.183,2.183,0,0,1,23,59a1,1,0,0,0-1,1v3h2V60.88a4.113,4.113,0,0,0,2.726-2.18l2.724-4.731a2.824,2.824,0,0,0,.138-2.08,2.785,2.785,0,0,0-4.608-1.1V48H37.02v2.787A2.785,2.785,0,0,0,32.41,51.9a2.848,2.848,0,0,0,.177,2.141l2.656,4.6A4.179,4.179,0,0,0,38,60.88V63h2V60a1,1,0,0,0-1-1,2.219,2.219,0,0,1-1.994-1.3l-2.65-4.6a.814.814,0,0,1-.042-.6.784.784,0,0,1,1.377-.206,1.008,1.008,0,0,0,.166.179l1.517,1.284A1,1,0,0,0,39.02,53V45a.5.5,0,1,1,1-.012V50h2V43a.5.5,0,0,1,1,0v7h2V45a.5.5,0,0,1,1,0v5h2V47a.5.5,0,0,1,1,0v8a4.72,4.72,0,0,1-2.52,4.133A1,1,0,0,0,46,60v3h2V60.554A6.614,6.614,0,0,0,51.02,55V48H55a1,1,0,0,0,.914-1.406L52,37.788V25.322a3.93,3.93,0,0,0,2.933-3.789V18.457a7.595,7.595,0,1,0-11.26-8.472L11,10a1,1,0,0,0-1,1ZM52.933,21.533a1.933,1.933,0,1,1-3.866,0v-1.2h3.866ZM50.827,6.364H51a5.6,5.6,0,0,1,2.486,10.61,1,1,0,0,0-.555.9v.467H49.067v-.467a1,1,0,0,0-.555-.9A5.572,5.572,0,0,1,45.4,11.98a5.7,5.7,0,0,1,5.427-5.616ZM12,12l31.4-.015a7.553,7.553,0,0,0,3.667,6.469V21.53A3.93,3.93,0,0,0,50,25.322V37H12ZM50.35,39l3.111,7H50.808a2.475,2.475,0,0,0-2.834-1.436A2.5,2.5,0,0,0,45.518,42.5a2.448,2.448,0,0,0-.545.064,2.493,2.493,0,0,0-4.911,0A2.486,2.486,0,0,0,37.02,45v1H24.98V45a2.486,2.486,0,0,0-3.042-2.437,2.493,2.493,0,0,0-4.911,0,2.448,2.448,0,0,0-.545-.064,2.5,2.5,0,0,0-2.456,2.064A2.475,2.475,0,0,0,11.192,46H8.539l3.111-7Z"/>
      <path id="Trazado_1239990" data-name="Trazado 1239990" d="M25.985,20.643l-5,3a1,1,0,0,0,0,1.714l5,3,1.03-1.714L23.444,24.5l3.571-2.143Z"/>
      <path id="Trazado_1239991" data-name="Trazado 1239991" d="M41.015,23.643l-5-3-1.03,1.714L38.556,24.5l-3.571,2.143,1.03,1.714,5-3a1,1,0,0,0,0-1.714Z"/>
      <path id="Trazado_1239992" data-name="Trazado 1239992" d="M26.728,23.5h8.544v2H26.728Z" transform="translate(-2.832 44.912) rotate(-69.444)"/>
      <path id="Trazado_1239993" data-name="Trazado 1239993" d="M50,1h2V3.2H50Z"/>
      <path id="Trazado_1239994" data-name="Trazado 1239994" d="M43,3.9h2V6.1H43Z" transform="translate(9.352 32.577) rotate(-45)"/>
      <path id="Trazado_1239995" data-name="Trazado 1239995" d="M56.9,4h2.2V6H56.9Z" transform="translate(13.453 42.477) rotate(-45)"/>
    </g>
  </g>
</svg>
