<svg xmlns="http://www.w3.org/2000/svg" xmlns:xlink="http://www.w3.org/1999/xlink" width="102" height="102" viewBox="0 0 102 102">
  <defs>
    <filter id="Trazado_904820" x="0" y="0" width="102" height="102" filterUnits="userSpaceOnUse">
      <feOffset dy="3" input="SourceAlpha"/>
      <feGaussianBlur stdDeviation="3" result="blur"/>
      <feFlood flood-opacity="0.161"/>
      <feComposite operator="in" in2="blur"/>
      <feComposite in="SourceGraphic"/>
    </filter>
  </defs>
  <g id="Grupo_1240735" data-name="Grupo 1240735" transform="translate(-170.999 -2711)">
    <g id="Grupo_1226530" data-name="Grupo 1226530" transform="translate(0 1557)">
      <g id="Grupo_1211916" data-name="Grupo 1211916" transform="translate(179.999 1160)">
        <g id="Grupo_1173585" data-name="Grupo 1173585" transform="translate(0 0)">
          <g id="Grupo_1173428" data-name="Grupo 1173428">
            <g id="Grupo_1171958" data-name="Grupo 1171958">
              <g id="Grupo_1167341" data-name="Grupo 1167341">
                <g id="Grupo_1166792" data-name="Grupo 1166792">
                  <g transform="matrix(1, 0, 0, 1, -9, -6)" filter="url(#Trazado_904820)">
                    <g id="Trazado_904820-2" data-name="Trazado 904820" transform="translate(9 6)" fill="#efecfa">
                      <path d="M 41.99999618530273 82.50003814697266 C 36.53186798095703 82.50003814697266 31.22811317443848 81.42943572998047 26.23603057861328 79.31795501708984 C 21.41350173950195 77.2781982421875 17.08211326599121 74.3577880859375 13.36217308044434 70.63784790039062 C 9.642243385314941 66.91791534423828 6.721831321716309 62.58651733398438 4.682066917419434 57.76398849487305 C 2.570596218109131 52.77191543579102 1.499996185302734 47.4681510925293 1.499996185302734 42.00002288818359 C 1.499996185302734 36.53189468383789 2.570596218109131 31.22812843322754 4.682066917419434 26.23605728149414 C 6.721831321716309 21.41352844238281 9.642243385314941 17.08212852478027 13.36217308044434 13.3621997833252 C 17.08211326599121 9.642258644104004 21.41350173950195 6.721846580505371 26.23603057861328 4.682093620300293 C 31.22811317443848 2.570611238479614 36.53186798095703 1.500011086463928 41.99999618530273 1.500011086463928 C 47.46812438964844 1.500011086463928 52.77187728881836 2.570611238479614 57.76396179199219 4.682093620300293 C 62.58649063110352 6.721846580505371 66.91787719726562 9.642258644104004 70.6378173828125 13.3621997833252 C 74.35774993896484 17.08212852478027 77.27816009521484 21.41352844238281 79.31792449951172 26.23605728149414 C 81.42939758300781 31.22812843322754 82.5 36.53189468383789 82.5 42.00002288818359 C 82.5 47.4681510925293 81.42939758300781 52.77191543579102 79.31792449951172 57.76398849487305 C 77.27816009521484 62.58651733398438 74.35774993896484 66.91791534423828 70.6378173828125 70.63784790039062 C 66.91787719726562 74.3577880859375 62.58649063110352 77.2781982421875 57.76396179199219 79.31795501708984 C 52.77187728881836 81.42943572998047 47.46812438964844 82.50003814697266 41.99999618530273 82.50003814697266 Z" stroke="none"/>
                      <path d="M 41.99999618530273 3.000007629394531 C 36.73370361328125 3.000007629394531 31.62654113769531 4.030746459960938 26.82035446166992 6.0635986328125 C 22.1766242980957 8.027732849121094 18.0054931640625 10.84017944335938 14.42283630371094 14.4228515625 C 10.84017181396484 18.00551605224609 8.027717590332031 22.17665100097656 6.063583374023438 26.82038116455078 C 4.030731201171875 31.62656784057617 2.999992370605469 36.73373031616211 2.999992370605469 42.00002288818359 C 2.999992370605469 47.26630401611328 4.030731201171875 52.37347412109375 6.063583374023438 57.17966461181641 C 8.027717590332031 61.82339477539062 10.84017181396484 65.99451446533203 14.42283630371094 69.57717895507812 C 18.0054931640625 73.15985107421875 22.1766242980957 75.97230529785156 26.82035446166992 77.93643951416016 C 31.62654113769531 79.96929168701172 36.73370361328125 81.00002288818359 41.99999618530273 81.00002288818359 C 47.26628875732422 81.00002288818359 52.37345123291016 79.96929168701172 57.17963409423828 77.93643951416016 C 61.82337188720703 75.97230529785156 65.9945068359375 73.15985107421875 69.57715606689453 69.57717895507812 C 73.15982055664062 65.99451446533203 75.97227478027344 61.82339477539062 77.93640899658203 57.17966461181641 C 79.96926116943359 52.37347412109375 81 47.26630401611328 81 42.00002288818359 C 81 36.73373031616211 79.96926116943359 31.62656784057617 77.93640899658203 26.82038116455078 C 75.97227478027344 22.17665100097656 73.15982055664062 18.00551605224609 69.57715606689453 14.4228515625 C 65.9945068359375 10.84017944335938 61.82337188720703 8.027732849121094 57.17963409423828 6.0635986328125 C 52.37345123291016 4.030746459960938 47.26628875732422 3.000007629394531 41.99999618530273 3.000007629394531 M 41.99999618530273 7.62939453125e-06 C 65.19595336914062 7.62939453125e-06 84 18.80406188964844 84 42.00002288818359 C 84 65.19596862792969 65.19595336914062 84.00002288818359 41.99999618530273 84.00002288818359 C 18.80403900146484 84.00002288818359 -7.62939453125e-06 65.19596862792969 -7.62939453125e-06 42.00002288818359 C -7.62939453125e-06 18.80406188964844 18.80403900146484 7.62939453125e-06 41.99999618530273 7.62939453125e-06 Z" stroke="none" fill="#c3b7ef"/>
                    </g>
                  </g>
                </g>
              </g>
            </g>
          </g>
        </g>
      </g>
    </g>
    <g id="experiencia-del-usuario_3_" data-name="experiencia-del-usuario (3)" transform="translate(185.931 2731.669)">
      <g id="Grupo_1240734" data-name="Grupo 1240734" transform="translate(15.074 1.099)">
        <path id="Trazado_1239409" data-name="Trazado 1239409" d="M250.369,10.3a7.45,7.45,0,1,0,1.209,0h-1.209Z" transform="translate(-220.102 -10.3)" fill="#ffee80" fill-rule="evenodd"/>
        <path id="Trazado_1239410" data-name="Trazado 1239410" d="M28.7,10.3a4.643,4.643,0,0,0-4.63,4.633V52.972H44.5c-.662-1.718.157-3.837,2.557-3.753l3.817.136c3.08.109,1.832-.587-.423-2.843L39.5,35.562a2.385,2.385,0,1,1,3.367-3.369L49.5,38.822a2.385,2.385,0,1,1,3.367-3.369l1.423,1.427a2.379,2.379,0,0,1,2.729-3.859V24.806a7.562,7.562,0,0,1-2.073.29,7.409,7.409,0,0,1-.6-14.8H28.7Z" transform="translate(-24.073 -10.3)" fill="#e5fafe" fill-rule="evenodd"/>
        <path id="Trazado_1239411" data-name="Trazado 1239411" d="M24.073,410.1v5.183a4.645,4.645,0,0,0,4.63,4.633H52.388a4.647,4.647,0,0,0,4.63-4.633v-1.863L47.262,412.2a3.3,3.3,0,0,1-2.765-2.1H24.073Z" transform="translate(-24.073 -367.433)" fill="#00ccf2" fill-rule="evenodd"/>
        <path id="Trazado_1239412" data-name="Trazado 1239412" d="M175.228,206.809a2.385,2.385,0,1,0-3.367,3.369l-6.628-6.629a2.385,2.385,0,1,0-3.367,3.369l10.943,10.95c2.255,2.256,3.5,2.951.423,2.843l-3.817-.136c-2.4-.085-3.219,2.035-2.557,3.753a3.3,3.3,0,0,0,2.765,2.1l9.756,1.222,4.255.532a5.66,5.66,0,0,0,4.612-1.092l6.035-6.039c2.376-2.377,2.233-6.411-.48-9.126l-8.976-8.981a2.385,2.385,0,1,0-3.367,3.369l-1.433-1.433a2.978,2.978,0,0,0-.647-.5,2.379,2.379,0,0,0-2.729,3.859Z" transform="translate(-146.435 -181.655)" fill="#ffd0c7" fill-rule="evenodd"/>
      </g>
      <path id="Trazado_1239413" data-name="Trazado 1239413" d="M149.823,448.165a1.075,1.075,0,0,0,0-2.15h-5.316a1.075,1.075,0,1,0,0,2.15Z" transform="translate(-115.618 -398.411)"/>
      <path id="Trazado_1239414" data-name="Trazado 1239414" d="M65.664,36.006a8.217,8.217,0,0,0-2.462-5.4l-.429-.429a1.075,1.075,0,1,0-1.521,1.52l.429.429c2.266,2.267,2.477,5.609.481,7.606l-6.035,6.039a4.71,4.71,0,0,1-3.718.785L38.4,44.8a2.229,2.229,0,0,1-2.038-2.366,1.413,1.413,0,0,1,1.658-1.344l3.817.136c1.078.038,2.42.086,2.848-.924a1.7,1.7,0,0,0-.448-1.736c-.267-.315-.636-.67-1.1-1.119-.277-.266-.59-.567-.922-.9L31.266,25.6a1.455,1.455,0,0,1-.5-1.071,1.369,1.369,0,0,1,1.273-1.274,1.447,1.447,0,0,1,1.068.5L43.956,34.6a1.075,1.075,0,1,0,1.521-1.52l-4.169-4.171q-.023-.026-.047-.051a1.451,1.451,0,0,1-.5-1.068,1.37,1.37,0,0,1,1.273-1.274,1.448,1.448,0,0,1,1.068.494l1.351,1.353.082.084.04.038,2.743,2.747a1.075,1.075,0,1,0,1.522-1.52L46,26.869a1.414,1.414,0,0,1-.437-1.01,1.368,1.368,0,0,1,1.273-1.274,1.24,1.24,0,0,1,.668.181l.005,0a1.99,1.99,0,0,1,.4.312L49.328,26.5l.01.01,0,0,1.346,1.347a1.075,1.075,0,1,0,1.521-1.52l-1.357-1.358a1.264,1.264,0,0,1-.088-1.917,1.286,1.286,0,0,1,1.939.074l1.777,1.778A1.075,1.075,0,0,0,56,23.4l-1.777-1.778a3.447,3.447,0,0,0-4.98-.075c-.052.052-.1.106-.151.162V16.368A8.478,8.478,0,0,0,45.946,0c-.206,0-.409.01-.611.024H19.7A5.713,5.713,0,0,0,14,5.732V48.954A5.713,5.713,0,0,0,19.7,54.662h4.077a1.075,1.075,0,1,0,0-2.15H19.7a3.56,3.56,0,0,1-3.555-3.558V44.846H34.826a4.359,4.359,0,0,0,3.3,2.09l8.814,1.1v.914a3.56,3.56,0,0,1-3.555,3.558H33.359a1.075,1.075,0,1,0,0,2.15H43.389a5.713,5.713,0,0,0,5.705-5.708v-.645l3.045.381a9.4,9.4,0,0,0,1.182.075,6.154,6.154,0,0,0,4.326-1.474l6.035-6.039a6.861,6.861,0,0,0,1.982-5.247ZM52.321,8.484A6.375,6.375,0,1,1,45.946,2.15,6.363,6.363,0,0,1,52.321,8.484ZM16.149,42.7V5.732A3.56,3.56,0,0,1,19.7,2.175h20.55a8.473,8.473,0,0,0,5.692,14.8,8.607,8.607,0,0,0,1-.06v5.524c-.059,0-.117,0-.172,0a3.443,3.443,0,0,0-2.33,1.026,3.579,3.579,0,0,0-.826,1.284,3.355,3.355,0,0,0-1.645-.375,3.445,3.445,0,0,0-2.33,1.028,3.548,3.548,0,0,0-.749,1.1l-4.259-4.261a3.485,3.485,0,0,0-3.412-1.014,3.574,3.574,0,0,0-2.488,2.487,3.488,3.488,0,0,0,1.012,3.416l10.943,10.95c.346.347.668.656.952.929l.075.072-3.623-.129a3.563,3.563,0,0,0-3.878,3.321,4.159,4.159,0,0,0-.011.431H16.149Z"/>
      <path id="Trazado_1239415" data-name="Trazado 1239415" d="M101.844,150.108a1.075,1.075,0,1,0,1.521-1.52l-2.273-2.274a1.075,1.075,0,1,0-1.521,1.52Z" transform="translate(-76.158 -130.416)"/>
      <path id="Trazado_1239416" data-name="Trazado 1239416" d="M161.582,126.519a1.075,1.075,0,0,0,1.075-1.075v-3.218a1.075,1.075,0,0,0-2.15,0v3.218A1.075,1.075,0,0,0,161.582,126.519Z" transform="translate(-130.871 -108.22)"/>
      <path id="Trazado_1239417" data-name="Trazado 1239417" d="M79.817,208.358a1.075,1.075,0,0,0-1.075-1.075H75.529a1.075,1.075,0,1,0,0,2.15h3.213A1.075,1.075,0,0,0,79.817,208.358Z" transform="translate(-54.003 -185.159)"/>
      <path id="Trazado_1239418" data-name="Trazado 1239418" d="M102.753,246.669l-2.273,2.274a1.075,1.075,0,1,0,1.521,1.52l2.273-2.274a1.075,1.075,0,1,0-1.521-1.52Z" transform="translate(-76.97 -220.06)"/>
      <path id="Trazado_1239419" data-name="Trazado 1239419" d="M200.63,151.329a1.072,1.072,0,0,0,.76-.315l2.276-2.274a1.075,1.075,0,0,0-1.52-1.521l-2.276,2.274a1.075,1.075,0,0,0,.76,1.836Z" transform="translate(-165.751 -131.225)"/>
      <path id="Trazado_1239420" data-name="Trazado 1239420" d="M276.238,54.543a1.075,1.075,0,1,0-1.591,1.446l1.97,2.168a1.075,1.075,0,0,0,1.49.1l4.2-3.547a1.075,1.075,0,0,0-1.388-1.643l-3.406,2.878Z" transform="translate(-232.579 -47.175)"/>
      <path id="Trazado_1239421" data-name="Trazado 1239421" d="M422.255,249.759a1.075,1.075,0,0,0,1.679-1.343l-.012-.015a1.075,1.075,0,1,0-1.679,1.343Z" transform="translate(-364.461 -221.528)"/>
      <path id="Trazado_1239422" data-name="Trazado 1239422" d="M141.442,492h-.021a1.075,1.075,0,1,0,0,2.15h.021a1.075,1.075,0,1,0,0-2.15Z" transform="translate(-112.862 -439.488)"/>
    </g>
  </g>
</svg>
