<svg xmlns="http://www.w3.org/2000/svg" xmlns:xlink="http://www.w3.org/1999/xlink" width="759.509" height="385" viewBox="0 0 759.509 385">
  <defs>
    <clipPath id="clip-path">
      <rect id="Rectángulo_424557" data-name="Rectángulo 424557" width="285" height="317" transform="translate(338 2058)" fill="#fff" stroke="#707070" stroke-width="1" opacity="0.41"/>
    </clipPath>
  </defs>
  <g id="Grupo_1240218" data-name="Grupo 1240218" transform="translate(-345.491 -1990)">
    <g id="Grupo_1240197" data-name="Grupo 1240197" transform="translate(111.468 -1576.049)">
      <g id="Grupo_1240167" data-name="Grupo 1240167" transform="translate(195.83 -2286.03)">
        <g id="Grupo_1221101" data-name="Grupo 1221101">
          <g id="Grupo_1221096" data-name="Grupo 1221096" transform="translate(349.49 6011.118)">
            <ellipse id="Elipse_14554" data-name="Elipse 14554" cx="44.006" cy="44.006" rx="44.006" ry="44.006" transform="translate(357.212 0)" fill="none" stroke="#000" stroke-miterlimit="10" stroke-width="3"/>
            <ellipse id="Elipse_14556" data-name="Elipse 14556" cx="44.006" cy="44.006" rx="44.006" ry="44.006" transform="translate(238.142 0)" fill="none" stroke="#000" stroke-miterlimit="10" stroke-width="3"/>
            <ellipse id="Elipse_14558" data-name="Elipse 14558" cx="44.006" cy="44.006" rx="44.006" ry="44.006" transform="translate(119.07 0)" fill="none" stroke="#000" stroke-miterlimit="10" stroke-width="3"/>
            <ellipse id="Elipse_14560" data-name="Elipse 14560" cx="44.006" cy="44.006" rx="44.006" ry="44.006" transform="translate(0 0)" fill="none" stroke="#000" stroke-miterlimit="10" stroke-width="3"/>
            <line id="Línea_625" data-name="Línea 625" x2="31.058" transform="translate(88.012 44.006)" fill="none" stroke="#000" stroke-miterlimit="10" stroke-width="3"/>
            <line id="Línea_626" data-name="Línea 626" x2="31.058" transform="translate(207.083 44.006)" fill="none" stroke="#000" stroke-miterlimit="10" stroke-width="3"/>
            <line id="Línea_627" data-name="Línea 627" x2="31.06" transform="translate(326.151 44.006)" fill="none" stroke="#000" stroke-miterlimit="10" stroke-width="3"/>
          </g>
          <g id="Grupo_1221097" data-name="Grupo 1221097" transform="translate(340.518 6018.373)">
            <g id="Grupo_1221058" data-name="Grupo 1221058" transform="translate(369.414 0.456)" opacity="0.4">
              <path id="Trazado_1169785" data-name="Trazado 1169785" d="M1367.969,1093.467h0a36.763,36.763,0,0,0,38.636-34.789l2.078-39.661,2.078-39.661a36.763,36.763,0,0,0-34.789-38.636h0a36.763,36.763,0,0,0-38.636,34.789l-2.078,39.661-2.078,39.661A36.763,36.763,0,0,0,1367.969,1093.467Z" transform="translate(-1333.129 -940.669)" fill="#fff" opacity="0"/>
              <path id="Trazado_1169786" data-name="Trazado 1169786" d="M1338.526,974.8c-.212.212-2.354,38.887-2.354,39.211s-1.88,39-1.667,39.211a36.408,36.408,0,0,0,72.714,3.723c.212-.212,2.354-38.887,2.354-39.211s1.88-39,1.667-39.211a36.354,36.354,0,0,0-34.5-37.733h0C1356.778,940.272,1339.766,954.962,1338.526,974.8Z" transform="translate(-1333.968 -940.734)" fill="#f7f7f7" opacity="0.032"/>
              <path id="Trazado_1169787" data-name="Trazado 1169787" d="M1339.626,973.964c-.424.424-2.631,38.113-2.631,38.76s-1.681,38.336-1.257,38.76a36.06,36.06,0,0,0,72,3.6c.424-.424,2.631-38.113,2.631-38.76s1.681-38.336,1.257-38.76c.569-19.392-14.569-36.333-34.2-36.83h0A36.024,36.024,0,0,0,1339.626,973.964Z" transform="translate(-1334.715 -940.679)" fill="#efefef" opacity="0.064"/>
              <path id="Trazado_1169788" data-name="Trazado 1169788" d="M1340.639,973.191c-.636.636-2.907,37.338-2.907,38.31s-1.483,37.673-.847,38.31a35.72,35.72,0,0,0,71.293,3.475c.637-.636,2.907-37.339,2.907-38.31s1.483-37.673.847-38.31c.323-18.95-14.606-35.447-33.909-35.927h0A35.669,35.669,0,0,0,1340.639,973.191Z" transform="translate(-1335.375 -940.684)" fill="#e6e6e6" opacity="0.097"/>
              <path id="Trazado_1169789" data-name="Trazado 1169789" d="M1341.584,972.419c-.849.849-3.183,36.564-3.183,37.859s-1.285,37.011-.436,37.859a35.387,35.387,0,0,0,70.583,3.35c.849-.849,3.183-36.565,3.183-37.859s1.285-37.011.436-37.859a35.181,35.181,0,0,0-33.616-35.024h0A35.319,35.319,0,0,0,1341.584,972.419Z" transform="translate(-1335.966 -940.69)" fill="#dedede" opacity="0.129"/>
              <path id="Trazado_1169790" data-name="Trazado 1169790" d="M1342.446,971.7c-1.061,1.061-3.46,35.79-3.46,37.409s-1.086,36.348-.026,37.409c.17,18.066,14.7,33.23,33.323,34.121a34.978,34.978,0,0,0,36.549-30.895c1.061-1.061,3.46-35.79,3.46-37.409s1.087-36.348.026-37.409c-.17-18.066-14.7-33.23-33.323-34.121h0C1360.356,940.358,1344.4,953.632,1342.446,971.7Z" transform="translate(-1336.479 -940.745)" fill="#d6d6d6" opacity="0.161"/>
              <path id="Trazado_1169791" data-name="Trazado 1169791" d="M1343.241,970.922c-1.273,1.273-3.736,35.016-3.736,36.959s-.889,35.686.384,36.959c.416,17.624,14.736,32.361,33.029,33.218a34.646,34.646,0,0,0,36.132-30.116c1.273-1.273,3.736-35.016,3.736-36.958s.888-35.686-.384-36.959c-.417-17.624-14.721-32.79-33.03-33.218h0C1361.065,940.38,1345.371,953.3,1343.241,970.922Z" transform="translate(-1336.921 -940.748)" fill="#cecece" opacity="0.193"/>
              <path id="Trazado_1169792" data-name="Trazado 1169792" d="M1343.957,970.111c-1.485,1.485-4.012,34.242-4.012,36.508s-.69,35.023.795,36.508c.663,17.182,14.773,31.493,32.736,32.315s33.407-12.155,35.714-29.337c1.485-1.485,4.012-34.242,4.012-36.508s.69-35.023-.795-36.508a33.784,33.784,0,0,0-32.736-32.315h0C1361.709,939.95,1346.264,952.927,1343.957,970.111Z" transform="translate(-1337.284 -940.711)" fill="#c5c5c5" opacity="0.226"/>
              <path id="Trazado_1169793" data-name="Trazado 1169793" d="M1344.594,969.382c-1.7,1.7-4.289,33.468-4.289,36.058s-.492,34.361,1.205,36.058c.909,16.741,14.81,30.624,32.443,31.412s32.812-11.818,35.3-28.558c1.7-1.7,4.289-33.468,4.289-36.058s.492-34.361-1.205-36.058a33.449,33.449,0,0,0-32.443-31.412h0C1362.245,940.428,1347.077,952.64,1344.594,969.382Z" transform="translate(-1337.568 -940.759)" fill="#bdbdbd" opacity="0.258"/>
              <path id="Trazado_1169794" data-name="Trazado 1169794" d="M1345.158,968.607c-1.909,1.909-4.565,32.693-4.565,35.607s-.294,33.7,1.616,35.607c1.156,16.3,14.847,29.755,32.15,30.509s32.216-11.48,34.88-27.779c1.909-1.909,4.565-32.693,4.565-35.607s.294-33.7-1.616-35.607a33.128,33.128,0,0,0-32.15-30.509h0C1362.722,940.45,1347.818,952.308,1345.158,968.607Z" transform="translate(-1337.778 -940.762)" fill="#b5b5b5" opacity="0.29"/>
              <path id="Trazado_1169795" data-name="Trazado 1169795" d="M1345.654,967.831c-2.122,2.122-4.841,31.92-4.841,35.157s-.1,33.035,2.026,35.157c1.4,15.857,14.884,28.887,31.856,29.606s31.621-11.144,34.462-27c2.122-2.122,4.841-31.92,4.841-35.157s.1-33.036-2.026-35.157a32.823,32.823,0,0,0-31.857-29.606h0C1363.132,940.471,1348.5,951.974,1345.654,967.831Z" transform="translate(-1337.926 -940.764)" fill="#adadad" opacity="0.323"/>
              <path id="Trazado_1169796" data-name="Trazado 1169796" d="M1346.137,967.057c-2.333,2.333-5.118,31.145-5.118,34.707s.1,32.373,2.437,34.707c1.648,15.415,14.921,28.018,31.563,28.7s31.026-10.807,34.045-26.222c2.334-2.334,5.118-31.145,5.118-34.707s-.1-32.373-2.436-34.707a32.535,32.535,0,0,0-31.563-28.7h0C1363.528,940.493,1349.157,951.642,1346.137,967.057Z" transform="translate(-1338.055 -940.768)" fill="#a5a5a5" opacity="0.355"/>
              <path id="Trazado_1169797" data-name="Trazado 1169797" d="M1346.617,966.282c-2.546,2.546-5.394,30.371-5.394,34.256s.3,31.71,2.847,34.256c1.895,14.973,14.958,27.149,31.27,27.8s30.431-10.47,33.627-25.443c2.546-2.546,5.394-30.371,5.394-34.256s-.3-31.71-2.847-34.256a32.264,32.264,0,0,0-31.27-27.8h0C1363.922,940.514,1349.814,951.31,1346.617,966.282Z" transform="translate(-1338.182 -940.771)" fill="#9c9c9c" opacity="0.387"/>
              <path id="Trazado_1169798" data-name="Trazado 1169798" d="M1347.1,965.507c-2.758,2.758-5.671,29.6-5.671,33.806s.5,31.047,3.257,33.806c2.141,14.531,15,26.281,30.977,26.9s29.836-10.133,33.211-24.664c2.758-2.758,5.671-29.6,5.671-33.806s-.5-31.048-3.257-33.806a32.013,32.013,0,0,0-30.977-26.9h0C1364.316,940.536,1350.471,950.977,1347.1,965.507Z" transform="translate(-1338.309 -940.773)" fill="#949494" opacity="0.419"/>
              <path id="Trazado_1169799" data-name="Trazado 1169799" d="M1347.569,964.732c-2.97,2.97-5.947,28.823-5.947,33.355s.7,30.385,3.668,33.355c2.388,14.089,15.032,25.412,30.683,25.995s29.24-9.8,32.793-23.885c2.97-2.97,5.947-28.823,5.947-33.355s-.7-30.385-3.668-33.355a31.785,31.785,0,0,0-30.683-25.995h0C1364.7,940.557,1351.123,950.644,1347.569,964.732Z" transform="translate(-1338.431 -940.776)" fill="#8c8c8c" opacity="0.452"/>
              <path id="Trazado_1169800" data-name="Trazado 1169800" d="M1348.049,963.957c-3.182,3.182-6.223,28.049-6.223,32.905s.9,29.723,4.078,32.905c2.634,13.647,15.069,24.543,30.391,25.092s28.645-9.459,32.376-23.106c3.182-3.182,6.223-28.049,6.223-32.905s-.9-29.722-4.078-32.905a31.582,31.582,0,0,0-30.391-25.092h0C1365.1,940.579,1351.78,950.312,1348.049,963.957Z" transform="translate(-1338.558 -940.779)" fill="#848484" opacity="0.484"/>
              <path id="Trazado_1169801" data-name="Trazado 1169801" d="M1348.53,963.192c-3.394,3.395-6.5,27.275-6.5,32.454s1.094,29.06,4.489,32.455c2.88,13.2,15.106,23.675,30.1,24.188s28.05-9.122,31.958-22.327c3.394-3.395,6.5-27.275,6.5-32.455s-1.094-29.06-4.489-32.454a31.405,31.405,0,0,0-30.1-24.189h0C1365.49,940.606,1352.438,949.985,1348.53,963.192Z" transform="translate(-1338.686 -940.788)" fill="#7b7b7b" opacity="0.516"/>
              <path id="Trazado_1169802" data-name="Trazado 1169802" d="M1349.011,962.415c-3.606,3.607-6.776,26.5-6.776,32s1.293,28.4,4.9,32c3.127,12.763,15.143,22.806,29.8,23.286s27.454-8.785,31.541-21.549c3.606-3.607,6.776-26.5,6.776-32s-1.292-28.4-4.9-32c-3.127-12.763-15.138-23.046-29.8-23.286h0C1365.884,940.626,1353.1,949.651,1349.011,962.415Z" transform="translate(-1338.814 -940.789)" fill="#737373" opacity="0.548"/>
              <path id="Trazado_1169803" data-name="Trazado 1169803" d="M1349.492,961.641c-3.819,3.819-7.052,25.726-7.052,31.554s1.49,27.735,5.309,31.554c3.374,12.321,15.181,21.938,29.51,22.383s26.859-8.448,31.124-20.77c3.819-3.819,7.052-25.726,7.052-31.554s-1.49-27.735-5.309-31.554c-3.374-12.321-15.175-22.16-29.51-22.383h0C1366.279,940.648,1353.756,949.319,1349.492,961.641Z" transform="translate(-1338.942 -940.792)" fill="#6b6b6b" opacity="0.581"/>
              <path id="Trazado_1169804" data-name="Trazado 1169804" d="M1349.963,960.867c-4.031,4.031-7.329,24.952-7.329,31.1s1.689,27.072,5.72,31.1c3.619,11.88,15.218,21.069,29.217,21.48s26.264-8.111,30.707-19.991c4.031-4.031,7.329-24.952,7.329-31.1s-1.689-27.073-5.72-31.1a31.073,31.073,0,0,0-29.217-21.48h0C1366.667,940.671,1354.407,948.988,1349.963,960.867Z" transform="translate(-1339.063 -940.796)" fill="#636363" opacity="0.613"/>
              <path id="Trazado_1169805" data-name="Trazado 1169805" d="M1350.444,960.092c-4.243,4.243-7.6,24.178-7.6,30.653s1.887,26.41,6.13,30.653c3.866,11.438,15.255,20.2,28.924,20.577s25.669-7.774,30.289-19.212c4.243-4.243,7.6-24.178,7.6-30.653s-1.887-26.41-6.13-30.653a31.042,31.042,0,0,0-28.924-20.577h0C1367.061,940.692,1355.065,948.655,1350.444,960.092Z" transform="translate(-1339.191 -940.799)" fill="#5a5a5a" opacity="0.645"/>
              <path id="Trazado_1169806" data-name="Trazado 1169806" d="M1350.924,959.318c-4.455,4.455-7.881,23.4-7.881,30.2s2.085,25.747,6.541,30.2c4.113,11,15.292,19.331,28.631,19.674s25.074-7.437,29.872-18.433c4.455-4.455,7.881-23.4,7.881-30.2s-2.085-25.747-6.541-30.2a31.06,31.06,0,0,0-28.631-19.674h0C1367.456,940.714,1355.722,948.323,1350.924,959.318Z" transform="translate(-1339.318 -940.802)" fill="#525252" opacity="0.677"/>
              <path id="Trazado_1169807" data-name="Trazado 1169807" d="M1351.405,958.545c-3.8,5.4-8.157,22.63-8.157,29.752s2.284,25.085,6.951,29.752c4.359,10.554,15.329,18.463,28.338,18.771s22.742-8.11,29.454-17.654c3.8-5.4,8.157-22.63,8.157-29.752s-2.283-25.085-6.951-29.752a31.133,31.133,0,0,0-28.338-18.771h0C1367.846,940.736,1358.116,949,1351.405,958.545Z" transform="translate(-1339.446 -940.806)" fill="#4a4a4a" opacity="0.71"/>
              <path id="Trazado_1169808" data-name="Trazado 1169808" d="M1351.886,957.771c-4.057,5.583-8.434,21.856-8.434,29.3s2.482,24.422,7.361,29.3c4.605,10.112,15.366,17.594,28.045,17.868s22.366-7.694,29.037-16.875c4.057-5.583,8.434-21.856,8.434-29.3s-2.482-24.422-7.361-29.3a31.27,31.27,0,0,0-28.045-17.868h0C1368.241,940.758,1358.555,948.589,1351.886,957.771Z" transform="translate(-1339.573 -940.809)" fill="#424242" opacity="0.742"/>
              <path id="Trazado_1169809" data-name="Trazado 1169809" d="M1352.357,957c-4.327,5.756-8.71,21.081-8.71,28.851s3.558,23.013,7.772,28.852c6.332,8.772,15.4,16.725,27.751,16.965s21.984-7.27,28.62-16.1c4.327-5.756,8.71-21.082,8.71-28.852s-3.557-23.013-7.772-28.851c-6.332-8.772-15.4-16.845-27.751-16.965h0C1368.629,940.78,1358.992,948.17,1352.357,957Z" transform="translate(-1339.695 -940.813)" fill="#3a3a3a" opacity="0.774"/>
              <path id="Trazado_1169810" data-name="Trazado 1169810" d="M1352.838,956.223c-4.61,5.917-8.987,20.307-8.987,28.4s3.672,22.407,8.182,28.4c6.339,8.424,15.44,15.857,27.458,16.062s21.6-6.839,28.2-15.318c4.61-5.917,8.986-20.307,8.986-28.4s-3.672-22.407-8.182-28.4c-6.339-8.425-15.439-15.959-27.458-16.062h0C1369.02,940.8,1359.443,947.744,1352.838,956.223Z" transform="translate(-1339.823 -940.815)" fill="#313131" opacity="0.807"/>
              <path id="Trazado_1169811" data-name="Trazado 1169811" d="M1353.318,955.448c-4.905,6.066-9.263,19.533-9.263,27.951s3.773,21.816,8.593,27.951c6.354,8.087,15.477,14.988,27.165,15.16s21.2-6.4,27.785-14.539c4.905-6.066,9.263-19.533,9.263-27.951s-3.773-21.816-8.593-27.95c-6.354-8.087-15.476-15.073-27.165-15.16h0C1369.414,940.824,1359.9,947.309,1353.318,955.448Z" transform="translate(-1339.95 -940.818)" fill="#292929" opacity="0.839"/>
              <path id="Trazado_1169812" data-name="Trazado 1169812" d="M1353.8,954.674c-5.213,6.2-9.539,18.759-9.539,27.5s3.86,21.242,9,27.5c6.377,7.76,15.514,14.119,26.871,14.256s20.8-5.953,27.368-13.76c5.213-6.2,9.539-18.759,9.539-27.5s-3.86-21.241-9-27.5c-6.377-7.76-15.514-14.188-26.871-14.256h0C1369.808,940.845,1360.359,946.867,1353.8,954.674Z" transform="translate(-1340.078 -940.821)" fill="#212121" opacity="0.871"/>
              <path id="Trazado_1169813" data-name="Trazado 1169813" d="M1354.27,953.9c-5.534,6.321-9.816,17.985-9.816,27.05s3.932,20.683,9.413,27.05c6.41,7.445,15.551,13.25,26.578,13.354s20.4-5.5,26.951-12.981c5.534-6.321,9.816-17.985,9.816-27.05s-3.932-20.683-9.414-27.05c-6.41-7.445-15.551-13.3-26.578-13.354h0C1370.2,940.867,1360.826,946.415,1354.27,953.9Z" transform="translate(-1340.199 -940.824)" fill="#191919" opacity="0.903"/>
              <path id="Trazado_1169814" data-name="Trazado 1169814" d="M1354.751,953.125c-5.869,6.424-10.092,17.211-10.092,26.6s3.991,20.143,9.824,26.6c6.454,7.143,15.589,12.382,26.285,12.451s19.981-5.03,26.533-12.2c5.868-6.424,10.092-17.211,10.092-26.6s-3.991-20.143-9.824-26.6c-6.454-7.143-15.588-12.417-26.285-12.451h0C1370.587,940.888,1361.3,945.953,1354.751,953.125Z" transform="translate(-1340.327 -940.827)" fill="#101010" opacity="0.936"/>
              <path id="Trazado_1169815" data-name="Trazado 1169815" d="M1355.231,952.35a38.339,38.339,0,0,0-.134,52.3,35.293,35.293,0,0,0,52.107.124,38.339,38.339,0,0,0,.134-52.3,36.029,36.029,0,0,0-25.992-11.547h0A35.963,35.963,0,0,0,1355.231,952.35Z" transform="translate(-1340.454 -940.829)" fill="#080808" opacity="0.968"/>
              <path id="Trazado_1169816" data-name="Trazado 1169816" d="M1345.07,977.271a36.343,36.343,0,1,0,10.645-25.7A36.229,36.229,0,0,0,1345.07,977.271Z" transform="translate(-1340.583 -940.83)"/>
            </g>
            <g id="Grupo_1221060" data-name="Grupo 1221060" transform="translate(246.346 0.553)" opacity="0.4">
              <path id="Trazado_1169849" data-name="Trazado 1169849" d="M1038.451,1093.84h0a36.763,36.763,0,0,0,40.439-32.675l4.194-39.493,4.194-39.493A36.762,36.762,0,0,0,1054.6,941.74h0a36.762,36.762,0,0,0-40.439,32.675l-4.194,39.493-4.194,39.493A36.765,36.765,0,0,0,1038.451,1093.84Z" transform="translate(-1005.568 -941.304)" fill="#fff" opacity="0"/>
              <path id="Trazado_1169850" data-name="Trazado 1169850" d="M1015.614,973.684c-.212.212-4.4,38.724-4.4,39.048s-3.927,38.836-3.715,39.048a36.4,36.4,0,0,0,72.414,7.513c.212-.212,4.4-38.725,4.4-39.048s3.927-38.836,3.715-39.048a36.333,36.333,0,0,0-32.45-39.478h0A36.4,36.4,0,0,0,1015.614,973.684Z" transform="translate(-1006.672 -941.297)" fill="#f7f7f7" opacity="0.032"/>
              <path id="Trazado_1169851" data-name="Trazado 1169851" d="M1017.053,972.949c-.424.424-4.61,37.956-4.61,38.6s-3.661,38.179-3.236,38.6a36.053,36.053,0,0,0,71.713,7.263c.424-.424,4.61-37.956,4.61-38.6s3.661-38.179,3.236-38.6a35.912,35.912,0,0,0-32.225-38.517h0A36.055,36.055,0,0,0,1017.053,972.949Z" transform="translate(-1007.765 -941.287)" fill="#efefef" opacity="0.064"/>
              <path id="Trazado_1169852" data-name="Trazado 1169852" d="M1018.484,972.213c-.636.636-4.818,37.187-4.818,38.158s-3.394,37.522-2.758,38.158a35.71,35.71,0,0,0,71.013,7.012c.636-.636,4.818-37.187,4.818-38.158s3.394-37.522,2.758-38.158a35.5,35.5,0,0,0-32-37.556h0A35.713,35.713,0,0,0,1018.484,972.213Z" transform="translate(-1008.85 -941.277)" fill="#e6e6e6" opacity="0.097"/>
              <path id="Trazado_1169853" data-name="Trazado 1169853" d="M1019.749,971.687c-.849.849-5.026,36.418-5.026,37.713s-3.128,36.865-2.279,37.713a35.374,35.374,0,0,0,70.312,6.762c.849-.849,5.026-36.418,5.026-37.714s3.128-36.865,2.279-37.713c1.019-18.433-12.826-35.66-31.775-36.594h0C1039.339,940.92,1022.466,953.253,1019.749,971.687Z" transform="translate(-1009.77 -941.475)" fill="#dedede" opacity="0.129"/>
              <path id="Trazado_1169854" data-name="Trazado 1169854" d="M1020.97,970.743c-1.061,1.061-5.234,35.65-5.234,37.268s-2.861,36.208-1.8,37.268c-.738,17.994,13,33.835,31.55,35.633a35.048,35.048,0,0,0,38.061-29.122c1.061-1.061,5.234-35.65,5.234-37.268s2.861-36.208,1.8-37.268c.738-17.994-12.933-34.733-31.55-35.634h0A35.05,35.05,0,0,0,1020.97,970.743Z" transform="translate(-1010.644 -941.256)" fill="#d6d6d6" opacity="0.161"/>
              <path id="Trazado_1169855" data-name="Trazado 1169855" d="M1022.147,970.2c-1.273,1.273-5.442,34.881-5.442,36.823s-2.595,35.55-1.322,36.823c-.456,17.555,13.1,32.943,31.325,34.672a34.73,34.73,0,0,0,37.586-28.411c1.273-1.273,5.442-34.881,5.442-36.823s2.595-35.55,1.322-36.823c.456-17.555-13.039-33.807-31.325-34.672h0C1041.447,940.921,1025.149,952.642,1022.147,970.2Z" transform="translate(-1011.476 -941.435)" fill="#cecece" opacity="0.193"/>
              <path id="Trazado_1169856" data-name="Trazado 1169856" d="M1023.277,969.272c-1.485,1.485-5.65,34.112-5.65,36.379s-2.328,34.893-.843,36.378c-.175,17.116,13.2,32.052,31.1,33.711a34.42,34.42,0,0,0,37.11-27.7c1.485-1.485,5.65-34.112,5.65-36.378s2.328-34.893.843-36.379c.175-17.116-13.145-32.88-31.1-33.711h0A34.422,34.422,0,0,0,1023.277,969.272Z" transform="translate(-1012.261 -941.236)" fill="#c5c5c5" opacity="0.226"/>
              <path id="Trazado_1169857" data-name="Trazado 1169857" d="M1024.356,968.716c-1.7,1.7-5.858,33.344-5.858,35.933s-2.062,34.236-.365,35.933c.107,16.677,13.305,31.16,30.875,32.75s33.347-10.313,36.635-26.99c1.7-1.7,5.859-33.344,5.859-35.933s2.062-34.236.364-35.933c-.107-16.677-13.251-31.954-30.875-32.75h0C1043.367,940.928,1027.644,952.037,1024.356,968.716Z" transform="translate(-1012.994 -941.401)" fill="#bdbdbd" opacity="0.258"/>
              <path id="Trazado_1169858" data-name="Trazado 1169858" d="M1025.378,967.971c-1.909,1.909-6.066,32.575-6.066,35.488s-1.8,33.579.114,35.488c.388,16.238,13.408,30.268,30.65,31.789s32.729-10.042,36.16-26.279c1.909-1.909,6.067-32.575,6.067-35.488s1.8-33.579-.114-35.489c-.388-16.238-13.408-30.268-30.65-31.789h0C1044.246,940.929,1028.808,951.732,1025.378,967.971Z" transform="translate(-1013.67 -941.381)" fill="#b5b5b5" opacity="0.29"/>
              <path id="Trazado_1169859" data-name="Trazado 1169859" d="M1026.338,967.225c-2.121,2.122-6.275,31.806-6.275,35.043s-1.529,32.922.593,35.043c.669,15.8,13.51,29.376,30.425,30.828s32.11-9.77,35.684-25.569c2.122-2.122,6.275-31.806,6.275-35.043s1.529-32.922-.593-35.043c-.669-15.8-13.464-30.1-30.425-30.828h0C1045.064,940.929,1029.915,951.426,1026.338,967.225Z" transform="translate(-1014.285 -941.361)" fill="#adadad" opacity="0.323"/>
              <path id="Trazado_1169860" data-name="Trazado 1169860" d="M1027.232,966.48c-2.333,2.334-6.483,31.037-6.483,34.6s-1.262,32.265,1.072,34.6c.951,15.36,13.613,28.484,30.2,29.867s31.492-9.5,35.209-24.858c2.333-2.333,6.483-31.037,6.483-34.6s1.262-32.265-1.072-34.6c-.951-15.359-13.569-29.175-30.2-29.867h0C1045.811,940.93,1030.951,951.121,1027.232,966.48Z" transform="translate(-1014.832 -941.341)" fill="#a5a5a5" opacity="0.355"/>
              <path id="Trazado_1169861" data-name="Trazado 1169861" d="M1028.053,965.735c-2.546,2.546-6.691,30.269-6.691,34.154s-1,31.607,1.55,34.154c1.232,14.92,13.715,27.592,29.974,28.906s30.873-9.227,34.733-24.147c2.546-2.546,6.691-30.268,6.691-34.154s1-31.607-1.55-34.154c-1.232-14.92-13.675-28.248-29.974-28.906h0C1046.49,940.93,1031.916,950.815,1028.053,965.735Z" transform="translate(-1015.308 -941.32)" fill="#9c9c9c" opacity="0.387"/>
              <path id="Trazado_1169862" data-name="Trazado 1169862" d="M1028.812,964.99c-2.758,2.758-6.9,29.5-6.9,33.708s-.729,30.95,2.029,33.708c1.513,14.481,13.818,26.7,29.749,27.945s30.254-8.956,34.258-23.437c2.758-2.758,6.9-29.5,6.9-33.708s.729-30.95-2.029-33.708c-1.513-14.481-13.781-27.322-29.749-27.945h0C1047.1,940.931,1032.813,950.509,1028.812,964.99Z" transform="translate(-1015.717 -941.3)" fill="#949494" opacity="0.419"/>
              <path id="Trazado_1169863" data-name="Trazado 1169863" d="M1029.477,964.244c-2.97,2.97-7.107,28.731-7.107,33.264s-.463,30.293,2.507,33.263c1.794,14.042,13.92,25.808,29.524,26.983s29.636-8.684,33.782-22.726c2.97-2.97,7.107-28.731,7.107-33.263s.462-30.293-2.507-33.264a31.277,31.277,0,0,0-29.525-26.984h0C1047.624,940.931,1033.625,950.2,1029.477,964.244Z" transform="translate(-1016.041 -941.28)" fill="#8c8c8c" opacity="0.452"/>
              <path id="Trazado_1169864" data-name="Trazado 1169864" d="M1030.1,963.5c-3.182,3.182-7.315,27.962-7.315,32.818s-.2,29.636,2.986,32.818c2.076,13.6,14.022,24.916,29.3,26.022s29.018-8.412,33.306-22.015c3.182-3.182,7.315-27.962,7.315-32.818s.2-29.636-2.986-32.818a31.07,31.07,0,0,0-29.3-26.022h0C1048.1,940.932,1034.388,949.9,1030.1,963.5Z" transform="translate(-1016.315 -941.26)" fill="#848484" opacity="0.484"/>
              <path id="Trazado_1169865" data-name="Trazado 1169865" d="M1030.679,962.758c-3.395,3.395-7.523,27.193-7.523,32.373s.07,28.979,3.465,32.373c2.357,13.164,14.125,24.024,29.074,25.061s28.4-8.141,32.831-21.3c3.395-3.395,7.523-27.193,7.523-32.373s-.07-28.979-3.465-32.373a30.893,30.893,0,0,0-29.074-25.061h0C1048.533,940.934,1035.109,949.594,1030.679,962.758Z" transform="translate(-1016.548 -941.242)" fill="#7b7b7b" opacity="0.516"/>
              <path id="Trazado_1169866" data-name="Trazado 1169866" d="M1031.253,962.013c-3.607,3.607-7.731,26.425-7.731,31.929s.337,28.322,3.943,31.928c2.638,12.724,14.228,23.132,28.849,24.1s27.781-7.869,32.355-20.594c3.606-3.607,7.731-26.425,7.731-31.929s-.337-28.322-3.943-31.929a30.748,30.748,0,0,0-28.849-24.1h0C1048.96,940.935,1035.826,949.288,1031.253,962.013Z" transform="translate(-1016.776 -941.222)" fill="#737373" opacity="0.548"/>
              <path id="Trazado_1169867" data-name="Trazado 1169867" d="M1031.828,961.268c-3.819,3.819-7.939,25.656-7.939,31.484s.6,27.665,4.422,31.483c2.92,12.285,14.33,22.24,28.624,23.139s27.162-7.6,31.88-19.883c3.819-3.819,7.939-25.656,7.939-31.483s-.6-27.665-4.422-31.483a30.639,30.639,0,0,0-28.624-23.139h0C1049.392,940.935,1036.543,948.983,1031.828,961.268Z" transform="translate(-1017.005 -941.202)" fill="#6b6b6b" opacity="0.581"/>
              <path id="Trazado_1169868" data-name="Trazado 1169868" d="M1032.4,960.525c-4.031,4.031-8.148,24.887-8.148,31.039s.87,27.008,4.9,31.039c3.2,11.846,14.433,21.348,28.4,22.178s26.544-7.326,31.4-19.172c4.031-4.031,8.148-24.887,8.148-31.038s-.87-27.008-4.9-31.039a30.573,30.573,0,0,0-28.4-22.178h0C1049.819,940.937,1037.263,948.679,1032.4,960.525Z" transform="translate(-1017.233 -941.183)" fill="#636363" opacity="0.613"/>
              <path id="Trazado_1169869" data-name="Trazado 1169869" d="M1032.976,959.78c-4.243,4.243-8.356,24.119-8.356,30.593s1.137,26.35,5.38,30.593c3.482,11.407,14.535,20.456,28.174,21.217s25.925-7.055,30.929-18.462c4.243-4.243,8.356-24.119,8.356-30.593s-1.137-26.35-5.379-30.593a30.553,30.553,0,0,0-28.174-21.217h0C1050.247,940.937,1037.98,948.372,1032.976,959.78Z" transform="translate(-1017.462 -941.162)" fill="#5a5a5a" opacity="0.645"/>
              <path id="Trazado_1169870" data-name="Trazado 1169870" d="M1033.551,959.038c-3.62,5.157-8.563,23.35-8.563,30.149s1.4,25.693,5.858,30.148c3.764,10.968,14.638,19.564,27.949,20.256s23.492-7.835,30.453-17.751c3.62-5.157,8.564-23.35,8.564-30.149s-1.4-25.693-5.858-30.148A30.585,30.585,0,0,0,1064,941.286h0C1050.679,940.94,1040.512,949.121,1033.551,959.038Z" transform="translate(-1017.691 -941.145)" fill="#525252" opacity="0.677"/>
              <path id="Trazado_1169871" data-name="Trazado 1169871" d="M1034.125,958.292c-3.865,5.351-8.772,22.581-8.772,29.7s1.669,25.036,6.337,29.7c4.045,10.529,14.74,18.672,27.724,19.294s23.079-7.488,29.978-17.041c3.865-5.351,8.772-22.581,8.772-29.7s-1.669-25.036-6.337-29.7a30.677,30.677,0,0,0-27.724-19.295h0C1051.107,940.94,1041.023,948.74,1034.125,958.292Z" transform="translate(-1017.919 -941.124)" fill="#4a4a4a" opacity="0.71"/>
              <path id="Trazado_1169872" data-name="Trazado 1169872" d="M1034.7,957.547c-4.119,5.536-8.98,21.813-8.98,29.258s1.936,24.379,6.815,29.258c4.326,10.09,14.843,17.78,27.5,18.334s22.662-7.136,29.5-16.33c4.119-5.536,8.98-21.813,8.98-29.258s-1.936-24.379-6.816-29.258a30.835,30.835,0,0,0-27.5-18.333h0C1051.534,940.94,1041.537,948.353,1034.7,957.547Z" transform="translate(-1018.148 -941.104)" fill="#424242" opacity="0.742"/>
              <path id="Trazado_1169873" data-name="Trazado 1169873" d="M1035.273,956.8c-4.385,5.712-9.188,21.044-9.188,28.814s3.137,22.934,7.294,28.813c6.174,8.732,14.945,16.888,27.274,17.373s22.241-6.778,29.027-15.62c4.385-5.712,9.188-21.044,9.188-28.814s-3.137-22.934-7.294-28.814c-6.174-8.732-14.938-17.13-27.274-17.372h0C1051.962,940.94,1042.058,947.96,1035.273,956.8Z" transform="translate(-1018.377 -941.083)" fill="#3a3a3a" opacity="0.774"/>
              <path id="Trazado_1169874" data-name="Trazado 1169874" d="M1035.847,956.056c-4.661,5.877-9.4,20.275-9.4,28.368s3.313,22.337,7.773,28.368c6.2,8.385,15.047,16,27.049,16.411s21.814-6.413,28.551-14.909c4.661-5.877,9.4-20.275,9.4-28.368s-3.313-22.337-7.773-28.368c-6.2-8.385-15.042-16.2-27.049-16.411h0C1052.39,940.94,1042.584,947.56,1035.847,956.056Z" transform="translate(-1018.605 -941.062)" fill="#313131" opacity="0.807"/>
              <path id="Trazado_1169875" data-name="Trazado 1169875" d="M1036.422,955.309c-4.949,6.03-9.6,19.506-9.6,27.924s3.475,21.756,8.251,27.923c6.235,8.051,15.15,15.1,26.824,15.45s21.383-6.042,28.076-14.2c4.949-6.03,9.6-19.506,9.6-27.924s-3.475-21.756-8.251-27.924c-6.235-8.051-15.146-15.277-26.824-15.45h0C1052.821,940.938,1043.113,947.154,1036.422,955.309Z" transform="translate(-1018.834 -941.04)" fill="#292929" opacity="0.839"/>
              <path id="Trazado_1169876" data-name="Trazado 1169876" d="M1037,954.564c-5.249,6.17-9.812,18.737-9.812,27.479s3.622,21.192,8.73,27.478c6.28,7.728,15.253,14.212,26.6,14.489s20.945-5.664,27.6-13.487c5.249-6.17,9.813-18.737,9.813-27.478s-3.621-21.192-8.73-27.479c-6.28-7.728-15.25-14.351-26.6-14.489h0C1053.249,940.938,1043.649,946.74,1037,954.564Z" transform="translate(-1019.062 -941.019)" fill="#212121" opacity="0.871"/>
              <path id="Trazado_1169877" data-name="Trazado 1169877" d="M1037.569,953.817c-5.562,6.3-10.021,17.969-10.021,27.033s3.753,20.645,9.209,27.033c6.336,7.42,15.355,13.32,26.374,13.528s20.5-5.278,27.125-12.777c5.562-6.3,10.021-17.969,10.021-27.033s-3.753-20.645-9.209-27.034c-6.335-7.419-15.354-13.424-26.374-13.528h0C1053.676,940.937,1044.193,946.318,1037.569,953.817Z" transform="translate(-1019.29 -940.997)" fill="#191919" opacity="0.903"/>
              <path id="Trazado_1169878" data-name="Trazado 1169878" d="M1038.144,953.071c-5.887,6.407-10.228,17.2-10.228,26.589s3.871,20.117,9.687,26.589c6.4,7.124,15.458,12.428,26.149,12.567s20.049-4.883,26.65-12.066c5.887-6.407,10.228-17.2,10.228-26.589s-3.871-20.117-9.687-26.589c-6.4-7.124-15.457-12.5-26.149-12.567h0A35.937,35.937,0,0,0,1038.144,953.071Z" transform="translate(-1019.52 -940.975)" fill="#101010" opacity="0.936"/>
              <path id="Trazado_1169879" data-name="Trazado 1169879" d="M1038.719,952.323a38.326,38.326,0,0,0-.27,52.287,35.291,35.291,0,0,0,52.1.25,38.326,38.326,0,0,0,.271-52.287,35.926,35.926,0,0,0-25.924-11.606h0A36.054,36.054,0,0,0,1038.719,952.323Z" transform="translate(-1019.748 -940.953)" fill="#080808" opacity="0.968"/>
              <path id="Trazado_1169880" data-name="Trazado 1169880" d="M1028.65,977.271a36.343,36.343,0,1,0,10.645-25.7A36.229,36.229,0,0,0,1028.65,977.271Z" transform="translate(-1019.978 -940.928)"/>
            </g>
            <g id="Grupo_1221062" data-name="Grupo 1221062" transform="translate(123.388 0.553)" opacity="0.4">
              <path id="Trazado_1169913" data-name="Trazado 1169913" d="M709.327,1092.493h0a36.763,36.763,0,0,0,42.051-30.572l12.4-78.456a36.763,36.763,0,0,0-30.572-42.051h0a36.763,36.763,0,0,0-42.051,30.572l-12.4,78.457A36.76,36.76,0,0,0,709.327,1092.493Z" transform="translate(-678.299 -940.946)" fill="#fff" opacity="0"/>
              <path id="Trazado_1169914" data-name="Trazado 1169914" d="M692.852,971.332c-.212.212-6.344,38.468-6.344,38.792s-5.869,38.58-5.657,38.792a36.4,36.4,0,0,0,71.939,11.109c.212-.212,6.344-38.468,6.344-38.792s5.869-38.58,5.657-38.792A36.31,36.31,0,0,0,734.375,941.4h0A36.421,36.421,0,0,0,692.852,971.332Z" transform="translate(-679.655 -940.951)" fill="#f7f7f7" opacity="0.032"/>
              <path id="Trazado_1169915" data-name="Trazado 1169915" d="M694.538,971.165c-.424.424-6.487,37.708-6.487,38.355s-5.538,37.931-5.114,38.355a36.043,36.043,0,0,0,71.254,10.739c.424-.424,6.487-37.708,6.487-38.355s5.538-37.931,5.114-38.356a35.867,35.867,0,0,0-30.258-40.025h0C715.958,940.392,697.928,951.981,694.538,971.165Z" transform="translate(-681.002 -941.441)" fill="#efefef" opacity="0.064"/>
              <path id="Trazado_1169916" data-name="Trazado 1169916" d="M696.216,970.028c-.636.636-6.631,36.948-6.631,37.919s-5.207,37.283-4.57,37.919a35.694,35.694,0,0,0,70.57,10.368c.636-.636,6.631-36.948,6.631-37.919s5.207-37.282,4.57-37.919c2.226-18.75-10.856-37.576-30.1-39.012h0A35.749,35.749,0,0,0,696.216,970.028Z" transform="translate(-682.34 -940.963)" fill="#e6e6e6" opacity="0.097"/>
              <path id="Trazado_1169917" data-name="Trazado 1169917" d="M697.882,969.376c-.849.849-6.774,36.188-6.774,37.482s-4.876,36.634-4.027,37.482a35.011,35.011,0,0,0,29.943,38,35.423,35.423,0,0,0,39.941-28c.849-.849,6.774-36.188,6.774-37.482s4.876-36.634,4.027-37.483c1.912-18.316-11.03-36.615-29.943-38h0A35.424,35.424,0,0,0,697.882,969.376Z" transform="translate(-683.666 -940.968)" fill="#dedede" opacity="0.129"/>
              <path id="Trazado_1169918" data-name="Trazado 1169918" d="M699.493,969.147c-1.061,1.061-6.917,35.427-6.917,37.046s-4.544,35.985-3.484,37.046c-1.6,17.881,11.348,34.327,29.786,36.986a35.106,35.106,0,0,0,39.414-27.358c1.061-1.061,6.917-35.428,6.917-37.046s4.544-35.985,3.484-37.046c1.6-17.881-11.348-34.327-29.786-36.986h0C720.326,940.457,703.212,951.267,699.493,969.147Z" transform="translate(-684.937 -941.397)" fill="#d6d6d6" opacity="0.161"/>
              <path id="Trazado_1169919" data-name="Trazado 1169919" d="M700.93,968.072c-1.273,1.273-7.061,34.667-7.061,36.609s-4.213,35.337-2.94,36.61c-1.283,17.446,11.514,33.416,29.629,35.973a34.8,34.8,0,0,0,38.886-26.715c1.273-1.273,7.061-34.667,7.061-36.61s4.213-35.337,2.94-36.609c1.283-17.446-11.514-33.416-29.629-35.973h0A34.8,34.8,0,0,0,700.93,968.072Z" transform="translate(-686.034 -940.979)" fill="#cecece" opacity="0.193"/>
              <path id="Trazado_1169920" data-name="Trazado 1169920" d="M702.336,967.8c-1.485,1.485-7.2,33.907-7.2,36.173s-3.882,34.688-2.4,36.173c-.969,17.011,11.68,32.505,29.472,34.959a34.5,34.5,0,0,0,38.359-26.072c1.485-1.485,7.2-33.907,7.2-36.173s3.882-34.688,2.4-36.173c.969-17.011-11.554-33.729-29.472-34.959h0C722.776,940.5,706.275,950.79,702.336,967.8Z" transform="translate(-687.1 -941.366)" fill="#c5c5c5" opacity="0.226"/>
              <path id="Trazado_1169921" data-name="Trazado 1169921" d="M703.7,967.13c-1.7,1.7-7.347,33.146-7.347,35.737s-3.55,34.039-1.853,35.737c-.655,16.576,11.845,31.594,29.315,33.947a34.208,34.208,0,0,0,37.831-25.43c1.7-1.7,7.347-33.147,7.347-35.737s3.55-34.039,1.853-35.737c.654-16.576-11.727-32.768-29.314-33.947h0C723.948,940.521,707.753,950.553,703.7,967.13Z" transform="translate(-688.128 -941.351)" fill="#bdbdbd" opacity="0.258"/>
              <path id="Trazado_1169922" data-name="Trazado 1169922" d="M705.031,966.457c-1.909,1.909-7.491,32.386-7.491,35.3s-3.219,33.391-1.31,35.3c-.34,16.142,12.011,30.684,29.157,32.933s33.145-8.645,37.3-24.787c1.909-1.909,7.491-32.387,7.491-35.3s3.219-33.391,1.31-35.3c.34-16.142-11.9-31.806-29.157-32.933h0C725.078,940.542,709.19,950.314,705.031,966.457Z" transform="translate(-689.115 -941.336)" fill="#b5b5b5" opacity="0.29"/>
              <path id="Trazado_1169923" data-name="Trazado 1169923" d="M706.313,965.784c-2.122,2.122-7.634,31.627-7.634,34.864s-2.888,32.742-.766,34.864c-.026,15.707,12.178,29.773,29,31.92s32.507-8.437,36.776-24.144c2.122-2.122,7.634-31.626,7.634-34.864s2.888-32.742.766-34.864c.026-15.707-12.075-30.844-29-31.92h0C726.164,940.563,710.582,950.076,706.313,965.784Z" transform="translate(-690.058 -941.321)" fill="#adadad" opacity="0.323"/>
              <path id="Trazado_1169924" data-name="Trazado 1169924" d="M707.543,965.1c-2.333,2.333-7.778,30.866-7.778,34.427s-2.557,32.094-.223,34.427c.289,15.272,12.344,28.862,28.843,30.907s31.87-8.229,36.248-23.5c2.334-2.333,7.778-30.866,7.778-34.427s2.557-32.094.223-34.427c-.288-15.272-12.249-29.882-28.843-30.907h0C727.2,940.578,711.921,949.831,707.543,965.1Z" transform="translate(-690.948 -941.3)" fill="#a5a5a5" opacity="0.355"/>
              <path id="Trazado_1169925" data-name="Trazado 1169925" d="M708.716,964.429c-2.546,2.546-7.921,30.106-7.921,33.991s-2.226,31.445.32,33.991c.6,14.837,12.509,27.951,28.686,29.894s31.232-8.021,35.721-22.858c2.546-2.546,7.921-30.106,7.921-33.991s2.226-31.445-.32-33.991c-.6-14.837-12.422-28.921-28.686-29.894h0C728.174,940.6,713.2,949.593,708.716,964.429Z" transform="translate(-691.781 -941.285)" fill="#9c9c9c" opacity="0.387"/>
              <path id="Trazado_1169926" data-name="Trazado 1169926" d="M709.824,963.755c-2.758,2.758-8.064,29.346-8.064,33.555s-1.894,30.8.864,33.555c.918,14.4,12.675,27.04,28.528,28.881s30.6-7.813,35.193-22.216c2.758-2.758,8.064-29.346,8.064-33.555s1.894-30.8-.864-33.555c-.918-14.4-12.6-27.959-28.528-28.881h0C729.085,940.619,714.423,949.354,709.824,963.755Z" transform="translate(-692.549 -941.268)" fill="#949494" opacity="0.419"/>
              <path id="Trazado_1169927" data-name="Trazado 1169927" d="M710.862,963.083c-2.97,2.97-8.207,28.586-8.207,33.118s-1.563,30.148,1.407,33.118c1.232,13.968,12.841,26.13,28.371,27.868s29.958-7.605,34.666-21.573c2.97-2.97,8.207-28.586,8.207-33.118s1.563-30.148-1.407-33.118c-1.232-13.968-12.768-27-28.371-27.868h0C729.925,940.64,715.571,949.115,710.862,963.083Z" transform="translate(-693.247 -941.253)" fill="#8c8c8c" opacity="0.452"/>
              <path id="Trazado_1169928" data-name="Trazado 1169928" d="M711.821,962.409c-3.182,3.182-8.351,27.826-8.351,32.682s-1.232,29.5,1.95,32.682c1.546,13.533,13.007,25.218,28.214,26.855s29.32-7.4,34.138-20.93c3.182-3.182,8.351-27.825,8.351-32.681s1.232-29.5-1.95-32.682c-1.546-13.533-12.941-26.035-28.214-26.854h0C730.687,940.66,716.64,948.876,711.821,962.409Z" transform="translate(-693.867 -941.237)" fill="#848484" opacity="0.484"/>
              <path id="Trazado_1169929" data-name="Trazado 1169929" d="M712.7,961.735C709.3,965.129,704.2,988.8,704.2,993.98s-.9,28.851,2.494,32.245c1.86,13.1,13.173,24.308,28.057,25.841s28.683-7.189,33.611-20.287c3.394-3.395,8.494-27.065,8.494-32.245s.9-28.851-2.494-32.245c-1.861-13.1-13.114-25.073-28.057-25.841h0C731.366,940.68,717.626,948.637,712.7,961.735Z" transform="translate(-694.403 -941.22)" fill="#7b7b7b" opacity="0.516"/>
              <path id="Trazado_1169930" data-name="Trazado 1169930" d="M713.489,961.06c-3.607,3.607-8.638,26.305-8.638,31.809s-.57,28.2,3.037,31.809c2.175,12.664,13.339,23.4,27.9,24.828s28.046-6.981,33.084-19.644c3.607-3.607,8.638-26.305,8.638-31.809s.57-28.2-3.037-31.809c-2.175-12.664-13.287-24.112-27.9-24.828h0C731.96,940.7,718.527,948.4,713.489,961.06Z" transform="translate(-694.855 -941.204)" fill="#737373" opacity="0.548"/>
              <path id="Trazado_1169931" data-name="Trazado 1169931" d="M714.205,960.385c-3.819,3.819-8.781,25.545-8.781,31.372s-.238,27.553,3.581,31.372c2.489,12.229,13.505,22.486,27.742,23.815s27.408-6.772,32.556-19c3.819-3.819,8.781-25.545,8.781-31.372s.238-27.553-3.58-31.372c-2.49-12.229-13.459-23.15-27.742-23.815h0C732.478,940.719,719.353,948.156,714.205,960.385Z" transform="translate(-695.231 -941.187)" fill="#6b6b6b" opacity="0.581"/>
              <path id="Trazado_1169932" data-name="Trazado 1169932" d="M714.876,959.71c-4.031,4.031-8.924,24.785-8.924,30.936s.093,26.9,4.124,30.936c2.8,11.794,13.671,21.575,27.585,22.8s26.77-6.565,32.029-18.359c4.031-4.031,8.924-24.785,8.924-30.936s-.093-26.905-4.124-30.936a30.085,30.085,0,0,0-27.585-22.8h0C732.951,940.737,720.134,947.916,714.876,959.71Z" transform="translate(-695.563 -941.17)" fill="#636363" opacity="0.613"/>
              <path id="Trazado_1169933" data-name="Trazado 1169933" d="M715.543,959.041c-3.454,4.907-9.068,24.025-9.068,30.5s.424,26.256,4.667,30.5c3.118,11.359,13.837,20.664,27.428,21.789s24.269-7.443,31.5-17.716c3.454-4.907,9.068-24.025,9.068-30.5s-.424-26.256-4.667-30.5a30.074,30.074,0,0,0-27.428-21.789h0C733.418,940.763,722.775,948.768,715.543,959.041Z" transform="translate(-695.889 -941.159)" fill="#5a5a5a" opacity="0.645"/>
              <path id="Trazado_1169934" data-name="Trazado 1169934" d="M716.209,958.364c-3.687,5.109-9.211,23.264-9.211,30.063s.756,25.608,5.211,30.063c3.433,10.925,14,19.753,27.271,20.776s23.822-7.163,30.974-17.073c3.687-5.109,9.211-23.264,9.211-30.063s-.755-25.608-5.211-30.063a30.121,30.121,0,0,0-27.271-20.776h0C733.885,940.78,723.36,948.454,716.209,958.364Z" transform="translate(-696.215 -941.139)" fill="#525252" opacity="0.677"/>
              <path id="Trazado_1169935" data-name="Trazado 1169935" d="M716.875,957.688c-3.928,5.3-9.354,22.5-9.354,29.627s1.087,24.959,5.754,29.627c3.747,10.49,14.169,18.842,27.113,19.763s23.373-6.879,30.446-16.43c3.928-5.3,9.354-22.5,9.354-29.627s-1.087-24.959-5.754-29.627a30.23,30.23,0,0,0-27.114-19.763h0C734.352,940.8,723.949,948.137,716.875,957.688Z" transform="translate(-696.542 -941.121)" fill="#4a4a4a" opacity="0.71"/>
              <path id="Trazado_1169936" data-name="Trazado 1169936" d="M717.541,957.011c-4.179,5.492-9.5,21.744-9.5,29.19s1.418,24.31,6.3,29.19c4.061,10.055,14.335,17.932,26.956,18.75s22.92-6.59,29.919-15.787c4.179-5.492,9.5-21.744,9.5-29.19s-1.418-24.31-6.3-29.19a30.413,30.413,0,0,0-26.956-18.749h0C734.818,940.815,724.539,947.814,717.541,957.011Z" transform="translate(-696.868 -941.102)" fill="#424242" opacity="0.742"/>
              <path id="Trazado_1169937" data-name="Trazado 1169937" d="M718.208,956.333c-4.439,5.67-9.641,20.984-9.641,28.754s1.749,23.662,6.841,28.753c4.376,9.62,14.5,17.021,26.8,17.737s22.464-6.3,29.391-15.145c4.439-5.67,9.641-20.984,9.641-28.753s-1.749-23.662-6.841-28.753a30.68,30.68,0,0,0-26.8-17.737h0C735.285,940.831,725.135,947.486,718.208,956.333Z" transform="translate(-697.195 -941.082)" fill="#3a3a3a" opacity="0.774"/>
              <path id="Trazado_1169938" data-name="Trazado 1169938" d="M718.874,955.656c-4.71,5.838-9.785,20.224-9.785,28.317s2.973,22.251,7.384,28.317c6.066,8.341,14.667,16.11,26.642,16.723s22-6,28.864-14.5c4.71-5.838,9.785-20.224,9.785-28.317s-2.973-22.251-7.384-28.317c-6.066-8.341-14.655-16.417-26.642-16.723h0C735.75,940.847,725.734,947.152,718.874,955.656Z" transform="translate(-697.521 -941.062)" fill="#313131" opacity="0.807"/>
              <path id="Trazado_1169939" data-name="Trazado 1169939" d="M719.541,954.977c-4.991,6-9.928,19.464-9.928,27.881s3.191,21.682,7.928,27.881c6.12,8.01,14.833,15.2,26.485,15.71s21.538-5.693,28.336-13.859c4.991-6,9.928-19.464,9.928-27.881s-3.192-21.682-7.928-27.881c-6.12-8.01-14.824-15.454-26.484-15.71h0C736.217,940.863,726.339,946.811,719.541,954.977Z" transform="translate(-697.848 -941.042)" fill="#292929" opacity="0.839"/>
              <path id="Trazado_1169940" data-name="Trazado 1169940" d="M720.206,954.3c-5.284,6.14-10.071,18.7-10.071,27.444s3.395,21.131,8.471,27.444c6.186,7.693,15,14.288,26.327,14.7s21.067-5.382,27.809-13.216c5.284-6.14,10.071-18.7,10.071-27.444s-3.395-21.131-8.471-27.445c-6.186-7.693-14.993-14.493-26.328-14.7h0C736.681,940.877,726.948,946.464,720.206,954.3Z" transform="translate(-698.174 -941.021)" fill="#212121" opacity="0.871"/>
              <path id="Trazado_1169941" data-name="Trazado 1169941" d="M720.873,953.62c-5.589,6.272-10.214,17.943-10.214,27.008s3.583,20.6,9.014,27.008c6.263,7.391,15.165,13.377,26.17,13.684s20.591-5.065,27.281-12.573c5.589-6.272,10.214-17.943,10.214-27.008s-3.583-20.6-9.014-27.008c-6.263-7.391-15.161-13.53-26.17-13.684h0C737.146,940.893,727.564,946.111,720.873,953.62Z" transform="translate(-698.501 -941)" fill="#191919" opacity="0.903"/>
              <path id="Trazado_1169942" data-name="Trazado 1169942" d="M721.539,952.94a42.357,42.357,0,0,0-10.358,26.571c0,9.388,3.758,20.086,9.558,26.571,6.353,7.1,15.331,12.466,26.013,12.671s20.108-4.74,26.754-11.93a42.357,42.357,0,0,0,10.358-26.571c0-9.388-3.758-20.086-9.558-26.571-6.353-7.1-15.329-12.569-26.013-12.671h0A35.986,35.986,0,0,0,721.539,952.94Z" transform="translate(-698.827 -940.978)" fill="#101010" opacity="0.936"/>
              <path id="Trazado_1169943" data-name="Trazado 1169943" d="M722.206,952.259a38.306,38.306,0,0,0-.4,52.27,35.289,35.289,0,0,0,52.082.37,38.306,38.306,0,0,0,.4-52.27,35.887,35.887,0,0,0-25.856-11.658h0A36.078,36.078,0,0,0,722.206,952.259Z" transform="translate(-699.153 -940.955)" fill="#080808" opacity="0.968"/>
              <path id="Trazado_1169944" data-name="Trazado 1169944" d="M712.227,977.271a36.343,36.343,0,1,0,10.645-25.7A36.229,36.229,0,0,0,712.227,977.271Z" transform="translate(-699.48 -940.928)"/>
            </g>
            <g id="Grupo_1221064" data-name="Grupo 1221064" transform="translate(0 0.553)" opacity="0.4">
              <path id="Trazado_1169977" data-name="Trazado 1169977" d="M379.024,1091.549h0a36.762,36.762,0,0,0,43.595-28.328l16.493-77.7a36.763,36.763,0,0,0-28.328-43.595h0a36.763,36.763,0,0,0-43.595,28.328l-16.493,77.7A36.763,36.763,0,0,0,379.024,1091.549Z" transform="translate(-349.887 -941.047)" fill="#fff" opacity="0"/>
              <path id="Trazado_1169978" data-name="Trazado 1169978" d="M369.653,970.523c-.212.212-14.127,65.444-14.127,65.768,0,.049-2.166,10.352-2.168,10.4-.815,19.885,8.349,38.612,27.749,42.872a1.331,1.331,0,0,0,.829.343c19.86,2.051,38.726-8.325,43.017-27.757.212-.212,16.271-75.7,16.3-76.022,2.051-19.86-8.325-38.725-27.757-43.017a1.331,1.331,0,0,0-.829-.343C392.811,940.716,373.945,951.092,369.653,970.523Z" transform="translate(-352.023 -941.916)" fill="#f7f7f7" opacity="0.032"/>
              <path id="Trazado_1169979" data-name="Trazado 1169979" d="M370.869,969.9c-.424.424-14.011,63.784-14.011,64.432,0,.1-2.083,10.107-2.086,10.2-.754,19.486,8.23,37.846,27.169,42.15a2.658,2.658,0,0,0,1.658.687c19.527,1.982,38.072-8.183,42.44-27.187.424-.424,16.05-73.7,16.116-74.344,1.982-19.527-8.183-38.072-27.187-42.44a2.66,2.66,0,0,0-1.658-.687C393.782,940.729,375.237,950.895,370.869,969.9Z" transform="translate(-352.909 -941.889)" fill="#efefef" opacity="0.064"/>
              <path id="Trazado_1169980" data-name="Trazado 1169980" d="M372.083,969.275c-.636.636-13.9,62.125-13.9,63.1,0,.147-2,9.863-2,10.006-.693,19.087,8.111,37.079,26.59,41.427a3.979,3.979,0,0,0,2.487,1.03c19.195,1.914,37.418-8.041,41.863-26.617.636-.636,15.831-71.7,15.927-72.667,1.913-19.195-8.041-37.418-26.617-41.863a3.979,3.979,0,0,0-2.487-1.03C394.751,940.743,376.527,950.7,372.083,969.275Z" transform="translate(-353.794 -941.862)" fill="#e6e6e6" opacity="0.097"/>
              <path id="Trazado_1169981" data-name="Trazado 1169981" d="M373.3,968.642c-.849.849-13.779,60.466-13.779,61.761,0,.2-1.917,9.618-1.923,9.809-.632,18.688,7.993,36.313,26.011,40.7a5.29,5.29,0,0,0,3.316,1.374c18.862,1.845,36.765-7.9,41.286-26.047.849-.849,15.612-69.7,15.738-70.99,1.845-18.862-7.9-36.765-26.046-41.286a5.291,5.291,0,0,0-3.316-1.374C395.72,940.752,377.817,950.5,373.3,968.642Z" transform="translate(-354.678 -941.83)" fill="#dedede" opacity="0.129"/>
              <path id="Trazado_1169982" data-name="Trazado 1169982" d="M374.51,968.018c-1.061,1.061-13.663,58.806-13.663,60.425,0,.246-1.835,9.374-1.842,9.613-.571,18.29,7.874,35.547,25.431,39.982a6.6,6.6,0,0,0,4.145,1.717c18.53,1.776,36.112-7.758,40.708-25.476,1.061-1.061,15.4-67.7,15.55-69.312,1.776-18.53-7.758-36.112-25.476-40.708a6.594,6.594,0,0,0-4.145-1.717C396.688,940.766,379.107,950.3,374.51,968.018Z" transform="translate(-355.562 -941.804)" fill="#d6d6d6" opacity="0.161"/>
              <path id="Trazado_1169983" data-name="Trazado 1169983" d="M375.723,967.386c-1.273,1.273-13.547,57.147-13.547,59.089,0,.3-1.752,9.129-1.761,9.416-.511,17.893,7.755,34.781,24.852,39.26a7.892,7.892,0,0,0,4.974,2.06c18.2,1.707,35.458-7.616,40.131-24.906,1.273-1.273,15.179-65.7,15.361-67.635,1.707-18.2-7.616-35.458-24.905-40.131a7.891,7.891,0,0,0-4.974-2.06C397.655,940.774,380.4,950.1,375.723,967.386Z" transform="translate(-356.445 -941.773)" fill="#cecece" opacity="0.193"/>
              <path id="Trazado_1169984" data-name="Trazado 1169984" d="M376.934,966.761c-1.485,1.485-13.431,55.487-13.431,57.754,0,.344-1.67,8.884-1.679,9.219-.45,17.5,7.637,34.014,24.273,38.538a9.18,9.18,0,0,0,5.8,2.4c17.867,1.639,34.8-7.474,39.554-24.335,1.485-1.485,14.965-63.7,15.172-65.957,1.639-17.867-7.474-34.8-24.335-39.554a9.179,9.179,0,0,0-5.8-2.4C398.621,940.787,381.683,949.9,376.934,966.761Z" transform="translate(-357.328 -941.745)" fill="#c5c5c5" opacity="0.226"/>
              <path id="Trazado_1169985" data-name="Trazado 1169985" d="M378.146,966.137c-1.7,1.7-13.315,53.828-13.315,56.418,0,.393-1.589,8.64-1.6,9.023-.389,17.1,7.518,33.248,23.693,37.815a10.461,10.461,0,0,0,6.632,2.747c17.535,1.57,34.151-7.332,38.976-23.764,1.7-1.7,14.753-61.7,14.984-64.28,1.57-17.536-7.332-34.151-23.764-38.976a10.461,10.461,0,0,0-6.632-2.747C399.587,940.8,382.971,949.7,378.146,966.137Z" transform="translate(-358.21 -941.719)" fill="#bdbdbd" opacity="0.258"/>
              <path id="Trazado_1169986" data-name="Trazado 1169986" d="M379.357,965.5c-1.909,1.909-13.2,52.169-13.2,55.082,0,.442-1.508,8.4-1.516,8.826-.328,16.7,7.4,32.481,23.114,37.093a11.731,11.731,0,0,0,7.461,3.09c17.2,1.5,33.5-7.19,38.4-23.194,1.909-1.909,14.541-59.7,14.8-62.6,1.5-17.2-7.19-33.5-23.194-38.4a11.734,11.734,0,0,0-7.461-3.091C400.552,940.808,384.258,949.5,379.357,965.5Z" transform="translate(-359.092 -941.685)" fill="#b5b5b5" opacity="0.29"/>
              <path id="Trazado_1169987" data-name="Trazado 1169987" d="M380.566,964.878c-2.122,2.122-13.083,50.509-13.083,53.747,0,.491-1.427,8.15-1.435,8.63-.267,16.306,7.281,31.715,22.535,36.37a12.994,12.994,0,0,0,8.29,3.434c16.874,1.433,32.844-7.048,37.822-22.624,2.122-2.122,14.332-57.7,14.607-60.925,1.433-16.873-7.048-32.844-22.624-37.822a12.993,12.993,0,0,0-8.29-3.434C401.515,940.821,385.543,949.3,380.566,964.878Z" transform="translate(-359.972 -941.658)" fill="#adadad" opacity="0.323"/>
              <path id="Trazado_1169988" data-name="Trazado 1169988" d="M381.775,964.252c-2.334,2.334-12.967,48.85-12.967,52.411,0,.541-1.347,7.906-1.353,8.433-.206,15.911,7.163,30.948,21.955,35.648a14.247,14.247,0,0,0,9.119,3.777c16.543,1.365,32.191-6.906,37.245-22.053,2.334-2.334,14.125-55.7,14.418-59.248,1.365-16.543-6.906-32.191-22.053-37.245a14.246,14.246,0,0,0-9.119-3.777C402.477,940.833,386.829,949.1,381.775,964.252Z" transform="translate(-360.852 -941.63)" fill="#a5a5a5" opacity="0.355"/>
              <path id="Trazado_1169989" data-name="Trazado 1169989" d="M382.983,963.622c-2.546,2.546-12.85,47.191-12.85,51.076,0,.59-1.266,7.661-1.272,8.236-.145,15.516,7.044,30.182,21.376,34.925a15.488,15.488,0,0,0,9.948,4.12c16.213,1.3,31.537-6.764,36.667-21.483,2.546-2.546,13.919-53.7,14.229-57.57,1.3-16.213-6.764-31.538-21.483-36.667a15.489,15.489,0,0,0-9.948-4.12C403.437,940.843,388.113,948.9,382.983,963.622Z" transform="translate(-361.73 -941.599)" fill="#9c9c9c" opacity="0.387"/>
              <path id="Trazado_1169990" data-name="Trazado 1169990" d="M384.19,962.992c-2.758,2.758-12.734,45.531-12.734,49.74,0,.639-1.187,7.417-1.19,8.039-.085,15.122,6.925,29.416,20.8,34.2a16.72,16.72,0,0,0,10.777,4.464c15.882,1.227,30.884-6.622,36.09-20.912,2.758-2.758,13.716-51.7,14.04-55.893,1.227-15.882-6.622-30.884-20.912-36.09a16.72,16.72,0,0,0-10.777-4.464C404.4,940.852,389.4,948.7,384.19,962.992Z" transform="translate(-362.609 -941.568)" fill="#949494" opacity="0.419"/>
              <path id="Trazado_1169991" data-name="Trazado 1169991" d="M385.4,962.362c-2.97,2.97-12.618,43.872-12.618,48.4,0,.688-1.108,7.172-1.109,7.843-.024,14.729,6.807,28.649,20.217,33.48,2.97,2.97,7.086,4.471,11.606,4.807,15.553,1.159,30.23-6.48,35.512-20.342,2.97-2.97,13.515-49.7,13.852-54.215,1.159-15.553-6.48-30.23-20.342-35.513-2.97-2.97-7.086-4.47-11.606-4.807C405.355,940.861,390.678,948.5,385.4,962.362Z" transform="translate(-363.485 -941.538)" fill="#8c8c8c" opacity="0.452"/>
              <path id="Trazado_1169992" data-name="Trazado 1169992" d="M386.6,961.734c-3.182,3.182-12.5,42.213-12.5,47.069,0,.737-1.029,6.927-1.028,7.646.037,14.336,6.688,27.883,19.638,32.758,3.182,3.182,7.591,4.8,12.435,5.151,15.224,1.091,29.577-6.339,34.935-19.772,3.182-3.182,13.316-47.694,13.663-52.538,1.091-15.224-6.339-29.577-19.772-34.935-3.182-3.182-7.591-4.8-12.435-5.151C406.311,940.871,391.958,948.3,386.6,961.734Z" transform="translate(-364.36 -941.508)" fill="#848484" opacity="0.484"/>
              <path id="Trazado_1169993" data-name="Trazado 1169993" d="M387.8,961.1c-3.395,3.394-12.386,40.553-12.386,45.733,0,.786-.951,6.683-.946,7.45.1,13.944,6.57,27.116,19.059,32.036,3.395,3.394,8.1,5.139,13.264,5.494,14.9,1.022,28.924-6.2,34.358-19.2,3.395-3.395,13.12-45.693,13.474-50.86,1.022-14.9-6.2-28.924-19.2-34.358-3.395-3.395-8.1-5.139-13.264-5.494C407.267,940.881,393.239,948.1,387.8,961.1Z" transform="translate(-365.235 -941.477)" fill="#7b7b7b" opacity="0.516"/>
              <path id="Trazado_1169994" data-name="Trazado 1169994" d="M389.009,960.475c-3.607,3.607-12.27,38.894-12.27,44.4,0,.836-.874,6.438-.865,7.253.159,13.553,6.451,26.35,18.479,31.313,3.607,3.607,8.6,5.478,14.093,5.837,14.567.954,28.27-6.055,33.781-18.631,3.607-3.607,12.926-43.691,13.286-49.183.954-14.567-6.055-28.27-18.631-33.781-3.607-3.607-8.6-5.478-14.093-5.837C408.224,940.89,394.52,947.9,389.009,960.475Z" transform="translate(-366.111 -941.446)" fill="#737373" opacity="0.548"/>
              <path id="Trazado_1169995" data-name="Trazado 1169995" d="M390.214,959.843c-3.819,3.819-12.154,37.234-12.154,43.062,0,.885-.8,6.194-.783,7.056.219,13.163,6.332,25.584,17.9,30.591,3.819,3.819,9.106,5.819,14.922,6.181,14.239.885,27.617-5.913,33.2-18.06,3.819-3.819,12.735-41.689,13.1-47.505.886-14.239-5.913-27.617-18.06-33.2-3.819-3.819-9.106-5.819-14.922-6.181C409.178,940.9,395.8,947.7,390.214,959.843Z" transform="translate(-366.986 -941.413)" fill="#6b6b6b" opacity="0.581"/>
              <path id="Trazado_1169996" data-name="Trazado 1169996" d="M391.417,959.227c-3.3,4.647-12.038,35.575-12.038,41.726,0,.934-.722,5.949-.7,6.86.28,12.773,6.214,24.817,17.321,29.868,4.031,4.031,9.61,6.163,15.751,6.524,13.911.818,25.087-6.88,32.626-17.49,3.3-4.647,12.548-39.687,12.909-45.828.818-13.911-6.88-25.087-17.49-32.626-4.647-3.3-9.61-6.164-15.751-6.524C410.133,940.92,398.957,948.617,391.417,959.227Z" transform="translate(-367.861 -941.396)" fill="#636363" opacity="0.613"/>
              <path id="Trazado_1169997" data-name="Trazado 1169997" d="M392.621,958.593c-3.525,4.856-11.922,33.916-11.922,40.39,0,.983-.647,5.7-.62,6.663.341,12.386,7.107,22.328,16.742,29.146,4.9,3.466,10.115,6.511,16.58,6.868,13.584.749,24.609-6.669,32.049-16.919,3.525-4.857,12.364-37.686,12.72-44.15.749-13.584-6.669-24.609-16.919-32.049-4.856-3.525-10.115-6.511-16.58-6.868C411.086,940.925,400.061,948.343,392.621,958.593Z" transform="translate(-368.735 -941.361)" fill="#5a5a5a" opacity="0.645"/>
              <path id="Trazado_1169998" data-name="Trazado 1169998" d="M393.825,957.959c-3.755,5.06-11.806,32.256-11.806,39.055,0,1.032-.572,5.461-.539,6.466.4,12,6.919,21.736,16.162,28.423,5.1,3.693,10.619,6.862,17.409,7.211,13.258.681,24.129-6.455,31.471-16.349,3.755-5.06,12.182-35.683,12.531-42.473.681-13.258-6.456-24.129-16.349-31.471-5.06-3.755-10.619-6.862-17.409-7.211C412.039,940.93,401.167,948.066,393.825,957.959Z" transform="translate(-369.61 -941.326)" fill="#525252" opacity="0.677"/>
              <path id="Trazado_1169999" data-name="Trazado 1169999" d="M395.028,957.324c-3.993,5.256-11.689,30.6-11.689,37.719,0,1.081-.5,5.216-.457,6.27.463,11.614,6.727,21.142,15.583,27.7,5.3,3.929,11.123,7.217,18.238,7.554,12.932.613,23.646-6.238,30.894-15.779,3.993-5.256,12.005-33.681,12.342-40.8.613-12.932-6.238-23.646-15.779-30.894-5.256-3.993-11.123-7.217-18.238-7.554C412.99,940.933,402.276,947.784,395.028,957.324Z" transform="translate(-370.483 -941.29)" fill="#4a4a4a" opacity="0.71"/>
              <path id="Trazado_1170000" data-name="Trazado 1170000" d="M396.229,956.691c-4.24,5.445-11.573,28.938-11.573,36.384,0,1.131-.427,4.972-.376,6.073.524,11.23,6.532,20.545,15,26.979,5.5,4.174,11.627,7.577,19.066,7.9,12.607.544,23.16-6.017,30.317-15.208,4.24-5.445,11.833-31.679,12.154-39.118.544-12.607-6.017-23.16-15.208-30.317-5.445-4.24-11.628-7.576-19.067-7.9C413.939,940.938,403.386,947.5,396.229,956.691Z" transform="translate(-371.355 -941.255)" fill="#424242" opacity="0.742"/>
              <path id="Trazado_1170001" data-name="Trazado 1170001" d="M397.429,956.055c-4.5,5.625-11.457,27.278-11.457,35.048,0,1.18-.356,4.728-.294,5.876.585,10.848,6.334,19.945,14.424,26.256,5.678,4.429,12.132,7.94,19.9,8.241,12.282.476,22.67-5.791,29.74-14.638,4.5-5.625,11.664-29.677,11.965-37.441.476-12.282-5.791-22.67-14.638-29.74-5.626-4.5-12.132-7.94-19.9-8.241C414.887,940.941,404.5,947.209,397.429,956.055Z" transform="translate(-372.226 -941.218)" fill="#3a3a3a" opacity="0.774"/>
              <path id="Trazado_1170002" data-name="Trazado 1170002" d="M398.625,955.418c-4.76,5.8-11.341,25.619-11.341,33.712,0,1.229-.287,4.484-.213,5.68.646,10.467,6.13,19.342,13.845,25.534,5.85,4.7,12.636,8.309,20.725,8.585,11.958.408,22.178-5.561,29.162-14.067,4.76-5.8,11.5-27.674,11.777-35.763.408-11.958-5.561-22.178-14.067-29.162-5.8-4.76-12.636-8.308-20.725-8.584C415.829,940.943,405.61,946.912,398.625,955.418Z" transform="translate(-373.093 -941.18)" fill="#313131" opacity="0.807"/>
              <path id="Trazado_1170003" data-name="Trazado 1170003" d="M399.815,954.781c-5.035,5.958-11.225,23.959-11.225,32.377,0,1.278-.219,4.24-.132,5.483.707,10.089,5.922,18.735,13.266,24.811,6.01,4.973,13.14,8.682,21.554,8.928,11.635.34,21.681-5.327,28.585-13.5,5.035-5.958,11.342-25.672,11.588-34.086.34-11.635-5.326-21.681-13.5-28.585-5.958-5.035-13.14-8.682-21.554-8.927C416.765,940.944,406.72,946.611,399.815,954.781Z" transform="translate(-373.954 -941.142)" fill="#292929" opacity="0.839"/>
              <path id="Trazado_1170004" data-name="Trazado 1170004" d="M401,954.143c-5.32,6.109-11.109,22.3-11.109,31.041,0,1.327-.152,4-.05,5.286a35.48,35.48,0,0,0,12.686,24.089c6.157,5.264,13.644,9.061,22.383,9.271,11.313.272,21.18-5.087,28.008-12.926,5.32-6.109,11.189-23.67,11.4-32.408.272-11.313-5.087-21.18-12.926-28.008-6.109-5.32-13.644-9.061-22.383-9.271C417.69,940.944,407.823,946.3,401,954.143Z" transform="translate(-374.805 -941.102)" fill="#212121" opacity="0.871"/>
              <path id="Trazado_1170005" data-name="Trazado 1170005" d="M402.155,953.5c-5.617,6.247-10.993,20.641-10.993,29.706,0,1.376-.088,3.753.031,5.09a35.513,35.513,0,0,0,12.107,23.366c6.29,5.569,14.149,9.446,23.212,9.615a36.01,36.01,0,0,0,27.431-12.356c5.617-6.247,11.043-21.668,11.211-30.731A36.01,36.01,0,0,0,452.8,950.761c-6.247-5.617-14.148-9.446-23.212-9.614A36.012,36.012,0,0,0,402.155,953.5Z" transform="translate(-375.635 -941.061)" fill="#191919" opacity="0.903"/>
              <path id="Trazado_1170006" data-name="Trazado 1170006" d="M403.273,952.863c-5.925,6.372-10.877,18.981-10.877,28.37,0,1.425-.025,3.51.113,4.893a35.638,35.638,0,0,0,11.528,22.644,35.282,35.282,0,0,0,50.894-1.828c5.925-6.372,10.9-19.666,11.022-29.053a36.033,36.033,0,0,0-62.679-25.025Z" transform="translate(-376.424 -941.019)" fill="#101010" opacity="0.936"/>
              <path id="Trazado_1170007" data-name="Trazado 1170007" d="M404.345,952.22c-6.245,6.483-10.761,17.322-10.761,27.034a45.968,45.968,0,0,0,.194,4.7,36.137,36.137,0,0,0,62.093,21.007c6.245-6.483,10.769-17.664,10.833-27.376a36.177,36.177,0,0,0-62.36-25.362Z" transform="translate(-377.166 -940.976)" fill="#080808" opacity="0.968"/>
              <path id="Trazado_1170008" data-name="Trazado 1170008" d="M394.769,977.271a36.343,36.343,0,1,0,10.645-25.7A36.229,36.229,0,0,0,394.769,977.271Z" transform="translate(-377.906 -940.928)"/>
            </g>
          </g>
          <g id="Grupo_1221098" data-name="Grupo 1221098" transform="translate(289.958 5895.848)">
            <g id="Grupo_1221071" data-name="Grupo 1221071" transform="translate(133.169 0)">
              <g id="Grupo_1221069" data-name="Grupo 1221069" transform="translate(7.04 46.819)">
                <path id="Trazado_1170009" data-name="Trazado 1170009" d="M707.057,844.272h0l-.034-.2c-.011-.063-.021-.126-.032-.188L688.922,737.955,588.5,771.769,638.187,867c.092.182.188.363.283.543l.085.163h0a36.68,36.68,0,0,0,68.5-23.435Z" transform="translate(-588.5 -737.955)" fill="#856002"/>
              </g>
              <g id="Grupo_1221070" data-name="Grupo 1221070">
                <ellipse id="Elipse_14561" data-name="Elipse 14561" cx="53.967" cy="53.967" rx="53.967" ry="53.967" fill="#f5b104"/>
              </g>
            </g>
            <g id="Grupo_1221074" data-name="Grupo 1221074" transform="translate(266.64 0)">
              <g id="Grupo_1221072" data-name="Grupo 1221072" transform="translate(4.122 52.004)">
                <path id="Trazado_1170010" data-name="Trazado 1170010" d="M1043.523,857.162h0l-3.731-105.408L935.98,774.436l36.251,96.573h0a36.677,36.677,0,0,0,71.339-11.983C1043.568,858.4,1043.553,857.778,1043.523,857.162Z" transform="translate(-935.98 -751.754)" fill="#268985"/>
              </g>
              <g id="Grupo_1221073" data-name="Grupo 1221073">
                <ellipse id="Elipse_14562" data-name="Elipse 14562" cx="53.967" cy="53.967" rx="53.967" ry="53.967" fill="#00dcfd"/>
              </g>
            </g>
            <g id="Grupo_1221077" data-name="Grupo 1221077" transform="translate(0 0)">
              <g id="Grupo_1221075" data-name="Grupo 1221075" transform="translate(9.993 39.651)">
                <path id="Trazado_1170011" data-name="Trazado 1170011" d="M370.387,827.3h0L337.931,718.876l-96.018,45.607L304.85,858.7h0a36.68,36.68,0,0,0,65.537-31.4Z" transform="translate(-241.913 -718.876)" fill="#3b2a76"/>
              </g>
              <g id="Grupo_1221076" data-name="Grupo 1221076">
                <ellipse id="Elipse_14563" data-name="Elipse 14563" cx="53.967" cy="53.967" rx="53.967" ry="53.967" fill="#6c4dd8"/>
              </g>
            </g>
            <g id="Grupo_1221080" data-name="Grupo 1221080" transform="translate(399.81 0)">
              <g id="Grupo_1221078" data-name="Grupo 1221078" transform="translate(2.212 60.741)">
                <path id="Trazado_1170012" data-name="Trazado 1170012" d="M1390.645,775.008l-105.3,8.563,22.75,97.1q.25,1.271.588,2.508l.006.025h0a36.676,36.676,0,0,0,71.9-6.287h0Z" transform="translate(-1285.347 -775.008)" fill="#7e357b"/>
              </g>
              <g id="Grupo_1221079" data-name="Grupo 1221079">
                <ellipse id="Elipse_14564" data-name="Elipse 14564" cx="53.967" cy="53.967" rx="53.967" ry="53.967" fill="#e761e1"/>
              </g>
            </g>
          </g>
          <g id="Grupo_1221099" data-name="Grupo 1221099" transform="translate(312.645 5916.567)">
            <text id="_02" data-name="02" transform="translate(133.169 54.908)" fill="#fff" font-size="41" font-family="Montserrat-ExtraBold, Montserrat" font-weight="800"><tspan x="0" y="0">02</tspan></text>
            <text id="_03" data-name="03" transform="translate(266.64 54.908)" fill="#fff" font-size="41" font-family="Montserrat-ExtraBold, Montserrat" font-weight="800"><tspan x="0" y="0">03</tspan></text>
            <text id="_01" data-name="01" transform="translate(0 54.908)" fill="#fff" font-size="41" font-family="Montserrat-ExtraBold, Montserrat" font-weight="800"><tspan x="0" y="0">01</tspan></text>
            <text id="_04" data-name="04" transform="translate(399.809 54.908)" fill="#fff" font-size="41" font-family="Montserrat-ExtraBold, Montserrat" font-weight="800"><tspan x="0" y="0">04</tspan></text>
          </g>
        </g>
      </g>
      <g id="tecnologia_2_" data-name="tecnologia (2)" transform="translate(918.027 3565.049)">
        <path id="Trazado_1235449" data-name="Trazado 1235449" d="M45.106,40.062a11.681,11.681,0,0,1-23.363,0A1.062,1.062,0,0,0,20.681,39H10.062A1.062,1.062,0,0,0,9,40.062a24.609,24.609,0,0,0,.463,4.7,1.062,1.062,0,0,0,1.042.859h1.517a1.186,1.186,0,0,1,1.112.883,21.143,21.143,0,0,0,1.39,3.345,1.187,1.187,0,0,1-.163,1.414l-1.079,1.079a1.061,1.061,0,0,0-.13,1.344A24.433,24.433,0,0,0,19.8,60.335a1.062,1.062,0,0,0,1.344-.13l1.08-1.08a1.188,1.188,0,0,1,1.415-.162,21.164,21.164,0,0,0,3.343,1.389,1.187,1.187,0,0,1,.884,1.112v1.517a1.062,1.062,0,0,0,.859,1.042,24.147,24.147,0,0,0,9.4,0,1.062,1.062,0,0,0,.859-1.042V61.465a1.187,1.187,0,0,1,.884-1.112,21.164,21.164,0,0,0,3.343-1.389,1.186,1.186,0,0,1,1.415.162l1.08,1.079a1.062,1.062,0,0,0,1.344.13A24.433,24.433,0,0,0,53.7,53.686a1.061,1.061,0,0,0-.13-1.344l-1.079-1.08a1.185,1.185,0,0,1-.162-1.414A21.21,21.21,0,0,0,53.716,46.5a1.186,1.186,0,0,1,1.112-.883h1.517a1.062,1.062,0,0,0,1.042-.859,24.609,24.609,0,0,0,.463-4.7A1.062,1.062,0,0,0,56.788,39H46.168a1.062,1.062,0,0,0-1.062,1.062ZM55.7,41.124a22.407,22.407,0,0,1-.245,2.374h-.626a3.314,3.314,0,0,0-3.136,2.364,19.059,19.059,0,0,1-1.249,3.007,3.313,3.313,0,0,0,.544,3.9l.448.449a22.283,22.283,0,0,1-4.859,4.859l-.449-.449a3.313,3.313,0,0,0-3.9-.544,19.077,19.077,0,0,1-3.007,1.249,3.315,3.315,0,0,0-2.364,3.137v.626a21.941,21.941,0,0,1-6.872,0v-.626a3.315,3.315,0,0,0-2.364-3.137,19.077,19.077,0,0,1-3.007-1.249,3.315,3.315,0,0,0-3.9.544l-.449.449a22.283,22.283,0,0,1-4.859-4.859l.448-.448a3.315,3.315,0,0,0,.545-3.9,18.992,18.992,0,0,1-1.25-3.008A3.314,3.314,0,0,0,12.022,43.5H11.4a22.407,22.407,0,0,1-.245-2.374H19.66a13.806,13.806,0,0,0,27.53,0Z" transform="translate(0.062 2.354)"/>
        <rect id="Rectángulo_424551" data-name="Rectángulo 424551" width="3" height="4" transform="translate(31.973 1)"/>
        <rect id="Rectángulo_424552" data-name="Rectángulo 424552" width="4" height="2" transform="translate(54.973 24)"/>
        <rect id="Rectángulo_424553" data-name="Rectángulo 424553" width="4" height="2" transform="translate(7.973 24)"/>
        <rect id="Rectángulo_424554" data-name="Rectángulo 424554" width="2.124" height="4.248" transform="matrix(0.707, -0.707, 0.707, 0.707, 14.714, 8.153)"/>
        <rect id="Rectángulo_424555" data-name="Rectángulo 424555" width="4.248" height="2.124" transform="translate(47.755 9.656) rotate(-45)"/>
        <path id="Trazado_1235450" data-name="Trazado 1235450" d="M33.248,50.611V29.177a3.186,3.186,0,1,0-2.124,0V50.611ZM32.186,25.125a1.062,1.062,0,1,1-1.062,1.062A1.062,1.062,0,0,1,32.186,25.125Z" transform="translate(1.301 1.362)"/>
        <path id="Trazado_1235451" data-name="Trazado 1235451" d="M37.124,36.47,40.1,32.505a1.063,1.063,0,0,0,.213-.637V23.177a3.186,3.186,0,1,0-2.124,0v8.337l-2.973,3.965a1.063,1.063,0,0,0-.213.637V48.859h2.124Zm2.124-17.345a1.062,1.062,0,1,1-1.062,1.062A1.062,1.062,0,0,1,39.248,19.125Z" transform="translate(1.673 0.99)"/>
        <path id="Trazado_1235452" data-name="Trazado 1235452" d="M29.434,48.859V36.116a1.063,1.063,0,0,0-.213-.637l-2.973-3.965V23.177a3.186,3.186,0,1,0-2.124,0v8.691a1.063,1.063,0,0,0,.213.637L27.31,36.47V48.859ZM25.186,19.125a1.062,1.062,0,1,1-1.062,1.062A1.062,1.062,0,0,1,25.186,19.125Z" transform="translate(0.867 0.99)"/>
        <path id="Trazado_1235453" data-name="Trazado 1235453" d="M16.124,27.177v3.382a1.062,1.062,0,0,0,.311.751l7.122,7.123v5.932h2.124V37.992a1.062,1.062,0,0,0-.311-.751l-7.122-7.123V27.177a3.186,3.186,0,1,0-2.124,0Zm1.062-4.052a1.062,1.062,0,1,1-1.062,1.062,1.062,1.062,0,0,1,1.062-1.062Z" transform="translate(0.372 1.238)"/>
        <path id="Trazado_1235454" data-name="Trazado 1235454" d="M47.5,21a3.178,3.178,0,0,0-1.062,6.176v3.955l-7.062,6.054a1.062,1.062,0,0,0-.371.806v7.434h2.124V38.48l7.062-6.054a1.062,1.062,0,0,0,.371-.806V27.176A3.178,3.178,0,0,0,47.5,21Zm0,4.248a1.062,1.062,0,1,1,1.062-1.062A1.062,1.062,0,0,1,47.5,25.248Z" transform="translate(1.92 1.239)"/>
        <path id="Trazado_1235455" data-name="Trazado 1235455" d="M24.764,7.356l-8.5,9.558a1.06,1.06,0,0,0-.269.706v3.186h2.124V18.023l7.911-8.9H39.948l7.911,8.9v2.782h2.124V17.619a1.06,1.06,0,0,0-.269-.706l-8.5-9.558A1.062,1.062,0,0,0,40.425,7H25.558a1.062,1.062,0,0,0-.793.356Z" transform="translate(0.496 0.372)"/>
      </g>
    </g>
    <g id="experiencia-del-usuario_2_" data-name="experiencia-del-usuario (2)" transform="translate(583.257 1998)">
      <path id="Trazado_1235421" data-name="Trazado 1235421" d="M150.48,448.386a1.186,1.186,0,1,0,0-2.371h-5.863a1.186,1.186,0,1,0,0,2.371Z" transform="translate(-114.198 -393.518)"/>
      <path id="Trazado_1235422" data-name="Trazado 1235422" d="M70.975,39.707a9.062,9.062,0,0,0-2.716-5.954l-.473-.474a1.186,1.186,0,0,0-1.677,1.676l.473.474c2.5,2.5,2.732,6.185.53,8.388l-6.656,6.66a5.194,5.194,0,0,1-4.1.865L40.905,49.408A2.459,2.459,0,0,1,38.657,46.8a1.559,1.559,0,0,1,1.828-1.482l4.21.15c1.189.042,2.669.094,3.14-1.019a1.872,1.872,0,0,0-.494-1.914c-.295-.348-.7-.739-1.217-1.234-.305-.293-.651-.626-1.016-.991L33.041,28.233a1.6,1.6,0,0,1-.547-1.181,1.509,1.509,0,0,1,1.4-1.4,1.6,1.6,0,0,1,1.178.547L47.035,38.16a1.186,1.186,0,1,0,1.677-1.676l-4.6-4.6q-.025-.029-.052-.056a1.6,1.6,0,0,1-.546-1.178,1.51,1.51,0,0,1,1.4-1.405,1.6,1.6,0,0,1,1.178.545l1.49,1.492.09.092.044.042,3.025,3.029a1.186,1.186,0,1,0,1.678-1.676L49.291,29.63a1.56,1.56,0,0,1-.482-1.114,1.509,1.509,0,0,1,1.4-1.4,1.367,1.367,0,0,1,.736.2l.006,0a2.194,2.194,0,0,1,.436.344l1.569,1.57.011.011.005.005L54.46,30.73a1.186,1.186,0,1,0,1.677-1.676l-1.5-1.5a1.394,1.394,0,0,1-.1-2.114,1.418,1.418,0,0,1,2.138.081l1.96,1.961a1.186,1.186,0,0,0,1.677-1.676l-1.96-1.961a3.8,3.8,0,0,0-5.492-.082c-.058.057-.113.117-.167.178V18.05A9.349,9.349,0,0,0,49.23,0c-.227,0-.451.011-.674.027H20.291A6.3,6.3,0,0,0,14,6.321V53.986a6.3,6.3,0,0,0,6.292,6.295h4.5a1.186,1.186,0,1,0,0-2.371h-4.5a3.926,3.926,0,0,1-3.92-3.923v-4.53h20.6a4.807,4.807,0,0,0,3.643,2.305l9.72,1.217v1.008a3.926,3.926,0,0,1-3.92,3.923H35.349a1.186,1.186,0,1,0,0,2.371H46.41A6.3,6.3,0,0,0,52.7,53.986v-.711l3.358.42a10.37,10.37,0,0,0,1.3.083,6.787,6.787,0,0,0,4.77-1.625l6.656-6.66a7.566,7.566,0,0,0,2.186-5.786ZM56.26,9.356a7.03,7.03,0,1,1-7.03-6.985A7.017,7.017,0,0,1,56.26,9.356ZM16.37,47.085V6.321A3.926,3.926,0,0,1,20.291,2.4H42.953A9.344,9.344,0,0,0,49.23,18.715a9.491,9.491,0,0,0,1.1-.066v6.092c-.065,0-.129,0-.189,0a3.8,3.8,0,0,0-2.57,1.131,3.946,3.946,0,0,0-.91,1.416,3.7,3.7,0,0,0-1.815-.414,3.8,3.8,0,0,0-2.569,1.133,3.912,3.912,0,0,0-.827,1.21l-4.7-4.7A3.843,3.843,0,0,0,32.991,23.4a3.941,3.941,0,0,0-2.743,2.742,3.846,3.846,0,0,0,1.116,3.767L43.432,41.985c.382.382.737.723,1.05,1.024l.083.079-4-.142a3.93,3.93,0,0,0-4.276,3.663,4.587,4.587,0,0,0-.012.475H16.37Z"/>
      <path id="Trazado_1235423" data-name="Trazado 1235423" d="M102.11,150.53a1.186,1.186,0,1,0,1.677-1.676l-2.506-2.508a1.186,1.186,0,0,0-1.677,1.676Z" transform="translate(-75.223 -128.814)"/>
      <path id="Trazado_1235424" data-name="Trazado 1235424" d="M161.693,127.071a1.186,1.186,0,0,0,1.186-1.186v-3.548a1.186,1.186,0,0,0-2.371,0v3.548A1.186,1.186,0,0,0,161.693,127.071Z" transform="translate(-129.264 -106.891)"/>
      <path id="Trazado_1235425" data-name="Trazado 1235425" d="M80.368,208.469a1.186,1.186,0,0,0-1.186-1.186H75.64a1.186,1.186,0,1,0,0,2.371h3.543A1.186,1.186,0,0,0,80.368,208.469Z" transform="translate(-53.339 -182.885)"/>
      <path id="Trazado_1235426" data-name="Trazado 1235426" d="M103.019,246.7l-2.506,2.508a1.186,1.186,0,1,0,1.677,1.676l2.506-2.508a1.186,1.186,0,1,0-1.677-1.676Z" transform="translate(-76.025 -217.358)"/>
      <path id="Trazado_1235427" data-name="Trazado 1235427" d="M200.74,151.784a1.182,1.182,0,0,0,.838-.347l2.51-2.508a1.186,1.186,0,1,0-1.676-1.677l-2.51,2.508a1.186,1.186,0,0,0,.838,2.024Z" transform="translate(-163.715 -129.614)"/>
      <path id="Trazado_1235428" data-name="Trazado 1235428" d="M276.43,54.721a1.186,1.186,0,0,0-1.755,1.595l2.173,2.391a1.186,1.186,0,0,0,1.643.108l4.629-3.912a1.186,1.186,0,0,0-1.531-1.811l-3.756,3.174Z" transform="translate(-229.722 -46.596)"/>
      <path id="Trazado_1235429" data-name="Trazado 1235429" d="M422.281,249.94a1.186,1.186,0,1,0,1.852-1.481l-.013-.017a1.186,1.186,0,1,0-1.852,1.481Z" transform="translate(-359.985 -218.807)"/>
      <path id="Trazado_1235430" data-name="Trazado 1235430" d="M141.555,492h-.023a1.186,1.186,0,0,0,0,2.371h.023a1.186,1.186,0,1,0,0-2.371Z" transform="translate(-111.476 -434.091)"/>
    </g>
    <g id="nueva-cuenta_1_" data-name="nueva-cuenta (1)" transform="translate(748.468 1996)">
      <path id="Trazado_1235434" data-name="Trazado 1235434" d="M58.033,19.921a2.08,2.08,0,1,0-3.83,1.624,24.6,24.6,0,0,1,1.915,9.6,24.931,24.931,0,0,1-8.492,18.712,14.64,14.64,0,0,0-8.763-11.344,11.448,11.448,0,1,0-15.444,0,14.64,14.64,0,0,0-8.763,11.344A24.941,24.941,0,0,1,31.14,6.163a24.6,24.6,0,0,1,9.6,1.915,2.08,2.08,0,1,0,1.624-3.83A28.571,28.571,0,0,0,31.14,2a29.14,29.14,0,1,0,29.14,29.14,28.571,28.571,0,0,0-2.248-11.219ZM31.14,22.815A7.285,7.285,0,1,1,23.855,30.1,7.293,7.293,0,0,1,31.14,22.815ZM18.652,52.746v-.791A10.411,10.411,0,0,1,29.059,41.548h4.163A10.411,10.411,0,0,1,43.629,51.955v.791a24.813,24.813,0,0,1-24.978,0Z" transform="translate(0 0)"/>
      <path id="Trazado_1235435" data-name="Trazado 1235435" d="M24.081,12.326h2.081v2.081a2.081,2.081,0,1,0,4.163,0V12.326h2.081a2.081,2.081,0,0,0,0-4.163H30.326V6.081a2.081,2.081,0,1,0-4.163,0V8.163H24.081a2.081,2.081,0,1,0,0,4.163Z" transform="translate(21.629 2.163)"/>
    </g>
    <g id="interfaz" transform="translate(898.63 1997.999)">
      <path id="Trazado_1235436" data-name="Trazado 1235436" d="M218.748,36H195.962a1.138,1.138,0,1,0,0,2.277h22.786a1.138,1.138,0,1,0,0-2.277Zm0,0" transform="translate(-172.647 -31.902)"/>
      <path id="Trazado_1235437" data-name="Trazado 1235437" d="M87.5,36a1.139,1.139,0,1,0,.8.333A1.145,1.145,0,0,0,87.5,36Zm0,0" transform="translate(-76.529 -31.902)"/>
      <path id="Trazado_1235438" data-name="Trazado 1235438" d="M50.748,36a1.139,1.139,0,1,0,.8.333A1.147,1.147,0,0,0,50.748,36Zm0,0" transform="translate(-43.962 -31.902)"/>
      <path id="Trazado_1235439" data-name="Trazado 1235439" d="M124.247,36a1.139,1.139,0,1,0,.8.333A1.149,1.149,0,0,0,124.247,36Zm0,0" transform="translate(-109.096 -31.902)"/>
      <path id="Trazado_1235440" data-name="Trazado 1235440" d="M262.81,438a1.139,1.139,0,1,0,.8.333A1.145,1.145,0,0,0,262.81,438Zm0,0" transform="translate(-231.886 -388.142)"/>
      <path id="Trazado_1235441" data-name="Trazado 1235441" d="M58.294,119.138A1.138,1.138,0,0,0,57.155,118H47.138A1.138,1.138,0,0,0,46,119.138v10.017a1.138,1.138,0,0,0,1.138,1.138H57.155a1.138,1.138,0,0,0,1.138-1.138Zm-2.277,8.879h-7.74v-7.74h7.74Zm0,0" transform="translate(-40.764 -104.567)"/>
      <path id="Trazado_1235442" data-name="Trazado 1235442" d="M193.155,118H183.138A1.138,1.138,0,0,0,182,119.138v10.017a1.138,1.138,0,0,0,1.138,1.138h10.017a1.138,1.138,0,0,0,1.138-1.138V119.138A1.138,1.138,0,0,0,193.155,118Zm-1.138,10.017h-7.74v-7.74h7.74Zm0,0" transform="translate(-161.283 -104.567)"/>
      <path id="Trazado_1235443" data-name="Trazado 1235443" d="M319.138,130.294h10.017a1.138,1.138,0,0,0,1.138-1.138V119.138A1.138,1.138,0,0,0,329.155,118H319.138A1.138,1.138,0,0,0,318,119.138v10.017A1.138,1.138,0,0,0,319.138,130.294Zm1.138-10.017h7.74v7.74h-7.74Zm0,0" transform="translate(-281.802 -104.567)"/>
      <path id="Trazado_1235444" data-name="Trazado 1235444" d="M58.294,265.155V255.138A1.138,1.138,0,0,0,57.155,254H47.138A1.138,1.138,0,0,0,46,255.138v10.017a1.138,1.138,0,0,0,1.138,1.138H57.155A1.138,1.138,0,0,0,58.294,265.155Zm-2.277-1.138h-7.74v-7.74h7.74Zm0,0" transform="translate(-40.764 -225.087)"/>
      <path id="Trazado_1235445" data-name="Trazado 1235445" d="M193.155,254H183.138A1.138,1.138,0,0,0,182,255.138v10.017a1.138,1.138,0,0,0,1.138,1.138h10.017a1.138,1.138,0,0,0,1.138-1.138V255.138A1.138,1.138,0,0,0,193.155,254Zm-1.138,10.017h-7.74v-7.74h7.74Zm0,0" transform="translate(-161.283 -225.087)"/>
      <path id="Trazado_1235446" data-name="Trazado 1235446" d="M57.711,48.062l-1.867-1.078a10.112,10.112,0,0,0,0-2.446l1.867-1.078a1.138,1.138,0,0,0,.417-1.555L55.352,37.1a1.138,1.138,0,0,0-1.555-.417l-.069.04V4.782A4.786,4.786,0,0,0,48.947,0H4.781A4.786,4.786,0,0,0,0,4.782V51a1.138,1.138,0,0,0,1.138,1.138H26.522a1.138,1.138,0,1,0,0-2.277H2.277V47.126h8.651a1.138,1.138,0,1,0,0-2.277H2.277V10.473H51.451V37.416a9.9,9.9,0,0,0-1.64-.885V34.377a1.138,1.138,0,0,0-1.138-1.138h-.181V30.052a1.138,1.138,0,0,0-1.138-1.138H37.336A1.138,1.138,0,0,0,36.2,30.052v7.285a1.157,1.157,0,0,0,.012.158L33.664,41.9a1.138,1.138,0,0,0,.417,1.555l1.867,1.078a10.112,10.112,0,0,0,0,2.446l-1.867,1.078a1.138,1.138,0,0,0-.417,1.555l2.776,4.809A1.138,1.138,0,0,0,38,54.842l1.867-1.078a9.937,9.937,0,0,0,2.119,1.225v2.154a1.138,1.138,0,0,0,1.138,1.138h5.553a1.138,1.138,0,0,0,1.138-1.138V54.989a9.9,9.9,0,0,0,2.119-1.225L53.8,54.842a1.138,1.138,0,0,0,1.555-.417l2.776-4.808a1.138,1.138,0,0,0-.417-1.555ZM2.289,8.2H2.276V4.781a2.507,2.507,0,0,1,2.5-2.5H48.947a2.507,2.507,0,0,1,2.5,2.5V8.2ZM46.215,31.19v2.049h-3.1a1.138,1.138,0,0,0-1.138,1.138v2.154a9.9,9.9,0,0,0-2.119,1.225l-1.388-.8V31.19ZM53.48,44.176a7.818,7.818,0,0,1,0,3.169,1.138,1.138,0,0,0,.545,1.217l1.563.9L53.949,52.3l-1.564-.9a1.137,1.137,0,0,0-1.328.137,7.687,7.687,0,0,1-2.74,1.585,1.138,1.138,0,0,0-.783,1.081V56H44.258V54.2a1.138,1.138,0,0,0-.783-1.081,7.683,7.683,0,0,1-2.74-1.585,1.138,1.138,0,0,0-1.328-.137l-1.564.9L36.2,49.464l1.562-.9a1.138,1.138,0,0,0,.546-1.217,7.818,7.818,0,0,1,0-3.169,1.138,1.138,0,0,0-.546-1.217l-1.562-.9,1.638-2.837,1.564.9a1.139,1.139,0,0,0,1.328-.137,7.685,7.685,0,0,1,2.74-1.584,1.138,1.138,0,0,0,.783-1.081v-1.8h3.276v1.8a1.138,1.138,0,0,0,.783,1.081,7.687,7.687,0,0,1,2.74,1.585,1.138,1.138,0,0,0,1.328.137l1.564-.9,1.639,2.837-1.562.9A1.138,1.138,0,0,0,53.48,44.176Zm0,0"/>
      <path id="Trazado_1235447" data-name="Trazado 1235447" d="M363.287,356.961a5.127,5.127,0,1,0,5.127,5.127A5.132,5.132,0,0,0,363.287,356.961Zm0,7.977a2.85,2.85,0,1,1,2.85-2.85A2.853,2.853,0,0,1,363.287,364.938Zm0,0" transform="translate(-317.391 -316.328)"/>
      <path id="Trazado_1235448" data-name="Trazado 1235448" d="M122.334,394.334a1.138,1.138,0,1,0,.8-.333A1.147,1.147,0,0,0,122.334,394.334Zm0,0" transform="translate(-108.113 -349.151)"/>
    </g>
    <g id="Enmascarar_grupo_1159140" data-name="Enmascarar grupo 1159140" transform="translate(7.491)" clip-path="url(#clip-path)">
      <g id="Grupo_1240217" data-name="Grupo 1240217" transform="translate(-489.909 1892.436)">
        <path id="Trazado_1235456" data-name="Trazado 1235456" d="M1646.61,701.394s10.908-15.421,12.6-20.5,3.761-25.576,6.958-28.4,4.7,1.881,4.326,6.958-.376,13.352-.376,13.352,32.723-14.293,35.92-14.669,3.2,3.761-1.316,6.958-10.72,7.711-10.72,7.711.752,2.633.376,3.949,1.5,0,2.069,1.88a7.324,7.324,0,0,1,0,3.761s1.128,1.316.188,3.761-3.2,4.89-3.2,5.454,1.881,2.445-5.454,6.206-12.224,3.949-13.917,5.83-12.788,15.233-12.788,15.233Z" transform="translate(-600.126 -347.082)" fill="#ffaf8a"/>
        <path id="Trazado_1235457" data-name="Trazado 1235457" d="M1767.357,800.947a1.364,1.364,0,0,1-1.1-.353,2.527,2.527,0,0,1-.495-2.061,4.848,4.848,0,0,1,2.047-3c1.13-.706,5.622-3.157,5.812-3.261a.564.564,0,1,1,.54.991c-.046.025-4.652,2.539-5.754,3.227a3.729,3.729,0,0,0-1.533,2.235,1.392,1.392,0,0,0,.264,1.166c.928.443,7.921-2.366,13.842-5.233a.564.564,0,0,1,.492,1.016C1776.229,798.212,1769.974,800.947,1767.357,800.947Z" transform="translate(-687.919 -450.678)" fill="#f29a77"/>
        <path id="Trazado_1235458" data-name="Trazado 1235458" d="M1761.7,765.1a2.921,2.921,0,0,1-1.965-.6,1.792,1.792,0,0,1-.538-1.732c.294-1.762,11.334-8.457,16.067-11.254a.564.564,0,1,1,.574.972c-7.314,4.322-15.125,9.429-15.534,10.5a.67.67,0,0,0,.183.677,3.392,3.392,0,0,0,2.779.07c1.518-.434,9.82-4.683,14-6.868a.564.564,0,1,1,.524,1c-.5.261-12.2,6.381-14.212,6.954A6.936,6.936,0,0,1,1761.7,765.1Z" transform="translate(-683.081 -420.633)" fill="#f29a77"/>
        <path id="Trazado_1235459" data-name="Trazado 1235459" d="M1754.036,744.867a4.177,4.177,0,0,1-2.025-.346c-.708-.472-1.692-1.669-.333-4.389,1.025-2.05,14.741-8.332,17.48-9.571a.564.564,0,0,1,.465,1.028c-6.66,3.012-16.316,7.809-16.936,9.047-.741,1.483-.759,2.474-.051,2.945.4.266,2.6.169,4.4-.089a.564.564,0,0,1,.16,1.117A24.546,24.546,0,0,1,1754.036,744.867Z" transform="translate(-677.068 -405.208)" fill="#f29a77"/>
        <path id="Trazado_1235460" data-name="Trazado 1235460" d="M1007.871,182.658s-32.072-4.289-43.633,24.8-8.95,35.241-8.95,35.241-18.087,4.662-21.443,17.528,2.8,19.019,2.8,19.019a20.066,20.066,0,0,0-4.289,21.443c4.848,13.052,26.1,18.087,26.1,18.087l95.283.932s16.222-.932,17.9-14.917-9.7-18.646-9.7-18.646a16.138,16.138,0,0,0,4.1-16.6c-3.17-10.256-13.425-11.561-13.425-11.561s2.238-24.054.373-42.887-18.2-30.049-25.173-32.445C1015.328,178.37,1007.871,182.658,1007.871,182.658Z" transform="translate(-72.626 0)"/>
        <path id="Trazado_1235461" data-name="Trazado 1235461" d="M1111.021,552.812c0,.846-18.9,39.775-18.9,39.775l-47.391-36.672s13.54-6.77,14.387-10.155c.6-2.37,3.261-15.278,4.807-22.782.666-3.2,1.117-5.428,1.117-5.428l36.108,6.488s-2.505,10.663-4.1,18.009a55.757,55.757,0,0,0-1.264,6.816C1096.071,549.709,1111.021,551.965,1111.021,552.812Z" transform="translate(-156.501 -248.242)" fill="#ffaf8a"/>
        <path id="Trazado_1235462" data-name="Trazado 1235462" d="M1154.95,524.039s-2.5,10.663-4.1,18.009c-2.663-.6-8.158-2.257-15.932-6.725a122.628,122.628,0,0,1-17.2-12.344c.666-3.2,1.117-5.428,1.117-5.428Z" transform="translate(-210.303 -248.243)" fill="#f29a77"/>
        <path id="Trazado_1235463" data-name="Trazado 1235463" d="M998.94,1309.245H832.4c2.33-11.856,8.9-44.649,14.361-66.049,6.771-26.517,23.13-46.829,23.13-46.829l.171-5.774v-.034l.021-.7.373-12.673,46.05-3.586,3.024-.234,45.146-3.515,1.649,7.767,2.3,10.851s11.848,22,16.925,45.135C989.769,1252.811,996.708,1295.367,998.94,1309.245Z" transform="translate(0 -729.03)" fill="#f29961"/>
        <path id="Trazado_1235464" data-name="Trazado 1235464" d="M906.83,642.677l39.211,31.312,9.873-34.133s27.645,1.128,34.98,7.334,26.517,75.6,26.517,75.6l45.7-38.365,14.1,24.26s-31.594,61.5-41.186,72.216-20.875,12.976-34.415,11.284-22.567-21.439-22.567-21.439.376,6.394.94,13.164-15.8,9.967-22.755,11.1-74.473,5.266-75.225,4.89-20.5-6.77-27.457-23.32-8.463-97.228,8.087-110.957S906.83,642.677,906.83,642.677Z" transform="translate(-12.677 -338.389)" fill="#e56b54"/>
        <g id="Grupo_1240201" data-name="Grupo 1240201" transform="translate(879.319 351.517)">
          <path id="Trazado_1235465" data-name="Trazado 1235465" d="M1010.844,830.934c1.319,19.545,3.119,39.052,5.289,58.52a.814.814,0,0,0,1.208.694c20.657-12.356,41.245-24.827,61.9-37.187a.679.679,0,0,0-.685-1.172c-20.653,12.359-41.374,24.608-62.024,36.972l1.208.693c-2.178-19.471-3.938-38.982-5.388-58.52-.072-.96-1.573-.971-1.507,0Z" transform="translate(-1010.842 -830.21)" fill="#cc5444"/>
        </g>
        <g id="Grupo_1240202" data-name="Grupo 1240202" transform="translate(869.964 399.366)">
          <path id="Trazado_1235466" data-name="Trazado 1235466" d="M1064.126,1012.566c-5.231,9.427-13.72,17.958-21.122,25.752a196.176,196.176,0,0,1-15.5,14.493c-13.795,11.681-32.32,23.318-51.373,20.482-.866-.129-1.239,1.2-.365,1.326,18.173,2.7,35.711-6.706,49.379-17.708a194,194,0,0,0,18.868-17.276c7.58-7.965,16.144-16.585,21.436-26.3.471-.862-.839-1.629-1.317-.77Z" transform="translate(-975.263 -1012.19)" fill="#cc5444"/>
        </g>
        <path id="Trazado_1235467" data-name="Trazado 1235467" d="M1279.69,786.47s6.958-3.2,9.591-10.155,5.454-14.293,7.523-16.926,3.385-17.49,6.582-19.182,3.385,1.88,3.385,5.454-1.317,14.669-1.317,14.669,29.338-13.917,31.03-13.352,2.257,3.009-.752,5.642-14.481,10.72-14.481,10.72,4.325,6.582,2.633,12.412-12.6,13.352-15.8,15.233-20.875,17.114-20.875,17.114Z" transform="translate(-329.682 -412.035)" fill="#ffaf8a"/>
        <g id="Grupo_1240203" data-name="Grupo 1240203" transform="translate(982.769 350.85)">
          <path id="Trazado_1235468" data-name="Trazado 1235468" d="M1412.581,827.719c-2.7,1.466-5.507,2.832-8.12,4.454a.357.357,0,0,0,.36.617c2.769-1.337,5.425-2.973,8.111-4.469.393-.218.043-.815-.352-.6Z" transform="translate(-1404.287 -827.673)" fill="#f29a77"/>
        </g>
        <g id="Grupo_1240204" data-name="Grupo 1240204" transform="translate(983.995 356.191)">
          <path id="Trazado_1235469" data-name="Trazado 1235469" d="M1418.4,848.039c-3.109,1.747-6.208,3.532-9.257,5.382a.408.408,0,0,0,.411.7c3.1-1.755,6.177-3.585,9.221-5.443a.373.373,0,0,0-.376-.643Z" transform="translate(-1408.949 -847.987)" fill="#f29a77"/>
        </g>
        <g id="Grupo_1240205" data-name="Grupo 1240205" transform="translate(985.058 363.499)">
          <path id="Trazado_1235470" data-name="Trazado 1235470" d="M1421.925,875.819a59.386,59.386,0,0,0-8.74,5.135c-.45.313-.041,1.045.436.746,2.866-1.8,5.791-3.48,8.68-5.237a.373.373,0,0,0-.376-.643Z" transform="translate(-1412.991 -875.779)" fill="#f29a77"/>
        </g>
        <g id="Grupo_1240206" data-name="Grupo 1240206" transform="translate(965.729 392.478)">
          <path id="Trazado_1235471" data-name="Trazado 1235471" d="M1345.418,986.378c-1.718,13.674-5.628,27.095-5.937,40.932a.448.448,0,0,0,.895,0c.422-13.857,4.359-27.2,5.849-40.932.056-.519-.744-.506-.807,0Z" transform="translate(-1339.482 -985.993)" fill="#cc5444"/>
        </g>
        <g id="Grupo_1240207" data-name="Grupo 1240207" transform="translate(990.542 384.171)">
          <path id="Trazado_1235472" data-name="Trazado 1235472" d="M1448.249,954.46a62.987,62.987,0,0,0-14.324,13.9c-.311.409.389.954.717.553a98.026,98.026,0,0,1,14.083-13.841c.34-.281-.11-.867-.475-.616Z" transform="translate(-1433.848 -954.399)" fill="#cc5444"/>
        </g>
        <g id="Grupo_1240208" data-name="Grupo 1240208" transform="translate(993.289 384.543)">
          <path id="Trazado_1235473" data-name="Trazado 1235473" d="M1453.266,955.862a90.131,90.131,0,0,1-8.658,3.856c-.55.208-.309,1.1.245.888a69.148,69.148,0,0,0,8.816-4.056c.452-.251.052-.918-.4-.689Z" transform="translate(-1444.297 -955.814)" fill="#cc5444"/>
        </g>
        <g id="Grupo_1240209" data-name="Grupo 1240209" transform="translate(869.365 411.6)">
          <path id="Trazado_1235474" data-name="Trazado 1235474" d="M988.482,1058.719c-2.457.077-4.487,2-6.452,3.292-2.957,1.951-5.98,3.833-8.855,5.9-.435.314-.048,1.024.429.735,2.391-1.452,4.692-3.059,7.021-4.608,2.236-1.486,5.1-4.22,7.855-4.529.494-.055.521-.809,0-.794Z" transform="translate(-972.986 -1058.719)" fill="#cc5444"/>
        </g>
        <g id="Grupo_1240210" data-name="Grupo 1240210" transform="translate(870.031 410.143)">
          <path id="Trazado_1235475" data-name="Trazado 1235475" d="M984.832,1053.2l-4.307,1.8c-1.338.559-3.058,1.649-4.527,1.168-.434-.142-.662.482-.3.713,1.053.675,2.1.214,3.181-.24,2.1-.884,4.179-1.8,6.268-2.695.42-.183.112-.924-.314-.745Z" transform="translate(-975.518 -1053.175)" fill="#cc5444"/>
        </g>
        <path id="Trazado_1235476" data-name="Trazado 1235476" d="M1102.946,234.806s-1.678,8.95-9.323,13.612-27.783,9.323-27.783,9.323l-2.238,8.2a4.36,4.36,0,0,0-5.407,2.424c-1.865,3.729-2.051,8.018-.56,10.256a9.292,9.292,0,0,0,4.289,3.17s0,15.1,2.237,19.392,14.687,18,27.6,20.325c16.6,2.984,25.545-4.848,31.885-10.628s11.934-24.24,14.172-32.632a72.877,72.877,0,0,0,1.965-11.314c.212-2.063.979-5.208.155-7.14-1.26-2.954-5.748-5.706-8.356-7.319a52.8,52.8,0,0,0-10.23-4.76C1113.584,244.978,1106.853,242.618,1102.946,234.806Z" transform="translate(-165.28 -39.841)" fill="#ffaf8a"/>
        <path id="Trazado_1235477" data-name="Trazado 1235477" d="M1114.571,403.463c-2.3-2.566-6-3.449-9.443-3.323a8.98,8.98,0,0,0-3.926.881c-2.421,1.294-3.591,4.688-2.162,7.032a7.066,7.066,0,0,0,2.65,2.337c3.679,2.082,8.589,2.456,11.991-.053a5.464,5.464,0,0,0,2.286-3.357,4.506,4.506,0,0,0-1.4-3.518Z" transform="translate(-196.073 -161.694)" fill="#fc8d7c"/>
        <path id="Trazado_1235478" data-name="Trazado 1235478" d="M1291.931,422.627c-2.3-2.566-6-3.449-9.444-3.323a8.979,8.979,0,0,0-3.926.881c-2.421,1.294-3.591,4.688-2.162,7.032a7.067,7.067,0,0,0,2.65,2.337c3.679,2.082,8.589,2.456,11.991-.053a5.464,5.464,0,0,0,2.286-3.357,4.5,4.5,0,0,0-1.4-3.518Z" transform="translate(-326.799 -175.819)" fill="#fc8d7c"/>
        <path id="Trazado_1235479" data-name="Trazado 1235479" d="M1194.873,470.832a16.774,16.774,0,0,1-5.732,7.32c-2.169,1.591-5.013,2.778-7.782,2.1a8.789,8.789,0,0,1-3.117-1.544,11.811,11.811,0,0,1-4.771-9.954,9.765,9.765,0,0,1,.929-3.691,147.367,147.367,0,0,0,21.348,2.739,16.606,16.606,0,0,1-.876,3.027Z" transform="translate(-251.38 -209.558)" fill="#fff"/>
        <path id="Trazado_1235480" data-name="Trazado 1235480" d="M1194.873,479.359a16.774,16.774,0,0,1-5.732,7.32c-2.169,1.591-5.013,2.778-7.782,2.1a8.789,8.789,0,0,1-3.117-1.544,11.811,11.811,0,0,1-4.771-9.954q.127-.33.28-.649a146.7,146.7,0,0,0,21.122,2.725Z" transform="translate(-251.38 -218.084)" fill="#fc8d7c"/>
        <path id="Trazado_1235481" data-name="Trazado 1235481" d="M1277.965,341.954a23.771,23.771,0,0,1,8.973-.346c2.622.339,5.679.848,7.451,2.917.376.439.126,1.308-.577,1.222-3.923-.481-7.864-.806-11.816-.946-.954-.034-5.012.429-5.244-1.591-.079-.672.626-1.124,1.213-1.255Z" transform="translate(-327.512 -118.364)"/>
        <path id="Trazado_1235482" data-name="Trazado 1235482" d="M1139.016,329.2a23.763,23.763,0,0,0-8.826-1.654c-2.643-.048-5.742.008-7.8,1.8a.732.732,0,0,0,.392,1.293c3.952.1,7.9.353,11.828.791.949.106,4.9,1.157,5.42-.807.172-.653-.456-1.2-1.016-1.419Z" transform="translate(-213.556 -108.188)"/>
        <g id="Grupo_1240211" data-name="Grupo 1240211" transform="translate(948.906 231.659)">
          <path id="Trazado_1235483" data-name="Trazado 1235483" d="M1279.73,382.8a14.153,14.153,0,0,0,5.627.809,8.512,8.512,0,0,0,3.316-.775,3.986,3.986,0,0,0,2.409-2.862c-1.049-1.772-3.424-2.186-5.287-2.984a9.181,9.181,0,0,0-4.9-.849c-1.591.236-5.05,4.126-5.1,4.217a15.508,15.508,0,0,0,3.935,2.444Z" transform="translate(-1275.718 -375.619)" fill="#fff"/>
          <path id="Trazado_1235484" data-name="Trazado 1235484" d="M1302.181,377.512a3,3,0,0,1,2.381,1.252,4.243,4.243,0,0,1,.763,2.633,3.209,3.209,0,0,1-.41,1.593,3.657,3.657,0,0,1-1.9,1.376,4.8,4.8,0,0,1-3.329.2,4.1,4.1,0,0,1-2.26-4.631,3.336,3.336,0,0,1,1.268-2.128,3.426,3.426,0,0,1,1.446-.518c.911-.136,1.855-.046,2.036.221Z" transform="translate(-1291.603 -376.475)"/>
          <path id="Trazado_1235485" data-name="Trazado 1235485" d="M1329.65,379.969a6.348,6.348,0,0,1-1.693,1.171c-.235.106-1.287.316-.92.771s1.286-.129,1.618-.355a3.8,3.8,0,0,0,1.237-1.419.149.149,0,0,0-.242-.169Z" transform="translate(-1313.429 -378.463)"/>
          <path id="Trazado_1235486" data-name="Trazado 1235486" d="M1334.17,386.086a6.341,6.341,0,0,1-1.693,1.171c-.235.106-1.287.316-.92.771s1.286-.129,1.618-.355a3.8,3.8,0,0,0,1.237-1.419.149.149,0,0,0-.242-.169Z" transform="translate(-1316.761 -382.971)"/>
          <path id="Trazado_1235487" data-name="Trazado 1235487" d="M1323.771,375.238a6.512,6.512,0,0,1-1.037,1.128,1.489,1.489,0,0,1-.692.349c-.239.033-.373-.03-.556.158a.229.229,0,0,0-.048.225l.021.07a.339.339,0,0,0,.257.231c1.169.136,2.017-.911,2.469-1.87.116-.249-.233-.531-.415-.29Z" transform="translate(-1309.351 -374.941)"/>
          <path id="Trazado_1235488" data-name="Trazado 1235488" d="M1290.68,380.771a8.516,8.516,0,0,0-7.048-5.33,8.361,8.361,0,0,0-7.283,3.18c-.569.809-1.185-.228-.64-1.03,1.731-2.544,5.712-3.605,9.078-3.109,3.481.513,6.348,3.246,6.632,6.209.039.414-.615.478-.739.08Z" transform="translate(-1275.498 -374.363)"/>
        </g>
        <g id="Grupo_1240212" data-name="Grupo 1240212" transform="translate(908.407 229.086)">
          <path id="Trazado_1235489" data-name="Trazado 1235489" d="M1126.007,373.969a14.158,14.158,0,0,0,5.663.5,8.515,8.515,0,0,0,3.269-.952,3.987,3.987,0,0,0,2.251-2.988c-1.143-1.713-3.537-2-5.44-2.7a9.184,9.184,0,0,0-4.937-.584c-1.576.321-4.821,4.393-4.866,4.486a15.513,15.513,0,0,0,4.061,2.228Z" transform="translate(-1121.821 -366.453)" fill="#fff"/>
          <path id="Trazado_1235490" data-name="Trazado 1235490" d="M1148.007,367.859a3,3,0,0,1,2.445,1.121,4.244,4.244,0,0,1,.9,2.588,3.212,3.212,0,0,1-.323,1.613,3.657,3.657,0,0,1-1.818,1.476,4.794,4.794,0,0,1-3.314.381,4.1,4.1,0,0,1-2.507-4.5,3.335,3.335,0,0,1,1.151-2.193,3.418,3.418,0,0,1,1.416-.6c.9-.185,1.848-.146,2.045.11Z" transform="translate(-1137.598 -366.83)"/>
          <path id="Trazado_1235491" data-name="Trazado 1235491" d="M1179.889,377.588a7.547,7.547,0,0,1-1.1.708,3.613,3.613,0,0,1-.675.283c-.21.065-.375.067-.532.236a.283.283,0,0,0,.018.4c.429.311,1.065-.032,1.458-.282a3.065,3.065,0,0,0,1.047-1.148c.071-.123-.094-.289-.213-.193Z" transform="translate(-1162.772 -374.146)"/>
          <path id="Trazado_1235492" data-name="Trazado 1235492" d="M1175.333,368.958a6.475,6.475,0,0,1-1.661,1.282c-.224.117-1.219.358-.855.795s1.265-.175,1.582-.416a3.807,3.807,0,0,0,1.176-1.492.149.149,0,0,0-.242-.169Z" transform="translate(-1159.258 -367.77)"/>
          <path id="Trazado_1235493" data-name="Trazado 1235493" d="M1169.176,364.705a6.039,6.039,0,0,1-1,1.186,1.352,1.352,0,0,1-.647.337c-.227.037-.349-.006-.511.179a.229.229,0,0,0-.048.225l.022.063a.363.363,0,0,0,.35.237c1.124.069,1.908-1.072,2.285-1.992a.255.255,0,0,0-.452-.235Z" transform="translate(-1155 -364.578)"/>
          <path id="Trazado_1235494" data-name="Trazado 1235494" d="M1136.769,371.1a8.515,8.515,0,0,0-7.325-4.942,8.361,8.361,0,0,0-7.1,3.568c-.524.839-1.2-.164-.694-.994,1.591-2.633,5.509-3.908,8.9-3.594,3.5.324,6.514,2.9,6.957,5.843.063.412-.589.511-.734.12Z" transform="translate(-1121.472 -364.955)"/>
        </g>
        <path id="Trazado_1235495" data-name="Trazado 1235495" d="M1217.457,379.531a20.279,20.279,0,0,0,.678,7.7,25.184,25.184,0,0,1,.688,4.3,3.72,3.72,0,0,1-.061,1.638c-.266.446-.861.251-1.373.15-3.162-.626-3.9,4.323-.668,4.708,3.866.46,6.4-1.778,6.048-6.089-.349-4.229-2.014-8.38-3.234-12.38-.3-.974-1.875-1.258-2.077-.031Z" transform="translate(-281.726 -145.912)" fill="#f9a280"/>
        <path id="Trazado_1235496" data-name="Trazado 1235496" d="M1226.358,380.794a103.252,103.252,0,0,1,2.384,13.961c.2,2.85-2.29,3.671-4.743,4.359a.793.793,0,0,1-.4-1.535c2.1-.589,3.52-1,3.478-3.428a33.123,33.123,0,0,0-.663-4.505c-.456-2.831-.995-5.647-1.591-8.452-.209-1,1.318-1.4,1.531-.4Z" transform="translate(-287.924 -147.018)"/>
        <g id="Grupo_1240213" data-name="Grupo 1240213" transform="translate(860.215 474.895)">
          <path id="Trazado_1235497" data-name="Trazado 1235497" d="M954.615,1299.921c-7.6,26.147-14,53.4-16.427,80.571-.068.768,1.235.956,1.359.184,4.375-27.14,8.951-53.871,16.376-80.394a.679.679,0,0,0-1.309-.361Z" transform="translate(-938.186 -1299.443)" fill="#e07e48"/>
        </g>
        <g id="Grupo_1240214" data-name="Grupo 1240214" transform="translate(874.336 499.924)">
          <path id="Trazado_1235498" data-name="Trazado 1235498" d="M995.239,1395.147c-1.172,7.056-2.6,14.15-3.343,21.265-.085.814,1.261.991,1.429.193,1.459-6.938,2.252-14.067,3.283-21.081.13-.887-1.219-1.284-1.369-.377Z" transform="translate(-991.892 -1394.633)" fill="#e07e48"/>
        </g>
        <g id="Grupo_1240215" data-name="Grupo 1240215" transform="translate(947.613 467.497)">
          <path id="Trazado_1235499" data-name="Trazado 1235499" d="M1270.611,1272.159c8.791,29.868,14.925,60.117,19.782,90.843.134.849,1.62.659,1.515-.205-3.729-30.8-10.873-61.369-19.963-91.005a.692.692,0,0,0-1.334.368Z" transform="translate(-1270.579 -1271.306)" fill="#e07e48"/>
        </g>
        <g id="Grupo_1240216" data-name="Grupo 1240216" transform="translate(962.746 489.858)">
          <path id="Trazado_1235500" data-name="Trazado 1235500" d="M1328.167,1357.121c2.591,8.139,4.991,16.419,8.014,24.408.3.786,1.521.487,1.284-.354-2.323-8.222-5.322-16.306-8.082-24.389-.259-.761-1.463-.443-1.216.335Z" transform="translate(-1328.134 -1356.351)" fill="#e07e48"/>
        </g>
      </g>
    </g>
  </g>
</svg>
